<svg xmlns="http://www.w3.org/2000/svg" fill="#fff" viewBox="0 0 18 21" class="absolute object-contain"><path d="M16.458 4.12 10.401.631c-.921-.526-2.04-.526-2.896 0l-6.057 3.49A2.9 2.9 0 0 0 0 6.621v7.044c0 1.053.527 1.975 1.448 2.502l6.057 3.489c.921.526 2.04.526 2.896 0l6.057-3.49a2.9 2.9 0 0 0 1.448-2.501V6.622a2.82 2.82 0 0 0-1.448-2.502M5.793 13.073a.9.9 0 0 1-.921.922.9.9 0 0 1-.922-.921V9.387a.9.9 0 0 1 .922-.922.9.9 0 0 1 .921.922zm2.7-1.448a.9.9 0 0 1-.922.922.9.9 0 0 1-.922-.922V6.36a.9.9 0 0 1 .922-.922.9.9 0 0 1 .921.922zm2.764 2.304a.9.9 0 0 1-.921.922.9.9 0 0 1-.922-.922V8.597a.9.9 0 0 1 .922-.922.9.9 0 0 1 .921.922zm2.7-2.304a.9.9 0 0 1-.922.922.9.9 0 0 1-.922-.922V6.36a.9.9 0 0 1 .922-.922.9.9 0 0 1 .921.922z"></path></svg>