<svg width="133" height="32" viewBox="0 0 133 32" fill="none" xmlns="http://www.w3.org/2000/svg">
<g clip-path="url(#clip0_2419_14594)">
<g clip-path="url(#clip1_2419_14594)">
<path d="M81.4995 10.2888C81.4993 10.2763 81.499 10.2637 81.4987 10.2512C81.4987 10.2381 81.4982 10.2246 81.4977 10.2115C81.4977 10.2019 81.4972 10.1922 81.4968 10.1824C81.4962 10.1616 81.4952 10.141 81.494 10.1202C81.4927 10.0954 81.4912 10.0704 81.4896 10.0458C81.4881 10.021 81.4861 9.99616 81.4841 9.97152C81.4819 9.94688 81.4798 9.92224 81.4773 9.8976C81.4751 9.8752 81.4727 9.8528 81.47 9.8304C81.4698 9.82768 81.4693 9.8248 81.4692 9.82224C81.4667 9.80064 81.4639 9.77904 81.4611 9.75744C81.4606 9.75392 81.4602 9.75072 81.4597 9.74736C81.4568 9.72512 81.4536 9.7032 81.4503 9.68112C81.4498 9.67904 81.4496 9.67696 81.4495 9.67488C81.4465 9.65536 81.4433 9.63584 81.44 9.61632C81.439 9.60976 81.4379 9.60288 81.4369 9.59616C81.4332 9.57536 81.4296 9.55456 81.4258 9.53392C81.4256 9.53248 81.4253 9.5312 81.4251 9.52976C81.4211 9.50816 81.417 9.48656 81.4125 9.46496C81.4119 9.46048 81.4109 9.45616 81.41 9.45152C81.4069 9.43584 81.4036 9.42048 81.4004 9.40512C81.3974 9.3912 81.3945 9.37696 81.3913 9.36304C81.3892 9.3536 81.387 9.34432 81.3849 9.33488C81.3819 9.32112 81.3787 9.30752 81.3751 9.29376C81.3713 9.27712 81.3671 9.26048 81.363 9.24384C81.3575 9.22192 81.3519 9.19984 81.3459 9.17792C81.3439 9.17024 81.3419 9.16272 81.3398 9.15504C81.336 9.14064 81.3318 9.12608 81.3279 9.11168C81.3249 9.10144 81.3219 9.0912 81.3189 9.08064C81.3149 9.0664 81.3106 9.05248 81.3063 9.03824C81.3042 9.0312 81.302 9.024 81.2999 9.01712C81.2941 8.99856 81.2884 8.98016 81.2825 8.96176C81.2727 8.93056 81.2623 8.89952 81.2513 8.86848C81.2462 8.85328 81.241 8.83824 81.2356 8.82304C81.2275 8.8 81.2192 8.77728 81.2104 8.7544C81.2021 8.732 81.1937 8.70976 81.1849 8.68736C81.1759 8.66416 81.1667 8.64112 81.1572 8.61808C81.1438 8.5856 81.13 8.55312 81.1158 8.5208C81.1093 8.5056 81.1025 8.49056 81.0957 8.47536C81.0716 8.42144 81.0462 8.368 81.0197 8.31504C81.0131 8.3016 81.0063 8.28832 80.9995 8.27488C80.9897 8.25584 80.9799 8.23648 80.9697 8.21728C80.962 8.20288 80.9543 8.18848 80.9465 8.17408C80.9415 8.1648 80.9367 8.15552 80.9316 8.1464C80.9236 8.13248 80.916 8.11824 80.9079 8.10432C80.9042 8.0976 80.9003 8.09072 80.8961 8.08384C80.8877 8.06864 80.8787 8.05344 80.8698 8.03824C80.867 8.03312 80.8638 8.02768 80.8607 8.02256C80.8532 8.0096 80.8456 7.9968 80.8376 7.98416C80.8297 7.97056 80.8214 7.95696 80.8129 7.94352C80.803 7.92736 80.7929 7.91104 80.7825 7.89504C80.7719 7.87792 80.7609 7.86112 80.7502 7.84448C80.7492 7.84288 80.748 7.84112 80.747 7.83952C80.7342 7.82 80.7213 7.80048 80.7081 7.78112C80.6953 7.76208 80.6824 7.74304 80.6691 7.72416C80.6662 7.72 80.6632 7.71568 80.6602 7.71136C80.6483 7.69424 80.6362 7.67744 80.6241 7.66064C80.6107 7.64208 80.5972 7.62384 80.5838 7.6056C80.5644 7.57984 80.545 7.55424 80.525 7.5288C80.5137 7.51392 80.5023 7.49936 80.4905 7.4848C80.4142 7.3888 80.3336 7.29536 80.2493 7.20512C80.2327 7.1872 80.2158 7.16928 80.1989 7.15184C80.1729 7.12464 80.1466 7.09792 80.1199 7.07152C80.108 7.05952 80.0957 7.04752 80.0835 7.03568C80.0679 7.02064 80.0522 7.00544 80.0364 6.99072C80.0245 6.97936 80.0126 6.96832 80.0005 6.95728C79.9748 6.93328 79.9488 6.90976 79.9224 6.8864C79.9082 6.87392 79.8939 6.86128 79.8794 6.8488C79.8764 6.8464 79.8736 6.84384 79.8706 6.84144C79.8527 6.82576 79.8346 6.81056 79.8162 6.79536C79.7975 6.77968 79.7786 6.76416 79.7596 6.74864C79.7587 6.748 79.7579 6.74736 79.7573 6.74672C79.738 6.73104 79.7187 6.71584 79.6994 6.70064C79.6805 6.6856 79.6613 6.67088 79.6419 6.65632C79.64 6.65488 79.6385 6.6536 79.6368 6.65248C79.6176 6.63792 79.5985 6.62368 79.5792 6.6096C79.5591 6.59472 79.5389 6.58016 79.5187 6.56576C79.5172 6.5648 79.5159 6.56384 79.5147 6.56288C79.4976 6.55072 79.4806 6.53888 79.4633 6.52688C79.4546 6.52096 79.4461 6.5152 79.4373 6.50928C79.4224 6.4992 79.4075 6.48912 79.3924 6.47904C79.3714 6.46512 79.35 6.45104 79.3288 6.43728C79.2857 6.40976 79.2427 6.38288 79.1988 6.35664C79.1549 6.3304 79.1105 6.30464 79.0656 6.27952L76.4033 4.79504L73.8493 3.37104L68.9332 0.62992C68.1807 0.20992 67.3406 0 66.4999 0C65.6593 0 64.8191 0.20992 64.0661 0.62976L56.602 4.79168L53.9338 6.2792C52.4278 7.1192 51.5 8.67104 51.5 10.3504V21.6498C51.5 21.6702 51.5002 21.6907 51.5005 21.7112C51.5007 21.7237 51.501 21.7363 51.5013 21.7488C51.5013 21.7619 51.5018 21.7754 51.5023 21.7885C51.5023 21.7981 51.5028 21.8078 51.5031 21.8176C51.5046 21.8632 51.5071 21.9088 51.5104 21.9542C51.5119 21.979 51.5139 22.0038 51.5159 22.0285C51.5181 22.0531 51.5202 22.0778 51.5227 22.1024C51.5249 22.1248 51.5273 22.1472 51.53 22.1696C51.5302 22.1723 51.5305 22.1752 51.5308 22.1778C51.5333 22.1994 51.5361 22.221 51.5389 22.2426C51.5391 22.2461 51.5398 22.2493 51.5403 22.2526C51.5432 22.2749 51.5464 22.2968 51.5497 22.3189C51.5499 22.321 51.5502 22.323 51.5505 22.3251C51.5535 22.3446 51.5567 22.3642 51.56 22.3837C51.5608 22.3904 51.5621 22.3973 51.5631 22.4038C51.5668 22.4246 51.5704 22.4454 51.5742 22.4661C51.5742 22.4675 51.5744 22.4688 51.5749 22.4702C51.5789 22.4918 51.583 22.5134 51.5875 22.535C51.5881 22.5395 51.589 22.5438 51.59 22.5485C51.5931 22.5642 51.5964 22.5795 51.5996 22.5949C51.6026 22.6088 51.6055 22.623 51.6087 22.637C51.6107 22.6464 51.6127 22.6558 51.6151 22.6651C51.6181 22.6789 51.6213 22.6925 51.6249 22.7062C51.6287 22.7229 51.6329 22.7395 51.637 22.7562C51.6425 22.7781 51.6481 22.8002 51.6541 22.8221C51.6561 22.8298 51.6579 22.8373 51.6602 22.845C51.664 22.8594 51.6682 22.8739 51.6721 22.8883C51.6751 22.8986 51.6779 22.9091 51.6811 22.9194C51.6851 22.9336 51.6894 22.9475 51.6937 22.9618C51.6957 22.9688 51.698 22.976 51.7001 22.9829C51.7059 23.0014 51.7116 23.0198 51.7175 23.0382C51.7273 23.0694 51.7377 23.1008 51.7487 23.1315C51.7538 23.1467 51.759 23.1618 51.7644 23.177C51.7725 23.2 51.7808 23.2227 51.7896 23.2456C51.7977 23.268 51.8063 23.2904 51.8151 23.3126C51.8241 23.3358 51.8333 23.3589 51.8428 23.3819C51.8562 23.4146 51.87 23.4469 51.8844 23.4792C51.8908 23.4944 51.8976 23.5094 51.9044 23.5246C51.9286 23.5786 51.954 23.6322 51.9805 23.685C51.9871 23.6984 51.9939 23.7117 52.0007 23.7251C52.0104 23.7445 52.0202 23.7638 52.0305 23.7827C52.0381 23.7971 52.0459 23.8115 52.0537 23.8259C52.0585 23.8354 52.0635 23.8446 52.0686 23.8536C52.0766 23.8675 52.0842 23.8818 52.0923 23.8957C52.0961 23.9027 52.0999 23.9094 52.1041 23.9162C52.1125 23.9314 52.1214 23.9466 52.1304 23.9618C52.1332 23.967 52.1364 23.9725 52.1395 23.9774C52.147 23.9904 52.1546 24.0032 52.1625 24.0158C52.1703 24.0294 52.1788 24.043 52.1872 24.0565C52.197 24.073 52.2073 24.089 52.2177 24.105C52.2283 24.1221 52.2392 24.1389 52.25 24.1555C52.251 24.1571 52.2522 24.1589 52.2532 24.1605C52.2659 24.18 52.2788 24.1995 52.2921 24.2189C52.3049 24.2379 52.3178 24.257 52.331 24.2758C52.334 24.2802 52.337 24.2845 52.34 24.2886C52.3519 24.3058 52.364 24.3226 52.3761 24.3394C52.3895 24.3579 52.4029 24.3762 52.4164 24.3944C52.4357 24.4203 52.4551 24.4459 52.4752 24.4712C52.4864 24.4859 52.4979 24.5006 52.5096 24.5152C52.586 24.6114 52.6665 24.7046 52.7508 24.7949C52.7674 24.8128 52.7843 24.8307 52.8012 24.8482C52.8269 24.8754 52.8534 24.9021 52.8802 24.9285C52.8922 24.9405 52.9044 24.9525 52.9167 24.9643C52.9323 24.9795 52.948 24.9946 52.9637 25.0093C52.9757 25.0206 52.9876 25.0317 52.9997 25.0427C53.0255 25.0667 53.0514 25.0904 53.0779 25.1136C53.0921 25.1264 53.1066 25.1389 53.1211 25.1512C53.1239 25.1539 53.1266 25.1563 53.1296 25.1586C53.1475 25.1742 53.1655 25.1894 53.1839 25.2046C53.2026 25.2203 53.2215 25.2358 53.2406 25.2514C53.2414 25.2522 53.2421 25.2528 53.2429 25.2533C53.2621 25.269 53.2815 25.2842 53.3007 25.2994C53.3196 25.3144 53.3388 25.3291 53.3582 25.3437C53.3599 25.3451 53.3617 25.3464 53.3634 25.3475C53.3826 25.3621 53.4016 25.3763 53.421 25.3904C53.4411 25.4051 53.4613 25.4198 53.4815 25.4342C53.4828 25.4352 53.4843 25.4363 53.4855 25.4371C53.5025 25.4493 53.5196 25.4611 53.5368 25.4731C53.5453 25.479 53.554 25.4851 53.5628 25.4907C53.5777 25.5008 53.5926 25.5109 53.6077 25.521C53.6288 25.5349 53.6501 25.549 53.6713 25.5627C53.7141 25.5902 53.7575 25.6171 53.8014 25.6434C53.8453 25.6696 53.8897 25.6954 53.9346 25.7205L56.5968 27.205L64.067 31.3702C64.82 31.7902 65.6604 32 66.5007 32C67.341 32 68.1815 31.7901 68.9345 31.3702L76.3987 27.2083L79.0669 25.7208C80.5729 24.881 81.5007 23.3291 81.5007 21.6498V10.3506C81.5007 10.3301 81.5005 10.3094 81.5002 10.289L81.4995 10.2888ZM78.9459 21.6496C78.9459 22.4453 78.5028 23.1867 77.7892 23.5845L76.398 24.3602L67.6568 29.2341C67.6457 29.2403 67.635 29.2462 67.6239 29.2522C67.6017 29.2642 67.5793 29.2755 67.5568 29.2867C67.5455 29.2923 67.5342 29.2978 67.523 29.3032C67.4663 29.3304 67.4085 29.355 67.35 29.3771C67.3266 29.3862 67.3029 29.3947 67.2791 29.4029C67.2554 29.411 67.2317 29.4189 67.2075 29.4262C66.9797 29.497 66.741 29.5333 66.5001 29.5333C66.2592 29.5333 66.0206 29.497 65.7926 29.4262C65.7807 29.4226 65.7686 29.4186 65.7567 29.4147C65.7088 29.399 65.6616 29.3821 65.6152 29.3634C65.5803 29.3496 65.5456 29.3347 65.5115 29.3192C65.4885 29.3086 65.4659 29.2978 65.4434 29.2867C65.4209 29.2757 65.3985 29.2642 65.3763 29.2522C65.3652 29.2462 65.3544 29.2402 65.3433 29.2341L55.211 23.5845C54.4972 23.1867 54.0542 22.4453 54.0542 21.6496V10.3502C54.0542 9.55456 54.4974 8.81312 55.211 8.41536L56.6021 7.63968L65.3432 2.76592C65.3543 2.75968 65.365 2.75376 65.3761 2.74784C65.3983 2.73584 65.4205 2.72448 65.4432 2.71328C65.4545 2.70768 65.4658 2.70224 65.477 2.6968C65.5337 2.6696 65.5915 2.64496 65.65 2.62288C65.6737 2.61408 65.6972 2.60544 65.7209 2.59712C65.7446 2.58896 65.7683 2.58112 65.7925 2.57376C66.0205 2.5032 66.2592 2.46672 66.4999 2.46672C66.7406 2.46672 66.9797 2.50336 67.2073 2.57376C67.2193 2.57744 67.2314 2.58144 67.2433 2.58528C67.291 2.60096 67.3382 2.61792 67.3848 2.63664C67.4197 2.6504 67.4544 2.66528 67.4885 2.6808C67.5112 2.69136 67.5341 2.70224 67.5566 2.71328C67.5791 2.72432 67.6015 2.73584 67.6237 2.74784C67.6348 2.75376 67.6456 2.75984 67.6567 2.76592L73.8498 6.21904L76.4038 7.6432L77.789 8.41552C78.5028 8.81328 78.9458 9.55488 78.9458 10.3506V21.6498L78.9459 21.6496ZM65.6502 2.62272C65.5917 2.64512 65.534 2.66976 65.4772 2.69664C65.5339 2.66944 65.5917 2.6448 65.6502 2.62272ZM62.9856 14.5603C62.9856 14.0125 62.5257 13.5683 61.9584 13.5683C61.3912 13.5683 60.9312 14.0125 60.9312 14.5603V18.4698C60.9312 19.0176 61.3912 19.4618 61.9584 19.4618C62.5257 19.4618 62.9856 19.0176 62.9856 18.4698V14.5603ZM66.0133 11.3122C66.0133 10.7643 65.5534 10.3202 64.9861 10.3202C64.4189 10.3202 63.959 10.7643 63.959 11.3122V16.9771C63.959 17.525 64.4189 17.9691 64.9861 17.9691C65.5534 17.9691 66.0133 17.525 66.0133 16.9771V11.3122ZM69.0409 13.7629C69.0409 13.215 68.581 12.7709 68.0137 12.7709C67.4464 12.7709 66.9865 13.215 66.9865 13.7629V19.4278C66.9865 19.9757 67.4464 20.4198 68.0137 20.4198C68.581 20.4198 69.0409 19.9757 69.0409 19.4278V13.7629ZM72.0686 11.3122C72.0686 10.7643 71.6087 10.3202 71.0414 10.3202C70.4741 10.3202 70.0142 10.7643 70.0142 11.3122V16.9771C70.0142 17.525 70.4741 17.9691 71.0414 17.9691C71.6087 17.9691 72.0686 17.525 72.0686 16.9771V11.3122ZM59.6022 22.2285C59.6022 21.752 60.0021 21.3658 60.4955 21.3658H72.5047C72.998 21.3658 73.398 21.752 73.398 22.2285C73.398 22.705 72.998 23.0912 72.5047 23.0912H60.4955C60.0021 23.0912 59.6022 22.705 59.6022 22.2285ZM74.4502 8.94672C74.4502 9.18528 74.2499 9.37904 74.0025 9.37904H58.9955C58.7485 9.37904 58.5478 9.18528 58.5478 8.94672C58.5478 8.78624 58.6385 8.64624 58.7727 8.57152C58.773 8.5712 58.7731 8.5712 58.7735 8.57104L58.8273 8.54592C58.8273 8.54592 58.8278 8.54544 58.8282 8.5456L66.1122 4.43712C66.1122 4.43712 66.1127 4.4368 66.1131 4.43664C66.23 4.3824 66.3614 4.35184 66.4999 4.35184C66.6384 4.35184 66.77 4.3824 66.8868 4.43664C66.8871 4.43696 66.8873 4.43712 66.8876 4.43712L74.1843 8.5512C74.1858 8.55168 74.1871 8.55248 74.1884 8.55312L74.2134 8.56496C74.2134 8.56496 74.2153 8.56576 74.2159 8.56624C74.3556 8.63952 74.4502 8.7824 74.4502 8.94656V8.94672ZM58.3242 23.0912C58.3242 22.6147 58.7241 22.2285 59.2175 22.2285H73.7827C74.2761 22.2285 74.676 22.6147 74.676 23.0912C74.676 23.5677 74.2761 23.9539 73.7827 23.9539H59.2173C58.7239 23.9539 58.324 23.5677 58.324 23.0912H58.3242Z" fill="url(#paint0_linear_2419_14594)"/>
</g>
</g>
<defs>
<linearGradient id="paint0_linear_2419_14594" x1="51.5" y1="32" x2="81.5007" y2="32" gradientUnits="userSpaceOnUse">
<stop offset="0.25" stop-color="#467BFF"/>
<stop offset="1" stop-color="#75D9D9"/>
</linearGradient>
<clipPath id="clip0_2419_14594">
<rect width="132" height="32" fill="white" transform="translate(0.5)"/>
</clipPath>
<clipPath id="clip1_2419_14594">
<rect width="30" height="32" fill="white" transform="translate(51.5)"/>
</clipPath>
</defs>
</svg>
