<svg width="92" height="22" viewBox="0 0 92 22" fill="none" xmlns="http://www.w3.org/2000/svg">
<g clip-path="url(#clip0_2419_13913)">
<path d="M89.845 4.31721L82.9566 0.432936C81.9326 -0.144475 80.6715 -0.144475 79.6474 0.432936L72.7591 4.31721C71.7351 4.89462 71.1045 5.96139 71.1045 7.11622V14.8843C71.1045 16.0391 71.7351 17.1059 72.7591 17.6833L79.6474 21.5675C80.6715 22.145 81.9326 22.145 82.9566 21.5675L89.845 17.6833C90.869 17.1059 91.4996 16.0391 91.4996 14.8843V7.11622C91.4996 5.96139 90.869 4.89462 89.845 4.31721ZM77.6935 14.2188C77.6935 14.788 77.2213 15.2491 76.6386 15.2491C76.0558 15.2491 75.5837 14.788 75.5837 14.2188V10.1589C75.5837 9.58979 76.0558 9.12864 76.6386 9.12864C77.2213 9.12864 77.6935 9.58979 77.6935 10.1589V14.2188ZM80.8025 12.669C80.8025 13.2381 80.3303 13.6993 79.7476 13.6993C79.1648 13.6993 78.6926 13.2381 78.6926 12.669V6.78592C78.6926 6.21678 79.1648 5.75563 79.7476 5.75563C80.3303 5.75563 80.8025 6.21678 80.8025 6.78592V12.669ZM83.9114 15.2141C83.9114 15.7832 83.4393 16.2444 82.8565 16.2444C82.2738 16.2444 81.8016 15.7832 81.8016 15.2141V9.331C81.8016 8.76186 82.2738 8.30071 82.8565 8.30071C83.4393 8.30071 83.9114 8.76186 83.9114 9.331V15.2141ZM87.0204 12.669C87.0204 13.2381 86.5483 13.6993 85.9655 13.6993C85.3828 13.6993 84.9106 13.2381 84.9106 12.669V6.78592C84.9106 6.21678 85.3828 5.75563 85.9655 5.75563C86.5483 5.75563 87.0204 6.21678 87.0204 6.78592V12.669Z" fill="url(#paint0_linear_2419_13913)"/>
<path d="M48.1287 9.50463C48.5676 8.80756 48.7937 8.056 48.7937 7.24217C48.7937 6.62439 48.6557 6.01536 48.3808 5.4394C48.0002 4.59883 47.4329 3.99709 46.6774 3.62593C46.0319 3.30877 45.0018 3.15068 43.5838 3.15068H34.7291V18.7456L37.9357 18.7549H43.3886C44.7179 18.7549 45.7151 18.6362 46.3955 18.4139C47.0688 18.1823 47.6187 17.78 48.0401 17.1851C48.5342 16.4978 48.7757 15.6441 48.7757 14.6225C48.7757 12.8738 48.0067 11.6479 46.4597 10.9581C47.1311 10.6911 47.6899 10.2085 48.1283 9.50415L48.1287 9.50463ZM44.2816 15.5964C44.0869 15.7472 43.8782 15.8493 43.6506 15.898C43.4244 15.9466 43.0658 15.9773 42.5787 15.9773H37.9367V12.3377H42.6534C43.4314 12.3377 43.9898 12.4481 44.3304 12.6607C44.8006 12.9545 45.0267 13.421 45.0267 14.0553C45.0267 14.6897 44.7847 15.2252 44.2816 15.5964ZM44.2816 9.18796C44.0784 9.33778 43.8672 9.44091 43.6411 9.48955C43.4239 9.53625 43.0658 9.56787 42.5782 9.56787H37.9362V5.9278H42.6529C43.4309 5.9278 43.9893 6.03822 44.3299 6.25274C44.8001 6.54656 45.0262 7.0116 45.0262 7.64544C45.0262 8.27928 44.7842 8.8168 44.2811 9.18796H44.2816ZM57.6728 3.17986C55.3971 3.17986 53.7445 3.62399 52.595 4.5137C50.9887 5.77651 50.1021 8.06864 50.1021 11.0403C50.1021 14.012 50.9887 16.327 52.6194 17.567C53.7943 18.48 55.0624 18.7841 57.5304 18.7841H64.6698V9.52069H56.8112V12.3032H61.2659V16.0001H58.2003C56.6433 16.0001 55.6143 15.6961 54.9912 15.0647C54.272 14.3156 53.8411 12.6787 53.8411 10.7363C53.8411 7.32098 55.04 5.96428 58.0817 5.96428H64.6698V3.17986H57.6733H57.6728ZM27.517 3.17986H32.4897V18.7875H29.2388V7.06851L25.0525 18.7875H21.5481L17.5983 7.06851V18.7875L14.3474 18.7773V3.17986H19.3326L23.3177 15.36L27.5165 3.17986H27.517ZM7.54971 2.98674C8.36058 2.98674 9.20132 3.08938 10.072 3.29466C10.9426 3.50043 11.7081 3.85943 12.3691 4.37263L10.2069 6.94593C9.84683 6.63801 9.43342 6.41473 8.96822 6.27512C8.50253 6.13599 8.02985 6.05184 7.54921 6.02217V9.51923L9.71135 10.1351C10.7025 10.4284 11.494 10.9085 12.0877 11.5759C12.6804 12.2433 12.9772 13.0902 12.9772 14.1161C12.9772 14.8935 12.8343 15.5755 12.5494 16.1616C12.264 16.7483 11.874 17.2469 11.3784 17.6575C10.8828 18.068 10.3046 18.391 9.64411 18.6255C8.98317 18.86 8.28487 19.0137 7.54971 19.0876V20.6272H6.06346V19.0876C5.07279 19.0876 4.08511 18.9558 3.10192 18.6916C2.11822 18.4275 1.25157 17.9659 0.500977 17.3058L2.88824 14.6882C3.27823 15.1576 3.7514 15.4908 4.30725 15.6888C4.86261 15.8868 5.44834 16.0079 6.06396 16.0517V12.3343L4.41982 11.8503C3.27873 11.4986 2.41159 11.0034 1.81838 10.3656C1.22518 9.72791 0.928822 8.85182 0.928822 7.73737C0.928822 7.04808 1.07127 6.42543 1.35667 5.86796C1.64156 5.31098 2.0211 4.83427 2.49377 4.4383C2.96644 4.04233 3.51432 3.7203 4.13791 3.47076C4.761 3.2217 5.40252 3.0602 6.06346 2.98674V1.44714H7.54971V2.98674ZM6.06296 6.08832C5.64259 6.17637 5.26704 6.33009 4.93682 6.54996C4.6066 6.76983 4.44124 7.11472 4.44124 7.58366C4.44124 7.92125 4.50897 8.1849 4.64395 8.37559C4.77893 8.56628 4.93682 8.71659 5.11662 8.82653C5.29693 8.93646 5.47723 9.01332 5.65703 9.05759C5.83684 9.10186 5.97231 9.13834 6.06246 9.16753V6.08832H6.06296ZM7.54971 16.0084C7.77484 15.9646 8.00346 15.9024 8.23656 15.8216C8.46916 15.7414 8.67586 15.6348 8.85616 15.5025C9.03646 15.3707 9.18289 15.2131 9.29546 15.0297C9.40802 14.8468 9.46431 14.6303 9.46431 14.3808C9.46431 14.1463 9.42297 13.9483 9.34029 13.7868C9.2576 13.6258 9.14902 13.4901 9.01355 13.3797C8.87857 13.2697 8.72068 13.1744 8.54038 13.0936C8.36008 13.0134 8.1723 12.936 7.97756 12.8626L7.54971 12.7084V16.0079V16.0084Z" fill="url(#paint1_linear_2419_13913)"/>
</g>
<defs>
<linearGradient id="paint0_linear_2419_13913" x1="73.5296" y1="3.40901" x2="88.7074" y2="18.9495" gradientUnits="userSpaceOnUse">
<stop stop-color="#9F762F"/>
<stop offset="0.2" stop-color="#FCC678"/>
<stop offset="0.5" stop-color="#EACA87"/>
<stop offset="0.8" stop-color="#BA904A"/>
<stop offset="1" stop-color="#9F762F"/>
</linearGradient>
<linearGradient id="paint1_linear_2419_13913" x1="14.5581" y1="-7.36288" x2="52.092" y2="31.0677" gradientUnits="userSpaceOnUse">
<stop stop-color="#9F762F"/>
<stop offset="0.2" stop-color="#FCC678"/>
<stop offset="0.5" stop-color="#EACA87"/>
<stop offset="0.8" stop-color="#BA904A"/>
<stop offset="1" stop-color="#9F762F"/>
</linearGradient>
<clipPath id="clip0_2419_13913">
<rect width="91" height="22" fill="white" transform="translate(0.5)"/>
</clipPath>
</defs>
</svg>
