<svg width="173" height="24" viewBox="0 0 173 24" fill="none" xmlns="http://www.w3.org/2000/svg">
<g clip-path="url(#clip0_2419_14227)">
<path d="M24.3652 7.47029C23.7617 8.11383 23.4231 9.02517 23.3494 10.2083L32.5831 10.1863V12.9563H23.3275C23.3275 13.5179 23.3892 14.0576 23.5147 14.5752C23.6402 15.0928 23.8931 15.5645 24.2775 15.9942C24.6161 16.3939 25.0185 16.6417 25.4805 16.7376C25.9446 16.8336 26.4187 16.8815 26.9046 16.8815C26.9345 16.8815 32.5812 16.8595 32.5812 16.8595V19.6295H26.9485C26.0502 19.6295 25.1838 19.5476 24.3532 19.3857C23.5207 19.2238 22.7359 18.8461 22.0009 18.2545C21.1166 17.5311 20.4992 16.6477 20.1446 15.6064C19.7921 14.5652 19.6208 13.498 19.5929 12.4027C19.579 12.1669 19.579 11.2716 19.5929 11.0497C19.7542 8.53752 20.4354 6.69085 21.6365 5.5077C22.8375 4.32655 24.636 3.703 27.0381 3.703H32.5831V6.483H27.1058C25.8829 6.49699 24.9707 6.82675 24.3671 7.47029H24.3652ZM38.8472 11.6713L33.3241 19.6295H37.2558L40.7892 14.0875L44.1254 19.6295H48.1228L42.6455 11.4514L47.7484 3.705H43.9043L40.6577 8.74537L37.3893 3.705H33.5013L38.8472 11.6713ZM4.90769 3.703L8.95295 15.9242L12.9982 3.703H17.884V19.6275H14.6135L14.8784 7.23046L10.8113 19.6275H7.2739L3.07328 7.09656L3.40391 19.6275H0V3.703H4.90769Z" fill="url(#paint0_linear_2419_14227)"/>
<path d="M171.988 0.1875C171.431 0.1875 170.977 0.635178 170.977 1.18678V6.88468C170.977 7.43229 171.431 7.87996 171.988 7.87996C172.546 7.87996 173 7.43229 173 6.88468V1.18678C173 0.635178 172.546 0.1875 171.988 0.1875Z" fill="white"/>
<path d="M169.07 2.41992C168.513 2.41992 168.061 2.8656 168.061 3.4172V9.1131C168.061 9.66471 168.515 10.1124 169.07 10.1124C169.626 10.1124 170.082 9.66671 170.082 9.1131V3.4172C170.082 2.8656 169.628 2.41992 169.07 2.41992Z" fill="white"/>
<path d="M166.152 0.1875C165.593 0.1875 165.139 0.635178 165.139 1.18678V6.88468C165.139 7.43229 165.593 7.87996 166.152 7.87996C166.712 7.87996 167.166 7.43229 167.166 6.88468V1.18678C167.166 0.635178 166.71 0.1875 166.152 0.1875Z" fill="white"/>
<path d="M163.231 3.4751C162.671 3.4751 162.219 3.92278 162.219 4.47238V8.11376C162.219 8.66536 162.671 9.11104 163.231 9.11104C163.79 9.11104 164.242 8.66536 164.242 8.11376V4.47238C164.242 3.92278 163.79 3.4751 163.231 3.4751Z" fill="white"/>
<path d="M60.2528 3.70293H65.7879V6.48692H60.3185C59.0976 6.50291 58.1874 6.83068 57.5838 7.47221C56.9803 8.11375 56.6437 9.0251 56.57 10.2042L65.7879 10.1823V12.9483H56.5481C56.5481 13.5099 56.6099 14.0475 56.7354 14.5631C56.8608 15.0787 57.1138 15.5504 57.4962 15.9781C57.8348 16.3758 58.2352 16.6236 58.6972 16.7196C59.1593 16.8155 59.6334 16.8635 60.1194 16.8635C60.1492 16.8635 65.7859 16.8415 65.7859 16.8415V19.6075H60.1632C59.2669 19.6075 58.4025 19.5275 57.5719 19.3637C56.7413 19.2018 55.9586 18.826 55.2236 18.2345C54.3413 17.513 53.7238 16.6296 53.3713 15.5904C53.0187 14.5511 52.8694 13.4839 52.8196 12.3927C52.8096 12.1568 52.8056 11.2635 52.8196 11.0436C52.9849 8.53545 53.6601 6.69277 54.8591 5.51162C56.0562 4.33247 57.8547 3.70093 60.2508 3.70093L60.2528 3.70293ZM75.7088 7.94787L73.1514 11.4653L70.6597 7.94787H67.0885L71.4106 13.7897L67.1323 19.6095H70.6816L73.1514 16.2239L75.5993 19.6095H79.1705L74.936 13.8576L79.2362 7.94987H75.7088V7.94787ZM83.6798 8.23566C82.923 8.41354 82.2438 8.78927 81.6403 9.36485C81.1404 9.8505 80.75 10.4201 80.4711 11.0676C80.1923 11.7172 80.023 12.3807 79.9632 13.0582C79.9493 13.1901 79.9373 13.324 79.9294 13.4559C79.9214 13.5878 79.9174 13.7217 79.9174 13.8536C79.9174 13.9575 79.9214 14.0635 79.9294 14.1754C79.9373 14.2853 79.9413 14.3932 79.9413 14.4972C80.015 15.1907 80.1903 15.8662 80.4711 16.5217C80.75 17.1792 81.1404 17.7488 81.6403 18.2365C82.2438 18.8121 82.923 19.1838 83.6798 19.3537C84.4367 19.5235 85.2115 19.6075 86.0062 19.6075H90.173V17.1073H86.9085C86.8786 17.1073 85.5581 17.0853 85.2792 17.0413C85.0004 16.9974 84.7355 16.9014 84.4845 16.7535C83.9706 16.4438 83.6161 16.0281 83.4269 15.5044C83.2357 14.9808 83.1321 14.4312 83.1182 13.8556C83.1182 13.266 83.2098 12.6985 83.393 12.1508C83.5763 11.6052 83.9408 11.1696 84.4845 10.8458C84.7335 10.6979 84.9984 10.602 85.2792 10.558C85.5581 10.514 85.8329 10.4701 86.1257 10.4701H90.173V7.94787H86.0062C85.2115 7.94787 84.4367 8.05779 83.6798 8.23566ZM101.518 8.8772C100.658 8.28763 99.4785 7.97785 97.9787 7.94787H95.244V3.72291H92.2006V19.6095H95.244V10.516L97.6919 10.538C98.4706 10.538 99.0064 10.6919 99.3012 11.0017C99.596 11.3115 99.7414 11.8351 99.7414 12.5725V19.6095H102.829V12.2408C102.815 10.59 102.376 9.46878 101.516 8.8772H101.518ZM116.534 10.604C116.703 11.1656 116.787 11.7391 116.787 12.3287V19.6075H108.541C107.35 19.6075 106.438 19.2797 105.806 18.6222C105.175 17.9667 104.888 17.0553 104.946 15.8902C105.049 14.4892 105.541 13.5818 106.424 13.1681C107.306 12.7564 108.356 12.5266 109.577 12.5266H113.612C113.656 11.5673 113.411 10.9697 112.873 10.7339C112.335 10.498 111.656 10.3801 110.833 10.3801L105.719 10.3581V7.94587H112.003C112.678 7.96186 113.329 8.03781 113.955 8.17771C114.58 8.31761 115.142 8.63937 115.642 9.14101C116.068 9.55472 116.365 10.0404 116.534 10.602V10.604ZM113.634 14.8509H109.842C109.342 14.8509 108.915 15.0028 108.694 15.1047C108.35 15.2666 108.159 15.5724 108.143 16.09C108.113 16.6656 108.272 17.0054 108.617 17.1073C108.961 17.2112 109.356 17.2612 109.796 17.2612H113.632V14.8489L113.634 14.8509ZM128.827 8.85522C127.975 8.26564 126.783 7.96386 125.256 7.94787H119.478V19.6075H122.543V10.514L125.013 10.536C125.835 10.536 126.379 10.6759 126.644 10.9557C126.909 11.2355 127.04 11.7811 127.04 12.5925V19.6055H130.106V12.2368C130.106 10.57 129.679 9.4428 128.827 8.85122V8.85522ZM138.021 7.96986L143.6 7.94787V19.1878C143.6 20.7067 143.261 21.8579 142.586 22.6393C141.909 23.4207 140.785 23.8125 139.212 23.8125H133.193V21.4462H138.684C139.302 21.4302 139.768 21.2723 140.084 20.9705C140.401 20.6687 140.544 20.215 140.515 19.6095H138.023C137.17 19.6095 136.392 19.5575 135.687 19.4556C134.982 19.3517 134.304 18.9839 133.657 18.3484C133.143 17.8467 132.749 17.2572 132.478 16.5777C132.205 15.9001 132.034 15.2066 131.96 14.4972C131.96 14.3792 131.956 14.2653 131.948 14.1534C131.94 14.0435 131.936 13.9356 131.936 13.8316C131.936 13.6977 131.94 13.5658 131.948 13.4339C131.956 13.3 131.966 13.1681 131.982 13.0362C132.056 12.3587 132.229 11.6952 132.5 11.0456C132.773 10.3961 133.157 9.82852 133.657 9.34087C134.261 8.76528 134.936 8.39355 135.687 8.22367C136.436 8.0538 137.216 7.96986 138.023 7.96986H138.021ZM139.146 10.4541C138.178 10.4541 137.306 10.566 136.489 10.8478C135.673 11.1276 135.193 11.915 135.155 13.2161C135.153 13.304 135.155 13.6578 135.155 13.7477C135.147 14.3093 135.189 14.8569 135.342 15.3965C135.497 15.9341 135.826 16.3778 136.324 16.7355C136.589 16.9254 136.878 17.0533 137.194 17.1113C137.511 17.1712 137.83 17.2152 138.154 17.2212C138.258 17.2232 140.515 17.2212 140.515 17.2212V10.4561H139.148L139.146 10.4541ZM157.56 14.1614C157.552 14.4212 157.512 14.675 157.468 14.9308H148.956C148.984 15.9641 149.246 16.5897 149.742 16.8175C150.173 17.0133 150.768 17.1053 151.519 17.1333H156.797V19.6095H151.447C150.609 19.6095 149.798 19.5096 149.011 19.3057C148.276 19.1138 147.625 18.7361 147.056 18.1565C147.016 18.1166 146.976 18.0766 146.936 18.0326C146.456 17.507 146.109 16.9034 145.89 16.2299C145.675 15.5564 145.52 14.8629 145.496 14.1594C145.49 13.9695 145.494 13.7417 145.494 13.5518C145.494 13.4559 145.51 13.2061 145.52 13.0982C145.592 12.4266 145.695 11.7591 145.914 11.1036C146.129 10.4541 146.47 9.87049 146.936 9.36086C146.976 9.31689 147.016 9.27292 147.056 9.23295C147.623 8.64337 148.276 8.25565 149.011 8.06379C149.798 7.85994 150.609 7.76001 151.447 7.76001H151.611C152.449 7.76001 153.26 7.85994 154.047 8.06379C154.782 8.25565 155.433 8.64137 156.003 9.23295C156.042 9.27292 156.082 9.31689 156.122 9.36086C156.586 9.87049 156.929 10.4541 157.144 11.1036C157.291 11.5513 157.395 12.001 157.466 12.4566C157.498 12.6685 157.56 13.306 157.562 13.4019C157.564 13.5918 157.568 13.9695 157.562 14.1594L157.56 14.1614ZM154.102 12.4546C154.071 11.4693 153.792 10.8598 153.272 10.612C152.82 10.3961 152.24 10.2302 151.531 10.2282C150.822 10.2262 150.238 10.3961 149.786 10.612C149.266 10.8598 148.988 11.4693 148.956 12.4546H154.102Z" fill="white"/>
</g>
<defs>
<linearGradient id="paint0_linear_2419_14227" x1="7.96703" y1="-4.29125" x2="40.0737" y2="27.7061" gradientUnits="userSpaceOnUse">
<stop stop-color="#A0762F"/>
<stop offset="0.2" stop-color="#FDC778"/>
<stop offset="0.5" stop-color="#EBCB88"/>
<stop offset="0.8" stop-color="#BB914A"/>
<stop offset="1" stop-color="#A0762F"/>
</linearGradient>
<clipPath id="clip0_2419_14227">
<rect width="173" height="23.625" fill="white" transform="translate(0 0.1875)"/>
</clipPath>
</defs>
</svg>
