<svg width="133" height="32" viewBox="0 0 133 32" fill="none" xmlns="http://www.w3.org/2000/svg">
<path d="M77.5544 3.22071C77.5544 1.44253 79.1071 0 81.0234 0C82.9397 0 84.5 1.44253 84.5 3.22071V21.5952C84.5 23.3591 82.9473 24.8016 81.0234 24.8016C79.0996 24.8016 77.5544 23.3591 77.5544 21.5952V3.22071ZM67.5414 10.412V28.7793C67.5414 30.5575 69.0941 32 71.0103 32C72.9266 32 74.4869 30.5575 74.4869 28.7793V10.412C74.4869 8.63379 72.9342 7.19839 71.0103 7.19839C69.0865 7.19839 67.5414 8.64093 67.5414 10.412ZM57.5131 3.22071V21.5952C57.5131 23.3591 59.0734 24.8016 60.9972 24.8016C62.9211 24.8016 64.4738 23.3591 64.4738 21.5952V3.22071C64.4738 1.44253 62.9135 0 60.9972 0C59.081 0 57.5131 1.44253 57.5131 3.22071ZM47.5 13.8183V25.5586C47.5 27.3368 49.0527 28.7722 50.969 28.7722C52.8853 28.7722 54.4455 27.3368 54.4455 25.5586V13.8183C54.4455 12.0402 52.8928 10.5976 50.969 10.5976C49.0452 10.5976 47.5 12.0402 47.5 13.8183Z" fill="url(#paint0_linear_2419_14014)"/>
<defs>
<linearGradient id="paint0_linear_2419_14014" x1="47.5" y1="32" x2="84.5" y2="32" gradientUnits="userSpaceOnUse">
<stop offset="0.25" stop-color="#467BFF"/>
<stop offset="1" stop-color="#75D9D9"/>
</linearGradient>
</defs>
</svg>
