<svg width="82" height="81" viewBox="0 0 82 81" fill="none" xmlns="http://www.w3.org/2000/svg">
<rect x="37.8242" y="3.97205" width="43.35" height="44.3676" rx="6.24865" fill="url(#paint0_linear_565_59095)"/>
<g clip-path="url(#clip0_565_59095)">
<path d="M59.4996 25.8423C62.9507 25.8423 65.7483 23.0447 65.7483 19.5936C65.7483 16.1426 62.9507 13.345 59.4996 13.345C56.0486 13.345 53.251 16.1426 53.251 19.5936C53.251 23.0447 56.0486 25.8423 59.4996 25.8423Z" fill="#F0F0F0"/>
<path d="M54.5442 15.7894C54.0534 16.428 53.6833 17.1641 53.4678 17.9637H56.7185L54.5442 15.7894Z" fill="#0052B4"/>
<path d="M65.5339 17.9637C65.3184 17.1641 64.9482 16.428 64.4574 15.7894L62.2832 17.9637H65.5339Z" fill="#0052B4"/>
<path d="M53.4678 21.2239C53.6833 22.0235 54.0534 22.7595 54.5442 23.3981L56.7184 21.2239H53.4678Z" fill="#0052B4"/>
<path d="M63.3051 14.6368C62.6665 14.1459 61.9305 13.7758 61.1309 13.5603V16.811L63.3051 14.6368Z" fill="#0052B4"/>
<path d="M55.6973 24.5507C56.3359 25.0415 57.0719 25.4116 57.8715 25.6271V22.3765L55.6973 24.5507Z" fill="#0052B4"/>
<path d="M57.8715 13.5603C57.0719 13.7758 56.3358 14.1459 55.6973 14.6368L57.8715 16.811V13.5603Z" fill="#0052B4"/>
<path d="M61.1309 25.6271C61.9304 25.4116 62.6665 25.0415 63.3051 24.5507L61.1309 22.3765V25.6271Z" fill="#0052B4"/>
<path d="M62.2832 21.2239L64.4574 23.3981C64.9482 22.7595 65.3184 22.0235 65.5339 21.2239H62.2832Z" fill="#0052B4"/>
<path d="M65.6954 18.7786H60.3147H60.3147V13.3979C60.0479 13.3631 59.7759 13.345 59.4996 13.345C59.2233 13.345 58.9514 13.3631 58.6846 13.3979V18.7785V18.7786H53.3039C53.2691 19.0454 53.251 19.3174 53.251 19.5936C53.251 19.8699 53.2691 20.1419 53.3039 20.4087H58.6845H58.6846V25.7894C58.9514 25.8241 59.2233 25.8423 59.4996 25.8423C59.7759 25.8423 60.0479 25.8241 60.3147 25.7894V20.4087V20.4087H65.6954C65.7301 20.1419 65.7483 19.8699 65.7483 19.5936C65.7483 19.3174 65.7301 19.0454 65.6954 18.7786Z" fill="#D80027"/>
<path d="M61.1299 21.2237L63.9182 24.012C64.0465 23.8838 64.1688 23.7498 64.2855 23.6109L61.8983 21.2236H61.1299V21.2237Z" fill="#D80027"/>
<path d="M57.8704 21.2236H57.8704L55.082 24.012C55.2102 24.1402 55.3443 24.2626 55.4832 24.3793L57.8704 21.992V21.2236Z" fill="#D80027"/>
<path d="M57.8695 17.9636V17.9636L55.0812 15.1752C54.9529 15.3034 54.8306 15.4374 54.7139 15.5763L57.1011 17.9636H57.8695V17.9636Z" fill="#D80027"/>
<path d="M61.1299 17.9637L63.9183 15.1753C63.7901 15.047 63.656 14.9247 63.5171 14.808L61.1299 17.1952V17.9637Z" fill="#D80027"/>
</g>
<path d="M48.8265 37.0603C48.3683 37.0603 47.9595 36.9639 47.6002 36.7713C47.2409 36.5786 46.9571 36.3157 46.7489 35.9824C46.5458 35.6439 46.4442 35.2612 46.4442 34.8342V31.1475H47.6549V34.7561C47.6549 34.9852 47.7044 35.1935 47.8033 35.381C47.9075 35.5632 48.0481 35.7064 48.2251 35.8106C48.4021 35.9147 48.6026 35.9668 48.8265 35.9668C49.0557 35.9668 49.2561 35.9147 49.428 35.8106C49.605 35.7064 49.743 35.5632 49.8419 35.381C49.9461 35.1935 49.9982 34.9852 49.9982 34.7561V31.1475H51.2088V34.8342C51.2088 35.2612 51.1047 35.6439 50.8964 35.9824C50.6933 36.3157 50.4121 36.5786 50.0528 36.7713C49.6935 36.9639 49.2848 37.0603 48.8265 37.0603ZM52.1667 36.9666V31.1475H53.3774V34.0609L53.0415 33.9438L55.3691 31.1475H56.8844L54.5802 33.9281L54.6505 33.069L56.9313 36.9666H55.5175L54.096 34.5061L53.3774 35.3731V36.9666H52.1667ZM59.7448 36.9666V32.1707H58.6123V31.1475H60.9555V36.9666H59.7448ZM64.3773 37.0603C63.9139 37.0603 63.5051 36.9353 63.151 36.6854C62.8021 36.4354 62.5288 36.0839 62.3309 35.6309C62.133 35.1779 62.0341 34.6519 62.0341 34.0531C62.0341 33.4491 62.1304 32.9232 62.3231 32.4753C62.5209 32.0275 62.7943 31.6786 63.1432 31.4287C63.4973 31.1787 63.9061 31.0538 64.3695 31.0538C64.8434 31.0538 65.2547 31.1787 65.6036 31.4287C65.9577 31.6786 66.2311 32.0301 66.4237 32.4831C66.6216 32.931 66.7206 33.4543 66.7206 34.0531C66.7206 34.6519 66.6216 35.1779 66.4237 35.6309C66.2311 36.0787 65.9577 36.4302 65.6036 36.6854C65.2547 36.9353 64.846 37.0603 64.3773 37.0603ZM64.3851 35.9668C64.6247 35.9668 64.8277 35.8913 64.9944 35.7403C65.161 35.5892 65.2886 35.3705 65.3771 35.0841C65.4656 34.7978 65.5099 34.4541 65.5099 34.0531C65.5099 33.6522 65.4656 33.3111 65.3771 33.0299C65.2886 32.7435 65.1584 32.5248 64.9866 32.3738C64.8199 32.2228 64.6142 32.1473 64.3695 32.1473C64.13 32.1473 63.9269 32.2228 63.7603 32.3738C63.5936 32.5248 63.4661 32.7435 63.3775 33.0299C63.289 33.3111 63.2447 33.6522 63.2447 34.0531C63.2447 34.4489 63.289 34.7899 63.3775 35.0763C63.4661 35.3627 63.5936 35.584 63.7603 35.7403C63.9321 35.8913 64.1404 35.9668 64.3851 35.9668ZM69.8464 37.0603C69.383 37.0603 68.9742 36.9353 68.6201 36.6854C68.2712 36.4354 67.9978 36.0839 67.8 35.6309C67.6021 35.1779 67.5032 34.6519 67.5032 34.0531C67.5032 33.4491 67.5995 32.9232 67.7922 32.4753C67.99 32.0275 68.2634 31.6786 68.6123 31.4287C68.9664 31.1787 69.3752 31.0538 69.8386 31.0538C70.3125 31.0538 70.7238 31.1787 71.0727 31.4287C71.4268 31.6786 71.7002 32.0301 71.8928 32.4831C72.0907 32.931 72.1896 33.4543 72.1896 34.0531C72.1896 34.6519 72.0907 35.1779 71.8928 35.6309C71.7002 36.0787 71.4268 36.4302 71.0727 36.6854C70.7238 36.9353 70.3151 37.0603 69.8464 37.0603ZM69.8542 35.9668C70.0937 35.9668 70.2968 35.8913 70.4635 35.7403C70.6301 35.5892 70.7577 35.3705 70.8462 35.0841C70.9347 34.7978 70.979 34.4541 70.979 34.0531C70.979 33.6522 70.9347 33.3111 70.8462 33.0299C70.7577 32.7435 70.6275 32.5248 70.4556 32.3738C70.289 32.2228 70.0833 32.1473 69.8386 32.1473C69.5991 32.1473 69.396 32.2228 69.2294 32.3738C69.0627 32.5248 68.9351 32.7435 68.8466 33.0299C68.7581 33.3111 68.7138 33.6522 68.7138 34.0531C68.7138 34.4489 68.7581 34.7899 68.8466 35.0763C68.9351 35.3627 69.0627 35.584 69.2294 35.7403C69.4012 35.8913 69.6095 35.9668 69.8542 35.9668Z" fill="white"/>
<rect x="38.2148" y="4.36259" width="42.5689" height="43.5865" rx="5.85811" stroke="url(#paint1_linear_565_59095)" stroke-opacity="0.4" stroke-width="0.781081"/>
<rect x="0.480469" y="32" width="47.04" height="48.293" rx="6.78054" fill="url(#paint2_linear_565_59095)"/>
<g clip-path="url(#clip1_565_59095)">
<path d="M24.0003 55.7319C27.7451 55.7319 30.7808 52.6961 30.7808 48.9513C30.7808 45.2065 27.7451 42.1708 24.0003 42.1708C20.2555 42.1708 17.2197 45.2065 17.2197 48.9513C17.2197 52.6961 20.2555 55.7319 24.0003 55.7319Z" fill="#F0F0F0"/>
<path d="M23.7051 48.9513H30.7804C30.7804 48.3393 30.6988 47.7465 30.5468 47.1825H23.7051V48.9513Z" fill="#D80027"/>
<path d="M23.7051 45.4137H29.7852C29.3701 44.7364 28.8394 44.1378 28.2207 43.6449H23.7051V45.4137Z" fill="#D80027"/>
<path d="M24.0001 55.732C25.5959 55.732 27.0626 55.1804 28.2209 54.2579H19.7793C20.9376 55.1804 22.4043 55.732 24.0001 55.732Z" fill="#D80027"/>
<path d="M18.2147 52.4889H29.7854C30.1186 51.9452 30.3771 51.3508 30.547 50.7201H17.4531C17.6231 51.3508 17.8815 51.9452 18.2147 52.4889Z" fill="#D80027"/>
<path d="M20.3606 43.2297H20.9785L20.4037 43.6472L20.6233 44.3229L20.0486 43.9053L19.4738 44.3229L19.6635 43.7392C19.1574 44.1607 18.7139 44.6546 18.3484 45.2049H18.5464L18.1805 45.4706C18.1235 45.5657 18.0688 45.6623 18.0164 45.7604L18.1911 46.2981L17.8652 46.0612C17.7842 46.2329 17.7101 46.4084 17.6435 46.5876L17.8359 47.1801H18.5464L17.9716 47.5976L18.1911 48.2733L17.6164 47.8557L17.2721 48.1058C17.2377 48.3828 17.2197 48.665 17.2197 48.9513H24.0003C24.0003 45.2066 24.0003 44.7651 24.0003 42.1708C22.6608 42.1708 21.4121 42.5593 20.3606 43.2297ZM20.6233 48.2733L20.0486 47.8557L19.4738 48.2733L19.6934 47.5976L19.1186 47.1801H19.829L20.0486 46.5044L20.2681 47.1801H20.9785L20.4037 47.5976L20.6233 48.2733ZM20.4037 45.6224L20.6233 46.2981L20.0486 45.8805L19.4738 46.2981L19.6934 45.6224L19.1186 45.2049H19.829L20.0486 44.5292L20.2681 45.2049H20.9785L20.4037 45.6224ZM23.0554 48.2733L22.4807 47.8557L21.906 48.2733L22.1255 47.5976L21.5508 47.1801H22.2612L22.4807 46.5044L22.7002 47.1801H23.4107L22.8359 47.5976L23.0554 48.2733ZM22.8359 45.6224L23.0554 46.2981L22.4807 45.8805L21.906 46.2981L22.1255 45.6224L21.5508 45.2049H22.2612L22.4807 44.5292L22.7002 45.2049H23.4107L22.8359 45.6224ZM22.8359 43.6472L23.0554 44.3229L22.4807 43.9053L21.906 44.3229L22.1255 43.6472L21.5508 43.2297H22.2612L22.4807 42.554L22.7002 43.2297H23.4107L22.8359 43.6472Z" fill="#0052B4"/>
</g>
<path d="M11.5692 68.2238C11.0719 68.2238 10.6284 68.1192 10.2385 67.9102C9.84861 67.7011 9.54066 67.4158 9.31464 67.0541C9.09427 66.6869 8.98409 66.2715 8.98409 65.8082V61.8077H10.2978V65.7235C10.2978 65.9721 10.3515 66.1981 10.4589 66.4015C10.5719 66.5993 10.7244 66.7547 10.9165 66.8677C11.1087 66.9807 11.3262 67.0372 11.5692 67.0372C11.8178 67.0372 12.0353 66.9807 12.2218 66.8677C12.4139 66.7547 12.5637 66.5993 12.671 66.4015C12.784 66.1981 12.8405 65.9721 12.8405 65.7235V61.8077H14.1543V65.8082C14.1543 66.2715 14.0412 66.6869 13.8152 67.0541C13.5949 67.4158 13.2897 67.7011 12.8999 67.9102C12.51 68.1192 12.0664 68.2238 11.5692 68.2238ZM17.4906 68.2238C17.095 68.2238 16.7221 68.1531 16.3718 68.0119C16.0271 67.865 15.7276 67.6587 15.4733 67.3932C15.2247 67.1276 15.0383 66.814 14.914 66.4524L15.9904 65.9692C16.1486 66.3139 16.3661 66.5851 16.643 66.7829C16.9255 66.9807 17.2363 67.0796 17.5753 67.0796C17.7561 67.0796 17.9115 67.0513 18.0415 66.9948C18.1714 66.9383 18.2731 66.862 18.3466 66.766C18.4201 66.6643 18.4568 66.5456 18.4568 66.41C18.4568 66.2631 18.4116 66.1388 18.3212 66.0371C18.2308 65.9297 18.0895 65.8449 17.8974 65.7828L16.6599 65.376C16.157 65.2121 15.7785 64.9804 15.5242 64.6809C15.2699 64.3758 15.1428 64.0114 15.1428 63.5876C15.1428 63.2147 15.2332 62.8869 15.414 62.6044C15.6005 62.3219 15.8576 62.1015 16.1853 61.9433C16.5187 61.7851 16.9001 61.706 17.3295 61.706C17.7081 61.706 18.0584 61.771 18.3805 61.9009C18.7026 62.0309 18.9794 62.2145 19.2111 62.4518C19.4484 62.6892 19.6264 62.9745 19.7451 63.3079L18.6772 63.791C18.5585 63.4972 18.3805 63.2683 18.1432 63.1045C17.9059 62.935 17.6346 62.8502 17.3295 62.8502C17.1544 62.8502 16.999 62.8785 16.8634 62.935C16.7277 62.9915 16.6232 63.0734 16.5498 63.1808C16.4763 63.2825 16.4396 63.4011 16.4396 63.5367C16.4396 63.6836 16.4876 63.8136 16.5837 63.9266C16.6797 64.034 16.8238 64.1187 17.0159 64.1809L18.2279 64.5708C18.7365 64.7346 19.1151 64.9635 19.3637 65.2573C19.618 65.5511 19.7451 65.9099 19.7451 66.3337C19.7451 66.701 19.649 67.0287 19.4569 67.3169C19.2648 67.5994 18.9992 67.8226 18.6602 67.9865C18.3268 68.1447 17.9369 68.2238 17.4906 68.2238ZM24.1452 68.2238C23.8118 68.2238 23.4898 68.1616 23.179 68.0373C22.8682 67.9074 22.6026 67.7265 22.3823 67.4949C22.1619 67.2576 22.0178 66.975 21.95 66.6473L23.1112 66.2574C23.1959 66.5286 23.3316 66.7264 23.518 66.8507C23.7045 66.975 23.9135 67.0372 24.1452 67.0372C24.343 67.0372 24.5153 66.9976 24.6622 66.9185C24.8091 66.8338 24.9222 66.7179 25.0013 66.571C25.086 66.4185 25.1284 66.2433 25.1284 66.0455C25.1284 65.8478 25.086 65.6754 25.0013 65.5285C24.9222 65.3816 24.8091 65.2686 24.6622 65.1895C24.5153 65.1047 24.343 65.0624 24.1452 65.0624C23.9418 65.0624 23.761 65.1076 23.6028 65.198C23.4446 65.2827 23.3287 65.4155 23.2553 65.5963L22.1789 65.342L22.6874 61.8077H26.2133V62.9095H23.2214L23.713 62.3162L23.3655 64.9437L23.0095 64.6301C23.1507 64.3984 23.3287 64.2289 23.5434 64.1216C23.7638 64.0142 24.0463 63.9605 24.391 63.9605C24.8148 63.9605 25.1793 64.0509 25.4844 64.2317C25.7895 64.4069 26.024 64.6499 26.1879 64.9606C26.3574 65.2714 26.4421 65.633 26.4421 66.0455C26.4421 66.458 26.3404 66.8309 26.137 67.1643C25.9392 67.492 25.668 67.752 25.3233 67.9441C24.9787 68.1305 24.586 68.2238 24.1452 68.2238ZM29.8176 68.2238C29.3147 68.2238 28.8712 68.0882 28.4869 67.8169C28.1084 67.5457 27.8117 67.1643 27.597 66.6727C27.3823 66.1811 27.2749 65.6104 27.2749 64.9606C27.2749 64.3052 27.3795 63.7345 27.5885 63.2486C27.8032 62.7626 28.0999 62.384 28.4785 62.1128C28.8627 61.8416 29.3063 61.706 29.8092 61.706C30.3233 61.706 30.7697 61.8416 31.1483 62.1128C31.5325 62.384 31.8292 62.7654 32.0383 63.257C32.253 63.743 32.3603 64.3108 32.3603 64.9606C32.3603 65.6104 32.253 66.1811 32.0383 66.6727C31.8292 67.1587 31.5325 67.5401 31.1483 67.8169C30.7697 68.0882 30.3262 68.2238 29.8176 68.2238ZM29.8261 67.0372C30.086 67.0372 30.3064 66.9553 30.4872 66.7914C30.668 66.6275 30.8065 66.3902 30.9025 66.0794C30.9986 65.7687 31.0466 65.3957 31.0466 64.9606C31.0466 64.5256 30.9986 64.1555 30.9025 63.8503C30.8065 63.5396 30.6652 63.3022 30.4787 63.1384C30.2979 62.9745 30.0747 62.8926 29.8092 62.8926C29.5492 62.8926 29.3289 62.9745 29.1481 63.1384C28.9672 63.3022 28.8288 63.5396 28.7327 63.8503C28.6367 64.1555 28.5887 64.5256 28.5887 64.9606C28.5887 65.3901 28.6367 65.7602 28.7327 66.071C28.8288 66.3817 28.9672 66.6219 29.1481 66.7914C29.3345 66.9553 29.5605 67.0372 29.8261 67.0372ZM35.7523 68.2238C35.2494 68.2238 34.8058 68.0882 34.4216 67.8169C34.043 67.5457 33.7463 67.1643 33.5316 66.6727C33.3169 66.1811 33.2096 65.6104 33.2096 64.9606C33.2096 64.3052 33.3141 63.7345 33.5232 63.2486C33.7379 62.7626 34.0345 62.384 34.4131 62.1128C34.7973 61.8416 35.2409 61.706 35.7438 61.706C36.258 61.706 36.7044 61.8416 37.0829 62.1128C37.4672 62.384 37.7638 62.7654 37.9729 63.257C38.1876 63.743 38.295 64.3108 38.295 64.9606C38.295 65.6104 38.1876 66.1811 37.9729 66.6727C37.7638 67.1587 37.4672 67.5401 37.0829 67.8169C36.7044 68.0882 36.2608 68.2238 35.7523 68.2238ZM35.7607 67.0372C36.0207 67.0372 36.241 66.9553 36.4218 66.7914C36.6026 66.6275 36.7411 66.3902 36.8371 66.0794C36.9332 65.7687 36.9812 65.3957 36.9812 64.9606C36.9812 64.5256 36.9332 64.1555 36.8371 63.8503C36.7411 63.5396 36.5998 63.3022 36.4134 63.1384C36.2325 62.9745 36.0094 62.8926 35.7438 62.8926C35.4839 62.8926 35.2635 62.9745 35.0827 63.1384C34.9019 63.3022 34.7634 63.5396 34.6674 63.8503C34.5713 64.1555 34.5233 64.5256 34.5233 64.9606C34.5233 65.3901 34.5713 65.7602 34.6674 66.071C34.7634 66.3817 34.9019 66.6219 35.0827 66.7914C35.2691 66.9553 35.4952 67.0372 35.7607 67.0372Z" fill="white"/>
<rect x="0.904252" y="32.4238" width="46.1924" height="47.4454" rx="6.35676" stroke="url(#paint3_linear_565_59095)" stroke-opacity="0.4" stroke-width="0.847567"/>
<defs>
<linearGradient id="paint0_linear_565_59095" x1="59.6228" y1="2.82982" x2="59.6228" y2="48.5839" gradientUnits="userSpaceOnUse">
<stop stop-color="#0052B4"/>
<stop offset="1" stop-color="#1C1565"/>
</linearGradient>
<linearGradient id="paint1_linear_565_59095" x1="37.8242" y1="3.97205" x2="87.3161" y2="12.4391" gradientUnits="userSpaceOnUse">
<stop stop-color="#8895AC"/>
<stop offset="0.104167" stop-color="#20283B"/>
<stop offset="0.328125" stop-color="#4A5C87"/>
<stop offset="1" stop-color="#20283B"/>
</linearGradient>
<linearGradient id="paint2_linear_565_59095" x1="24.1346" y1="30.7567" x2="24.1346" y2="80.5588" gradientUnits="userSpaceOnUse">
<stop stop-color="#5586FF"/>
<stop offset="1" stop-color="#333D95"/>
</linearGradient>
<linearGradient id="paint3_linear_565_59095" x1="0.480469" y1="32" x2="54.1945" y2="41.1611" gradientUnits="userSpaceOnUse">
<stop stop-color="#8895AC"/>
<stop offset="0.104167" stop-color="#20283B"/>
<stop offset="0.328125" stop-color="#4A5C87"/>
<stop offset="1" stop-color="#20283B"/>
</linearGradient>
<clipPath id="clip0_565_59095">
<rect width="12.4973" height="12.4973" fill="white" transform="translate(53.251 13.345)"/>
</clipPath>
<clipPath id="clip1_565_59095">
<rect width="13.5611" height="13.5611" fill="white" transform="translate(17.2197 42.1708)"/>
</clipPath>
</defs>
</svg>
