<svg width="81" height="81" viewBox="0 0 81 81" fill="none" xmlns="http://www.w3.org/2000/svg">
<rect x="37.4844" y="4" width="43.3519" height="43.3517" rx="4.81687" fill="url(#paint0_linear_565_59081)"/>
<path d="M55.7258 36.6758C56.0369 36.6475 56.3763 36.591 56.7157 36.5062C56.8854 36.4496 57.14 36.3366 57.5642 36.167C57.9319 36.0256 58.2147 35.9125 58.4692 35.856C58.8369 35.7712 59.2328 35.7147 59.6288 35.7147C60.0247 35.7147 60.4207 35.7712 60.7884 35.856C61.0146 35.9125 61.3257 36.0256 61.6934 36.1952C62.0611 36.3648 62.3439 36.4496 62.5419 36.5062C62.8812 36.591 63.2206 36.6475 63.5883 36.6475C64.0974 36.6475 64.5782 36.5062 65.059 36.2235C65.4549 35.9691 65.8226 35.6016 66.2468 35.121C66.5014 34.8101 66.8407 34.3578 67.2933 33.7076C67.7741 33.0009 68.17 32.2376 68.5377 31.3896C68.6791 31.0786 68.8205 30.7111 68.9336 30.2871C68.6791 30.2023 68.3963 30.0327 68.0852 29.8348C67.463 29.4108 66.9256 28.9019 66.5579 28.3083C66.0206 27.4885 65.7377 26.5274 65.7095 25.4532C65.7095 24.5768 65.9074 23.7005 66.36 22.9373C66.6711 22.4002 67.0953 21.8913 67.6044 21.439C67.8306 21.2412 68.0852 21.0433 68.3397 20.9019C67.7175 19.9973 66.8973 19.3472 65.8792 18.9514C65.2852 18.7253 64.6347 18.5839 63.9277 18.5274C63.56 18.4991 63.1641 18.4991 62.7681 18.5839C62.457 18.6404 62.0893 18.7253 61.7217 18.8383C61.4671 18.9231 61.1843 19.0362 60.7884 19.2058C60.3924 19.3754 60.1379 19.4602 59.9682 19.5168C59.7136 19.6016 59.4874 19.6581 59.3177 19.6581C59.1197 19.6581 58.8369 19.6016 58.4975 19.4885C58.4127 19.4602 58.1015 19.3189 57.5359 19.121C57.1117 18.9514 56.7723 18.8383 56.4612 18.7535C56.0652 18.6687 55.6976 18.6122 55.3299 18.6122C54.3117 18.6404 53.3784 18.8949 52.4734 19.4602C51.5966 19.9973 50.8896 20.7323 50.3805 21.6369C49.73 22.6829 49.3906 24.068 49.3906 25.6228C49.3906 27.0362 49.6452 28.4779 50.126 29.9761C50.5785 31.3613 51.1724 32.5768 51.9077 33.6228C52.332 34.2447 52.6714 34.7253 52.9825 35.0928C53.4067 35.6016 53.8309 35.9691 54.2269 36.2518C54.7077 36.5344 55.1885 36.6758 55.7258 36.6758ZM62.6833 16.492C63.1075 15.9549 63.4469 15.3896 63.6731 14.7394C63.9277 14.0327 63.9842 13.3542 63.9277 12.6758C63.3338 12.704 62.6833 12.8737 62.0328 13.2129C61.3823 13.5521 60.8449 13.9761 60.3924 14.485C59.9682 14.9938 59.6288 15.5592 59.4025 16.1811C59.1197 16.9161 59.0349 17.5662 59.1197 18.2164C59.7702 18.273 60.4207 18.1316 61.0995 17.7924C61.7217 17.4249 62.2307 17.0291 62.6833 16.492Z" fill="#0B1120"/>
<rect x="0.835938" y="33" width="47.0439" height="47.0436" rx="4.86348" fill="url(#paint1_linear_565_59081)"/>
<g clip-path="url(#clip0_565_59081)">
<path d="M33.7411 64.513C23.2164 69.5219 16.6846 65.3311 12.5034 62.7857C12.2446 62.6253 11.8049 62.8232 12.1864 63.2615C13.5794 64.9505 18.1445 69.0214 24.1032 69.0214C30.066 69.0214 33.6133 65.7679 34.0571 65.2003C34.4978 64.6375 34.1865 64.3271 33.741 64.513H33.7411ZM36.697 62.8806C36.4144 62.5126 34.9784 62.444 34.0747 62.555C33.1696 62.6628 31.811 63.2159 31.9291 63.5481C31.9897 63.6725 32.1135 63.6167 32.7352 63.5608C33.3587 63.4986 35.1053 63.2782 35.4693 63.7539C35.8349 64.233 34.9122 66.515 34.7437 66.8831C34.5808 67.2511 34.8059 67.346 35.1117 67.1009C35.4133 66.8559 35.9594 66.2213 36.3259 65.3233C36.6898 64.4204 36.9117 63.1608 36.6969 62.8806H36.697Z" fill="white"/>
<path fill-rule="evenodd" clip-rule="evenodd" d="M26.6648 54.2923C26.6648 55.6066 26.698 56.7026 26.0337 57.8698C25.4976 58.8188 24.6483 59.4023 23.6994 59.4023C22.404 59.4023 21.6496 58.4154 21.6496 56.9589C21.6496 54.0835 24.2259 53.5616 26.6648 53.5616V54.2923ZM30.0667 62.5149C29.8437 62.7141 29.5211 62.7284 29.2696 62.5955C28.1499 61.6656 27.9506 61.2339 27.3338 60.3466C25.4834 62.235 24.1738 62.7996 21.773 62.7996C18.9357 62.7996 16.7246 61.0487 16.7246 57.5424C16.7246 54.8048 18.2098 52.9401 20.321 52.0292C22.1526 51.2225 24.71 51.0802 26.6648 50.8572V50.4207C26.6648 49.6188 26.7264 48.6699 26.2568 47.9772C25.8439 47.3556 25.0563 47.0994 24.3635 47.0994C23.0778 47.0994 21.9295 47.7589 21.6496 49.1253C21.5926 49.4291 21.3697 49.728 21.066 49.7422L17.7921 49.3912C17.517 49.3293 17.2134 49.1064 17.2893 48.6841C18.0437 44.7176 21.6258 43.5219 24.8332 43.5219C26.4749 43.5219 28.6194 43.9584 29.9148 45.2016C31.5565 46.734 31.3999 48.779 31.3999 51.0042V56.2614C31.3999 57.8414 32.0547 58.534 32.6714 59.3881C32.8897 59.6918 32.9372 60.0572 32.6619 60.2849C31.974 60.8589 30.7498 61.9265 30.0761 62.5244L30.0666 62.5149" fill="#161D2F"/>
<path d="M33.7411 64.513C23.2164 69.5219 16.6846 65.3311 12.5034 62.7857C12.2446 62.6253 11.8049 62.8232 12.1864 63.2615C13.5794 64.9505 18.1445 69.0214 24.1032 69.0214C30.066 69.0214 33.6133 65.7679 34.0571 65.2003C34.4978 64.6375 34.1865 64.3271 33.741 64.513H33.7411ZM36.697 62.8806C36.4144 62.5126 34.9784 62.444 34.0747 62.555C33.1696 62.6628 31.811 63.2159 31.9291 63.5481C31.9897 63.6725 32.1135 63.6167 32.7352 63.5608C33.3587 63.4986 35.1053 63.2782 35.4693 63.7539C35.8349 64.233 34.9122 66.515 34.7437 66.8831C34.5808 67.2511 34.8059 67.346 35.1117 67.1009C35.4133 66.8559 35.9594 66.2213 36.3259 65.3233C36.6898 64.4204 36.9117 63.1608 36.6969 62.8806H36.697Z" fill="#F59B47"/>
<path fill-rule="evenodd" clip-rule="evenodd" d="M26.6648 54.2923C26.6648 55.6066 26.698 56.7026 26.0337 57.8698C25.4976 58.8188 24.6483 59.4023 23.6994 59.4023C22.404 59.4023 21.6496 58.4154 21.6496 56.9589C21.6496 54.0835 24.2259 53.5616 26.6648 53.5616V54.2923ZM30.0667 62.5149C29.8437 62.7141 29.5211 62.7284 29.2696 62.5955C28.1499 61.6656 27.9506 61.2339 27.3338 60.3466C25.4834 62.235 24.1738 62.7996 21.773 62.7996C18.9357 62.7996 16.7246 61.0487 16.7246 57.5424C16.7246 54.8048 18.2098 52.9401 20.321 52.0292C22.1526 51.2225 24.71 51.0802 26.6648 50.8572V50.4207C26.6648 49.6188 26.7264 48.6699 26.2568 47.9772C25.8439 47.3556 25.0563 47.0994 24.3635 47.0994C23.0778 47.0994 21.9295 47.7589 21.6496 49.1253C21.5926 49.4291 21.3697 49.728 21.066 49.7422L17.7921 49.3912C17.517 49.3293 17.2134 49.1064 17.2893 48.6841C18.0437 44.7176 21.6258 43.5219 24.8332 43.5219C26.4749 43.5219 28.6194 43.9584 29.9148 45.2016C31.5565 46.734 31.3999 48.779 31.3999 51.0042V56.2614C31.3999 57.8414 32.0547 58.534 32.6714 59.3881C32.8897 59.6918 32.9372 60.0572 32.6619 60.2849C31.974 60.8589 30.7498 61.9265 30.0761 62.5244L30.0666 62.5149" fill="#0B1120"/>
</g>
<defs>
<linearGradient id="paint0_linear_565_59081" x1="59.1603" y1="4" x2="59.1603" y2="47.3517" gradientUnits="userSpaceOnUse">
<stop stop-color="white"/>
<stop offset="1" stop-color="#C4CCDD"/>
</linearGradient>
<linearGradient id="paint1_linear_565_59081" x1="24.3579" y1="33" x2="24.3579" y2="80.0436" gradientUnits="userSpaceOnUse">
<stop stop-color="white"/>
<stop offset="1" stop-color="#C4CCDD"/>
</linearGradient>
<clipPath id="clip0_565_59081">
<rect width="26" height="26" fill="white" transform="translate(11.3574 43.5219)"/>
</clipPath>
</defs>
</svg>
