<svg width="113" height="36" viewBox="0 0 113 36" fill="none" xmlns="http://www.w3.org/2000/svg">
<mask id="mask0_588_39269" style="mask-type:luminance" maskUnits="userSpaceOnUse" x="4" y="4" width="106" height="29">
<path d="M109.913 4H4V33H109.913V4Z" fill="white"/>
</mask>
<g mask="url(#mask0_588_39269)">
<g clip-path="url(#clip0_588_39269)">
<path d="M22.9183 7.54952C24.7635 5.87507 27.935 2.87352 30.1835 10.5811C30.1835 10.5811 34.2202 8.29991 37.3917 11.0714C37.3339 8.7623 38.9486 5.52919 40.7938 5.4713C42.639 5.41341 44.5421 7.52167 44.7726 10.7548C44.7726 10.7548 48.982 7.49236 56.2473 9.85931C63.5126 12.2262 66.9147 10.3789 69.3945 9.10892C71.8743 7.83898 81.0426 5.01037 85.3091 7.89687C89.5764 10.7834 90.4986 12.1691 90.4986 12.1691C90.6713 10.7834 91.7912 7.33921 96.207 6.3382C99.2629 5.64571 101.685 5.47203 104.049 8.18559C106.413 10.8991 106.01 17.3068 97.0144 16.7293C96.207 22.6752 93.209 31.6814 88.365 31.7392C83.521 31.7971 82.4831 28.449 82.0798 25.7933C78.6199 28.276 71.3546 35.2032 55.9011 24.985C48.0591 28.3332 39.5246 31.6814 29.2035 25.3316C23.6678 28.8535 15.9985 31.4513 9.71327 24.3504C3.43392 17.254 7.6953 8.24202 11.6163 6.51041C15.5373 4.7788 20.4963 4.60513 22.9183 7.54952Z" fill="url(#paint0_linear_588_39269)"/>
<path d="M67.6087 13.7071V14.0318C68.1137 13.4082 68.6378 12.9502 69.1824 12.6585C69.7262 12.3661 70.3432 12.2203 71.0313 12.2203C71.8576 12.2203 72.6181 12.4335 73.3127 12.86C74.0073 13.2865 74.557 13.9101 74.9596 14.7309C75.3629 15.5516 75.5642 16.5226 75.5642 17.6452C75.5642 18.4725 75.4478 19.2324 75.2151 19.9249C74.9823 20.6174 74.6624 21.1986 74.2562 21.6675C73.8492 22.1373 73.3691 22.4978 72.815 22.7506C72.2609 23.0034 71.6659 23.1295 71.0298 23.1295C70.2627 23.1295 69.6186 22.9749 69.0975 22.6663C68.5763 22.3578 68.0793 21.905 67.6072 21.3077V25.3447C67.6072 26.526 67.1776 27.1166 66.319 27.1166C65.814 27.1166 65.4795 26.9642 65.3162 26.6586C65.1523 26.3531 65.0703 25.9083 65.0703 25.3242V13.7269C65.0703 13.2147 65.1816 12.8329 65.4048 12.5801C65.6273 12.3273 65.9325 12.2012 66.3197 12.2012C66.7069 12.2012 67.01 12.3309 67.2493 12.5903C67.4887 12.8498 67.608 13.222 67.608 13.7079L67.6087 13.7071ZM72.8699 17.6159C72.8699 16.9065 72.7623 16.2983 72.5457 15.789C72.329 15.2805 72.0289 14.8899 71.6454 14.6173C71.2618 14.3447 70.8373 14.2084 70.3718 14.2084C69.6311 14.2084 69.006 14.5008 68.498 15.0848C67.99 15.6688 67.7361 16.5291 67.7361 17.6643C67.7361 18.7341 67.9886 19.5666 68.4936 20.1602C68.9987 20.7545 69.6245 21.0513 70.3718 21.0513C70.8175 21.0513 71.2304 20.9216 71.611 20.6621C71.9908 20.4027 72.2961 20.0136 72.5259 19.4955C72.7557 18.9774 72.8699 18.3502 72.8699 17.6152V17.6159Z" fill="#757C93"/>
<path d="M83.0147 21.6133C82.3655 22.1189 81.7375 22.4978 81.1314 22.7506C80.5246 23.0034 79.8447 23.1294 79.0908 23.1294C78.402 23.1294 77.7974 22.9931 77.2763 22.7205C76.7551 22.4479 76.3533 22.0786 76.0715 21.6125C75.7897 21.1465 75.6484 20.6416 75.6484 20.0964C75.6484 19.3614 75.8812 18.7341 76.3467 18.2153C76.8122 17.6972 77.4512 17.3491 78.2644 17.1718C78.4349 17.1322 78.858 17.0435 79.5329 16.9058C80.2077 16.768 80.7867 16.6412 81.269 16.5269C81.7514 16.4126 82.2733 16.2726 82.8376 16.1085C82.8047 15.3999 82.6619 14.8796 82.4101 14.5476C82.1576 14.2164 81.635 14.05 80.8416 14.05C80.1601 14.05 79.647 14.1453 79.3023 14.3358C78.9583 14.5264 78.6633 14.8114 78.4174 15.1925C78.1714 15.5735 77.998 15.8241 77.8962 15.9458C77.7945 16.0674 77.5764 16.1275 77.2426 16.1275C76.9411 16.1275 76.6805 16.0308 76.4609 15.8373C76.2413 15.6439 76.1315 15.3962 76.1315 15.0943C76.1315 14.6216 76.2991 14.1622 76.6329 13.7159C76.9674 13.2696 77.4885 12.9025 78.1963 12.613C78.9049 12.3243 79.7861 12.1799 80.8416 12.1799C82.0222 12.1799 82.9496 12.3199 83.6252 12.5984C84.3 12.8776 84.7772 13.3187 85.0561 13.9225C85.335 14.5264 85.4741 15.3273 85.4741 16.3246C85.4741 16.9549 85.4726 17.4898 85.4689 17.9295C85.4653 18.3692 85.4609 18.8587 85.4543 19.3965C85.4543 19.9022 85.5385 20.4291 85.7053 20.9765C85.8722 21.5246 85.9564 21.8778 85.9564 22.0346C85.9564 22.3102 85.8268 22.5615 85.5677 22.7879C85.3086 23.0144 85.0151 23.128 84.6872 23.128C84.412 23.128 84.1397 22.9983 83.8711 22.7388C83.6017 22.4794 83.317 22.1035 83.0154 21.6111L83.0147 21.6133ZM82.8376 17.7243C82.4445 17.8687 81.8722 18.0211 81.1212 18.1823C80.3702 18.3435 79.8513 18.4615 79.5621 18.537C79.273 18.6124 78.9985 18.7605 78.7358 18.9803C78.4737 19.2002 78.342 19.5072 78.342 19.9007C78.342 20.2942 78.4957 20.654 78.8046 20.9398C79.1127 21.2256 79.516 21.3678 80.0145 21.3678C80.5459 21.3678 81.0355 21.2513 81.485 21.0182C81.9336 20.7852 82.263 20.4848 82.4731 20.1169C82.7154 19.7102 82.8369 19.0404 82.8369 18.1083V17.7243H82.8376Z" fill="#757C93"/>
<path d="M88.9202 23.4644L89.1661 22.8642L85.8614 14.5345C85.6579 14.0552 85.5569 13.7071 85.5569 13.491C85.5569 13.2616 85.6162 13.0476 85.7341 12.8512C85.8519 12.6541 86.0144 12.4966 86.2208 12.3786C86.4272 12.2606 86.6424 12.2012 86.8649 12.2012C87.2521 12.2012 87.5434 12.3243 87.7403 12.5706C87.9372 12.8168 88.1107 13.17 88.2615 13.6287L90.5334 20.2452L92.6875 14.0911C92.8581 13.5921 93.0118 13.2015 93.1494 12.9194C93.287 12.6372 93.4334 12.4467 93.5871 12.3485C93.7415 12.2503 93.9589 12.2005 94.2414 12.2005C94.4449 12.2005 94.6396 12.2547 94.827 12.3632C95.0144 12.4716 95.1578 12.6175 95.2596 12.8014C95.3606 12.9853 95.4118 13.1788 95.4118 13.3825C95.3855 13.5071 95.343 13.6844 95.2837 13.9138C95.2244 14.1439 95.1527 14.3769 95.0678 14.6129L91.5669 23.7897C91.2654 24.5973 90.9704 25.2304 90.682 25.6899C90.3936 26.1493 90.0115 26.5018 89.5365 26.748C89.0615 26.9943 88.4203 27.1174 87.6137 27.1174C86.8071 27.1174 86.2369 27.0316 85.8438 26.8616C85.4501 26.6909 85.2539 26.3794 85.2539 25.9266C85.2539 25.6181 85.3469 25.3799 85.5342 25.2128C85.7216 25.0458 85.9983 24.9615 86.365 24.9615C86.5092 24.9615 86.6505 24.9813 86.7881 25.0208C86.9586 25.0604 87.1057 25.0802 87.2309 25.0802C87.539 25.0802 87.7813 25.034 87.9584 24.9424C88.1356 24.8501 88.2944 24.6911 88.4357 24.4646C88.5769 24.2382 88.7387 23.9048 88.9224 23.4651L88.9202 23.4644Z" fill="#757C93"/>
<path d="M23.8693 18.0547V20.7976C23.8693 21.1618 23.8334 21.4535 23.7624 21.6711C23.6907 21.8895 23.5589 22.0859 23.3679 22.2617C23.1761 22.4369 22.9309 22.6069 22.6315 22.7696C21.7671 23.2378 20.9349 23.5793 20.1356 23.7948C19.3363 24.0095 18.4653 24.1172 17.5226 24.1172C16.4239 24.1172 15.4234 23.9479 14.5194 23.6094C13.6155 23.2708 12.8455 22.7798 12.2087 22.1357C11.5719 21.4916 11.0822 20.7104 10.7411 19.7929C10.4 18.8755 10.2295 17.8503 10.2295 16.7181C10.2295 15.5859 10.3949 14.5871 10.7265 13.6631C11.0581 12.739 11.5455 11.9549 12.1889 11.3108C12.8323 10.6666 13.6155 10.1735 14.5384 9.83199C15.4614 9.49051 16.5081 9.31976 17.6778 9.31976C18.6395 9.31976 19.4915 9.448 20.2322 9.70522C20.973 9.96243 21.5746 10.2863 22.0357 10.6762C22.4969 11.0668 22.8453 11.4801 23.0788 11.9161C23.313 12.3521 23.4301 12.739 23.4301 13.0776C23.4301 13.4418 23.2954 13.7525 23.0253 14.0097C22.7552 14.2669 22.4325 14.3951 22.0555 14.3951C21.8476 14.3951 21.6478 14.346 21.456 14.2486C21.2643 14.1511 21.1032 14.0141 20.9737 13.8389C20.6165 13.2791 20.3142 12.8563 20.0668 12.5697C19.8202 12.2832 19.4871 12.0428 19.0677 11.8472C18.6483 11.6523 18.114 11.5541 17.464 11.5541C16.8141 11.5541 16.1963 11.6699 15.67 11.9007C15.1438 12.1315 14.6936 12.4671 14.3196 12.9061C13.9456 13.345 13.6601 13.8836 13.4618 14.5212C13.2634 15.1587 13.1646 15.8651 13.1646 16.6397C13.1646 18.3185 13.5496 19.6105 14.3196 20.5147C15.0896 21.419 16.1641 21.8712 17.5416 21.8712C18.2113 21.8712 18.8401 21.7832 19.4286 21.6074C20.017 21.4315 20.6128 21.1809 21.2174 20.8555V18.5325H18.9748C18.4353 18.5325 18.0276 18.4512 17.7509 18.2885C17.4743 18.1258 17.3367 17.8496 17.3367 17.459C17.3367 17.1402 17.4523 16.8764 17.6829 16.6683C17.9134 16.4602 18.2274 16.3561 18.6234 16.3561H21.9091C22.3117 16.3561 22.6535 16.392 22.9331 16.4631C23.2127 16.5349 23.4381 16.6939 23.6109 16.9416C23.7829 17.1886 23.8693 17.5601 23.8693 18.054V18.0547Z" fill="#757C93"/>
<path d="M24.5146 22.6721V10.7194C24.5146 10.1676 24.6376 9.75061 24.8828 9.46775C25.128 9.18489 25.4589 9.04346 25.8761 9.04346C26.2933 9.04346 26.6292 9.18342 26.8847 9.46262C27.1401 9.74182 27.2675 10.161 27.2675 10.7194V22.6721C27.2675 23.2305 27.1379 23.6496 26.8796 23.9288C26.6205 24.208 26.286 24.348 25.8761 24.348C25.4662 24.348 25.1449 24.2036 24.8931 23.9142C24.6413 23.6247 24.5146 23.2107 24.5146 22.6728V22.6721Z" fill="#757C93"/>
<path d="M42.6248 10.093V14.3022C43.1422 13.7643 43.67 13.3517 44.208 13.0659C44.7459 12.7802 45.4113 12.6373 46.2047 12.6373C47.1189 12.6373 47.9204 12.8542 48.6091 13.288C49.2979 13.7218 49.8322 14.3513 50.2121 15.1757C50.592 16.0001 50.7815 16.9776 50.7815 18.1083C50.7815 18.943 50.6754 19.708 50.4639 20.4049C50.2523 21.1018 49.9449 21.7057 49.5416 22.2172C49.1383 22.7286 48.6494 23.1236 48.0748 23.4036C47.5002 23.6828 46.8664 23.8227 46.174 23.8227C45.7502 23.8227 45.352 23.7722 44.9794 23.6718C44.6061 23.5706 44.2885 23.438 44.0264 23.2731C43.7644 23.1082 43.5404 22.9382 43.356 22.7631C43.1708 22.5879 42.9278 22.3256 42.6248 21.9761V22.2487C42.6248 22.7668 42.5003 23.1588 42.2515 23.4248C42.0026 23.6908 41.6871 23.8234 41.3036 23.8234C40.9201 23.8234 40.6031 23.6908 40.3711 23.4248C40.1391 23.1588 40.0234 22.7675 40.0234 22.2487V10.2139C40.0234 9.65549 40.1362 9.2334 40.3616 8.94688C40.5863 8.66108 40.901 8.51819 41.3043 8.51819C41.7274 8.51819 42.0539 8.65449 42.2822 8.92709C42.5106 9.19969 42.6248 9.58808 42.6248 10.093ZM42.7558 18.2798C42.7558 19.3768 43.0061 20.2195 43.5068 20.8087C44.0074 21.3979 44.6647 21.6917 45.4779 21.6917C46.1703 21.6917 46.7668 21.3906 47.2675 20.7882C47.7681 20.1858 48.0185 19.3226 48.0185 18.1992C48.0185 17.4723 47.9138 16.8465 47.7059 16.3218C47.4973 15.7971 47.2016 15.3911 46.8188 15.1053C46.436 14.8195 45.9888 14.6766 45.4779 14.6766C44.967 14.6766 44.4861 14.8195 44.0762 15.1053C43.6663 15.3911 43.3435 15.8052 43.1078 16.3467C42.8722 16.889 42.7551 17.5331 42.7551 18.2798H42.7558Z" fill="#757C93"/>
<path d="M59.2705 18.463H53.8863C53.8929 19.0888 54.0188 19.6406 54.2648 20.1184C54.51 20.5961 54.8357 20.956 55.2426 21.1985C55.6496 21.4411 56.0983 21.562 56.5887 21.562C56.9181 21.562 57.2189 21.5231 57.4912 21.4462C57.7635 21.3693 58.0269 21.2476 58.2824 21.0827C58.5378 20.9178 58.7728 20.7412 58.988 20.5529C59.2032 20.3646 59.4821 20.1088 59.8246 19.7857C59.9659 19.664 60.1672 19.6039 60.4299 19.6039C60.7125 19.6039 60.9408 19.6816 61.1158 19.8362C61.29 19.9909 61.3778 20.21 61.3778 20.4928C61.3778 20.742 61.2804 21.0329 61.085 21.3656C60.8903 21.699 60.5961 22.0185 60.203 22.3248C59.81 22.6311 59.3159 22.8854 58.7208 23.0869C58.1258 23.2885 57.4414 23.3896 56.6685 23.3896C54.9008 23.3896 53.5262 22.8847 52.5447 21.8756C51.5632 20.8658 51.0728 19.4969 51.0728 17.7675C51.0728 16.9534 51.1935 16.1979 51.4358 15.501C51.6781 14.8041 52.0309 14.2076 52.4949 13.7093C52.959 13.2117 53.5299 12.8292 54.2091 12.5632C54.8876 12.2972 55.6408 12.1646 56.4679 12.1646C57.5431 12.1646 58.4661 12.3917 59.2354 12.8461C60.0047 13.3004 60.5814 13.8874 60.965 14.6077C61.3485 15.328 61.5395 16.0616 61.5395 16.8083C61.5395 17.5015 61.3412 17.9507 60.9445 18.1559C60.5478 18.3611 59.99 18.4637 59.2705 18.4637V18.463ZM53.8863 16.8984H58.8775C58.8101 15.9561 58.5561 15.2511 58.1162 14.7836C57.6756 14.3161 57.0959 14.0823 56.3772 14.0823C55.6584 14.0823 55.1285 14.3197 54.6886 14.7938C54.2479 15.268 53.9808 15.97 53.8871 16.8984H53.8863Z" fill="#757C93"/>
<path d="M96.1318 12.2525V9.08094C96.1318 8.91606 96.1692 8.79295 96.2445 8.71015C96.3199 8.62734 96.4166 8.5863 96.5351 8.5863C96.6537 8.5863 96.7569 8.62734 96.833 8.70868C96.9084 8.79002 96.9465 8.91387 96.9465 9.08094V12.2525C96.9465 12.4188 96.9084 12.5434 96.833 12.6262C96.7569 12.7083 96.6581 12.7501 96.5351 12.7501C96.4122 12.7501 96.3214 12.7083 96.246 12.6248C96.1706 12.5412 96.1326 12.4174 96.1326 12.2525H96.1318Z" fill="#757C93"/>
<path d="M98.147 10.1164V10.2073C98.2788 10.0336 98.4229 9.90538 98.5788 9.82404C98.7348 9.7427 98.9148 9.70166 99.1176 9.70166C99.3203 9.70166 99.4916 9.7449 99.6468 9.83063C99.8019 9.91637 99.9183 10.0387 99.9952 10.1956C100.045 10.2872 100.076 10.3861 100.091 10.4924C100.106 10.5986 100.113 10.7342 100.113 10.8991V12.2936C100.113 12.4438 100.079 12.5574 100.01 12.6343C99.941 12.7113 99.8517 12.7494 99.7426 12.7494C99.6336 12.7494 99.5406 12.7098 99.4711 12.6314C99.4016 12.553 99.3672 12.4401 99.3672 12.2936V11.0441C99.3672 10.7972 99.3327 10.6081 99.2639 10.477C99.1951 10.3458 99.059 10.2806 98.8541 10.2806C98.7201 10.2806 98.5993 10.3201 98.4896 10.4C98.3798 10.4799 98.2992 10.5891 98.248 10.7283C98.2114 10.8397 98.1931 11.0485 98.1931 11.3541V12.2928C98.1931 12.4445 98.158 12.5588 98.0877 12.6351C98.0175 12.7113 97.9267 12.7486 97.8147 12.7486C97.7027 12.7486 97.6178 12.7091 97.5483 12.6307C97.4787 12.5523 97.4443 12.4394 97.4443 12.2928V10.1267C97.4443 9.98379 97.4751 9.87753 97.5373 9.80718C97.5995 9.73683 97.6844 9.70166 97.792 9.70166C97.8579 9.70166 97.9172 9.71705 97.9706 9.74856C98.024 9.78007 98.0658 9.82624 98.098 9.88852C98.1302 9.95081 98.1463 10.027 98.1463 10.1164H98.147Z" fill="#757C93"/>
<path d="M103.191 11.8216C103.191 11.9147 103.163 12.0151 103.107 12.1206C103.051 12.2268 102.967 12.328 102.852 12.424C102.738 12.52 102.594 12.5976 102.421 12.6563C102.247 12.7149 102.051 12.7442 101.834 12.7442C101.371 12.7442 101.01 12.6094 100.75 12.3389C100.49 12.0685 100.361 11.7065 100.361 11.2529C100.361 10.9452 100.42 10.6733 100.539 10.4373C100.658 10.2014 100.83 10.0182 101.055 9.88993C101.279 9.76096 101.548 9.69647 101.861 9.69647C102.055 9.69647 102.232 9.72505 102.394 9.78148C102.556 9.8379 102.693 9.91118 102.806 10.0013C102.918 10.0915 103.004 10.1867 103.063 10.2886C103.122 10.3904 103.152 10.485 103.152 10.5729C103.152 10.6608 103.119 10.7385 103.052 10.8008C102.986 10.8631 102.904 10.8939 102.81 10.8939C102.748 10.8939 102.696 10.8777 102.655 10.8455C102.614 10.8133 102.568 10.762 102.516 10.6901C102.425 10.5509 102.33 10.4469 102.229 10.3772C102.13 10.3076 102.003 10.2732 101.85 10.2732C101.629 10.2732 101.45 10.3597 101.315 10.5326C101.18 10.7055 101.113 10.9422 101.113 11.2427C101.113 11.3834 101.13 11.5131 101.165 11.6311C101.199 11.749 101.249 11.8502 101.315 11.933C101.381 12.0165 101.46 12.0795 101.554 12.1228C101.648 12.166 101.749 12.1873 101.861 12.1873C102.011 12.1873 102.139 12.1528 102.246 12.0832C102.353 12.0136 102.448 11.9073 102.53 11.7652C102.576 11.6809 102.625 11.6149 102.678 11.5673C102.731 11.5197 102.796 11.4955 102.873 11.4955C102.964 11.4955 103.04 11.5307 103.1 11.5996C103.161 11.6692 103.191 11.7432 103.191 11.8216Z" fill="#757C93"/>
<path d="M56.539 20.9443C56.5075 20.9472 56.4768 20.9472 56.4453 20.9472C56.4299 20.9472 56.4138 20.9472 56.3984 20.9443C56.4453 20.9413 56.4921 20.9413 56.539 20.9443Z" fill="white"/>
<path d="M33.8169 12.778C30.521 12.778 27.8486 15.4534 27.8486 18.7532C27.8486 22.053 30.521 24.7285 33.8169 24.7285C37.1128 24.7285 39.7852 22.053 39.7852 18.7532C39.7852 15.4534 37.1128 12.778 33.8169 12.778ZM33.8169 22.7081C31.635 22.7081 29.8666 20.9377 29.8666 18.7532C29.8666 16.5687 31.635 14.7983 33.8169 14.7983C35.9988 14.7983 37.7672 16.5687 37.7672 18.7532C37.7672 20.9377 35.9988 22.7081 33.8169 22.7081Z" fill="#757C93"/>
</g>
</g>
<defs>
<linearGradient id="paint0_linear_588_39269" x1="55.8993" y1="5.26129" x2="55.8993" y2="31.74" gradientUnits="userSpaceOnUse">
<stop stop-color="white"/>
<stop offset="1" stop-color="#C4CCDD"/>
</linearGradient>
<clipPath id="clip0_588_39269">
<rect width="98.7568" height="26.4783" fill="white" transform="translate(6.52148 5.26086)"/>
</clipPath>
</defs>
</svg>
