<svg width="113" height="37" viewBox="0 0 113 37" fill="none" xmlns="http://www.w3.org/2000/svg">
<mask id="mask0_588_38293" style="mask-type:luminance" maskUnits="userSpaceOnUse" x="8" y="5" width="97" height="29">
<path d="M105 5.00195H8V33.002H105V5.00195Z" fill="white"/>
</mask>
<g mask="url(#mask0_588_38293)">
<path d="M86.903 8.81462V12.842C86.903 13.3161 86.9822 13.4738 87.5344 13.4738H91.2437C91.6382 13.4738 91.8751 13.5532 91.7958 14.0264C91.7258 14.4779 91.7849 14.94 91.9665 15.3592C92.1481 15.7785 92.4446 16.1376 92.8218 16.3952H88.1686C86.9057 16.3952 86.9057 16.3952 86.9057 17.5796V19.7122C86.8989 20.0149 86.9534 20.3158 87.0659 20.5968C87.1785 20.8778 87.3469 21.1331 87.5608 21.3471C87.7747 21.5612 88.0298 21.7297 88.3106 21.8423C88.5914 21.955 88.8921 22.0095 89.1946 22.0026H90.9312C91.2465 22.0026 91.4051 22.082 91.4051 22.4768V24.5301C91.4051 24.7672 91.4051 25.0042 91.0898 25.0042C90.1684 25.0579 89.244 25.0314 88.3272 24.9249C87.1444 24.7012 86.0749 24.0765 85.2987 23.1559C84.5225 22.2353 84.087 21.0752 84.0657 19.8709V16.9486C84.0657 16.5538 83.9081 16.4745 83.5919 16.4745H77.1199C76.6461 16.4745 76.1733 16.6322 76.1733 17.1857C76.1733 17.8176 76.5678 17.9753 77.1199 17.9753H79.9609C80.4177 17.9619 80.8726 18.0394 81.2992 18.2033C81.7257 18.3672 82.1156 18.6143 82.446 18.9302C82.7764 19.246 83.0408 19.6244 83.2239 20.0434C83.407 20.4624 83.5052 20.9135 83.5126 21.3708C83.5194 22.3227 83.1498 23.2387 82.4845 23.9191C81.8192 24.5996 80.9121 24.9893 79.9609 25.0033H71.7532C71.5618 24.9976 71.3765 24.9342 71.2216 24.8215C71.0667 24.7088 70.9493 24.5519 70.8849 24.3714C70.5696 23.8189 70.3327 23.7396 69.7013 24.1344C68.9372 24.7751 67.9867 25.1519 66.9914 25.2088C65.9961 25.2656 65.009 24.9994 64.177 24.4498C63.3332 23.9303 62.6598 23.175 62.2399 22.2771C61.8199 21.3792 61.6717 20.3779 61.8135 19.3968C61.9341 18.708 62.2648 18.0735 62.7602 17.5805C63.2602 16.8557 63.8729 16.2157 64.5752 15.6849C64.8121 15.922 64.7329 16.0797 64.7329 16.3168V19.8709C64.7018 20.1697 64.7337 20.4717 64.8267 20.7574C64.9196 21.0431 65.0714 21.3061 65.2723 21.5293C65.4731 21.7526 65.7186 21.9312 65.9928 22.0536C66.267 22.1759 66.5638 22.2393 66.8641 22.2397C67.478 22.1988 68.052 21.9205 68.4644 21.4635C68.8768 21.0066 69.0953 20.4069 69.0736 19.7916V14.1057C69.0736 13.6316 69.1529 13.4738 69.705 13.4738H71.4417C71.9155 13.4738 71.9939 13.6316 71.9939 14.0264V21.1337C71.9939 21.6862 72.0731 21.9233 72.7829 21.9233C74.9925 21.844 77.202 21.9233 79.4125 21.9233H79.9646C80.1408 21.9081 80.3045 21.8259 80.422 21.6936C80.5394 21.5613 80.6017 21.389 80.5961 21.2121C80.5961 20.8173 80.2808 20.738 79.9646 20.738H77.0407C76.5518 20.7554 76.0643 20.6746 75.6072 20.5003C75.15 20.3259 74.7325 20.0616 74.3792 19.7229C74.026 19.3842 73.7442 18.978 73.5506 18.5284C73.357 18.0788 73.2555 17.595 73.2521 17.1054C73.2339 16.6264 73.3122 16.1485 73.4823 15.7004C73.6524 15.2522 73.9107 14.8428 74.2421 14.4965C74.5734 14.1503 74.9709 13.8742 75.411 13.6847C75.851 13.4952 76.3247 13.3962 76.8038 13.3936H83.5117C84.0638 13.3936 84.2224 13.2358 84.2224 12.6824V8.73529C85.0114 8.81462 85.9591 8.81462 86.903 8.81462Z" fill="url(#paint0_linear_588_38293)"/>
<path d="M37.2649 29.0315V26.5834C37.2649 26.2679 37.3442 26.1886 37.6595 26.1886H39.0007C39.507 26.184 39.9993 26.0218 40.4094 25.7247C40.8196 25.4275 41.1271 25.01 41.2895 24.5301C40.7373 24.6094 40.3428 24.9249 39.7897 25.0042C39.1467 25.0688 38.4973 25.0054 37.8789 24.8177C37.2606 24.63 36.6854 24.3217 36.1866 23.9106C35.6878 23.4994 35.2753 22.9936 34.9728 22.4221C34.6702 21.8507 34.4837 21.225 34.4239 20.5811C34.2663 18.2907 34.3447 16.0797 34.3447 13.7893C34.3447 13.3945 34.5023 13.3945 34.8185 13.3945H36.6335C37.1073 13.3945 37.2649 13.4738 37.2649 14.0263V19.7915C37.2349 20.097 37.2704 20.4053 37.3689 20.6959C37.4674 20.9865 37.6266 21.2528 37.8361 21.4769C38.0455 21.7011 38.3003 21.878 38.5835 21.9958C38.8667 22.1137 39.1717 22.1698 39.4782 22.1603C40.08 22.1249 40.6451 21.8592 41.0564 21.4182C41.4678 20.9772 41.6938 20.3947 41.6878 19.7915V14.1841C41.6878 13.6315 41.767 13.3945 42.3985 13.3945H44.1351C44.4504 13.3945 44.6089 13.4738 44.6089 13.8686C44.6089 17.1857 44.6089 20.5027 44.5297 23.8982C44.4814 25.0453 44.0857 26.1506 43.395 27.0675C42.7044 27.9843 41.7515 28.6693 40.6627 29.0315C40.1803 29.1971 39.6728 29.2773 39.163 29.2686C38.2116 29.1893 37.9747 29.1099 37.2649 29.0315Z" fill="url(#paint1_linear_588_38293)"/>
<path d="M96.2187 9.05169C96.5057 9.14127 96.7678 9.29673 96.9842 9.50567C97.2005 9.7146 97.3651 9.97123 97.4647 10.2551C97.5644 10.539 97.5964 10.8422 97.5582 11.1406C97.52 11.439 97.4126 11.7244 97.2446 11.974C97.087 12.2894 97.087 12.3688 97.3239 12.6058C97.5839 12.8318 97.7819 13.1206 97.899 13.4446C98.0162 13.7687 98.0486 14.1174 97.9933 14.4575C97.938 14.7977 97.7967 15.118 97.583 15.3882C97.3692 15.6584 97.0899 15.8694 96.7718 16.0013C96.2833 16.2614 95.7359 16.3907 95.1828 16.3768C94.6296 16.3629 94.0894 16.2063 93.6146 15.922C93.3211 15.7821 93.0677 15.5703 92.8778 15.3063C92.6879 15.0422 92.5677 14.7345 92.5284 14.4116C92.489 14.0887 92.5318 13.761 92.6527 13.4591C92.7736 13.1571 92.9688 12.8906 93.2201 12.6842C93.3777 12.5265 93.6146 12.4472 93.3777 12.1317C93.1746 11.8749 93.0403 11.5705 92.9875 11.2473C92.9346 10.9241 92.9649 10.5927 93.0755 10.2845C93.1861 9.97629 93.3733 9.70135 93.6196 9.48565C93.8659 9.26995 94.163 9.1206 94.4829 9.05169C95.0437 8.84866 95.6579 8.84866 96.2187 9.05169ZM95.1927 13.0006C94.8725 12.9882 94.5588 13.094 94.3115 13.2979C94.0642 13.5019 93.9005 13.7897 93.8515 14.1066C93.8515 14.6592 94.4829 15.1333 95.1927 15.1333C95.9025 15.1333 96.5339 14.6592 96.5339 14.1066C96.6123 13.4738 95.9818 12.9988 95.1927 12.9988V13.0006ZM95.1927 10.2361C94.6406 10.2361 94.1668 10.6309 94.246 11.105C94.2862 11.3271 94.403 11.528 94.5761 11.6727C94.7492 11.8174 94.9676 11.8967 95.1932 11.8967C95.4187 11.8967 95.6371 11.8174 95.8102 11.6727C95.9833 11.528 96.1002 11.3271 96.1403 11.105C96.2187 10.6309 95.7449 10.2361 95.1927 10.2361Z" fill="url(#paint2_linear_588_38293)"/>
<path d="M20.6127 12.9997C20.1487 11.9418 19.3865 11.0422 18.4194 10.4111C17.4523 9.77997 16.3222 9.44477 15.1677 9.44652C13.1157 9.36719 10.9845 9.44652 8.93262 9.36719V24.6879H11.5367C11.9312 24.6879 12.0888 24.6085 12.0888 24.1353V22.082C12.0888 21.6872 12.1681 21.5295 12.641 21.5295H15.3253C16.2454 21.5364 17.154 21.3254 17.977 20.9137C18.8 20.502 19.514 19.9013 20.0606 19.1607C20.7293 18.2929 21.1365 17.2522 21.2343 16.1607C21.3321 15.0693 21.1165 13.9727 20.6127 12.9997ZM15.1677 18.6865H12.4843C12.0898 18.6865 12.0105 18.5288 12.0105 18.2124V12.9997C12.0105 12.6049 12.0898 12.4472 12.4843 12.5256H15.1677C15.9591 12.5386 16.7144 12.859 17.274 13.4191C17.8336 13.9793 18.1535 14.7352 18.1663 15.5272C18.1724 16.3398 17.8633 17.1231 17.304 17.7123C16.7448 18.3016 15.979 18.6508 15.1677 18.6865Z" fill="url(#paint3_linear_588_38293)"/>
<path d="M68.6753 9.5249C67.0971 9.9197 65.5181 10.3145 63.94 10.867C62.6962 11.312 61.4835 11.8396 60.3099 12.4462C60.0417 12.5813 59.7402 12.636 59.4416 12.604H51.4699C50.9961 12.604 50.8385 12.6833 50.8385 13.2358V24.2137C50.8385 24.7662 50.6808 24.9249 50.1277 24.9249H48.4713C47.9191 24.9249 47.6822 24.8456 47.6822 24.2137V13.5522C47.6822 12.841 47.5246 12.6833 46.8139 12.6833C45.1565 12.7626 43.5784 12.6833 41.921 12.6833C41.4472 12.6833 41.2896 12.604 41.2896 12.0514C41.329 11.394 41.329 10.7348 41.2896 10.0774C41.2896 9.68264 41.3688 9.5249 41.8417 9.5249H68.6753Z" fill="url(#paint4_linear_588_38293)"/>
<path d="M33.3196 19.1606V24.2939C33.3343 24.4186 33.302 24.5443 33.229 24.6465C33.1561 24.7487 33.0477 24.8199 32.9251 24.8465C32.7773 24.8912 32.6187 24.8844 32.4753 24.827C32.332 24.7697 32.2123 24.6653 32.136 24.531C31.9336 24.2811 31.7491 24.0173 31.5839 23.7414C31.347 23.2673 31.1101 23.3466 30.7948 23.6621C30.0339 24.3399 29.1008 24.7945 28.0982 24.9756C27.0957 25.1568 26.0626 25.0575 25.1128 24.6887C23.9116 24.2493 22.8929 23.4186 22.2203 22.33C21.5477 21.2414 21.2604 19.9582 21.4045 18.6865C21.4084 17.5905 21.7257 16.5185 22.3188 15.5972C22.9119 14.6758 23.7561 13.9436 24.7517 13.4868C25.7473 13.0301 26.8527 12.868 27.9374 13.0197C29.0221 13.1713 30.0408 13.6304 30.8731 14.3427C31.1884 14.6582 31.4253 14.6582 31.7415 14.2634C32.0577 13.8686 32.2936 13.1574 32.9251 13.3945C33.4772 13.6315 33.3196 14.2634 33.3196 14.7366C33.3196 16.2383 33.3196 17.7391 33.3196 19.1606ZM24.4012 19.0029C24.3689 19.3955 24.4185 19.7906 24.5467 20.1631C24.6749 20.5357 24.8789 20.8775 25.146 21.167C25.413 21.4565 25.7372 21.6874 26.098 21.845C26.4589 22.0027 26.8485 22.0837 27.2422 22.0829C28.0454 22.0439 28.8013 21.6911 29.3474 21.1003C29.8934 20.5095 30.1861 19.7279 30.1624 18.9235C30.1561 18.1355 29.8511 17.3792 29.309 16.8075C28.767 16.2358 28.0283 15.8913 27.2422 15.8435C26.8465 15.8585 26.4578 15.9528 26.0992 16.1208C25.7405 16.2888 25.4193 16.5271 25.1543 16.8216C24.8894 17.1162 24.6863 17.4609 24.5569 17.8354C24.4275 18.2099 24.3746 18.6066 24.4012 19.0019V19.0029Z" fill="url(#paint5_linear_588_38293)"/>
<path d="M75.0678 9.36902C74.4523 9.5169 73.8462 9.7014 73.2528 9.92155C69.8031 10.9097 66.584 12.5737 63.7822 14.8169C60.2947 17.6214 57.9627 21.6139 57.2319 26.0309C56.9152 24.4771 56.4933 22.9466 55.969 21.4501C55.0224 18.8442 53.9171 16.3961 51.7859 14.5005C51.549 14.2634 51.7066 14.185 51.8652 14.1057C52.2198 13.9558 52.6049 13.892 52.9889 13.9194C53.3729 13.9468 53.7449 14.0647 54.0747 14.2634C55.1916 14.8584 56.162 15.6946 56.9157 16.7116C57.1526 16.9486 57.231 17.027 57.4679 16.7116C59.9936 13.2368 63.6236 11.4205 67.6482 10.3145C70.0636 9.64622 72.5621 9.32783 75.0678 9.36902Z" fill="url(#paint6_linear_588_38293)"/>
<path d="M102.138 9.0517C102.425 9.14128 102.687 9.29674 102.903 9.50567C103.119 9.71461 103.284 9.97124 103.384 10.2551C103.483 10.539 103.515 10.8422 103.477 11.1406C103.439 11.4391 103.332 11.7244 103.164 11.974C103.006 12.2894 103.006 12.3688 103.243 12.6058C103.503 12.8318 103.701 13.1206 103.818 13.4447C103.935 13.7687 103.968 14.1174 103.912 14.4575C103.857 14.7977 103.716 15.118 103.502 15.3882C103.288 15.6584 103.009 15.8694 102.691 16.0013C102.202 16.2614 101.655 16.3907 101.102 16.3769C100.549 16.363 100.008 16.2063 99.5335 15.922C99.2401 15.7821 98.9866 15.5703 98.7967 15.3063C98.6068 15.0422 98.4866 14.7345 98.4473 14.4116C98.408 14.0887 98.4507 13.761 98.5716 13.4591C98.6926 13.1571 98.8877 12.8906 99.139 12.6842C99.2966 12.5265 99.5335 12.4472 99.2966 12.1317C99.0936 11.8749 98.9593 11.5705 98.9064 11.2473C98.8535 10.9241 98.8838 10.5927 98.9944 10.2845C99.105 9.9763 99.2923 9.70136 99.5386 9.48565C99.7848 9.26995 100.082 9.1206 100.402 9.0517C100.963 8.85077 101.576 8.85077 102.138 9.0517ZM101.112 13.0006C100.791 12.9882 100.478 13.094 100.23 13.2979C99.9832 13.5019 99.8194 13.7897 99.7704 14.1066C99.7704 14.6592 100.402 15.1333 101.112 15.1333C101.821 15.1333 102.453 14.6592 102.453 14.1066C102.531 13.4738 101.901 12.9988 101.112 12.9988V13.0006ZM101.112 10.2361C100.56 10.2361 100.086 10.6309 100.165 11.105C100.205 11.3271 100.322 11.528 100.495 11.6727C100.668 11.8174 100.887 11.8967 101.112 11.8967C101.338 11.8967 101.556 11.8174 101.729 11.6727C101.902 11.528 102.019 11.3271 102.059 11.105C102.138 10.6309 101.664 10.2361 101.112 10.2361Z" fill="url(#paint7_linear_588_38293)"/>
</g>
<defs>
<linearGradient id="paint0_linear_588_38293" x1="77.2915" y1="8.73529" x2="77.2915" y2="25.2163" gradientUnits="userSpaceOnUse">
<stop stop-color="white"/>
<stop offset="1" stop-color="#C4CCDD"/>
</linearGradient>
<linearGradient id="paint1_linear_588_38293" x1="39.4671" y1="13.3945" x2="39.4671" y2="29.2692" gradientUnits="userSpaceOnUse">
<stop stop-color="white"/>
<stop offset="1" stop-color="#C4CCDD"/>
</linearGradient>
<linearGradient id="paint2_linear_588_38293" x1="95.2669" y1="8.89941" x2="95.2669" y2="16.3779" gradientUnits="userSpaceOnUse">
<stop stop-color="white"/>
<stop offset="1" stop-color="#C4CCDD"/>
</linearGradient>
<linearGradient id="paint3_linear_588_38293" x1="15.095" y1="9.36719" x2="15.095" y2="24.6879" gradientUnits="userSpaceOnUse">
<stop stop-color="white"/>
<stop offset="1" stop-color="#C4CCDD"/>
</linearGradient>
<linearGradient id="paint4_linear_588_38293" x1="54.9824" y1="9.5249" x2="54.9824" y2="24.9249" gradientUnits="userSpaceOnUse">
<stop stop-color="white"/>
<stop offset="1" stop-color="#C4CCDD"/>
</linearGradient>
<linearGradient id="paint5_linear_588_38293" x1="27.3543" y1="12.9644" x2="27.3543" y2="25.0637" gradientUnits="userSpaceOnUse">
<stop stop-color="white"/>
<stop offset="1" stop-color="#C4CCDD"/>
</linearGradient>
<linearGradient id="paint6_linear_588_38293" x1="63.3664" y1="9.36548" x2="63.3664" y2="26.0309" gradientUnits="userSpaceOnUse">
<stop stop-color="white"/>
<stop offset="1" stop-color="#C4CCDD"/>
</linearGradient>
<linearGradient id="paint7_linear_588_38293" x1="101.186" y1="8.901" x2="101.186" y2="16.3779" gradientUnits="userSpaceOnUse">
<stop stop-color="white"/>
<stop offset="1" stop-color="#C4CCDD"/>
</linearGradient>
</defs>
</svg>
