<svg width="113" height="37" viewBox="0 0 113 37" fill="none" xmlns="http://www.w3.org/2000/svg">
<mask id="mask0_588_38288" style="mask-type:luminance" maskUnits="userSpaceOnUse" x="38" y="0" width="38" height="37">
<path d="M75.2 0.00195312H38V36.002H75.2V0.00195312Z" fill="white"/>
</mask>
<g mask="url(#mask0_588_38288)">
<mask id="mask1_588_38288" style="mask-type:luminance" maskUnits="userSpaceOnUse" x="38" y="0" width="37" height="37">
<path d="M74.431 0.0020752H38.4058V36.0021H74.431V0.0020752Z" fill="white"/>
</mask>
<g mask="url(#mask1_588_38288)">
<path fill-rule="evenodd" clip-rule="evenodd" d="M58.374 35.0038L60.0864 33.6838C60.8394 33.0234 61.5425 32.3083 62.19 31.5442L62.9844 30.5206C63.0336 30.4546 63.054 30.4234 63.1044 30.3538C63.1764 30.2506 63.1956 30.265 63.2244 30.1546H68.43C68.1321 30.4773 67.8112 30.7781 67.47 31.0546L66.954 31.4662C66.7848 31.6042 66.594 31.7446 66.4272 31.8658C64.2843 33.402 61.8237 34.4375 59.2272 34.8958C58.9456 34.9559 58.6593 34.9916 58.3716 35.0026M56.838 35.0026V30.157H62.154C61.6254 30.8785 61.0446 31.5604 60.4164 32.197C60.2964 32.317 60.2136 32.4058 60.096 32.5186L59.0964 33.4078C58.3904 34.0015 57.6362 34.5354 56.8416 35.0038M50.6736 30.157H55.986V35.0038C55.2093 34.5396 54.4702 34.0152 53.7756 33.4354L53.4276 33.1414C52.9773 32.7494 52.5479 32.334 52.1412 31.897L50.9484 30.5218C50.8464 30.3838 50.7672 30.295 50.6736 30.157ZM54.3816 34.9678C53.8509 34.9257 53.3242 34.8435 52.806 34.7218C50.9316 34.3221 49.1386 33.6076 47.5032 32.6086C47.1312 32.3854 46.7268 32.119 46.392 31.867L45.8616 31.4698C45.768 31.399 45.6924 31.3402 45.6012 31.2658C45.5532 31.2262 45.5388 31.207 45.4884 31.165C45.438 31.123 45.414 31.1134 45.348 31.0558L45.102 30.8422C45.012 30.763 44.9592 30.6886 44.862 30.6142C44.6836 30.4857 44.5254 30.3312 44.3928 30.1558H49.6032C49.9903 30.7459 50.4194 31.3074 50.8872 31.8358C50.9832 31.9558 51.0816 32.0314 51.1776 32.1514C51.9487 32.987 52.7867 33.7584 53.6832 34.4578L54.3816 34.9678ZM62.796 29.2654H56.8416V24.169H64.8996C64.7614 24.8778 64.5606 25.5729 64.2996 26.2462C64.206 26.4862 64.1292 26.6794 64.0344 26.9074C63.7259 27.62 63.3678 28.3101 62.9628 28.9726C62.8893 29.0597 62.8313 29.1587 62.7912 29.2654M47.928 24.169H55.986V29.2666H50.0316C49.9944 29.1679 49.9422 29.0756 49.8768 28.993L49.7028 28.7026L49.086 27.5422C48.5631 26.4696 48.1757 25.3361 47.9328 24.1678M69.3264 29.2654H63.8304C64.5118 28.1036 65.0578 26.8676 65.4576 25.5814L65.8272 24.1678H72.3876C72.3477 24.2907 72.3 24.411 72.2448 24.5278L71.9388 25.2202C71.4652 26.2368 70.892 27.2039 70.2276 28.1074L69.3264 29.2654ZM40.44 24.169H47.04C47.1062 24.6491 47.2187 25.1217 47.376 25.5802C47.7974 26.8585 48.3415 28.0931 49.0008 29.2666H43.506C43.4808 29.1706 42.7068 28.2574 42.6156 28.1254L41.07 25.6054C40.8504 25.1674 40.6116 24.5254 40.4412 24.1654M40.1208 12.6874H72.708C72.75 12.8686 72.828 13.0798 72.882 13.2622C73.1847 14.321 73.3884 15.4057 73.4904 16.5022C73.512 16.777 73.53 16.963 73.5276 17.2498C73.5252 17.5366 73.5636 17.6938 73.5636 17.9974C73.5533 19.3844 73.3785 20.7652 73.0428 22.111C72.9876 22.3306 72.9468 22.5322 72.8808 22.7338C72.8082 22.933 72.75 23.1371 72.7068 23.3446H40.1184L39.7896 22.1446C39.69 21.7438 39.594 21.3094 39.522 20.8822C39.45 20.455 39.3864 19.9786 39.3396 19.5322C39.3123 19.2851 39.2987 19.0368 39.2988 18.7882C39.2988 18.4858 39.2616 18.337 39.2628 18.0394C39.2737 16.4348 39.5001 14.8389 39.936 13.2946C39.9948 13.0906 40.074 12.883 40.1184 12.6946M56.8404 6.7066H62.7948C62.8314 6.80586 62.8837 6.89862 62.9496 6.9814L63.7464 8.4298C63.9864 8.9038 64.1064 9.2242 64.2936 9.7006C64.5528 10.3836 64.7555 11.0868 64.8996 11.803H56.8416L56.8404 6.7066ZM50.0304 6.7066H55.986V11.7994H47.928C48.0181 11.3206 48.1416 10.8486 48.2976 10.387C48.4596 9.907 48.6012 9.5122 48.7932 9.067C49.0477 8.45352 49.346 7.85918 49.686 7.2886C49.8159 7.10313 49.9303 6.90727 50.028 6.703M63.828 6.703H69.3192C69.3456 6.8002 70.1184 7.7122 70.2108 7.8442C70.4928 8.2462 70.7736 8.6314 71.0304 9.0574C71.2872 9.4834 71.526 9.8974 71.7564 10.363C71.8236 10.495 71.8524 10.5646 71.9124 10.705L72.2328 11.4178C72.2844 11.5474 72.3312 11.6866 72.3852 11.7994H65.8272C65.7581 11.5746 65.7012 11.3463 65.6568 11.1154C65.5944 10.8658 65.5368 10.6474 65.4672 10.4134C65.328 9.973 65.1732 9.5206 65.0028 9.0934C64.6963 8.32532 64.3321 7.58159 63.9132 6.8686L63.828 6.703ZM47.028 11.8006H40.428C40.6044 11.4346 40.8432 10.7806 41.0712 10.3414C41.118 10.2514 41.1672 10.1794 41.2236 10.0654C41.3292 9.853 41.4096 9.7054 41.5224 9.5074C41.73 9.1354 41.9508 8.8018 42.1824 8.4562C42.5867 7.8667 43.0246 7.30097 43.494 6.7618C43.6068 6.6718 43.6752 6.7006 43.8624 6.703H48.9972C48.9593 6.80242 48.9106 6.89738 48.852 6.9862C48.4623 7.65503 48.1226 8.35172 47.8356 9.0706C47.6688 9.4882 47.5116 9.9166 47.3796 10.3618C47.2271 10.8319 47.1124 11.3134 47.0364 11.8018M56.8416 0.962197C57.1043 1.10916 57.3595 1.26937 57.606 1.4422C57.9096 1.6258 59.124 2.5726 59.3952 2.8258L59.7336 3.1282C59.9556 3.3514 60.1548 3.5146 60.3756 3.7354L62.154 5.8126H56.8416V0.962197ZM55.986 0.962197V5.8102H50.6724C50.9892 5.3374 51.4644 4.8502 51.8076 4.4146L53.7384 2.5666C54.2026 2.16946 54.6899 1.80002 55.1976 1.4602C55.4489 1.27676 55.7123 1.11039 55.986 0.962197ZM58.446 0.998197C58.7115 1.01042 58.9755 1.04413 59.2356 1.099C60.3587 1.27845 61.46 1.57528 62.5212 1.9846L64.128 2.695C64.56 2.911 64.9212 3.115 65.328 3.3562C66.2742 3.92991 67.1588 4.59944 67.968 5.3542C68.1432 5.48587 68.3016 5.63862 68.4396 5.809H63.2244C62.4707 4.70712 61.6004 3.68965 60.6288 2.7742C60.5532 2.707 60.528 2.7022 60.4512 2.6314L59.8104 2.0602C59.6904 1.9534 59.598 1.8754 59.4804 1.7842C59.3628 1.693 59.268 1.6102 59.1444 1.513L58.446 0.998197ZM49.6032 5.8126H44.3976C44.4629 5.72497 44.5373 5.64452 44.6196 5.5726C44.7168 5.4766 44.7744 5.4526 44.8704 5.3602C46.7399 3.65851 48.956 2.38204 51.366 1.6186C52.0983 1.38829 52.8451 1.20709 53.6016 1.0762C53.8815 1.01479 54.1661 0.976661 54.4524 0.962197C54.1752 1.2022 53.544 1.5838 53.0712 2.005C53.0004 2.0674 52.9824 2.0782 52.914 2.1322C52.3154 2.64885 51.7457 3.19808 51.2076 3.7774L50.7888 4.249C50.3597 4.74236 49.9636 5.2635 49.6032 5.809M38.406 17.4322C38.3677 18.4948 38.4255 19.5588 38.5788 20.611C38.8719 22.6128 39.5007 24.5508 40.4388 26.3434C41.7788 28.8796 43.6964 31.0652 46.0368 32.7238C46.9053 33.3337 47.8242 33.8685 48.7836 34.3222C50.9878 35.348 53.3761 35.9193 55.806 36.0022C57.4991 36.0724 59.1934 35.8925 60.834 35.4682C62.3235 35.0932 63.758 34.5261 65.1012 33.781C66.0156 33.2714 66.8866 32.6875 67.7052 32.035C68.6113 31.3071 69.4426 30.4906 70.1868 29.5978C70.5288 29.1922 70.8336 28.8046 71.1384 28.375L71.7732 27.4054C71.8548 27.277 71.9076 27.181 71.988 27.0454C72.5446 26.1047 73.0092 25.1125 73.3752 24.0826C73.5797 23.539 73.7501 22.9831 73.8852 22.4182C74.618 19.4973 74.613 16.4399 73.8708 13.5214C73.6497 12.6762 73.369 11.8477 73.0308 11.0422C72.924 10.7758 72.7908 10.5466 72.6828 10.2838C72.2165 9.31405 71.6689 8.38554 71.046 7.5082C70.8912 7.2838 70.728 7.0858 70.566 6.8818L69.8172 5.9902C69.1966 5.30201 68.5264 4.66029 67.812 4.0702C67.404 3.7378 66.9984 3.4174 66.5508 3.121C64.1576 1.47359 61.397 0.438159 58.5108 0.105397C57.9924 0.0410934 57.4707 0.00663662 56.9484 0.00219727L55.3536 0.0117973C55.0584 0.0525973 54.6468 0.0705973 54.342 0.105397C52.8245 0.27659 51.3359 0.645311 49.914 1.2022C49.2681 1.44765 48.6395 1.7363 48.0324 2.0662C47.9124 2.1394 47.7924 2.1862 47.6628 2.2666C47.5332 2.347 47.4336 2.3866 47.3196 2.4574C47.2056 2.5282 47.0796 2.5978 46.9596 2.6734C46.2869 3.09151 45.6427 3.55372 45.0312 4.057C44.5824 4.417 44.2272 4.7842 43.8372 5.1094L43.0368 5.9494C42.9336 6.0778 42.8664 6.1318 42.768 6.2506C42.5916 6.4594 42.444 6.6442 42.2736 6.8614C42.1032 7.0786 41.946 7.273 41.7936 7.4878C41.4864 7.927 41.2044 8.3446 40.9176 8.8222L40.3176 9.9022C40.0026 10.5313 39.7249 11.1784 39.486 11.8402C39.3048 12.3862 39.1056 12.9418 38.9604 13.5202C38.801 14.1269 38.6748 14.7418 38.5824 15.3622C38.4757 16.0473 38.4168 16.7389 38.406 17.4322Z" fill="url(#paint0_linear_588_38288)"/>
<path fill-rule="evenodd" clip-rule="evenodd" d="M48.0693 21.709C48.9093 21.709 48.7209 21.8434 49.0677 21.1738L49.7229 19.9738C49.7841 19.8538 49.8273 19.7782 49.8885 19.675C50.3181 18.9358 50.8641 17.791 51.2925 17.0866C51.3369 17.0134 51.3057 17.0554 51.3513 17.0026C51.3616 17.2312 51.3836 17.4591 51.4173 17.6854C51.4437 17.9386 51.4449 18.1258 51.4785 18.3718L51.7749 21.4258C51.7965 21.7858 51.6297 21.7078 52.6701 21.7078C52.7097 21.541 53.9349 19.1794 54.0969 18.8566C54.1761 18.6958 54.2493 18.5518 54.3369 18.3766L55.5489 16.0234C55.6353 15.853 55.7097 15.7414 55.7985 15.5602C55.985 15.1697 56.2135 14.8007 56.4801 14.4598C56.6121 14.3398 56.6253 14.4418 56.6301 14.2198H55.2009C55.2129 14.7298 55.5237 14.431 54.8085 15.859L54.5349 16.405L53.3817 18.6394C53.2952 18.8288 53.1878 19.0079 53.0613 19.1734C53.0613 18.6118 52.7901 16.2934 52.7385 15.5398C52.7109 15.1378 52.6329 14.7142 52.6329 14.2906H51.9909L49.8393 18.271C49.6851 18.583 49.5103 18.8845 49.3161 19.1734C49.3161 18.2038 48.9561 16.1734 48.9561 15.1102C48.9563 14.9464 48.9851 14.784 49.0413 14.6302C49.1205 14.4406 49.2381 14.4394 49.2417 14.2246H47.1069C47.1069 14.4874 47.2533 14.3446 47.3625 15.0034L47.5713 16.897C47.6361 17.6542 48.0693 21.3634 48.0693 21.709Z" fill="url(#paint1_linear_588_38288)"/>
<path fill-rule="evenodd" clip-rule="evenodd" d="M41.7226 16.3271C41.7226 17.3543 42.4006 17.8343 43.0882 18.3491C43.669 18.7847 44.6146 19.2311 44.3782 20.3351C44.3112 20.6252 44.1443 20.8826 43.9067 21.062C43.6691 21.2415 43.3759 21.3316 43.0786 21.3167C42.8245 21.3516 42.5659 21.3308 42.3207 21.2555C42.0755 21.1803 41.8497 21.0525 41.659 20.8811C41.4052 20.5681 41.2532 20.185 41.2234 19.7831C41.0554 19.8275 41.0854 19.8911 41.0434 20.0675C40.7794 21.2159 40.5154 21.1811 41.1634 21.4823C41.3233 21.5568 41.489 21.6182 41.659 21.6659C42.521 21.9233 43.4403 21.9174 44.299 21.6491C44.5938 21.5378 44.8686 21.3794 45.1126 21.1799C45.3413 20.986 45.5258 20.7454 45.6538 20.4743C45.8285 20.1287 45.9112 19.7439 45.8938 19.3571C45.8938 17.4371 43.0762 17.2847 43.0762 15.8291C43.0904 15.6118 43.1562 15.401 43.2681 15.2142C43.3799 15.0274 43.5347 14.8699 43.7195 14.7547C43.9043 14.6396 44.1138 14.5701 44.3308 14.552C44.5478 14.5339 44.766 14.5677 44.9674 14.6507C45.1233 14.6893 45.2672 14.766 45.3862 14.8739C45.6365 15.1036 45.7919 15.4186 45.8218 15.7571H45.9634C45.9778 15.5831 46.279 14.6651 46.2838 14.4371C45.6892 14.2225 45.065 14.1011 44.4334 14.0771C44.0423 14.0928 43.6554 14.1631 43.2838 14.2859C42.8708 14.4255 42.5012 14.6699 42.211 14.9951C41.9054 15.3712 41.7328 15.8379 41.7202 16.3223" fill="url(#paint2_linear_588_38288)"/>
<path fill-rule="evenodd" clip-rule="evenodd" d="M61.8338 14.6482C61.5756 15.8748 61.2527 17.0869 60.8666 18.2794C60.6338 19.0774 60.3494 20.143 60.0914 20.9266C60.0002 21.2026 59.8754 21.5266 59.5874 21.5986V21.7054H61.7978C61.7618 21.2842 61.451 21.6514 62.051 19.7134L62.4746 18.2122C62.8346 18.2122 63.3746 18.1798 63.719 18.2122C63.8856 18.2046 64.0501 18.2526 64.1865 18.3486C64.3229 18.4446 64.4236 18.5832 64.4726 18.7426C64.6658 18.727 64.6358 18.571 64.7654 18.109C64.8326 17.869 64.9106 17.6122 64.9718 17.353C64.7546 17.371 64.8206 17.485 64.5494 17.5726C63.9204 17.6482 63.2861 17.6699 62.6534 17.6374L63.3026 15.2926C63.4778 14.659 63.6242 14.7862 64.721 14.7862C64.9791 14.7874 65.2286 14.8787 65.4266 15.0442C65.8598 15.4498 65.639 15.5482 65.8982 15.571C65.9514 15.3294 66.0245 15.0926 66.1166 14.863C66.1538 14.7514 66.1874 14.6446 66.2366 14.515C66.2858 14.3854 66.389 14.2162 66.2234 14.2162H61.727C61.727 14.3998 61.8338 14.5078 61.8338 14.6446" fill="url(#paint3_linear_588_38288)"/>
<path fill-rule="evenodd" clip-rule="evenodd" d="M66.3314 15.5784C66.6206 15.5544 66.4778 15.2652 67.1618 14.9484C67.591 14.7921 68.0511 14.7395 68.5046 14.7948L66.9758 20.0748C66.845 20.5248 66.6422 21.4908 66.2222 21.6024V21.7092H68.3978C68.3642 21.306 68.1374 21.69 68.4614 20.3832C68.5346 20.088 68.6126 19.8612 68.6906 19.578L69.1514 17.9712C69.4418 17.0616 69.737 15.9156 70.019 14.9544C70.0802 14.7456 69.9962 14.7948 70.7162 14.7948C70.9547 14.7941 71.1872 14.8699 71.3795 15.0109C71.5719 15.1519 71.7141 15.3507 71.7854 15.5784C71.9786 15.5628 71.9582 15.396 72.101 14.9676C72.1997 14.7279 72.2729 14.4786 72.3194 14.2236H66.8606C66.719 14.2236 66.6422 14.6124 66.5618 14.8524C66.4814 15.0924 66.3806 15.3456 66.3218 15.5784" fill="url(#paint4_linear_588_38288)"/>
<path fill-rule="evenodd" clip-rule="evenodd" d="M57.768 14.5798C57.7836 14.816 57.7543 15.0529 57.6816 15.2782L57.3048 16.6114C56.8969 18.2331 56.4002 19.8311 55.8168 21.3982C55.644 21.595 55.5768 21.5302 55.5576 21.709H57.768C57.7344 21.3082 57.4992 21.6538 57.84 20.3542C57.9192 20.0482 58.0056 19.7614 58.0896 19.4626C58.2516 18.8758 58.428 18.295 58.602 17.6938C58.8324 16.8934 59.118 15.823 59.3784 15.0538C59.4672 14.7862 59.5812 14.4394 59.8728 14.3722V14.2306C56.91 14.2306 57.7692 14.1514 57.7692 14.5906" fill="url(#paint5_linear_588_38288)"/>
</g>
</g>
<defs>
<linearGradient id="paint0_linear_588_38288" x1="56.4128" y1="0.00219982" x2="56.4128" y2="36.017" gradientUnits="userSpaceOnUse">
<stop stop-color="white"/>
<stop offset="1" stop-color="#C4CCDD"/>
</linearGradient>
<linearGradient id="paint1_linear_588_38288" x1="51.8685" y1="14.2198" x2="51.8685" y2="21.72" gradientUnits="userSpaceOnUse">
<stop stop-color="white"/>
<stop offset="1" stop-color="#C4CCDD"/>
</linearGradient>
<linearGradient id="paint2_linear_588_38288" x1="43.5215" y1="14.0771" x2="43.5215" y2="21.8547" gradientUnits="userSpaceOnUse">
<stop stop-color="white"/>
<stop offset="1" stop-color="#C4CCDD"/>
</linearGradient>
<linearGradient id="paint3_linear_588_38288" x1="62.9506" y1="14.2162" x2="62.9506" y2="21.7054" gradientUnits="userSpaceOnUse">
<stop stop-color="white"/>
<stop offset="1" stop-color="#C4CCDD"/>
</linearGradient>
<linearGradient id="paint4_linear_588_38288" x1="69.2708" y1="14.2236" x2="69.2708" y2="21.7092" gradientUnits="userSpaceOnUse">
<stop stop-color="white"/>
<stop offset="1" stop-color="#C4CCDD"/>
</linearGradient>
<linearGradient id="paint5_linear_588_38288" x1="57.7152" y1="14.225" x2="57.7152" y2="21.709" gradientUnits="userSpaceOnUse">
<stop stop-color="white"/>
<stop offset="1" stop-color="#C4CCDD"/>
</linearGradient>
</defs>
</svg>
