<svg width="113" height="37" viewBox="0 0 113 37" fill="none" xmlns="http://www.w3.org/2000/svg">
<path fill-rule="evenodd" clip-rule="evenodd" d="M79.9428 19.4924C79.9428 21.2688 78.7216 22.1984 77.5153 22.1984C75.9387 22.1984 75.0879 20.7884 75.0879 19.4617C75.0879 18.1399 75.9217 16.8017 77.5153 16.8017C78.7216 16.8017 79.9428 17.7259 79.9428 19.4924ZM81.5688 15.1379H80.374C80.1362 15.1379 79.9428 15.3303 79.9428 15.5669V16.8017C79.8257 16.03 78.8366 15 77.1459 15C74.7437 15 73 16.8764 73 19.4617C73 22.049 74.7691 24 77.1151 24C78.5788 24 79.485 23.157 79.9428 22.6812V23.4332C79.9428 23.6698 80.1362 23.8622 80.374 23.8622H81.5688C81.8066 23.8622 82 23.6698 82 23.4332V15.5669C82 15.3303 81.8066 15.1379 81.5688 15.1379Z" fill="url(#paint0_linear_588_38278)"/>
<path fill-rule="evenodd" clip-rule="evenodd" d="M86.9246 18.6741C85.9717 18.4104 85.1488 18.1826 85.1488 17.5626C85.1488 17.0498 85.6157 16.7557 86.4295 16.7557C87.1823 16.7557 87.6935 17.088 87.8322 17.6674C87.8786 17.8611 88.0497 17.9963 88.2484 17.9963H89.4329C89.5582 17.9963 89.6768 17.9417 89.7584 17.8464C89.8403 17.7509 89.8762 17.6247 89.857 17.5004C89.6153 15.9348 88.3567 15 86.4906 15C84.5281 15 83.1037 16.0842 83.1037 17.5779C83.1037 19.4745 84.8337 19.9382 86.2237 20.3108C87.1773 20.5663 88.001 20.7872 88.001 21.3762C88.001 21.9117 87.4633 22.2444 86.5979 22.2444C85.8547 22.2444 85.2495 21.8685 85.0914 21.3091C85.0374 21.1174 84.8709 20.9885 84.6771 20.9885H83.4296C83.3012 20.9885 83.1804 21.0452 83.0981 21.144C83.0176 21.2408 82.9844 21.3666 83.0069 21.4893C83.2777 22.9676 84.767 24 86.6285 24C88.6136 24 90 22.9148 90 21.3566C89.9443 19.5098 88.27 19.0464 86.9246 18.6741Z" fill="url(#paint1_linear_588_38278)"/>
<path fill-rule="evenodd" clip-rule="evenodd" d="M95.505 14.9959C94.5324 14.9959 93.6471 15.3321 93.0303 15.9271V12.4431C93.0303 12.1987 92.8379 12 92.6015 12H91.4288C91.1924 12 91 12.1987 91 12.4431V23.557C91 23.8013 91.1924 24 91.4288 24H92.6015C92.8379 24 93.0303 23.8013 93.0303 23.557V19.1295C93.0303 17.6851 93.7538 16.708 95.0152 16.708C96.2671 16.708 96.985 17.6851 96.985 19.1295V23.557C96.985 23.8013 97.1774 24 97.4137 24H98.5712C98.8076 24 99 23.8013 99 23.557V18.8606C99 16.5129 97.6282 14.9959 95.505 14.9959Z" fill="url(#paint2_linear_588_38278)"/>
<path fill-rule="evenodd" clip-rule="evenodd" d="M71.8087 21.1149L70.925 20.5541C70.868 20.5179 70.8032 20.4988 70.7375 20.4988C70.609 20.4988 70.4914 20.5701 70.4229 20.6894C70.202 21.0746 69.8948 21.3926 69.5099 21.6345C69.0541 21.9214 68.5394 22.0669 67.98 22.0669C67.0291 22.0669 66.2492 21.7283 65.6623 21.0603C65.0742 20.3918 64.7761 19.5304 64.7761 18.5C64.7761 17.4698 65.0742 16.6084 65.6623 15.9396C66.2495 15.2717 67.0293 14.9331 67.98 14.9331C68.5387 14.9331 69.0512 15.0785 69.503 15.3652C69.8853 15.6081 70.1944 15.9274 70.4213 16.3142C70.49 16.4313 70.6069 16.5012 70.7337 16.5012C70.8004 16.5012 70.8662 16.4815 70.9238 16.4442L71.81 15.8719C71.9002 15.8138 71.9654 15.7156 71.9889 15.6026C72.0123 15.491 71.9931 15.3725 71.9363 15.2778C71.5424 14.6212 71.015 14.0844 70.3691 13.6822C69.6415 13.2296 68.8377 13 67.98 13C66.555 13 65.3558 13.533 64.416 14.5842C63.4764 15.6353 63 16.9528 63 18.5C63 20.0475 63.4764 21.3649 64.416 22.4157C65.3557 23.4669 66.5548 24 67.98 24C68.847 24 69.6555 23.7679 70.3829 23.31C71.0286 22.9036 71.5522 22.3644 71.939 21.7075C71.9959 21.611 72.0138 21.4956 71.9893 21.3826C71.9649 21.2699 71.8992 21.1723 71.8087 21.1149Z" fill="url(#paint3_linear_588_38278)"/>
<path fill-rule="evenodd" clip-rule="evenodd" d="M57.0774 17.6313C56.7875 17.6313 56.5526 17.8656 56.5526 18.1547V18.9081C56.5526 19.1972 56.7875 19.4315 57.0773 19.4315H60.0494C59.7091 21.4395 57.5963 22.1167 56.6773 22.1167C55.6089 22.1167 54.7082 21.7608 53.9998 21.0589C53.3249 20.3906 52.9826 19.5346 52.9826 18.5148C52.9826 17.4945 53.3227 16.6332 53.9935 15.9547C54.6638 15.2768 55.5318 14.9331 56.5737 14.9331C57.2175 14.9331 57.8074 15.0787 58.3268 15.366C58.7411 15.5953 59.0781 15.8863 59.3283 16.2308C59.4224 16.3602 59.5809 16.4375 59.7526 16.4375C59.8462 16.4375 59.9367 16.4139 60.0141 16.3695L60.8075 15.9139C60.9362 15.84 61.0281 15.7144 61.0597 15.5695C61.0906 15.4279 61.0604 15.2797 60.9767 15.163C60.5453 14.5607 59.9785 14.0625 59.2917 13.682C58.475 13.2295 57.5605 13 56.5737 13C55.0027 13 53.6667 13.5379 52.6029 14.5988C51.5393 15.6597 51 16.9723 51 18.5C51 20.0378 51.5394 21.3528 52.6032 22.4088C53.6668 23.4646 55.0326 24 56.6625 24C58.02 24 59.5938 23.3399 60.5787 22.3576C61.4431 21.4954 61.8238 20.266 61.9301 19.5791L61.9345 19.5796L61.9519 19.4158C61.9727 19.2314 61.989 18.7428 61.9998 18.3234C62.0095 17.944 61.7038 17.6313 61.3232 17.6313H57.0774Z" fill="url(#paint4_linear_588_38278)"/>
<path fill-rule="evenodd" clip-rule="evenodd" d="M38.8575 17.9936C38.8575 20.3975 38.2746 22.7152 37.1733 24.7977C36.8037 25.4966 37.0415 26.3502 37.7316 26.7677C38.5114 27.2394 39.5462 26.9678 39.9644 26.1784C41.266 23.7214 42 20.94 42 17.9936C42 15.0528 41.2687 12.2762 39.9716 9.82262C39.5539 9.03246 38.5185 8.76033 37.7383 9.23233C37.0485 9.64954 36.8107 10.5026 37.1794 11.2013C38.2766 13.2808 38.8575 15.5942 38.8575 17.9936Z" fill="url(#paint5_linear_588_38278)"/>
<path fill-rule="evenodd" clip-rule="evenodd" d="M34.0417 17.9939C34.0417 19.395 33.7291 20.7499 33.1359 21.9855C32.8249 22.6332 33.0634 23.4017 33.6921 23.7815C34.4492 24.2388 35.4514 23.9513 35.8257 23.1713C36.5948 21.5686 37 19.8111 37 17.9939C37 16.1816 36.597 14.4289 35.832 12.8298C35.4584 12.049 34.4553 11.761 33.6979 12.2185C33.0696 12.598 32.8311 13.3656 33.141 14.0132C33.7309 15.2458 34.0417 16.5969 34.0417 17.9939Z" fill="url(#paint6_linear_588_38278)"/>
<path fill-rule="evenodd" clip-rule="evenodd" d="M24.6819 28.018C22.0715 28.018 19.6173 26.9759 17.7715 25.0838C15.9256 23.1916 14.9091 20.6759 14.9091 18C14.9091 15.3242 15.9256 12.8084 17.7715 10.9162C19.6173 9.02408 22.0714 7.98202 24.6819 7.98202C27.5002 7.98202 29.5068 9.15701 30.6509 10.064C31.2305 10.5234 32.0512 10.4753 32.5694 9.94452C33.1893 9.30968 33.1228 8.26101 32.4281 7.71368C30.8733 6.48884 28.2618 5 24.6819 5C21.2944 5 18.1097 6.35223 15.7145 8.80763C13.3192 11.263 12 14.5276 12 18C12 21.452 13.3331 24.7512 15.7142 27.1922C18.1096 29.6477 21.2944 31 24.6819 31C27.5309 31 30.2364 30.0435 32.4495 28.2787C33.1288 27.7371 33.188 26.7057 32.5793 26.0822C32.569 26.0717 32.5587 26.0611 32.5484 26.0506C32.0386 25.5284 31.2304 25.4759 30.6598 25.9271C29.5417 26.8111 27.5134 28.018 24.6819 28.018Z" fill="url(#paint7_linear_588_38278)"/>
<path fill-rule="evenodd" clip-rule="evenodd" d="M31.5985 16.9669C31.3418 16.6933 30.9938 16.5396 30.6309 16.5396H30.6297L25.8708 16.5458C25.1151 16.5463 24.5027 17.2002 24.5027 18.0063C24.5027 18.8128 25.1156 19.4666 25.8717 19.4666C25.8746 19.4666 25.8774 19.4664 25.8803 19.4664L29.0609 19.4619C28.4547 21.61 26.5483 23.163 24.3216 23.0758C21.7501 22.9751 19.7043 20.6755 19.7386 17.9309C19.7732 15.1577 21.8918 12.9206 24.5001 12.9207C25.4105 12.9207 26.2819 13.1913 27.0336 13.697C27.5741 14.0606 28.2806 13.9674 28.7326 13.4853C29.3492 12.8276 29.2379 11.7275 28.5011 11.23C26.8737 10.131 24.8884 9.7325 22.8765 10.1808C19.9984 10.8222 17.7505 13.2485 17.1612 16.3211C16.1749 21.4629 19.8501 26 24.5 26C28.6355 26 32 22.4112 32 18C32 17.6125 31.8556 17.2408 31.5985 16.9669Z" fill="url(#paint8_linear_588_38278)"/>
<defs>
<linearGradient id="paint0_linear_588_38278" x1="77.5" y1="15" x2="77.5" y2="24" gradientUnits="userSpaceOnUse">
<stop stop-color="white"/>
<stop offset="1" stop-color="#C4CCDD"/>
</linearGradient>
<linearGradient id="paint1_linear_588_38278" x1="86.5" y1="15" x2="86.5" y2="24" gradientUnits="userSpaceOnUse">
<stop stop-color="white"/>
<stop offset="1" stop-color="#C4CCDD"/>
</linearGradient>
<linearGradient id="paint2_linear_588_38278" x1="95" y1="12" x2="95" y2="24" gradientUnits="userSpaceOnUse">
<stop stop-color="white"/>
<stop offset="1" stop-color="#C4CCDD"/>
</linearGradient>
<linearGradient id="paint3_linear_588_38278" x1="67.5" y1="13" x2="67.5" y2="24" gradientUnits="userSpaceOnUse">
<stop stop-color="white"/>
<stop offset="1" stop-color="#C4CCDD"/>
</linearGradient>
<linearGradient id="paint4_linear_588_38278" x1="56.5" y1="13" x2="56.5" y2="24" gradientUnits="userSpaceOnUse">
<stop stop-color="white"/>
<stop offset="1" stop-color="#C4CCDD"/>
</linearGradient>
<linearGradient id="paint5_linear_588_38278" x1="39.5" y1="9" x2="39.5" y2="27" gradientUnits="userSpaceOnUse">
<stop stop-color="white"/>
<stop offset="1" stop-color="#C4CCDD"/>
</linearGradient>
<linearGradient id="paint6_linear_588_38278" x1="35" y1="12" x2="35" y2="24" gradientUnits="userSpaceOnUse">
<stop stop-color="white"/>
<stop offset="1" stop-color="#C4CCDD"/>
</linearGradient>
<linearGradient id="paint7_linear_588_38278" x1="22.5" y1="5" x2="22.5" y2="31" gradientUnits="userSpaceOnUse">
<stop stop-color="white"/>
<stop offset="1" stop-color="#C4CCDD"/>
</linearGradient>
<linearGradient id="paint8_linear_588_38278" x1="24.5" y1="10" x2="24.5" y2="26" gradientUnits="userSpaceOnUse">
<stop stop-color="white"/>
<stop offset="1" stop-color="#C4CCDD"/>
</linearGradient>
</defs>
</svg>
