<svg width="113" height="37" viewBox="0 0 113 37" fill="none" xmlns="http://www.w3.org/2000/svg">
<path d="M30.8806 6.0572L17.2449 6.00195H17.2266C16.3699 6.00195 15.5678 6.3327 14.9479 6.95751C14.3282 7.5639 14 8.39085 14 9.25447V26.5463C14 27.4099 14.3282 28.2368 14.9479 28.8432C15.5496 29.4496 16.3699 29.7988 17.2267 29.7988H17.245L30.8807 29.762V28.9352C30.8807 24.6903 29.2583 20.8131 26.5967 17.928C29.3677 14.9143 30.8807 11.0368 30.8807 6.90241V6.05705L30.8806 6.0572ZM20.8728 13.9035C19.2503 13.242 17.5001 12.8193 15.659 12.7274V12.6906C18.2112 12.305 20.2345 10.247 20.581 7.67425L24.0081 7.69266C23.8076 10.1 22.6955 12.305 20.8726 13.9038L20.8728 13.9035ZM16.1148 8.13347C16.4065 7.83941 16.8075 7.67396 17.2267 7.67396H18.8857C18.5758 9.34626 17.2814 10.6693 15.6408 11.0184V9.25447C15.659 8.83179 15.8232 8.42739 16.1148 8.13347ZM15.659 23.1099V19.6551C20.0889 20.0594 23.6253 23.6428 24.0083 28.1081L20.5811 28.1265C20.2165 25.5355 18.2112 23.4959 15.659 23.1099ZM17.245 28.1265C16.8257 28.1265 16.4247 27.9611 16.1331 27.667C15.8413 27.3731 15.6773 26.9687 15.6773 26.5461V24.8005C17.318 25.1495 18.6122 26.4542 18.9221 28.1264H17.245V28.1265ZM29.2036 28.0897L25.6488 28.1081C25.2478 22.7241 20.9821 18.4056 15.6408 17.983V14.3997C22.9509 14.8224 28.8026 20.7394 29.2036 28.09V28.0897ZM25.4117 16.7519C24.5113 15.9557 23.5272 15.2595 22.4768 14.6753C24.3362 12.8195 25.4664 10.3571 25.667 7.69252L29.2218 7.71093C29.0212 11.0921 27.6906 14.2528 25.4117 16.7519Z" fill="url(#paint0_linear_588_38280)"/>
<path d="M51.4319 14.8427C50.7117 14.4558 49.8992 14.2715 48.9942 14.2715C48.071 14.2715 47.2399 14.4742 46.5197 14.8796C45.7995 15.2848 45.2455 15.8375 44.8577 16.5377C44.4699 17.2379 44.2852 18.0301 44.2852 18.9144C44.2852 19.5592 44.3961 20.1857 44.6362 20.7384C44.8577 21.3095 45.1716 21.7886 45.5778 22.2124C46.0019 22.6353 46.5121 22.9621 47.0736 23.1704C47.6936 23.403 48.3506 23.5216 49.0128 23.5205C49.9176 23.5205 50.7301 23.3362 51.4504 22.9493C52.1706 22.5624 52.7245 22.0097 53.1309 21.3095C53.5372 20.6094 53.7403 19.7987 53.7403 18.9144C53.7403 18.0117 53.5372 17.201 53.1309 16.5007C52.6876 15.7823 52.1337 15.2296 51.4319 14.8427ZM50.8409 20.8673C50.3423 21.3832 49.7145 21.6411 48.9758 21.6411C48.2187 21.6411 47.5908 21.3833 47.0922 20.8489C46.5936 20.3146 46.3535 19.6698 46.3535 18.896C46.3535 18.1038 46.5936 17.4404 47.0738 16.9245C47.554 16.3903 48.2002 16.1323 48.9758 16.1323C49.7329 16.1323 50.3423 16.3903 50.8409 16.9061C51.3395 17.422 51.5796 18.0854 51.5796 18.896C51.598 19.6882 51.3581 20.3514 50.8409 20.8673Z" fill="url(#paint1_linear_588_38280)"/>
<path fill-rule="evenodd" clip-rule="evenodd" d="M60.0747 14.2715H59.8162C59.2622 14.2715 58.7636 14.4004 58.265 14.6585C57.7664 14.9163 57.3601 15.2848 57.0093 15.7639H56.9908V14.4189H54.9224V23.3915H56.9906V19.1355C56.9906 18.6381 57.0829 18.2143 57.2676 17.8274C57.4523 17.4404 57.7478 17.1272 58.1171 16.9061C58.4864 16.6852 58.9296 16.5563 59.4467 16.5563C59.6313 16.5563 59.8346 16.5563 60.0745 16.5747L60.0747 14.2715Z" fill="url(#paint2_linear_588_38280)"/>
<path d="M67.2213 15.469H67.1844C66.5011 14.6583 65.5777 14.2529 64.3958 14.2529C63.7864 14.2529 63.2141 14.3634 62.6785 14.6031C62.1429 14.8425 61.6813 15.1558 61.2934 15.561C60.9056 15.9664 60.6101 16.4639 60.3886 17.035C60.1669 17.6246 60.0562 18.2325 60.0562 18.8959C60.0562 19.4486 60.1299 19.946 60.2593 20.4435C60.407 20.9226 60.6101 21.3462 60.8686 21.7148C61.1273 22.0832 61.4412 22.3964 61.792 22.6728C62.1429 22.9491 62.5492 23.1518 62.9924 23.2809C63.4356 23.4098 63.9158 23.4834 64.3958 23.4834C65.6147 23.4834 66.5749 23.0413 67.2582 22.1385H67.2767V23.3361H69.2526V14.3634H67.1843V15.4688L67.2213 15.469ZM66.5565 20.8856C66.0579 21.3831 65.4485 21.641 64.7467 21.641C63.9896 21.641 63.3618 21.3832 62.8816 20.8857C62.4014 20.3883 62.1613 19.7249 62.1613 18.9327C62.1613 18.509 62.2353 18.122 62.3644 17.772C62.4938 17.4219 62.6785 17.1271 62.9186 16.8876C63.156 16.6498 63.4385 16.4619 63.7495 16.3349C64.0635 16.206 64.3958 16.1323 64.7651 16.1323C65.5039 16.1323 66.1133 16.4085 66.5935 16.943C67.0737 17.4773 67.3136 18.1405 67.3136 18.9327C67.3136 19.7249 67.0551 20.3881 66.5565 20.8856ZM79.6866 16.5007C79.5017 16.1507 79.2802 15.8558 79.0217 15.5795C78.7632 15.3032 78.4677 15.0636 78.1537 14.861C77.8398 14.6583 77.4889 14.5109 77.1012 14.4188C76.7132 14.3267 76.3255 14.2531 75.9192 14.2531C74.7188 14.2531 73.7586 14.6582 73.0569 15.469H73.0199V14.382H70.9516V26.9841H73.0199V22.249H73.0383C73.7216 23.078 74.6634 23.5017 75.8823 23.5017C76.3809 23.5017 76.8426 23.428 77.2858 23.2991C77.729 23.1518 78.1352 22.949 78.4861 22.691C78.837 22.4332 79.1509 22.1015 79.4095 21.7331C79.668 21.3645 79.8711 20.9408 80.0189 20.4618C80.1666 19.9827 80.222 19.4668 80.222 18.9141C80.222 18.4719 80.1666 18.0482 80.0743 17.6244C79.9819 17.2008 79.8711 16.8506 79.6864 16.5006L79.6866 16.5007ZM77.4335 20.8857C76.9533 21.3831 76.3255 21.641 75.5683 21.641C74.8296 21.641 74.2018 21.3832 73.7032 20.8857C73.2046 20.3883 72.9461 19.7249 72.9461 18.9327C72.9461 18.122 73.1861 17.4588 73.6847 16.9244C74.1649 16.3901 74.8112 16.1322 75.5683 16.1322C76.307 16.1322 76.9164 16.3901 77.415 16.906C77.9136 17.4219 78.1537 18.1036 78.1537 18.9327C78.1537 19.7249 77.9137 20.3883 77.4335 20.8857ZM88.052 15.469C87.3687 14.6583 86.4453 14.2529 85.2635 14.2529C84.654 14.2529 84.0816 14.3634 83.546 14.6031C83.0106 14.8425 82.5488 15.1558 82.161 15.561C81.7732 15.9664 81.4777 16.4639 81.2562 17.035C81.0345 17.6246 80.9237 18.2325 80.9237 18.8959C80.9237 19.4486 80.9977 19.946 81.1268 20.4435C81.2746 20.9226 81.4777 21.3462 81.7362 21.7148C81.9949 22.0832 82.3088 22.3964 82.6598 22.6728C83.0105 22.9491 83.4167 23.1518 83.8599 23.2809C84.3033 23.4098 84.7833 23.4834 85.2635 23.4834C86.4823 23.4834 87.4425 23.0413 88.1258 22.1385H88.1442V23.3361H90.1202V14.3634H88.052V15.469ZM87.4241 20.8856C86.9255 21.3831 86.3161 21.641 85.6144 21.641C84.8571 21.641 84.2294 21.3832 83.7492 20.8857C83.269 20.3883 83.029 19.7249 83.029 18.9327C83.029 18.509 83.1028 18.122 83.2322 17.772C83.3613 17.4219 83.546 17.1271 83.786 16.8876C84.0234 16.6498 84.306 16.4619 84.6171 16.3349C84.9311 16.206 85.2635 16.1323 85.6327 16.1323C86.3715 16.1323 86.9809 16.4085 87.4611 16.943C87.9412 17.4773 88.1812 18.1405 88.1812 18.9327C88.1812 19.7249 87.9227 20.3881 87.4241 20.8856Z" fill="url(#paint3_linear_588_38280)"/>
<path fill-rule="evenodd" clip-rule="evenodd" d="M97.8395 14.4004L95.5126 20.4436H95.4942L93.0196 14.4005H90.8405L94.4969 22.8756L92.8719 27.0026H95.051L100 14.4005L97.8395 14.4004ZM44.5624 14.4004H42.1247L38.45 18.4907H38.4132V10.4395H36.3633V23.3732H38.4131V21.2728L39.9273 19.5963H39.9643L42.2911 23.3732H44.618L41.3309 18.0302L44.5624 14.4004Z" fill="url(#paint4_linear_588_38280)"/>
<defs>
<linearGradient id="paint0_linear_588_38280" x1="22.4404" y1="6.00195" x2="22.4404" y2="29.7988" gradientUnits="userSpaceOnUse">
<stop stop-color="white"/>
<stop offset="1" stop-color="#C4CCDD"/>
</linearGradient>
<linearGradient id="paint1_linear_588_38280" x1="49.0127" y1="14.2715" x2="49.0127" y2="23.5205" gradientUnits="userSpaceOnUse">
<stop stop-color="white"/>
<stop offset="1" stop-color="#C4CCDD"/>
</linearGradient>
<linearGradient id="paint2_linear_588_38280" x1="57.4985" y1="14.2715" x2="57.4985" y2="23.3915" gradientUnits="userSpaceOnUse">
<stop stop-color="white"/>
<stop offset="1" stop-color="#C4CCDD"/>
</linearGradient>
<linearGradient id="paint3_linear_588_38280" x1="75.0882" y1="14.2529" x2="75.0882" y2="26.9841" gradientUnits="userSpaceOnUse">
<stop stop-color="white"/>
<stop offset="1" stop-color="#C4CCDD"/>
</linearGradient>
<linearGradient id="paint4_linear_588_38280" x1="68.1817" y1="10.4395" x2="68.1817" y2="27.0026" gradientUnits="userSpaceOnUse">
<stop stop-color="white"/>
<stop offset="1" stop-color="#C4CCDD"/>
</linearGradient>
</defs>
</svg>
