<svg width="113" height="37" viewBox="0 0 113 37" fill="none" xmlns="http://www.w3.org/2000/svg">
<g clip-path="url(#clip0_588_38285)">
<path d="M76.4852 8.89431L81.9697 7.9109V29.1128H76.4852V8.89431ZM84.4912 8.89431V29.1011H89.9757V7.9109L84.4912 8.89431ZM68.6884 29.1011H74.1729V13.6007H68.6884V29.1011ZM32.4465 15.7899C31.7493 15.7431 30.1458 15.6377 30.1458 14.186C30.1458 12.4299 32.4581 12.4299 33.318 12.4299C34.8401 12.4299 36.8155 12.8865 38.2215 13.308C38.2215 13.308 39.0116 13.5889 39.6739 13.8699L39.732 13.8816V9.08163L39.6507 9.05821C37.9891 8.47285 36.0602 7.9109 32.4697 7.9109C26.288 7.9109 24.1035 11.5402 24.1035 14.6426C24.1035 16.4338 24.8704 20.6485 31.9468 21.1402C32.5511 21.1753 34.143 21.2689 34.143 22.7792C34.143 24.0202 32.8415 24.7577 30.6454 24.7577C28.2401 24.7577 25.9162 24.1372 24.4986 23.5519V28.5041C26.6134 29.066 29.007 29.347 31.8074 29.347C37.8496 29.347 40.557 25.9168 40.557 22.5099C40.557 18.6465 37.5359 16.1411 32.4465 15.7899ZM65.5975 13.3782C60.5313 13.5421 57.9634 15.8368 57.9634 20.3909V29.1128H63.4944V21.9948C63.4944 19.267 63.843 18.0963 67.0616 17.9909V13.4485C66.5039 13.3431 65.5975 13.3782 65.5975 13.3782ZM50.7243 13.5889C50.6081 13.8933 49.725 16.3987 47.5986 18.986V7.9109L41.9398 9.0348V29.1011H47.5986V22.8963C49.237 25.3782 50.0503 29.1011 50.0503 29.1011H56.8246C56.1507 26.2914 53.2225 21.1168 53.2225 21.1168C55.8486 17.7568 57.0106 14.1743 57.1965 13.5772H50.7243V13.5889ZM71.419 12.1138C72.9063 12.1138 74.1264 10.8963 74.1264 9.39773C74.1264 7.89919 72.918 6.66992 71.419 6.66992C69.9317 6.66992 68.7232 7.88748 68.7232 9.39773C68.7232 10.8963 69.9317 12.1138 71.419 12.1138Z" fill="url(#paint0_linear_588_38285)"/>
</g>
<defs>
<linearGradient id="paint0_linear_588_38285" x1="57.0396" y1="6.66992" x2="57.0396" y2="29.347" gradientUnits="userSpaceOnUse">
<stop stop-color="white"/>
<stop offset="1" stop-color="#C4CCDD"/>
</linearGradient>
<clipPath id="clip0_588_38285">
<rect width="66" height="24" fill="white" transform="translate(24 6.00195)"/>
</clipPath>
</defs>
</svg>
