<svg width="113" height="37" viewBox="0 0 113 37" fill="none" xmlns="http://www.w3.org/2000/svg">
<path fill-rule="evenodd" clip-rule="evenodd" d="M36.3932 14.6555C38.4035 14.5551 40.3121 14.4044 42.2928 14.3165C41.7236 10.1886 39.7039 8.00195 33.5956 8.00195C27.5975 8.00195 24.9933 11.045 24.6489 13.841C24.2621 16.987 26.6619 19.0019 30.502 20.1028C33.8161 21.0613 36.5925 21.7268 36.6799 23.3333C36.7732 25.0603 34.773 26.0314 33.783 26.0314C32.0127 26.0314 30.0872 24.0959 29.8564 22.322C27.93 22.4727 25.9298 22.4811 24.0034 22.6326C24.0034 27.4503 27.9707 29.9994 33.2317 29.9994C38.1372 29.9994 42.9562 27.9635 42.9562 22.7565C42.9562 16.4353 36.025 16.437 31.4893 14.8799C29.9031 14.016 30.7259 12.1248 32.2231 11.9583C35.2336 11.5991 35.751 13.2918 36.3932 14.6555Z" fill="url(#paint0_linear_588_38279)"/>
<path fill-rule="evenodd" clip-rule="evenodd" d="M51.2226 17.7984C50.851 17.7984 50.7136 17.6477 50.7136 17.4209V13.3348C50.7128 13.2731 50.7245 13.2119 50.7481 13.1548C50.7716 13.0976 50.8065 13.0457 50.8507 13.0021C50.8949 12.9585 50.9475 12.9241 51.0054 12.9009C51.0633 12.8776 51.1253 12.866 51.1878 12.8668H53.389C55.284 13.1423 55.9771 14.156 55.9771 15.4762C55.9771 17.3656 54.2704 17.7976 52.7876 17.7976L51.2226 17.7984ZM55.8134 8.84104C59.7442 8.84104 62.5282 10.9782 62.5282 15.3121C62.5282 19.2843 59.7586 21.8192 55.7421 21.8192H50.7212V29.4238C50.7212 29.9461 50.7212 29.9461 50.253 29.9461H45.0141C44.3584 29.9461 44.3584 29.9461 44.3584 29.4606V9.74179C44.3584 8.83936 44.3584 8.83936 45.2788 8.83936L55.8134 8.84104Z" fill="url(#paint1_linear_588_38279)"/>
<path fill-rule="evenodd" clip-rule="evenodd" d="M63.8696 9.30766C63.862 9.19311 63.9001 9.08017 63.9757 8.99292C64.0513 8.90566 64.1584 8.85098 64.2742 8.84053H80.9731C81.3413 8.82462 81.3812 8.97363 81.3812 9.11511V12.8822C81.3838 12.9159 81.3791 12.9497 81.3672 12.9814C81.3554 13.0131 81.3367 13.0418 81.3126 13.0657C81.2884 13.0896 81.2592 13.108 81.2271 13.1196C81.195 13.1313 81.1608 13.136 81.1267 13.1334H70.5497C70.3291 13.1334 70.2562 13.3577 70.2562 13.6013V16.1437C70.2541 16.2132 70.2664 16.2824 70.2924 16.347C70.3183 16.4117 70.3574 16.4704 70.4072 16.5195C70.4571 16.5687 70.5165 16.6073 70.582 16.6329C70.6475 16.6585 70.7176 16.6707 70.788 16.6686H80.1469L80.3607 16.8796V20.4106L80.04 20.8652H70.6082C70.561 20.8614 70.5135 20.8678 70.4691 20.8839C70.4246 20.9 70.3842 20.9255 70.3508 20.9585C70.3173 20.9916 70.2914 21.0314 70.2751 21.0753C70.2588 21.1192 70.2523 21.166 70.2562 21.2126V24.5997C70.2754 24.7129 70.3357 24.8153 70.4257 24.888C70.5157 24.9606 70.6294 24.9986 70.7456 24.9948H81.1649C81.2209 24.9969 81.274 25.0198 81.3137 25.0589C81.3533 25.098 81.3765 25.1505 81.3786 25.2058V29.3195C81.3727 29.3711 81.3492 29.4192 81.3119 29.4559C81.2746 29.4926 81.2257 29.5156 81.1733 29.5212H64.0384C63.9944 29.5183 63.953 29.4997 63.9218 29.4689C63.8906 29.4381 63.8717 29.3972 63.8687 29.3538L63.8696 9.30766Z" fill="url(#paint2_linear_588_38279)"/>
<path fill-rule="evenodd" clip-rule="evenodd" d="M90.0003 20.2979V29.3147H84.054C84.01 29.3117 83.9686 29.2931 83.9374 29.2623C83.9062 29.2316 83.8873 29.1907 83.8844 29.1472V21.0906C83.8764 21.0115 83.8992 20.9323 83.9482 20.8692C83.9972 20.8061 84.0687 20.7637 84.1482 20.7507H85.8549C86.0245 20.7507 86.0695 20.8955 86.0695 21.0228V24.7899C86.0695 25.2654 86.4741 25.0603 86.6896 24.7899C87.7923 23.2914 88.8959 21.7941 90.0003 20.2979Z" fill="url(#paint3_linear_588_38279)"/>
<path fill-rule="evenodd" clip-rule="evenodd" d="M83.3799 9.306C83.3723 9.19145 83.4104 9.07851 83.4859 8.99126C83.5615 8.904 83.6686 8.84932 83.7845 8.83887H89.2413C89.6188 8.83887 89.7554 9.06741 89.7554 9.2474V16.9491L86.4132 12.3339C86.3411 12.2335 86.1757 12.2402 86.1757 12.4469V15.7704C86.1757 15.9554 86.0832 16.307 85.816 16.307H83.6428C83.5241 16.307 83.3832 16.0425 83.3832 15.8884L83.3799 9.306Z" fill="url(#paint4_linear_588_38279)"/>
<defs>
<linearGradient id="paint0_linear_588_38279" x1="33.4798" y1="8.00195" x2="33.4798" y2="29.9994" gradientUnits="userSpaceOnUse">
<stop stop-color="white"/>
<stop offset="1" stop-color="#C4CCDD"/>
</linearGradient>
<linearGradient id="paint1_linear_588_38279" x1="53.4433" y1="8.83936" x2="53.4433" y2="29.9461" gradientUnits="userSpaceOnUse">
<stop stop-color="white"/>
<stop offset="1" stop-color="#C4CCDD"/>
</linearGradient>
<linearGradient id="paint2_linear_588_38279" x1="72.6253" y1="8.83936" x2="72.6253" y2="29.5212" gradientUnits="userSpaceOnUse">
<stop stop-color="white"/>
<stop offset="1" stop-color="#C4CCDD"/>
</linearGradient>
<linearGradient id="paint3_linear_588_38279" x1="86.9416" y1="20.2979" x2="86.9416" y2="29.3147" gradientUnits="userSpaceOnUse">
<stop stop-color="white"/>
<stop offset="1" stop-color="#C4CCDD"/>
</linearGradient>
<linearGradient id="paint4_linear_588_38279" x1="86.5671" y1="8.83887" x2="86.5671" y2="16.9491" gradientUnits="userSpaceOnUse">
<stop stop-color="white"/>
<stop offset="1" stop-color="#C4CCDD"/>
</linearGradient>
</defs>
</svg>
