<svg width="113" height="37" viewBox="0 0 113 37" fill="none" xmlns="http://www.w3.org/2000/svg">
<path d="M29.4827 35.9035C36.9289 35.9035 42.9653 33.7765 42.9653 31.1527C42.9653 28.5289 36.9289 26.4019 29.4827 26.4019C22.0364 26.4019 16 28.5289 16 31.1527C16 33.7765 22.0364 35.9035 29.4827 35.9035Z" fill="url(#paint0_radial_588_38291)"/>
<path d="M22.2934 13.0328C22.4938 12.9181 22.7245 12.8666 22.9549 12.8853C23.1854 12.9039 23.4047 12.9918 23.5838 13.1372C23.9903 13.4938 24.2934 13.952 24.4619 14.4644C24.6114 14.8316 24.7429 15.1844 24.9009 15.5444C24.9824 15.6931 25.0861 15.8286 25.2084 15.9464C25.2816 16.041 25.3859 16.1068 25.5031 16.1323C25.6203 16.1577 25.7427 16.1412 25.8488 16.0856C25.9659 16.0281 26.06 15.9329 26.1158 15.8155C26.1716 15.6981 26.1859 15.5654 26.1564 15.4388C26.0734 15.1352 25.9557 14.8421 25.8054 14.5652C25.516 14.0756 25.1554 13.622 24.8755 13.1156C24.1039 11.7973 23.795 10.261 23.9975 8.74883C24.053 8.24679 24.209 7.7609 24.4564 7.31984C24.7037 6.87878 25.0373 6.49149 25.4376 6.18084L25.569 6.09324C25.516 6.43404 25.4726 6.74003 25.4376 7.04483C25.299 7.92237 25.3714 8.82007 25.6486 9.66444C25.726 9.88132 25.842 10.0826 25.9912 10.2584C26.056 10.3292 26.1372 10.3831 26.2278 10.4154C26.3184 10.4477 26.4155 10.4574 26.5107 10.4436C26.6059 10.4299 26.6963 10.3931 26.774 10.3366C26.8516 10.28 26.9141 10.2054 26.956 10.1192C27.0883 9.82336 27.1399 9.49805 27.1056 9.17604C27.0731 8.53479 26.9338 7.90337 26.6931 7.30764C26.4123 6.55029 26.3023 5.74082 26.3706 4.93646C26.439 4.13211 26.6841 3.35253 27.0887 2.65284C27.5 1.81921 28.0797 1.07899 28.7917 0.478436C29.0112 0.303236 29.2572 0.164036 29.4936 0.00683594C29.4936 0.726836 29.4405 1.41324 29.4502 2.09364C29.4305 2.81782 29.5838 3.53632 29.8976 4.19004C30.0553 4.48262 30.2437 4.75776 30.4597 5.01084C30.9902 5.69205 31.3238 6.50445 31.4245 7.36044C31.5621 8.08182 31.5076 8.82647 31.2665 9.52044C31.1264 9.86604 30.9682 10.2041 30.7925 10.5332C30.6435 10.7995 30.5736 11.1025 30.5911 11.4068C30.6036 11.5723 30.6667 11.73 30.7719 11.8587C30.8771 11.9874 31.0194 12.081 31.1797 12.1268C31.3499 12.1841 31.5337 12.188 31.7063 12.138C31.8788 12.088 32.0318 11.9865 32.1445 11.8472C32.4534 11.5304 32.6425 11.117 32.68 10.6772C32.764 9.80492 32.7462 8.92587 32.627 8.05764V7.55964L32.7669 7.64724C33.1482 7.91211 33.4691 8.25418 33.7083 8.65103C33.9475 9.04788 34.0998 9.49056 34.155 9.95004C34.313 11.1936 34.0238 12.4527 33.3385 13.5044C33.1106 13.88 32.873 14.2376 32.6451 14.6132C32.4906 14.8775 32.4204 15.1821 32.4436 15.4868C32.436 15.5927 32.4592 15.6985 32.5106 15.7915C32.5619 15.8846 32.6392 15.9609 32.7331 16.0112C32.8345 16.0652 32.9498 16.0874 33.0641 16.075C33.1784 16.0626 33.2862 16.0161 33.3735 15.9416C33.6298 15.7005 33.8227 15.4005 33.9355 15.068C34.1768 14.5532 34.4095 14.0288 34.6821 13.5308C34.8652 13.214 35.1587 12.9749 35.5071 12.8588H35.6277C35.5842 13.034 35.5312 13.208 35.4878 13.3916C35.242 14.3156 35.1092 15.2656 35.0922 16.2212C35.1121 17.0161 35.2574 17.8029 35.5227 18.5528C35.7639 19.2728 36.0148 19.9928 36.2162 20.7272C36.5491 21.9201 36.6739 23.1608 36.5853 24.3956C36.5396 25.1334 36.4068 25.8632 36.1897 26.57C35.8708 27.7056 35.2237 28.7229 34.3287 29.4956C33.2974 30.3551 32.0325 30.8902 30.6948 31.0328C29.6009 31.1974 28.4849 31.144 27.4119 30.8756C26.2033 30.5787 25.1136 29.9239 24.287 28.9976C23.4245 28.0297 22.8206 26.8615 22.5309 25.6004C22.2513 24.4569 22.2037 23.2693 22.391 22.1072C22.5829 21.1162 22.8498 20.141 23.1895 19.19C23.4563 18.4999 23.6019 17.7693 23.62 17.03C23.5824 16.4827 23.4733 15.9426 23.2956 15.4232C23.0631 14.6123 22.733 13.8323 22.3126 13.1C22.3045 13.0774 22.2984 13.0541 22.2946 13.0304L22.2934 13.0328Z" fill="url(#paint1_linear_588_38291)"/>
<path d="M56.1056 28.9089C56.4746 29.0133 56.8292 29.1273 57.1765 29.2149C57.704 29.3703 58.2622 29.3913 58.7999 29.2761C59.1047 29.2322 59.3848 29.0848 59.5927 28.8589C59.8007 28.6329 59.9237 28.3424 59.9409 28.0365C59.9495 27.923 59.9495 27.8091 59.9409 27.6957V26.9277L59.7563 27.0669C59.3971 27.3673 58.9663 27.571 58.5053 27.6582C58.0443 27.7454 57.5684 27.7132 57.1235 27.5649C56.7964 27.4654 56.4989 27.2875 56.2571 27.0469C56.0152 26.8063 55.8365 26.5103 55.7365 26.1849C55.4939 25.5826 55.3809 24.9363 55.405 24.2879C55.4291 23.6395 55.5897 23.0033 55.8764 22.4205C56.1163 21.9004 56.5208 21.4727 57.0281 21.2029C57.5353 20.9331 58.1174 20.836 58.6853 20.9265C58.9089 20.9603 59.1292 21.0129 59.3439 21.0837C59.5453 21.1533 59.7394 21.2589 59.9409 21.3453C59.9409 21.0921 60.1073 21.0741 60.3099 21.0837C60.5125 21.0933 60.802 21.0837 61.0734 21.0837V27.2493C61.096 27.9557 60.9197 28.6544 60.5644 29.2665C60.3744 29.546 60.1265 29.7818 59.8373 29.9581C59.5482 30.1345 59.2245 30.2472 58.888 30.2889C57.9906 30.4285 57.0734 30.3687 56.202 30.1137C56.1725 30.1016 56.1457 30.0838 56.1231 30.0614C56.1006 30.0389 56.0827 30.0122 56.0706 29.9829C56.0971 29.6013 56.1056 29.2521 56.1056 28.9089ZM59.9855 24.1581V22.4133C59.9855 22.3089 59.9855 22.2381 59.854 22.2129C59.4742 22.0926 59.0871 21.9964 58.695 21.9249C58.3153 21.8567 57.9236 21.9245 57.5894 22.1163C57.2551 22.3081 56.9999 22.6114 56.869 22.9725C56.75 23.2659 56.6733 23.5745 56.641 23.8893C56.549 24.5483 56.6322 25.2198 56.8823 25.8369C56.9679 26.0469 57.1097 26.2295 57.2924 26.3649C57.4751 26.5003 57.6915 26.5833 57.9183 26.6049C58.2684 26.6481 58.6237 26.6209 58.9631 26.5249C59.3025 26.4288 59.619 26.2658 59.8938 26.0457C59.9614 25.9831 60.0024 25.8973 60.0084 25.8057C59.9903 25.2465 59.9903 24.6873 59.9903 24.1257L59.9855 24.1581Z" fill="url(#paint2_linear_588_38291)"/>
<path d="M42.3865 21.3294V18.4302H43.4925V27.7746H42.3865V27.1638L41.9125 27.5238C41.4857 27.8421 40.9667 28.0141 40.4333 28.0141C39.8999 28.0141 39.3808 27.8421 38.954 27.5238C38.4775 27.1314 38.1495 26.5892 38.0241 25.9866C37.7353 24.9591 37.7647 23.8688 38.1086 22.8582C38.2429 22.4101 38.4888 22.0031 38.8234 21.6748C39.158 21.3465 39.5705 21.1076 40.0226 20.9802C40.7161 20.7887 41.4568 20.8668 42.0946 21.1986L42.3865 21.3294ZM42.3865 24.2202V22.4742C42.3925 22.4249 42.3808 22.375 42.3535 22.3335C42.3261 22.292 42.2848 22.2615 42.2369 22.2474C41.8104 22.0399 41.3428 21.9296 40.8681 21.9246C40.5354 21.9095 40.2062 21.9971 39.9255 22.1754C39.6448 22.3537 39.4264 22.614 39.3002 22.9206C39.0502 23.51 38.9536 24.1526 39.0192 24.789C39.022 25.2758 39.1328 25.756 39.3436 26.1954C39.4402 26.389 39.5857 26.5544 39.7658 26.6754C39.9459 26.7963 40.1545 26.8687 40.3712 26.8854C40.7282 26.9145 41.0874 26.868 41.425 26.7489C41.7627 26.6297 42.071 26.4407 42.3298 26.1942C42.3732 26.1431 42.3952 26.0774 42.3913 26.0106C42.3829 25.4166 42.3732 24.8226 42.3732 24.2202H42.3865Z" fill="url(#paint3_linear_588_38291)"/>
<path d="M77.5327 30.2635H76.4268V21.0499H77.5122V21.7315C77.7751 21.5479 78.0043 21.3823 78.2359 21.2419C78.5713 21.0301 78.9531 20.9021 79.3489 20.8687C79.7448 20.8352 80.1428 20.8974 80.5093 21.0499C80.8234 21.1838 81.1041 21.3846 81.3317 21.6382C81.5592 21.8918 81.7281 22.1919 81.8263 22.5175C82.0857 23.3054 82.1636 24.1412 82.0543 24.9631C82.007 25.612 81.7858 26.2365 81.4139 26.7715C81.1514 27.1726 80.7811 27.4924 80.3452 27.6945C79.9092 27.8967 79.4249 27.9731 78.9474 27.9151C78.4573 27.8669 77.9838 27.712 77.5605 27.4615L77.5327 30.2635ZM77.5327 24.6235V26.3035C77.5327 26.4787 77.5858 26.5831 77.7438 26.6179C78.0751 26.7336 78.4156 26.8211 78.7617 26.8795C79.2151 26.9534 79.6796 26.8475 80.0555 26.5846C80.4313 26.3217 80.6887 25.9227 80.7722 25.4731C80.911 24.9012 80.9377 24.3079 80.8506 23.7259C80.8087 23.3741 80.7169 23.0298 80.5781 22.7035C80.4895 22.4699 80.3308 22.269 80.1233 22.1283C79.9159 21.9877 79.67 21.9141 79.419 21.9175C78.7483 21.9205 78.1029 22.1731 77.6099 22.6255C77.5849 22.6542 77.5659 22.6876 77.5539 22.7236C77.5419 22.7596 77.5371 22.7977 77.54 22.8355C77.5327 23.4511 77.5327 24.0367 77.5327 24.6211V24.6235Z" fill="url(#paint4_linear_588_38291)"/>
<path d="M49.4781 22.3688V21.2768C49.4781 21.2768 49.5312 21.1892 49.5746 21.1808C50.6024 20.8875 51.6858 20.8427 52.7345 21.05C53.1701 21.1263 53.5644 21.3539 53.8473 21.6923C54.1302 22.0307 54.2833 22.4579 54.2795 22.898V27.818H53.1735V27.098L52.761 27.4208C52.4375 27.6853 52.0553 27.8692 51.6461 27.9572C51.2369 28.0453 50.8124 28.035 50.408 27.9272C49.9855 27.8147 49.6117 27.5675 49.3438 27.2236C49.0759 26.8797 48.9286 26.4579 48.9245 26.0228C48.871 25.4723 49.0244 24.9217 49.3551 24.4772C49.7038 24.0607 50.1897 23.7809 50.7264 23.6876C51.28 23.5676 51.8504 23.504 52.4149 23.426C52.6681 23.4364 52.9217 23.4158 53.1699 23.3648C53.2495 22.4912 52.9287 22.028 52.0724 21.932C51.2704 21.8629 50.4634 21.9863 49.7193 22.292L49.4781 22.3688ZM53.1651 24.2552C52.5861 24.3344 52.0326 24.3752 51.4971 24.4736C51.1902 24.5296 50.894 24.6328 50.619 24.7796C50.3771 24.9145 50.1934 25.1331 50.1027 25.3939C50.012 25.6547 50.0206 25.9395 50.127 26.1944C50.2011 26.4211 50.3495 26.6166 50.5485 26.7496C50.7474 26.8825 50.9855 26.9452 51.2245 26.9276C51.8733 26.9363 52.5011 26.6991 52.9805 26.264C53.0314 26.2276 53.0719 26.1788 53.0981 26.1222C53.1244 26.0656 53.1354 26.0033 53.1301 25.9412V24.5012L53.1651 24.2552Z" fill="url(#paint5_linear_588_38291)"/>
<path d="M87.0123 23.3645C87.0123 22.6133 86.8627 22.1646 86.2139 21.993C85.9904 21.9339 85.76 21.9045 85.5288 21.9053C84.858 21.9023 84.193 22.0299 83.5714 22.2809L83.3302 22.3686V21.2885C83.3354 21.2641 83.3471 21.2416 83.364 21.2232C83.381 21.2048 83.4026 21.1914 83.4266 21.1842C84.4439 20.8996 85.5139 20.8549 86.5516 21.0533C87.0033 21.1199 87.4145 21.3501 87.7061 21.6998C87.9977 22.0495 88.1492 22.4941 88.1315 22.9481V27.8153H87.0352V27.0725L86.7807 27.2645C86.4846 27.5207 86.14 27.7153 85.7672 27.8369C85.3944 27.9585 85.0008 28.0046 84.6098 27.9725C84.1828 27.9233 83.7826 27.7403 83.4669 27.45C83.1513 27.1597 82.9366 26.777 82.8538 26.3573C82.7694 26.0671 82.7488 25.7621 82.7935 25.4632C82.8382 25.1643 82.947 24.8785 83.1125 24.6252C83.2781 24.3719 83.4966 24.157 83.7531 23.9952C84.0095 23.8333 84.298 23.7283 84.5989 23.6873C85.161 23.5673 85.7399 23.5038 86.355 23.4258C86.5033 23.391 86.7494 23.3909 87.0123 23.3645ZM87.0123 24.2381C86.4418 24.3077 85.8979 24.3521 85.3624 24.4481C85.0551 24.4974 84.7583 24.5976 84.4844 24.7446C84.2353 24.8659 84.0417 25.0765 83.9424 25.334C83.843 25.5916 83.8454 25.877 83.9489 26.133C84.0154 26.3685 84.162 26.5739 84.3637 26.7139C84.5654 26.854 84.8096 26.9201 85.0548 26.901C85.3964 26.9065 85.7356 26.8436 86.0522 26.7159C86.3688 26.5883 86.6563 26.3986 86.8977 26.1582C86.9352 26.1308 86.9604 26.0898 86.9677 26.0442L87.0123 24.2381Z" fill="url(#paint6_linear_588_38291)"/>
<path d="M68.2975 24.4386C68.3447 25.1998 68.1741 25.9587 67.8054 26.6274C67.569 27.0403 67.2265 27.3832 66.813 27.621C66.3996 27.8589 65.93 27.9831 65.4524 27.981C64.7845 28.0351 64.1181 27.8593 63.5649 27.483C62.9393 27.0173 62.5181 26.3297 62.389 25.563C62.1798 24.6482 62.2253 23.694 62.5204 22.803C62.7508 22.1919 63.1799 21.675 63.7394 21.3346C64.299 20.9941 64.9569 20.8495 65.6086 20.9238C66.2602 20.9982 66.8682 21.2872 67.3357 21.7449C67.8033 22.2026 68.1036 22.8027 68.189 23.4498C68.2209 23.6056 68.2443 23.763 68.2589 23.9214C68.2942 24.0914 68.3072 24.2652 68.2975 24.4386ZM67.13 24.3774C67.1371 23.9141 67.0628 23.4532 66.9105 23.0154C66.8148 22.6892 66.6182 22.4014 66.3486 22.1929C66.0791 21.9843 65.7502 21.8657 65.409 21.8538C65.035 21.809 64.6568 21.8929 64.3373 22.0915C64.0179 22.2902 63.7764 22.5916 63.6529 22.9458C63.417 23.6184 63.3536 24.339 63.4684 25.0422C63.5052 25.3919 63.5972 25.7337 63.741 26.055C63.8586 26.341 64.0611 26.5845 64.3214 26.753C64.5817 26.9215 64.8875 27.007 65.1979 26.9982C65.5275 27.033 65.8597 26.9631 66.1468 26.7984C66.4339 26.6336 66.6612 26.3826 66.796 26.0814C67.0463 25.5497 67.161 24.9649 67.13 24.3786V24.3774Z" fill="url(#paint7_linear_588_38291)"/>
<path d="M74.8118 27.7845H73.6709V23.7405C73.6686 23.3761 73.6217 23.0135 73.531 22.6605C73.4898 22.4603 73.3795 22.2807 73.219 22.1531C73.0586 22.0255 72.8583 21.9579 72.653 21.9621C72.0195 21.9115 71.3907 22.1052 70.8969 22.5033C70.7819 22.5696 70.6885 22.6674 70.6278 22.785C70.567 22.9027 70.5416 23.0352 70.5544 23.1669V27.7605H69.5449V21.0405H70.6424V21.7737L71.1164 21.4137C71.5716 21.0542 72.1334 20.8546 72.7145 20.8461C73.1903 20.8229 73.6583 20.9739 74.0298 21.2706C74.4014 21.5674 74.6508 21.9892 74.731 22.4565C74.7919 22.7438 74.8242 23.0364 74.8275 23.3301V27.5925L74.8118 27.7845Z" fill="url(#paint8_linear_588_38291)"/>
<path d="M88.8994 21.0514H89.9004C89.9633 21.0398 90.0282 21.0535 90.0809 21.0895C90.1336 21.1255 90.1697 21.1809 90.1815 21.2434C90.6374 22.501 91.1113 23.7502 91.5684 25.0078C91.6999 25.3402 91.8229 25.6714 91.964 26.065C92.1305 25.6282 92.2716 25.2442 92.4115 24.865L93.7707 21.1714C93.7707 21.1714 93.8407 21.0574 93.8853 21.0574H94.9997C94.8502 21.451 94.7018 21.817 94.5607 22.1842C93.5163 24.8038 92.4633 27.4858 91.4249 30.1318C91.3815 30.2278 91.3465 30.271 91.232 30.271H90.1465L90.5324 29.3974C90.7869 28.8118 91.0414 28.2274 91.2874 27.6502C91.3222 27.5631 91.3222 27.4661 91.2874 27.379C90.5147 25.347 89.7364 23.309 88.9525 21.265C88.9458 21.1915 88.9279 21.1195 88.8994 21.0514Z" fill="url(#paint9_linear_588_38291)"/>
<path d="M46.2749 27.783H45.1689V21.0498H46.2749V22.0542C46.572 21.71 46.9481 21.4421 47.3714 21.2733C47.7946 21.1045 48.2526 21.0398 48.7063 21.0846V22.2498H48.0925C47.765 22.2524 47.4413 22.3193 47.1399 22.4468C46.8385 22.5743 46.5655 22.7598 46.3364 22.9926C46.285 23.0566 46.26 23.1377 46.2665 23.2194V27.5862L46.2749 27.783Z" fill="url(#paint10_linear_588_38291)"/>
<path d="M24.3123 16.8752L24.7332 17.2508C24.8796 17.3827 25.053 17.4815 25.2415 17.5404C25.4299 17.5993 25.6289 17.6169 25.8249 17.592C26.0208 17.5672 26.209 17.5004 26.3766 17.3964C26.5441 17.2923 26.6871 17.1534 26.7956 16.9892C26.9317 16.7494 27.0032 16.4786 27.0032 16.2032C27.0032 15.9278 26.9317 15.657 26.7956 15.4172C26.5278 14.9146 26.2133 14.4381 25.856 13.994C25.1758 13.0301 24.7981 11.8871 24.7706 10.7096V10.6568C24.9171 10.9741 25.0814 11.283 25.2626 11.582C25.417 11.8149 25.6395 11.9951 25.9 12.0981C26.1606 12.2011 26.4467 12.222 26.7196 12.158C26.9877 12.1203 27.2379 12.0022 27.4369 11.8196C27.636 11.637 27.7745 11.3984 27.834 11.1356C27.993 10.564 27.993 9.96007 27.834 9.38841C27.6844 8.79441 27.4722 8.21841 27.3166 7.64121C27.1766 7.13117 27.1417 6.59822 27.2141 6.07443C27.2864 5.55063 27.4645 5.0468 27.7375 4.59321C28.0004 4.13001 28.308 3.71961 28.6155 3.25641L28.6951 3.20361V3.41361C28.6633 4.16611 28.8043 4.91593 29.1076 5.60601C29.2709 5.95811 29.4806 6.28701 29.7311 6.58401C30.175 7.07819 30.4781 7.68139 30.6092 8.33121C30.6646 8.65216 30.7029 8.97582 30.7237 9.30081C30.7214 9.92287 30.5351 10.5305 30.1882 11.048C29.9469 11.4281 29.8104 11.8648 29.7926 12.314C29.8077 12.62 29.9109 12.9153 30.0899 13.1647C30.2689 13.414 30.5161 13.6069 30.8021 13.7204C31.1739 13.8752 31.588 13.8981 31.9747 13.7851C32.3614 13.6721 32.6973 13.4302 32.926 13.1L32.9791 13.0568H33.0322C32.9007 13.31 32.7777 13.5716 32.6281 13.8164C32.3471 14.2796 32.0251 14.69 31.7501 15.1784C31.6087 15.415 31.5255 15.6815 31.5073 15.9561C31.4891 16.2307 31.5363 16.5058 31.6452 16.7588C31.7444 16.9647 31.8928 17.1432 32.0774 17.2788C32.2621 17.4144 32.4773 17.5029 32.7043 17.5365C32.9312 17.5701 33.163 17.5479 33.3794 17.4717C33.5957 17.3956 33.7899 17.2678 33.9451 17.0996C34.0297 17.0238 34.1102 16.9437 34.1864 16.8596V17.4272C34.2836 18.2182 34.4843 18.9932 34.7834 19.7324C35.0463 20.4836 35.3008 21.2432 35.507 22.0124C35.5967 22.4231 35.6468 22.8414 35.6566 23.2616C35.6873 23.7035 35.6873 24.1469 35.6566 24.5888C35.6198 25.4312 35.4387 26.2611 35.1211 27.0428C34.8487 27.6939 34.4401 28.2799 33.9225 28.7618C33.405 29.2437 32.7902 29.6104 32.1192 29.8376C30.5682 30.4208 28.8704 30.4944 27.2744 30.0476C26.142 29.7407 25.1426 29.0714 24.4305 28.1432C23.9347 27.4981 23.5574 26.771 23.3161 25.9952C23.1236 25.4289 23.0072 24.8398 22.9699 24.2432C22.951 23.6316 22.9979 23.0197 23.1098 22.418C23.3016 21.4781 23.5777 20.5573 23.9348 19.6664C24.3365 18.794 24.4679 17.8223 24.3123 16.8752ZM31.6946 28.3688H31.5981C30.6292 28.6477 29.6119 28.7192 28.6131 28.5788C28.0931 28.5082 27.5924 28.3351 27.1403 28.0697C26.6883 27.8043 26.2939 27.452 25.9803 27.0332C25.3995 26.2773 25.0631 25.3639 25.0154 24.4136C24.9458 23.6874 25.0141 22.9547 25.2168 22.2536C25.3828 21.6657 25.6668 21.1174 26.0515 20.6416C26.4362 20.1658 26.9137 19.7725 27.4553 19.4852C28.266 19.0712 29.1862 18.9185 30.0881 19.0484C30.9393 19.1185 31.7427 19.4692 32.3708 20.0451C32.9989 20.6209 33.4159 21.3889 33.5556 22.2272C33.7516 23.0871 33.7786 23.9767 33.6352 24.8468C33.5577 25.2681 33.4583 25.685 33.3373 26.096C33.3274 26.1338 33.3075 26.1683 33.2798 26.196C33.252 26.2236 33.2173 26.2434 33.1793 26.2532H31.7995V20.8136H30.7286V21.0932L30.4656 20.9732C29.9734 20.7043 29.4022 20.6148 28.8507 20.72C28.348 20.8169 27.8846 21.0574 27.5172 21.4123C27.1499 21.7672 26.8945 22.2209 26.7823 22.718C26.6108 23.3525 26.5697 24.015 26.6617 24.6656C26.7179 25.304 26.962 25.9118 27.3636 26.4128C27.7176 26.7959 28.1994 27.0381 28.7193 27.0944C29.2393 27.1506 29.7621 27.0172 30.1906 26.7188C30.3667 26.57 30.5525 26.4476 30.7527 26.3084C30.7961 26.5268 30.8407 26.7272 30.8673 26.9192C30.8938 27.1112 30.9372 27.068 31.0518 27.068H33.5532C33.589 27.0659 33.624 27.0562 33.6558 27.0397C33.6876 27.0231 33.7155 27.0001 33.7377 26.972C34.367 25.9872 34.685 24.8373 34.6507 23.6708C34.6602 22.9655 34.5535 22.2634 34.3347 21.5924C33.9949 20.4558 33.254 19.4795 32.2482 18.8432C31.6536 18.4841 30.9838 18.266 30.2908 18.206C29.5853 18.1161 28.8696 18.1486 28.1753 18.302C26.8855 18.635 25.7671 19.4353 25.0395 20.546C24.5041 21.3244 24.1778 22.2262 24.0916 23.1656C24.0127 23.6927 24.0127 24.2285 24.0916 24.7556C24.1528 25.189 24.2459 25.6174 24.3702 26.0372C24.6793 26.9752 25.2518 27.8055 26.0201 28.43C26.8689 29.1438 27.9375 29.5473 29.0485 29.5736C29.676 29.568 30.3028 29.5299 30.9264 29.4596C31.1924 29.4302 31.4563 29.3837 31.7163 29.3204L31.6946 28.3688Z" fill="url(#paint11_linear_588_38291)"/>
<path d="M31.6944 28.369V29.3206C31.4343 29.3839 31.1705 29.4304 30.9044 29.4598C30.2973 29.5135 29.6879 29.5367 29.0784 29.5294C27.9674 29.5031 26.8988 29.0995 26.05 28.3858C25.2817 27.7612 24.7092 26.9309 24.4001 25.993C24.2781 25.575 24.187 25.1486 24.1275 24.7174C24.0486 24.1903 24.0486 23.6545 24.1275 23.1274C24.2137 22.188 24.54 21.2862 25.0755 20.5078C25.8031 19.397 26.9214 18.5967 28.2113 18.2638C28.9055 18.1103 29.6213 18.0779 30.3267 18.1678C31.0181 18.2289 31.6862 18.4473 32.2793 18.8062C33.2857 19.4393 34.0288 20.4125 34.3719 21.547C34.5837 22.2341 34.6787 22.9516 34.6529 23.6698C34.6875 24.8469 34.3634 26.007 33.723 26.9974C33.7008 27.0254 33.6729 27.0485 33.641 27.065C33.6092 27.0816 33.5743 27.0912 33.5385 27.0934H31.0359C30.9213 27.0934 30.8694 27.0934 30.8513 26.9446C30.8332 26.7958 30.7814 26.551 30.7368 26.3338C30.5353 26.473 30.3508 26.5954 30.1747 26.7442C29.7462 27.0426 29.2234 27.176 28.7034 27.1197C28.1835 27.0634 27.7017 26.8213 27.3477 26.4382C26.9461 25.9371 26.702 25.3294 26.6458 24.691C26.5519 24.0407 26.5908 23.3783 26.7603 22.7434C26.8724 22.2454 27.1281 21.7908 27.4962 21.4354C27.8643 21.08 28.3287 20.8394 28.8324 20.743C29.3839 20.6378 29.955 20.7273 30.4473 20.9962L30.7102 21.1162V20.8366H31.7957V26.2858H33.1996C33.2526 26.2858 33.3395 26.1898 33.3576 26.1286C33.4786 25.7176 33.578 25.3006 33.6555 24.8794C33.7999 24.012 33.7749 23.125 33.5819 22.267C33.4426 21.4299 33.0268 20.6629 32.4004 20.0873C31.774 19.5116 30.9726 19.16 30.1229 19.0882C29.221 18.9583 28.3008 19.1109 27.49 19.525C26.9484 19.8122 26.4709 20.2056 26.0862 20.6814C25.7015 21.1572 25.4176 21.7055 25.2516 22.2934C25.0489 22.9944 24.9805 23.7272 25.0501 24.4534C25.0978 25.4036 25.4343 26.3171 26.015 27.073C26.3286 27.4917 26.723 27.8441 27.1751 28.1095C27.6271 28.3749 28.1278 28.5479 28.6478 28.6186C29.6466 28.759 30.6639 28.6874 31.6329 28.4086L31.6944 28.369ZM30.6849 23.1286V22.1242C30.6849 22.0714 30.6849 21.985 30.6149 21.967C30.1397 21.6866 29.5793 21.5845 29.035 21.679C28.7568 21.7344 28.5012 21.87 28.2998 22.0689C28.0985 22.2677 27.9603 22.521 27.9025 22.7974C27.7007 23.5172 27.7007 24.2783 27.9025 24.9982C27.933 25.1937 28.0089 25.3795 28.1241 25.5409C28.2392 25.7022 28.3905 25.8347 28.566 25.9278C28.7415 26.021 28.9364 26.0722 29.1352 26.0774C29.334 26.0827 29.5314 26.0419 29.7116 25.9582C30.0144 25.8236 30.3078 25.6689 30.5896 25.495C30.6385 25.47 30.6783 25.4304 30.7034 25.3818C30.7285 25.3331 30.7376 25.2779 30.7295 25.2238C30.6861 24.5422 30.6861 23.8438 30.6861 23.1454L30.6849 23.1286Z" fill="#C5CCDE"/>
<path d="M30.6854 23.1453V25.2321C30.6935 25.2862 30.6844 25.3415 30.6593 25.3901C30.6342 25.4387 30.5944 25.4783 30.5455 25.5033C30.2637 25.6772 29.9703 25.832 29.6675 25.9665C29.4873 26.0502 29.2899 26.0911 29.0911 26.0858C28.8923 26.0805 28.6974 26.0293 28.5219 25.9362C28.3464 25.8431 28.1951 25.7106 28.0799 25.5492C27.9648 25.3879 27.8889 25.2021 27.8584 25.0065C27.6566 24.2867 27.6566 23.5256 27.8584 22.8057C27.9191 22.5289 28.0605 22.276 28.265 22.0788C28.4694 21.8816 28.7278 21.7487 29.0078 21.6969C29.5521 21.6024 30.1124 21.7046 30.5877 21.9849C30.621 22.0323 30.6448 22.0857 30.6577 22.1421V23.1465L30.6854 23.1453Z" fill="url(#paint12_linear_588_38291)"/>
<defs>
<radialGradient id="paint0_radial_588_38291" cx="0" cy="0" r="1" gradientUnits="userSpaceOnUse" gradientTransform="translate(21.1624 28.5012) scale(13.3354 4.64581)">
<stop stop-color="#727272"/>
<stop offset="0.19" stop-color="#727272" stop-opacity="0.788"/>
<stop offset="0.74" stop-color="#727272" stop-opacity="0.22"/>
<stop offset="1" stop-color="#727272" stop-opacity="0"/>
</radialGradient>
<linearGradient id="paint1_linear_588_38291" x1="29.8697" y1="31.2022" x2="29.2728" y2="0.602031" gradientUnits="userSpaceOnUse">
<stop stop-color="white"/>
<stop offset="1" stop-color="#C4CCDD"/>
</linearGradient>
<linearGradient id="paint2_linear_588_38291" x1="58.2386" y1="20.8936" x2="58.2386" y2="30.3624" gradientUnits="userSpaceOnUse">
<stop stop-color="white"/>
<stop offset="1" stop-color="#C4CCDD"/>
</linearGradient>
<linearGradient id="paint3_linear_588_38291" x1="40.6598" y1="18.4302" x2="40.6598" y2="28.0141" gradientUnits="userSpaceOnUse">
<stop stop-color="white"/>
<stop offset="1" stop-color="#C4CCDD"/>
</linearGradient>
<linearGradient id="paint4_linear_588_38291" x1="79.2645" y1="20.8599" x2="79.2645" y2="30.2635" gradientUnits="userSpaceOnUse">
<stop stop-color="white"/>
<stop offset="1" stop-color="#C4CCDD"/>
</linearGradient>
<linearGradient id="paint5_linear_588_38291" x1="51.5968" y1="20.9219" x2="51.5968" y2="28.0165" gradientUnits="userSpaceOnUse">
<stop stop-color="white"/>
<stop offset="1" stop-color="#C4CCDD"/>
</linearGradient>
<linearGradient id="paint6_linear_588_38291" x1="85.4517" y1="20.9316" x2="85.4517" y2="27.9824" gradientUnits="userSpaceOnUse">
<stop stop-color="white"/>
<stop offset="1" stop-color="#C4CCDD"/>
</linearGradient>
<linearGradient id="paint7_linear_588_38291" x1="65.2825" y1="20.9048" x2="65.2825" y2="27.9906" gradientUnits="userSpaceOnUse">
<stop stop-color="white"/>
<stop offset="1" stop-color="#C4CCDD"/>
</linearGradient>
<linearGradient id="paint8_linear_588_38291" x1="72.1862" y1="20.8438" x2="72.1862" y2="27.7845" gradientUnits="userSpaceOnUse">
<stop stop-color="white"/>
<stop offset="1" stop-color="#C4CCDD"/>
</linearGradient>
<linearGradient id="paint9_linear_588_38291" x1="91.9496" y1="21.0474" x2="91.9496" y2="30.271" gradientUnits="userSpaceOnUse">
<stop stop-color="white"/>
<stop offset="1" stop-color="#C4CCDD"/>
</linearGradient>
<linearGradient id="paint10_linear_588_38291" x1="46.9376" y1="21.0498" x2="46.9376" y2="27.783" gradientUnits="userSpaceOnUse">
<stop stop-color="white"/>
<stop offset="1" stop-color="#C4CCDD"/>
</linearGradient>
<linearGradient id="paint11_linear_588_38291" x1="29.3227" y1="3.20362" x2="29.3227" y2="30.3362" gradientUnits="userSpaceOnUse">
<stop stop-color="white"/>
<stop offset="1" stop-color="#C4CCDD"/>
</linearGradient>
<linearGradient id="paint12_linear_588_38291" x1="29.1977" y1="21.6626" x2="29.1977" y2="26.0863" gradientUnits="userSpaceOnUse">
<stop stop-color="white"/>
<stop offset="1" stop-color="#C4CCDD"/>
</linearGradient>
</defs>
</svg>
