<svg width="113" height="37" viewBox="0 0 113 37" fill="none" xmlns="http://www.w3.org/2000/svg">
<path d="M44.7831 13.45V16.971H42.4561V6.10598H46.9221C48.0251 6.04483 49.1107 6.40192 49.9621 7.10598C50.336 7.4383 50.6311 7.84992 50.8257 8.3108C51.0203 8.77168 51.1096 9.2702 51.0871 9.76998C51.1057 10.2711 51.0156 10.7703 50.8229 11.2333C50.6303 11.6962 50.3397 12.112 49.9711 12.452C49.1197 13.156 48.0341 13.5131 46.9311 13.452H44.7831V13.45ZM44.7831 7.93898V11.608H46.6831C48.0831 11.608 48.7701 10.821 48.7701 9.76498C48.7701 8.70898 48.0891 7.93998 46.7041 7.93998L44.7831 7.93898Z" fill="url(#paint0_linear_588_38297)"/>
<path d="M57.4838 16.982V15.734C57.2227 16.1863 56.8453 16.5605 56.3907 16.8176C55.9361 17.0747 55.421 17.2053 54.8988 17.196C54.4184 17.2018 53.9424 17.1036 53.5036 16.908C53.0648 16.7124 52.6736 16.4242 52.3568 16.063C51.6549 15.2915 51.282 14.2764 51.3178 13.234C51.284 12.2048 51.6574 11.2037 52.3568 10.448C52.6736 10.0868 53.0648 9.79848 53.5036 9.60289C53.9424 9.40731 54.4184 9.30908 54.8988 9.31496C55.4205 9.30213 55.9361 9.43034 56.391 9.68607C56.846 9.9418 57.2235 10.3156 57.4838 10.768V9.52296H59.5708V16.971H57.4838V16.982ZM53.9968 14.741C54.1798 14.9306 54.4003 15.0802 54.6443 15.18C54.8882 15.2799 55.1503 15.3279 55.4138 15.321C55.8375 15.3167 56.2526 15.201 56.6174 14.9855C56.9821 14.7699 57.2837 14.4621 57.4918 14.093V12.412C57.2835 12.0431 56.9821 11.7354 56.6176 11.5195C56.2531 11.3037 55.8384 11.1873 55.4148 11.182C55.1499 11.1784 54.8872 11.2299 54.6433 11.3332C54.3994 11.4365 54.1796 11.5893 53.9978 11.782C53.809 11.9748 53.6609 12.2036 53.5621 12.4547C53.4633 12.7058 53.416 12.9742 53.4228 13.244C53.4145 13.5189 53.4611 13.7926 53.5598 14.0493C53.6585 14.306 53.8074 14.5405 53.9978 14.739L53.9968 14.741Z" fill="url(#paint1_linear_588_38297)"/>
<path d="M65.7212 17.992C65.6364 18.5653 65.3316 19.083 64.8713 19.4351C64.4111 19.7873 63.8317 19.9461 63.2562 19.878H61.8142L61.4142 18.269H63.0372C63.2357 18.2937 63.4363 18.2431 63.5993 18.1272C63.7624 18.0113 63.8762 17.8386 63.9182 17.643L64.1332 16.873H62.1062L60.3062 9.51996H62.4872L63.6722 15.264H64.4482L65.6352 9.52296H67.8352L65.7212 17.992Z" fill="url(#paint2_linear_588_38297)"/>
<path d="M48.7851 30.336L47.1451 26.483H44.7831V30.341H42.4561V19.462H47.2561C48.3278 19.4035 49.3815 19.7561 50.2021 20.448C50.554 20.7743 50.8314 21.1727 51.0152 21.6161C51.199 22.0595 51.2849 22.5373 51.2671 23.017C51.2895 23.6569 51.1199 24.2889 50.78 24.8316C50.4401 25.3743 49.9456 25.8028 49.3601 26.062L51.2411 30.335L48.7851 30.336ZM44.7851 21.305V24.826H46.8441C48.2101 24.826 48.8621 24.091 48.8621 23.061C48.8621 22.061 48.2181 21.305 46.8781 21.305H44.7851Z" fill="url(#paint3_linear_588_38297)"/>
<path d="M59.7011 27.7329C59.5175 28.5649 59.031 29.2989 58.3361 29.7919C57.6131 30.3089 56.7427 30.5789 55.8541 30.5619C55.3163 30.5784 54.7807 30.4866 54.279 30.292C53.7774 30.0974 53.32 29.8039 52.9341 29.4289C52.5553 29.0581 52.2569 28.6132 52.0575 28.122C51.8581 27.6309 51.762 27.1039 51.7751 26.5739C51.767 26.0599 51.8658 25.5498 52.0651 25.0759C52.2644 24.602 52.56 24.1746 52.9331 23.8209C53.3145 23.4495 53.7663 23.158 54.2619 22.9634C54.7574 22.7689 55.2869 22.6752 55.8191 22.6879C56.3681 22.6638 56.9154 22.7632 57.4208 22.9789C57.9262 23.1945 58.3767 23.5209 58.7391 23.9339C59.4437 24.757 59.8226 25.8096 59.8041 26.8929H53.6551C53.7193 27.3518 53.9243 27.7795 54.2417 28.1169C54.5592 28.4544 54.9736 28.6851 55.4277 28.7771C55.8818 28.8692 56.3533 28.8181 56.7771 28.6309C57.201 28.4437 57.5563 28.1296 57.7941 27.7319L59.7011 27.7329ZM53.7751 25.7209H57.7431C57.6367 25.3048 57.3876 24.9393 57.0393 24.688C56.691 24.4367 56.2655 24.3157 55.8371 24.3459C55.3903 24.318 54.9467 24.4373 54.5742 24.6857C54.2018 24.9341 53.921 25.2977 53.7751 25.7209Z" fill="url(#paint4_linear_588_38297)"/>
<path d="M64.8972 24.524H63.5402V30.337H61.3932V24.524H60.0532V22.891H61.3932V20.791H63.5402V22.876H64.8972V24.524Z" fill="url(#paint5_linear_588_38297)"/>
<path d="M71.3548 30.3329V29.0919C71.0941 29.5437 70.7173 29.9175 70.2634 30.1745C69.8096 30.4316 69.2953 30.5626 68.7738 30.5539C68.2934 30.5598 67.8174 30.4616 67.3786 30.266C66.9398 30.0704 66.5486 29.7821 66.2318 29.4209C65.5299 28.6495 65.157 27.6343 65.1928 26.5919C65.159 25.5627 65.5324 24.5617 66.2318 23.8059C66.5486 23.4447 66.9398 23.1564 67.3786 22.9609C67.8174 22.7653 68.2934 22.6671 68.7738 22.6729C69.2955 22.6601 69.8111 22.7883 70.266 23.044C70.721 23.2998 71.0985 23.6735 71.3588 24.1259V22.8799H73.4458V30.3329H71.3548ZM67.8678 28.1009C68.0508 28.2906 68.2713 28.4401 68.5153 28.54C68.7592 28.6398 69.0213 28.6878 69.2848 28.6809C69.7085 28.6767 70.1236 28.561 70.4884 28.3454C70.8531 28.1299 71.1547 27.822 71.3628 27.4529V25.7779C71.1542 25.4093 70.8525 25.1019 70.4878 24.8864C70.1232 24.6709 69.7083 24.5549 69.2848 24.5499C69.0199 24.5464 68.7572 24.5979 68.5133 24.7012C68.2694 24.8045 68.0496 24.9573 67.8678 25.1499C67.679 25.3428 67.5309 25.5715 67.4321 25.8227C67.3333 26.0738 67.286 26.3422 67.2928 26.6119C67.2822 27.1656 67.4886 27.7014 67.8678 28.1049V28.1009Z" fill="url(#paint6_linear_588_38297)"/>
<path d="M77.0308 21.5989H74.8838V19.4709H77.0308V21.5989ZM77.0308 30.3359H74.8838V22.8879H77.0308V30.3359Z" fill="url(#paint7_linear_588_38297)"/>
<path d="M80.5952 30.336H78.4482V19.462H80.5952V30.336Z" fill="url(#paint8_linear_588_38297)"/>
<path d="M89.604 27.7329C89.4204 28.5649 88.9338 29.2989 88.239 29.7919C87.516 30.3089 86.6456 30.5789 85.757 30.5619C85.2191 30.5785 84.6835 30.4867 84.1819 30.2921C83.6802 30.0974 83.2229 29.8039 82.837 29.4289C82.4581 29.0581 82.1596 28.6133 81.9602 28.1221C81.7608 27.6309 81.6647 27.1039 81.678 26.5739C81.6699 26.0598 81.7687 25.5496 81.9682 25.0757C82.1678 24.6018 82.4636 24.1745 82.837 23.8209C83.2184 23.4495 83.6701 23.158 84.1657 22.9634C84.6613 22.7689 85.1907 22.6752 85.723 22.6879C86.2719 22.6638 86.8193 22.7632 87.3247 22.9789C87.8301 23.1945 88.2806 23.5209 88.643 23.9339C89.3476 24.757 89.7264 25.8096 89.708 26.8929H83.559C83.6229 27.3521 83.8278 27.7801 84.1454 28.1178C84.4629 28.4556 84.8775 28.6864 85.3319 28.7785C85.7862 28.8706 86.2579 28.8194 86.6819 28.6319C87.1059 28.4444 87.4613 28.13 87.699 27.7319L89.604 27.7329ZM83.679 25.7209H87.655C87.5485 25.3048 87.2995 24.9393 86.9511 24.688C86.6028 24.4367 86.1774 24.3157 85.749 24.3459C85.3009 24.3167 84.8557 24.4354 84.4817 24.6838C84.1077 24.9322 83.8257 25.2966 83.679 25.7209Z" fill="url(#paint9_linear_588_38297)"/>
<path d="M95.4182 24.973C94.5224 24.9621 93.6456 25.2313 92.9102 25.743V30.337H90.7632V22.888H92.9102V24.088C93.1698 23.6554 93.5376 23.2979 93.9774 23.0507C94.4171 22.8034 94.9137 22.675 95.4182 22.678V24.973Z" fill="url(#paint10_linear_588_38297)"/>
<path d="M96.0798 30.3359V28.6579H99.3458C100.085 28.6579 100.446 28.3979 100.446 27.8709C100.446 27.3779 100.086 27.1359 99.3638 27.1359H98.4198C98.1165 27.1737 97.8088 27.147 97.5165 27.0577C97.2243 26.9683 96.9543 26.8183 96.724 26.6175C96.4937 26.4166 96.3084 26.1695 96.1801 25.8921C96.0519 25.6148 95.9836 25.3135 95.9798 25.0079C95.975 24.7205 96.0355 24.4357 96.1567 24.175C96.278 23.9143 96.4568 23.6845 96.6798 23.5029C97.171 23.089 97.7988 22.8729 98.4408 22.8969H102.041V24.5669H98.6998C98.2618 24.5669 97.9998 24.7829 97.9998 25.0859C97.9998 25.4319 98.2228 25.6049 98.6998 25.6049H99.7388C101.499 25.6049 102.439 26.5649 102.439 27.9049C102.437 28.2548 102.361 28.6003 102.216 28.9186C102.071 29.2369 101.86 29.5207 101.596 29.7513C101.333 29.982 101.024 30.1542 100.69 30.2565C100.355 30.3588 100.003 30.389 99.6558 30.3449H96.0838L96.0798 30.3359Z" fill="url(#paint11_linear_588_38297)"/>
<path d="M24.627 6.00195H15V30.241H18.847V9.56595H24.627C30.939 9.56595 30.973 19.246 24.627 19.246H23.459L20.823 22.81H24.636C36.126 22.733 36.092 6.00195 24.627 6.00195Z" fill="url(#paint12_linear_588_38297)"/>
<path d="M34.1668 30.2499L23.4578 19.2499L20.3408 22.4039L28.1048 30.2499H34.1668Z" fill="url(#paint13_linear_588_38297)"/>
<defs>
<linearGradient id="paint0_linear_588_38297" x1="46.7733" y1="6.09924" x2="46.7733" y2="16.971" gradientUnits="userSpaceOnUse">
<stop stop-color="white"/>
<stop offset="1" stop-color="#C4CCDD"/>
</linearGradient>
<linearGradient id="paint1_linear_588_38297" x1="55.4431" y1="9.31409" x2="55.4431" y2="17.1964" gradientUnits="userSpaceOnUse">
<stop stop-color="white"/>
<stop offset="1" stop-color="#C4CCDD"/>
</linearGradient>
<linearGradient id="paint2_linear_588_38297" x1="64.0707" y1="9.51996" x2="64.0707" y2="19.8934" gradientUnits="userSpaceOnUse">
<stop stop-color="white"/>
<stop offset="1" stop-color="#C4CCDD"/>
</linearGradient>
<linearGradient id="paint3_linear_588_38297" x1="46.8627" y1="19.4557" x2="46.8627" y2="30.341" gradientUnits="userSpaceOnUse">
<stop stop-color="white"/>
<stop offset="1" stop-color="#C4CCDD"/>
</linearGradient>
<linearGradient id="paint4_linear_588_38297" x1="55.7893" y1="22.6844" x2="55.7893" y2="30.5638" gradientUnits="userSpaceOnUse">
<stop stop-color="white"/>
<stop offset="1" stop-color="#C4CCDD"/>
</linearGradient>
<linearGradient id="paint5_linear_588_38297" x1="62.4752" y1="20.791" x2="62.4752" y2="30.337" gradientUnits="userSpaceOnUse">
<stop stop-color="white"/>
<stop offset="1" stop-color="#C4CCDD"/>
</linearGradient>
<linearGradient id="paint6_linear_588_38297" x1="69.3181" y1="22.6721" x2="69.3181" y2="30.5543" gradientUnits="userSpaceOnUse">
<stop stop-color="white"/>
<stop offset="1" stop-color="#C4CCDD"/>
</linearGradient>
<linearGradient id="paint7_linear_588_38297" x1="75.9573" y1="19.4709" x2="75.9573" y2="30.3359" gradientUnits="userSpaceOnUse">
<stop stop-color="white"/>
<stop offset="1" stop-color="#C4CCDD"/>
</linearGradient>
<linearGradient id="paint8_linear_588_38297" x1="79.5217" y1="19.462" x2="79.5217" y2="30.336" gradientUnits="userSpaceOnUse">
<stop stop-color="white"/>
<stop offset="1" stop-color="#C4CCDD"/>
</linearGradient>
<linearGradient id="paint9_linear_588_38297" x1="85.6927" y1="22.6844" x2="85.6927" y2="30.5638" gradientUnits="userSpaceOnUse">
<stop stop-color="white"/>
<stop offset="1" stop-color="#C4CCDD"/>
</linearGradient>
<linearGradient id="paint10_linear_588_38297" x1="93.0907" y1="22.6779" x2="93.0907" y2="30.337" gradientUnits="userSpaceOnUse">
<stop stop-color="white"/>
<stop offset="1" stop-color="#C4CCDD"/>
</linearGradient>
<linearGradient id="paint11_linear_588_38297" x1="99.2091" y1="22.8951" x2="99.2091" y2="30.3646" gradientUnits="userSpaceOnUse">
<stop stop-color="white"/>
<stop offset="1" stop-color="#C4CCDD"/>
</linearGradient>
<linearGradient id="paint12_linear_588_38297" x1="24.1198" y1="6.00195" x2="24.1198" y2="30.241" gradientUnits="userSpaceOnUse">
<stop stop-color="white"/>
<stop offset="1" stop-color="#C4CCDD"/>
</linearGradient>
<linearGradient id="paint13_linear_588_38297" x1="27.2538" y1="19.2499" x2="27.2538" y2="30.2499" gradientUnits="userSpaceOnUse">
<stop stop-color="white"/>
<stop offset="1" stop-color="#C4CCDD"/>
</linearGradient>
</defs>
</svg>
