<svg width="113" height="37" viewBox="0 0 113 37" fill="none" xmlns="http://www.w3.org/2000/svg">
<path d="M20.1667 22.1796L30.5727 22.1009L30.5869 23.9883L20.1808 24.0671M20.1439 19.0335L30.55 18.9548L30.5641 20.8422L20.1581 20.9209M20.1197 15.8862L30.5257 15.8075L30.5403 17.6949L20.1342 17.7736M20.0958 12.7404L35.7381 12.6223L35.7526 14.5097L20.1104 14.6278M20.072 9.5968L35.7142 9.47872L35.7284 11.3661L20.0861 11.4842M20.0477 6.44951L40.8963 6.29208L40.9105 8.17948L20.0619 8.33692M20.0239 3.3052L40.8725 3.14776L40.8866 5.03517L20.038 5.1926M20 0.159392L40.8486 0.00195312L40.8631 1.88936L20.0145 2.0468" fill="url(#paint0_linear_588_38283)"/>
<path d="M40.9429 12.5957L42.7796 12.5819L42.7845 13.296C42.9958 13.0245 43.2673 12.8054 43.5778 12.6559C43.8883 12.5064 44.2294 12.4305 44.5742 12.4342C44.9853 12.4024 45.3972 12.4833 45.7653 12.6681C46.1334 12.853 46.4436 13.1347 46.6623 13.4828C46.8994 13.1481 47.2138 12.8752 47.579 12.687C47.9442 12.4988 48.3496 12.4009 48.7608 12.4015C50.476 12.3889 51.3336 13.407 51.347 15.1466L51.378 19.2586L49.501 19.2723L49.4715 15.4028C49.4652 14.5005 49.1106 13.9762 48.2865 13.9822C47.5837 13.9885 47.0754 14.4771 47.0833 15.6093L47.1112 19.2905L45.2342 19.3043L45.2048 15.4348C45.1984 14.5325 44.8438 14.0082 44.0198 14.0145C43.3184 14.0208 42.8087 14.5095 42.818 15.6416L42.846 19.3232L40.9951 19.337L40.9429 12.5957ZM54.2502 18.9396L51.5145 12.5158L53.4586 12.501L55.1507 16.6404L56.6716 12.4765L58.5889 12.462L54.7483 22.3465L52.8985 22.3606L54.2502 18.9396Z" fill="url(#paint1_linear_588_38283)"/>
<path d="M41.0762 21.5116L46.6521 21.4693L46.6655 23.2624L42.9662 23.2902L42.983 25.5011L46.6823 25.4732L46.6957 27.2663L42.9964 27.2942L43.027 31.3386L41.1504 31.3527L41.0762 21.5116ZM52.6168 27.8823C52.6243 27.6497 52.5848 27.4179 52.5006 27.2008C52.4165 26.9837 52.2894 26.7856 52.1268 26.6183C51.9643 26.451 51.7697 26.318 51.5546 26.227C51.3394 26.1361 51.1081 26.0891 50.8744 26.0889C50.5097 26.0727 50.1486 26.1659 49.8377 26.3563C49.5267 26.5468 49.2804 26.8259 49.1305 27.1573C48.9805 27.4888 48.9339 27.8574 48.9967 28.2155C49.0595 28.5736 49.2288 28.9047 49.4826 29.166C49.7364 29.4272 50.0631 29.6066 50.4205 29.6809C50.7778 29.7553 51.1493 29.7211 51.4869 29.5828C51.8245 29.4445 52.1127 29.2085 52.3141 28.9054C52.5156 28.6022 52.621 28.2458 52.6168 27.8823ZM47.2706 27.9365C47.252 25.5505 48.9989 24.4187 50.5247 24.4064C50.8968 24.3908 51.2683 24.452 51.6155 24.5862C51.9628 24.7204 52.2785 24.9247 52.5426 25.1862L52.5378 24.526L54.3869 24.5122L54.4379 31.252L52.5889 31.2661L52.5825 30.512C52.3309 30.8016 52.0186 31.0327 51.6675 31.1891C51.3165 31.3456 50.9353 31.4234 50.5508 31.4173C49.1197 31.428 47.2889 30.3085 47.2695 27.9365M55.0886 24.5063L56.2363 24.4985L56.2206 22.3363L58.07 22.3207L58.0872 24.4844L59.355 24.4736L59.3673 26.1331L58.0995 26.1423L58.1152 28.2859C58.123 29.3364 58.2591 29.4983 59.3945 29.489L59.4068 31.2149H59.1372C56.9906 31.232 56.2829 30.5094 56.2661 28.3108L56.249 26.1546L55.1013 26.1624L55.0886 24.5063ZM64.8749 27.8032C64.86 27.4726 64.7478 27.1535 64.5523 26.8859C64.3568 26.6182 64.0865 26.4136 63.7752 26.2976C63.4639 26.1817 63.1252 26.1594 62.8013 26.2336C62.4773 26.3077 62.1824 26.4751 61.9532 26.7148C61.724 26.9546 61.5707 27.2561 61.5122 27.582C61.4537 27.9078 61.4927 28.2436 61.6243 28.5476C61.7559 28.8515 61.9744 29.1102 62.2525 29.2915C62.5306 29.4729 62.856 29.5688 63.1884 29.5674C63.6468 29.5555 64.0817 29.3631 64.3978 29.0324C64.714 28.7017 64.8855 28.2597 64.8749 27.8032ZM59.6775 27.8404C59.6768 27.1525 59.8807 26.4799 60.2635 25.9074C60.6462 25.3348 61.1906 24.8879 61.828 24.6231C62.4655 24.3582 63.1674 24.2873 63.8453 24.4192C64.5232 24.5511 65.1466 24.8799 65.6371 25.3642C66.1275 25.8486 66.463 26.4667 66.6011 27.1406C66.7392 27.8145 66.6739 28.5141 66.4133 29.1511C66.1527 29.7881 65.7085 30.3339 65.1368 30.7199C64.5651 31.1058 63.8914 31.3145 63.2007 31.3196C62.7396 31.3229 62.2824 31.2354 61.8554 31.062C61.4283 30.8887 61.0399 30.633 60.7125 30.3097C60.3851 29.9863 60.1251 29.6017 59.9474 29.1779C59.7698 28.7541 59.6781 28.2996 59.6775 27.8404Z" fill="url(#paint2_linear_588_38283)"/>
<path d="M72.3706 27.7468C72.3739 27.2898 72.1953 26.8502 71.8738 26.5241C71.5524 26.198 71.1142 26.0122 70.6554 26.0072C70.2018 26.03 69.7746 26.2264 69.4629 26.5553C69.1512 26.8842 68.9792 27.3203 68.9826 27.7726C68.986 28.2248 69.1646 28.6583 69.4812 28.9825C69.7979 29.3068 70.228 29.4967 70.6818 29.5128C71.1404 29.5002 71.5754 29.3074 71.8916 28.9765C72.2079 28.6456 72.3798 28.2035 72.3698 27.7468M67.1709 27.7869C67.17 27.0991 67.3736 26.4264 67.7561 25.8536C68.1385 25.2809 68.6828 24.8338 69.3201 24.5687C69.9574 24.3035 70.6593 24.2323 71.3372 24.3639C72.0152 24.4955 72.6388 24.8241 73.1294 25.3082C73.6201 25.7923 73.9558 26.4103 74.0942 27.0842C74.2326 27.758 74.1676 28.4576 73.9073 29.0947C73.647 29.7318 73.203 30.2779 72.6315 30.6641C72.0599 31.0502 71.3863 31.2592 70.6956 31.2646C70.2345 31.2682 69.7772 31.1809 69.35 31.0078C68.9229 30.8347 68.5343 30.5792 68.2068 30.256C67.8792 29.9327 67.619 29.5482 67.4412 29.1244C67.2634 28.7007 67.1716 28.2461 67.1709 27.7869ZM74.7726 24.3581L76.6093 24.344L76.6172 25.4498C76.7749 25.097 77.0371 24.8007 77.3687 24.6005C77.7004 24.4003 78.0855 24.3059 78.4726 24.3299L79.1478 24.3236L79.1601 26.1174L78.0546 26.1252C77.068 26.133 76.6407 26.6495 76.65 27.902L76.675 31.0838L74.824 31.0979L74.7726 24.3581ZM84.7759 27.6384C84.7832 27.4059 84.7435 27.1743 84.6593 26.9573C84.575 26.7404 84.4479 26.5425 84.2854 26.3754C84.1229 26.2083 83.9283 26.0754 83.7133 25.9846C83.4982 25.8938 83.2671 25.8469 83.0335 25.8467C82.669 25.8307 82.308 25.924 81.9973 26.1145C81.6865 26.3051 81.4404 26.5841 81.2907 26.9154C81.1409 27.2468 81.0945 27.6153 81.1574 27.9733C81.2203 28.3312 81.3896 28.6621 81.6435 28.9232C81.8973 29.1842 82.224 29.3634 82.5812 29.4375C82.9384 29.5117 83.3098 29.4773 83.6472 29.339C83.9846 29.2006 84.2725 28.9646 84.4738 28.6615C84.675 28.3584 84.7803 28.0017 84.7759 27.6384ZM79.4297 27.6929C79.4111 25.3068 81.1583 24.1751 82.6837 24.1654C83.056 24.1494 83.4275 24.2105 83.7748 24.3447C84.1221 24.4789 84.4377 24.6834 84.7017 24.9452L84.6957 24.2835L86.5467 24.2698L86.5978 31.011L84.7487 31.0248L84.7424 30.2691C84.4909 30.559 84.1786 30.7902 83.8275 30.9467C83.4764 31.1031 83.0952 31.1808 82.7106 31.1744C81.2795 31.1852 79.4472 30.0668 79.4293 27.6933M87.2324 31.0055L87.1578 21.1655L89.5319 21.147L89.5628 25.191C89.7796 24.7819 90.1078 24.442 90.5097 24.2101C90.9115 23.9782 91.3709 23.8638 91.8351 23.8799C93.1606 23.8691 94.1096 24.7064 94.1226 26.4631L94.1566 30.9561L91.7821 30.9732L91.7512 26.9585C91.7463 26.1787 91.4368 25.7988 90.7474 25.8048C90.0457 25.8096 89.5703 26.2366 89.5766 27.1204L89.6061 30.9899L87.2324 31.0055Z" fill="url(#paint3_linear_588_38283)"/>
<path d="M40.8422 32.5715H41.1934L42.0194 34.589H42.0479L42.8739 32.5715H43.2251V35.002H42.9498V33.1554H42.9261L42.1666 35.002H41.9007L41.1412 33.1554H41.1175V35.002H40.8422V32.5715ZM44.5178 35.0399C44.3532 35.0399 44.2088 35.0008 44.0846 34.9224C43.9612 34.8441 43.8647 34.7345 43.7951 34.5937C43.7262 34.4529 43.6918 34.2883 43.6918 34.1C43.6918 33.9102 43.7262 33.7444 43.7951 33.6028C43.8647 33.4612 43.9612 33.3512 44.0846 33.2729C44.2088 33.1945 44.3532 33.1554 44.5178 33.1554C44.6824 33.1554 44.8264 33.1945 44.9498 33.2729C45.074 33.3512 45.1705 33.4612 45.2393 33.6028C45.309 33.7444 45.3438 33.9102 45.3438 34.1C45.3438 34.2883 45.309 34.4529 45.2393 34.5937C45.1705 34.7345 45.074 34.8441 44.9498 34.9224C44.8264 35.0008 44.6824 35.0399 44.5178 35.0399ZM44.5178 34.7883C44.6428 34.7883 44.7457 34.7563 44.8264 34.6922C44.907 34.6281 44.9668 34.5439 45.0055 34.4394C45.0443 34.335 45.0637 34.2219 45.0637 34.1C45.0637 33.9782 45.0443 33.8647 45.0055 33.7594C44.9668 33.6542 44.907 33.5692 44.8264 33.5043C44.7457 33.4394 44.6428 33.407 44.5178 33.407C44.3928 33.407 44.2899 33.4394 44.2092 33.5043C44.1285 33.5692 44.0688 33.6542 44.03 33.7594C43.9913 33.8647 43.9719 33.9782 43.9719 34.1C43.9719 34.2219 43.9913 34.335 44.03 34.4394C44.0688 34.5439 44.1285 34.6281 44.2092 34.6922C44.2899 34.7563 44.3928 34.7883 44.5178 34.7883ZM45.7713 35.002V33.1791H46.0419V33.4544H46.0609C46.0941 33.3643 46.1542 33.2911 46.2412 33.2349C46.3283 33.1787 46.4264 33.1506 46.5356 33.1506C46.5561 33.1506 46.5818 33.151 46.6127 33.1518C46.6435 33.1526 46.6669 33.1538 46.6827 33.1554V33.4402C46.6732 33.4378 46.6515 33.4343 46.6174 33.4295C46.5842 33.424 46.549 33.4212 46.5118 33.4212C46.4232 33.4212 46.3441 33.4398 46.2745 33.477C46.2056 33.5134 46.151 33.564 46.1107 33.6289C46.0711 33.693 46.0514 33.7662 46.0514 33.8484V35.002H45.7713ZM47.7235 35.0399C47.5478 35.0399 47.3963 35.0012 47.269 34.9236C47.1424 34.8453 47.0447 34.7361 46.9758 34.5961C46.9078 34.4553 46.8738 34.2915 46.8738 34.1048C46.8738 33.9181 46.9078 33.7535 46.9758 33.6111C47.0447 33.4679 47.1404 33.3563 47.263 33.2764C47.3864 33.1957 47.5304 33.1554 47.695 33.1554C47.7899 33.1554 47.8837 33.1712 47.9763 33.2029C48.0688 33.2345 48.1531 33.2859 48.229 33.3571C48.305 33.4275 48.3655 33.5209 48.4106 33.6372C48.4557 33.7535 48.4782 33.8967 48.4782 34.0668V34.1855H47.0731V33.9434H48.1934C48.1934 33.8405 48.1729 33.7488 48.1317 33.6681C48.0914 33.5874 48.0336 33.5237 47.9585 33.477C47.8841 33.4303 47.7963 33.407 47.695 33.407C47.5834 33.407 47.4869 33.4347 47.4054 33.49C47.3247 33.5446 47.2626 33.6158 47.2191 33.7037C47.1756 33.7915 47.1538 33.8856 47.1538 33.9861V34.1475C47.1538 34.2852 47.1776 34.4019 47.2251 34.4976C47.2733 34.5925 47.3402 34.6649 47.4256 34.7148C47.5111 34.7638 47.6103 34.7883 47.7235 34.7883C47.7971 34.7883 47.8635 34.7781 47.9229 34.7575C47.983 34.7361 48.0348 34.7045 48.0783 34.6625C48.1218 34.6198 48.1555 34.5668 48.1792 34.5035L48.4498 34.5795C48.4213 34.6712 48.3734 34.7519 48.3062 34.8216C48.2389 34.8904 48.1559 34.9442 48.057 34.983C47.9581 35.0209 47.8469 35.0399 47.7235 35.0399ZM50.6369 33.1791V33.4165H49.6923V33.1791H50.6369ZM49.9676 32.7424H50.2477V34.4798C50.2477 34.5589 50.2592 34.6182 50.2821 34.6578C50.3058 34.6966 50.3359 34.7227 50.3723 34.7361C50.4095 34.7488 50.4486 34.7551 50.4898 34.7551C50.5206 34.7551 50.5459 34.7535 50.5657 34.7504C50.5855 34.7464 50.6013 34.7432 50.6132 34.7409L50.6702 34.9925C50.6512 34.9996 50.6247 35.0067 50.5906 35.0138C50.5566 35.0217 50.5135 35.0257 50.4613 35.0257C50.3822 35.0257 50.3046 35.0087 50.2287 34.9747C50.1535 34.9406 50.091 34.8888 50.0412 34.8192C49.9921 34.7496 49.9676 34.6618 49.9676 34.5557V32.7424ZM51.3775 33.9054V35.002H51.0974V32.5715H51.3775V33.4639H51.4012C51.4439 33.3698 51.508 33.295 51.5934 33.2396C51.6797 33.1835 51.7944 33.1554 51.9376 33.1554C52.0618 33.1554 52.1706 33.1803 52.264 33.2301C52.3573 33.2792 52.4297 33.3548 52.4811 33.4568C52.5333 33.5581 52.5595 33.687 52.5595 33.8437V35.002H52.2794V33.8627C52.2794 33.7179 52.2418 33.6059 52.1666 33.5268C52.0923 33.4469 51.989 33.407 51.8569 33.407C51.7651 33.407 51.6828 33.4264 51.6101 33.4651C51.5381 33.5039 51.4811 33.5605 51.4392 33.6348C51.398 33.7092 51.3775 33.7994 51.3775 33.9054ZM53.6082 35.0447C53.4927 35.0447 53.3879 35.0229 53.2937 34.9794C53.1996 34.9351 53.1248 34.8714 53.0695 34.7883C53.0141 34.7045 52.9864 34.6032 52.9864 34.4845C52.9864 34.3801 53.007 34.2954 53.0481 34.2306C53.0892 34.1649 53.1442 34.1135 53.213 34.0763C53.2819 34.0391 53.3578 34.0114 53.4409 33.9932C53.5248 33.9742 53.609 33.9592 53.6937 33.9481C53.8044 33.9339 53.8942 33.9232 53.9631 33.9161C54.0327 33.9082 54.0833 33.8951 54.115 33.8769C54.1474 33.8587 54.1636 33.8271 54.1636 33.782V33.7725C54.1636 33.6554 54.1316 33.5644 54.0675 33.4995C54.0042 33.4347 53.9081 33.4022 53.7791 33.4022C53.6454 33.4022 53.5406 33.4315 53.4646 33.49C53.3887 33.5486 53.3353 33.6111 53.3044 33.6775L53.0386 33.5826C53.0861 33.4718 53.1494 33.3856 53.2285 33.3239C53.3084 33.2614 53.3954 33.2179 53.4896 33.1934C53.5845 33.168 53.6779 33.1554 53.7696 33.1554C53.8282 33.1554 53.8954 33.1625 53.9714 33.1767C54.0481 33.1902 54.1221 33.2183 54.1933 33.261C54.2653 33.3037 54.325 33.3682 54.3725 33.4544C54.42 33.5407 54.4437 33.6562 54.4437 33.801V35.002H54.1636V34.7551H54.1494C54.1304 34.7947 54.0988 34.837 54.0544 34.8821C54.0101 34.9272 53.9512 34.9656 53.8776 34.9972C53.804 35.0289 53.7143 35.0447 53.6082 35.0447ZM53.651 34.7931C53.7617 34.7931 53.8551 34.7713 53.931 34.7278C54.0078 34.6843 54.0655 34.6281 54.1043 34.5593C54.1439 34.4905 54.1636 34.4181 54.1636 34.3421V34.0858C54.1518 34.1 54.1257 34.1131 54.0853 34.125C54.0457 34.136 53.9999 34.1459 53.9476 34.1546C53.8962 34.1625 53.846 34.1697 53.7969 34.176C53.7487 34.1815 53.7095 34.1863 53.6794 34.1902C53.6067 34.1997 53.5386 34.2151 53.4753 34.2365C53.4128 34.2571 53.3622 34.2883 53.3234 34.3303C53.2854 34.3714 53.2665 34.4276 53.2665 34.4988C53.2665 34.5961 53.3025 34.6697 53.3744 34.7195C53.4472 34.7686 53.5394 34.7931 53.651 34.7931ZM55.235 33.9054V35.002H54.9549V33.1791H55.2255V33.4639H55.2492C55.2919 33.3714 55.3568 33.297 55.4438 33.2408C55.5309 33.1839 55.6432 33.1554 55.7809 33.1554C55.9043 33.1554 56.0123 33.1807 56.1048 33.2313C56.1974 33.2812 56.2694 33.3571 56.3208 33.4592C56.3723 33.5605 56.398 33.6886 56.398 33.8437V35.002H56.1179V33.8627C56.1179 33.7195 56.0807 33.6079 56.0063 33.528C55.932 33.4473 55.8299 33.407 55.7002 33.407C55.6108 33.407 55.5309 33.4264 55.4604 33.4651C55.3908 33.5039 55.3358 33.5605 55.2955 33.6348C55.2551 33.7092 55.235 33.7994 55.235 33.9054ZM57.8496 33.1791H58.1297V35.1349C58.1297 35.2472 58.1103 35.3445 58.0716 35.4268C58.0336 35.5091 57.9758 35.5728 57.8983 35.6179C57.8216 35.663 57.7246 35.6855 57.6076 35.6855C57.5981 35.6855 57.5886 35.6855 57.5791 35.6855C57.5696 35.6855 57.5601 35.6855 57.5506 35.6855V35.4244C57.5601 35.4244 57.5688 35.4244 57.5767 35.4244C57.5846 35.4244 57.5933 35.4244 57.6028 35.4244C57.6883 35.4244 57.7508 35.3991 57.7903 35.3485C57.8299 35.2986 57.8496 35.2274 57.8496 35.1349V33.1791ZM57.9873 32.8753C57.9327 32.8753 57.8856 32.8567 57.8461 32.8195C57.8073 32.7824 57.7879 32.7377 57.7879 32.6854C57.7879 32.6332 57.8073 32.5885 57.8461 32.5513C57.8856 32.5141 57.9327 32.4956 57.9873 32.4956C58.0419 32.4956 58.0886 32.5141 58.1273 32.5513C58.1669 32.5885 58.1867 32.6332 58.1867 32.6854C58.1867 32.7377 58.1669 32.7824 58.1273 32.8195C58.0886 32.8567 58.0419 32.8753 57.9873 32.8753ZM59.7915 34.2567V33.1791H60.0715V35.002H59.7915V34.6934H59.7725C59.7297 34.786 59.6633 34.8647 59.5731 34.9296C59.4829 34.9936 59.369 35.0257 59.2313 35.0257C59.1174 35.0257 59.0161 35.0008 58.9275 34.9509C58.8389 34.9003 58.7693 34.8243 58.7186 34.7231C58.668 34.621 58.6427 34.4924 58.6427 34.3374V33.1791H58.9228V34.3184C58.9228 34.4513 58.9599 34.5573 59.0343 34.6364C59.1095 34.7156 59.2052 34.7551 59.3215 34.7551C59.3911 34.7551 59.4619 34.7373 59.5339 34.7017C59.6067 34.6661 59.6676 34.6115 59.7167 34.5379C59.7665 34.4644 59.7915 34.3706 59.7915 34.2567ZM61.8757 33.5874L61.6241 33.6586C61.6083 33.6166 61.5849 33.5759 61.5541 33.5363C61.524 33.496 61.4829 33.4627 61.4306 33.4366C61.3784 33.4105 61.3116 33.3975 61.2301 33.3975C61.1185 33.3975 61.0256 33.4232 60.9512 33.4746C60.8776 33.5253 60.8408 33.5897 60.8408 33.6681C60.8408 33.7377 60.8661 33.7927 60.9168 33.833C60.9674 33.8734 61.0465 33.907 61.1541 33.9339L61.4247 34.0003C61.5877 34.0399 61.7091 34.1004 61.789 34.1819C61.8689 34.2626 61.9089 34.3667 61.9089 34.494C61.9089 34.5985 61.8788 34.6918 61.8187 34.7741C61.7594 34.8564 61.6763 34.9213 61.5695 34.9687C61.4627 35.0162 61.3385 35.0399 61.1969 35.0399C61.0109 35.0399 60.857 34.9996 60.7352 34.9189C60.6134 34.8382 60.5362 34.7203 60.5038 34.5652L60.7696 34.4988C60.7949 34.5969 60.8428 34.6705 60.9132 34.7195C60.9844 34.7686 61.0774 34.7931 61.1921 34.7931C61.3226 34.7931 61.4263 34.7654 61.503 34.71C61.5806 34.6538 61.6193 34.5866 61.6193 34.5083C61.6193 34.445 61.5972 34.392 61.5529 34.3492C61.5086 34.3057 61.4405 34.2733 61.3488 34.2519L61.0449 34.1807C60.878 34.1412 60.7554 34.0799 60.6771 33.9968C60.5995 33.9129 60.5608 33.8081 60.5608 33.6823C60.5608 33.5794 60.5896 33.4885 60.6474 33.4093C60.7059 33.3302 60.7854 33.2681 60.8859 33.223C60.9872 33.1779 61.1019 33.1554 61.2301 33.1554C61.4105 33.1554 61.5521 33.1949 61.6549 33.2741C61.7586 33.3532 61.8322 33.4576 61.8757 33.5874ZM63.1232 33.1791V33.4165H62.1786V33.1791H63.1232ZM62.4539 32.7424H62.734V34.4798C62.734 34.5589 62.7455 34.6182 62.7684 34.6578C62.7921 34.6966 62.8222 34.7227 62.8586 34.7361C62.8958 34.7488 62.9349 34.7551 62.9761 34.7551C63.0069 34.7551 63.0322 34.7535 63.052 34.7504C63.0718 34.7464 63.0876 34.7432 63.0995 34.7409L63.1565 34.9925C63.1375 34.9996 63.111 35.0067 63.0769 35.0138C63.0429 35.0217 62.9998 35.0257 62.9476 35.0257C62.8685 35.0257 62.7909 35.0087 62.715 34.9747C62.6398 34.9406 62.5773 34.8888 62.5275 34.8192C62.4784 34.7496 62.4539 34.6618 62.4539 34.5557V32.7424ZM65.0208 35.0447C64.9053 35.0447 64.8005 35.0229 64.7063 34.9794C64.6122 34.9351 64.5374 34.8714 64.482 34.7883C64.4267 34.7045 64.399 34.6032 64.399 34.4845C64.399 34.3801 64.4195 34.2954 64.4607 34.2306C64.5018 34.1649 64.5568 34.1135 64.6256 34.0763C64.6945 34.0391 64.7704 34.0114 64.8535 33.9932C64.9374 33.9742 65.0216 33.9592 65.1063 33.9481C65.217 33.9339 65.3068 33.9232 65.3757 33.9161C65.4453 33.9082 65.4959 33.8951 65.5276 33.8769C65.56 33.8587 65.5762 33.8271 65.5762 33.782V33.7725C65.5762 33.6554 65.5442 33.5644 65.4801 33.4995C65.4168 33.4347 65.3207 33.4022 65.1917 33.4022C65.058 33.4022 64.9532 33.4315 64.8772 33.49C64.8013 33.5486 64.7479 33.6111 64.717 33.6775L64.4512 33.5826C64.4987 33.4718 64.562 33.3856 64.6411 33.3239C64.721 33.2614 64.808 33.2179 64.9022 33.1934C64.9971 33.168 65.0904 33.1554 65.1822 33.1554C65.2408 33.1554 65.308 33.1625 65.384 33.1767C65.4607 33.1902 65.5347 33.2183 65.6059 33.261C65.6779 33.3037 65.7376 33.3682 65.7851 33.4544C65.8326 33.5407 65.8563 33.6562 65.8563 33.801V35.002H65.5762V34.7551H65.562C65.543 34.7947 65.5113 34.837 65.467 34.8821C65.4227 34.9272 65.3638 34.9656 65.2902 34.9972C65.2166 35.0289 65.1268 35.0447 65.0208 35.0447ZM65.0636 34.7931C65.1743 34.7931 65.2677 34.7713 65.3436 34.7278C65.4204 34.6843 65.4781 34.6281 65.5169 34.5593C65.5564 34.4905 65.5762 34.4181 65.5762 34.3421V34.0858C65.5644 34.1 65.5382 34.1131 65.4979 34.125C65.4583 34.136 65.4125 34.1459 65.3602 34.1546C65.3088 34.1625 65.2586 34.1697 65.2095 34.176C65.1613 34.1815 65.1221 34.1863 65.092 34.1902C65.0192 34.1997 64.9512 34.2151 64.8879 34.2365C64.8254 34.2571 64.7748 34.2883 64.736 34.3303C64.698 34.3714 64.679 34.4276 64.679 34.4988C64.679 34.5961 64.715 34.6697 64.787 34.7195C64.8598 34.7686 64.952 34.7931 65.0636 34.7931ZM67.3074 35.6855V33.1791H67.578V33.4687H67.6112C67.6318 33.437 67.6602 33.3967 67.6966 33.3476C67.7338 33.2978 67.7868 33.2535 67.8557 33.2147C67.9253 33.1752 68.0194 33.1554 68.1381 33.1554C68.2916 33.1554 68.4269 33.1938 68.544 33.2705C68.6611 33.3472 68.7524 33.456 68.8181 33.5969C68.8838 33.7377 68.9166 33.9038 68.9166 34.0953C68.9166 34.2883 68.8838 34.4557 68.8181 34.5973C68.7524 34.7381 68.6615 34.8473 68.5452 34.9248C68.4289 35.0016 68.2947 35.0399 68.1428 35.0399C68.0258 35.0399 67.932 35.0205 67.8616 34.9818C67.7912 34.9422 67.737 34.8975 67.699 34.8477C67.661 34.797 67.6318 34.7551 67.6112 34.7219H67.5875V35.6855H67.3074ZM67.5827 34.0905C67.5827 34.2282 67.6029 34.3496 67.6432 34.4549C67.6836 34.5593 67.7425 34.6412 67.8201 34.7005C67.8976 34.7591 67.9925 34.7883 68.1049 34.7883C68.222 34.7883 68.3197 34.7575 68.398 34.6958C68.4771 34.6333 68.5364 34.5494 68.576 34.4442C68.6164 34.3382 68.6365 34.2203 68.6365 34.0905C68.6365 33.9624 68.6168 33.8469 68.5772 33.744C68.5384 33.6404 68.4795 33.5585 68.4004 33.4984C68.322 33.4374 68.2235 33.407 68.1049 33.407C67.9909 33.407 67.8952 33.4359 67.8177 33.4936C67.7401 33.5506 67.6816 33.6305 67.642 33.7333C67.6025 33.8354 67.5827 33.9545 67.5827 34.0905ZM69.8802 35.0447C69.7647 35.0447 69.6599 35.0229 69.5658 34.9794C69.4716 34.9351 69.3968 34.8714 69.3415 34.7883C69.2861 34.7045 69.2584 34.6032 69.2584 34.4845C69.2584 34.3801 69.279 34.2954 69.3201 34.2306C69.3612 34.1649 69.4162 34.1135 69.4851 34.0763C69.5539 34.0391 69.6298 34.0114 69.7129 33.9932C69.7968 33.9742 69.881 33.9592 69.9657 33.9481C70.0764 33.9339 70.1662 33.9232 70.2351 33.9161C70.3047 33.9082 70.3553 33.8951 70.387 33.8769C70.4194 33.8587 70.4356 33.8271 70.4356 33.782V33.7725C70.4356 33.6554 70.4036 33.5644 70.3395 33.4995C70.2762 33.4347 70.1801 33.4022 70.0511 33.4022C69.9174 33.4022 69.8126 33.4315 69.7366 33.49C69.6607 33.5486 69.6073 33.6111 69.5764 33.6775L69.3106 33.5826C69.3581 33.4718 69.4214 33.3856 69.5005 33.3239C69.5804 33.2614 69.6674 33.2179 69.7616 33.1934C69.8565 33.168 69.9499 33.1554 70.0416 33.1554C70.1002 33.1554 70.1674 33.1625 70.2434 33.1767C70.3201 33.1902 70.3941 33.2183 70.4653 33.261C70.5373 33.3037 70.597 33.3682 70.6445 33.4544C70.692 33.5407 70.7157 33.6562 70.7157 33.801V35.002H70.4356V34.7551H70.4214C70.4024 34.7947 70.3708 34.837 70.3265 34.8821C70.2821 34.9272 70.2232 34.9656 70.1496 34.9972C70.076 35.0289 69.9863 35.0447 69.8802 35.0447ZM69.923 34.7931C70.0337 34.7931 70.1271 34.7713 70.203 34.7278C70.2798 34.6843 70.3375 34.6281 70.3763 34.5593C70.4159 34.4905 70.4356 34.4181 70.4356 34.3421V34.0858C70.4238 34.1 70.3977 34.1131 70.3573 34.125C70.3177 34.136 70.2719 34.1459 70.2196 34.1546C70.1682 34.1625 70.118 34.1697 70.0689 34.176C70.0207 34.1815 69.9815 34.1863 69.9514 34.1902C69.8787 34.1997 69.8106 34.2151 69.7473 34.2365C69.6848 34.2571 69.6342 34.2883 69.5954 34.3303C69.5574 34.3714 69.5385 34.4276 69.5385 34.4988C69.5385 34.5961 69.5745 34.6697 69.6464 34.7195C69.7192 34.7686 69.8114 34.7931 69.923 34.7931ZM71.342 35.6855C71.2945 35.6855 71.2522 35.6816 71.215 35.6736C71.1778 35.6665 71.1521 35.6594 71.1379 35.6523L71.2091 35.4054C71.2771 35.4229 71.3373 35.4292 71.3895 35.4244C71.4417 35.4197 71.488 35.3963 71.5283 35.3544C71.5695 35.3133 71.607 35.2464 71.6411 35.1539L71.6933 35.0114L71.0192 33.1791H71.323L71.8262 34.6317H71.8452L72.3484 33.1791H72.6522L71.8784 35.2678C71.8436 35.3619 71.8005 35.4399 71.7491 35.5016C71.6976 35.5641 71.6379 35.6104 71.5699 35.6404C71.5026 35.6705 71.4267 35.6855 71.342 35.6855ZM73.0218 35.002V33.1791H73.2924V33.4639H73.3161C73.3541 33.3666 73.4154 33.2911 73.5001 33.2373C73.5847 33.1827 73.6864 33.1554 73.8051 33.1554C73.9253 33.1554 74.0254 33.1827 74.1053 33.2373C74.186 33.2911 74.2489 33.3666 74.294 33.4639H74.313C74.3597 33.3698 74.4297 33.295 74.5231 33.2396C74.6164 33.1835 74.7284 33.1554 74.8589 33.1554C75.0219 33.1554 75.1552 33.2064 75.2588 33.3085C75.3625 33.4097 75.4143 33.5676 75.4143 33.782V35.002H75.1342V33.782C75.1342 33.6475 75.0974 33.5514 75.0239 33.4936C74.9503 33.4359 74.8637 33.407 74.764 33.407C74.6358 33.407 74.5365 33.4457 74.4661 33.5233C74.3957 33.6 74.3605 33.6973 74.3605 33.8152V35.002H74.0757V33.7535C74.0757 33.6499 74.042 33.5664 73.9748 33.5031C73.9075 33.439 73.8209 33.407 73.7149 33.407C73.6421 33.407 73.5741 33.4264 73.5108 33.4651C73.4483 33.5039 73.3976 33.5577 73.3589 33.6265C73.3209 33.6946 73.3019 33.7733 73.3019 33.8627V35.002H73.0218ZM76.6906 35.0399C76.515 35.0399 76.3635 35.0012 76.2361 34.9236C76.1095 34.8453 76.0118 34.7361 75.943 34.5961C75.875 34.4553 75.8409 34.2915 75.8409 34.1048C75.8409 33.9181 75.875 33.7535 75.943 33.6111C76.0118 33.4679 76.1076 33.3563 76.2302 33.2764C76.3536 33.1957 76.4976 33.1554 76.6622 33.1554C76.7571 33.1554 76.8509 33.1712 76.9434 33.2029C77.036 33.2345 77.1202 33.2859 77.1962 33.3571C77.2722 33.4275 77.3327 33.5209 77.3778 33.6372C77.4229 33.7535 77.4454 33.8967 77.4454 34.0668V34.1855H76.0403V33.9434H77.1606C77.1606 33.8405 77.14 33.7488 77.0989 33.6681C77.0585 33.5874 77.0008 33.5237 76.9256 33.477C76.8513 33.4303 76.7634 33.407 76.6622 33.407C76.5506 33.407 76.4541 33.4347 76.3726 33.49C76.2919 33.5446 76.2298 33.6158 76.1863 33.7037C76.1428 33.7915 76.121 33.8856 76.121 33.9861V34.1475C76.121 34.2852 76.1447 34.4019 76.1922 34.4976C76.2405 34.5925 76.3073 34.6649 76.3928 34.7148C76.4782 34.7638 76.5775 34.7883 76.6906 34.7883C76.7642 34.7883 76.8307 34.7781 76.89 34.7575C76.9501 34.7361 77.002 34.7045 77.0455 34.6625C77.089 34.6198 77.1226 34.5668 77.1464 34.5035L77.4169 34.5795C77.3885 34.6712 77.3406 34.7519 77.2733 34.8216C77.2061 34.8904 77.123 34.9442 77.0241 34.983C76.9252 35.0209 76.8141 35.0399 76.6906 35.0399ZM78.1515 33.9054V35.002H77.8715V33.1791H78.142V33.4639H78.1658C78.2085 33.3714 78.2734 33.297 78.3604 33.2408C78.4474 33.1839 78.5598 33.1554 78.6974 33.1554C78.8208 33.1554 78.9288 33.1807 79.0214 33.2313C79.114 33.2812 79.186 33.3571 79.2374 33.4592C79.2888 33.5605 79.3145 33.6886 79.3145 33.8437V35.002H79.0345V33.8627C79.0345 33.7195 78.9973 33.6079 78.9229 33.528C78.8485 33.4473 78.7465 33.407 78.6167 33.407C78.5273 33.407 78.4474 33.4264 78.377 33.4651C78.3074 33.5039 78.2524 33.5605 78.2121 33.6348C78.1717 33.7092 78.1515 33.7994 78.1515 33.9054ZM80.6191 33.1791V33.4165H79.6744V33.1791H80.6191ZM79.9497 32.7424H80.2298V34.4798C80.2298 34.5589 80.2413 34.6182 80.2642 34.6578C80.288 34.6966 80.318 34.7227 80.3544 34.7361C80.3916 34.7488 80.4308 34.7551 80.4719 34.7551C80.5028 34.7551 80.5281 34.7535 80.5479 34.7504C80.5676 34.7464 80.5835 34.7432 80.5953 34.7409L80.6523 34.9925C80.6333 34.9996 80.6068 35.0067 80.5728 35.0138C80.5388 35.0217 80.4956 35.0257 80.4434 35.0257C80.3643 35.0257 80.2868 35.0087 80.2108 34.9747C80.1357 34.9406 80.0732 34.8888 80.0233 34.8192C79.9743 34.7496 79.9497 34.6618 79.9497 34.5557V32.7424ZM83.2714 33.5874L83.0198 33.6586C83.004 33.6166 82.9807 33.5759 82.9498 33.5363C82.9198 33.496 82.8786 33.4627 82.8264 33.4366C82.7742 33.4105 82.7073 33.3975 82.6258 33.3975C82.5143 33.3975 82.4213 33.4232 82.347 33.4746C82.2734 33.5253 82.2366 33.5897 82.2366 33.6681C82.2366 33.7377 82.2619 33.7927 82.3125 33.833C82.3632 33.8734 82.4423 33.907 82.5499 33.9339L82.8205 34.0003C82.9834 34.0399 83.1049 34.1004 83.1848 34.1819C83.2647 34.2626 83.3047 34.3667 83.3047 34.494C83.3047 34.5985 83.2746 34.6918 83.2145 34.7741C83.1551 34.8564 83.0721 34.9213 82.9652 34.9687C82.8584 35.0162 82.7342 35.0399 82.5926 35.0399C82.4067 35.0399 82.2528 34.9996 82.131 34.9189C82.0091 34.8382 81.932 34.7203 81.8996 34.5652L82.1654 34.4988C82.1907 34.5969 82.2386 34.6705 82.309 34.7195C82.3802 34.7686 82.4731 34.7931 82.5879 34.7931C82.7184 34.7931 82.822 34.7654 82.8988 34.71C82.9763 34.6538 83.0151 34.5866 83.0151 34.5083C83.0151 34.445 82.9929 34.392 82.9486 34.3492C82.9043 34.3057 82.8363 34.2733 82.7445 34.2519L82.4407 34.1807C82.2738 34.1412 82.1511 34.0799 82.0728 33.9968C81.9953 33.9129 81.9565 33.8081 81.9565 33.6823C81.9565 33.5794 81.9854 33.4885 82.0431 33.4093C82.1017 33.3302 82.1812 33.2681 82.2817 33.223C82.383 33.1779 82.4977 33.1554 82.6258 33.1554C82.8062 33.1554 82.9478 33.1949 83.0507 33.2741C83.1543 33.3532 83.2279 33.4576 83.2714 33.5874ZM84.4668 35.0399C84.3022 35.0399 84.1578 35.0008 84.0336 34.9224C83.9102 34.8441 83.8137 34.7345 83.744 34.5937C83.6752 34.4529 83.6408 34.2883 83.6408 34.1C83.6408 33.9102 83.6752 33.7444 83.744 33.6028C83.8137 33.4612 83.9102 33.3512 84.0336 33.2729C84.1578 33.1945 84.3022 33.1554 84.4668 33.1554C84.6313 33.1554 84.7753 33.1945 84.8987 33.2729C85.023 33.3512 85.1195 33.4612 85.1883 33.6028C85.2579 33.7444 85.2927 33.9102 85.2927 34.1C85.2927 34.2883 85.2579 34.4529 85.1883 34.5937C85.1195 34.7345 85.023 34.8441 84.8987 34.9224C84.7753 35.0008 84.6313 35.0399 84.4668 35.0399ZM84.4668 34.7883C84.5918 34.7883 84.6946 34.7563 84.7753 34.6922C84.856 34.6281 84.9158 34.5439 84.9545 34.4394C84.9933 34.335 85.0127 34.2219 85.0127 34.1C85.0127 33.9782 84.9933 33.8647 84.9545 33.7594C84.9158 33.6542 84.856 33.5692 84.7753 33.5043C84.6946 33.4394 84.5918 33.407 84.4668 33.407C84.3418 33.407 84.2389 33.4394 84.1582 33.5043C84.0775 33.5692 84.0178 33.6542 83.979 33.7594C83.9403 33.8647 83.9209 33.9782 83.9209 34.1C83.9209 34.2219 83.9403 34.335 83.979 34.4394C84.0178 34.5439 84.0775 34.6281 84.1582 34.6922C84.2389 34.7563 84.3418 34.7883 84.4668 34.7883ZM86.0003 32.5715V35.002H85.7203V32.5715H86.0003ZM87.6621 34.2567V33.1791H87.9421V35.002H87.6621V34.6934H87.6431C87.6004 34.786 87.5339 34.8647 87.4437 34.9296C87.3535 34.9936 87.2396 35.0257 87.1019 35.0257C86.988 35.0257 86.8867 35.0008 86.7981 34.9509C86.7095 34.9003 86.6399 34.8243 86.5893 34.7231C86.5386 34.621 86.5133 34.4924 86.5133 34.3374V33.1791H86.7934V34.3184C86.7934 34.4513 86.8306 34.5573 86.9049 34.6364C86.9801 34.7156 87.0758 34.7551 87.1921 34.7551C87.2617 34.7551 87.3326 34.7373 87.4045 34.7017C87.4773 34.6661 87.5383 34.6115 87.5873 34.5379C87.6371 34.4644 87.6621 34.3706 87.6621 34.2567ZM89.2479 33.1791V33.4165H88.3032V33.1791H89.2479ZM88.5785 32.7424H88.8586V34.4798C88.8586 34.5589 88.8701 34.6182 88.893 34.6578C88.9168 34.6966 88.9468 34.7227 88.9832 34.7361C89.0204 34.7488 89.0596 34.7551 89.1007 34.7551C89.1316 34.7551 89.1569 34.7535 89.1766 34.7504C89.1964 34.7464 89.2122 34.7432 89.2241 34.7409L89.2811 34.9925C89.2621 34.9996 89.2356 35.0067 89.2016 35.0138C89.1675 35.0217 89.1244 35.0257 89.0722 35.0257C88.9931 35.0257 88.9156 35.0087 88.8396 34.9747C88.7645 34.9406 88.702 34.8888 88.6521 34.8192C88.6031 34.7496 88.5785 34.6618 88.5785 34.5557V32.7424ZM89.6691 35.002V33.1791H89.9492V35.002H89.6691ZM89.8116 32.8753C89.757 32.8753 89.7099 32.8567 89.6703 32.8195C89.6316 32.7824 89.6122 32.7377 89.6122 32.6854C89.6122 32.6332 89.6316 32.5885 89.6703 32.5513C89.7099 32.5141 89.757 32.4956 89.8116 32.4956C89.8661 32.4956 89.9128 32.5141 89.9516 32.5513C89.9911 32.5885 90.0109 32.6332 90.0109 32.6854C90.0109 32.7377 89.9911 32.7824 89.9516 32.8195C89.9128 32.8567 89.8661 32.8753 89.8116 32.8753ZM91.2027 35.0399C91.0381 35.0399 90.8938 35.0008 90.7696 34.9224C90.6461 34.8441 90.5496 34.7345 90.48 34.5937C90.4112 34.4529 90.3767 34.2883 90.3767 34.1C90.3767 33.9102 90.4112 33.7444 90.48 33.6028C90.5496 33.4612 90.6461 33.3512 90.7696 33.2729C90.8938 33.1945 91.0381 33.1554 91.2027 33.1554C91.3673 33.1554 91.5113 33.1945 91.6347 33.2729C91.7589 33.3512 91.8554 33.4612 91.9242 33.6028C91.9939 33.7444 92.0287 33.9102 92.0287 34.1C92.0287 34.2883 91.9939 34.4529 91.9242 34.5937C91.8554 34.7345 91.7589 34.8441 91.6347 34.9224C91.5113 35.0008 91.3673 35.0399 91.2027 35.0399ZM91.2027 34.7883C91.3277 34.7883 91.4306 34.7563 91.5113 34.6922C91.592 34.6281 91.6517 34.5439 91.6905 34.4394C91.7292 34.335 91.7486 34.2219 91.7486 34.1C91.7486 33.9782 91.7292 33.8647 91.6905 33.7594C91.6517 33.6542 91.592 33.5692 91.5113 33.5043C91.4306 33.4394 91.3277 33.407 91.2027 33.407C91.0777 33.407 90.9749 33.4394 90.8942 33.5043C90.8135 33.5692 90.7537 33.6542 90.715 33.7594C90.6762 33.8647 90.6568 33.9782 90.6568 34.1C90.6568 34.2219 90.6762 34.335 90.715 34.4394C90.7537 34.5439 90.8135 34.6281 90.8942 34.6922C90.9749 34.7563 91.0777 34.7883 91.2027 34.7883ZM92.7363 33.9054V35.002H92.4562V33.1791H92.7268V33.4639H92.7505C92.7932 33.3714 92.8581 33.297 92.9451 33.2408C93.0322 33.1839 93.1445 33.1554 93.2822 33.1554C93.4056 33.1554 93.5136 33.1807 93.6062 33.2313C93.6987 33.2812 93.7707 33.3571 93.8221 33.4592C93.8736 33.5605 93.8993 33.6886 93.8993 33.8437V35.002H93.6192V33.8627C93.6192 33.7195 93.582 33.6079 93.5077 33.528C93.4333 33.4473 93.3312 33.407 93.2015 33.407C93.1121 33.407 93.0322 33.4264 92.9618 33.4651C92.8921 33.5039 92.8372 33.5605 92.7968 33.6348C92.7565 33.7092 92.7363 33.7994 92.7363 33.9054Z" fill="url(#paint4_linear_588_38283)"/>
<defs>
<linearGradient id="paint0_linear_588_38283" x1="30.4553" y1="0.00195483" x2="30.4552" y2="24.0671" gradientUnits="userSpaceOnUse">
<stop stop-color="white"/>
<stop offset="1" stop-color="#C4CCDD"/>
</linearGradient>
<linearGradient id="paint1_linear_588_38283" x1="49.7659" y1="12.4014" x2="49.7659" y2="22.3606" gradientUnits="userSpaceOnUse">
<stop stop-color="white"/>
<stop offset="1" stop-color="#C4CCDD"/>
</linearGradient>
<linearGradient id="paint2_linear_588_38283" x1="53.874" y1="21.4693" x2="53.874" y2="31.4176" gradientUnits="userSpaceOnUse">
<stop stop-color="white"/>
<stop offset="1" stop-color="#C4CCDD"/>
</linearGradient>
<linearGradient id="paint3_linear_588_38283" x1="80.6637" y1="21.147" x2="80.6637" y2="31.2647" gradientUnits="userSpaceOnUse">
<stop stop-color="white"/>
<stop offset="1" stop-color="#C4CCDD"/>
</linearGradient>
<linearGradient id="paint4_linear_588_38283" x1="69.315" y1="32.002" x2="69.315" y2="36.002" gradientUnits="userSpaceOnUse">
<stop stop-color="white"/>
<stop offset="1" stop-color="#C4CCDD"/>
</linearGradient>
</defs>
</svg>
