<svg width="113" height="37" viewBox="0 0 113 37" fill="none" xmlns="http://www.w3.org/2000/svg">
<path fill-rule="evenodd" clip-rule="evenodd" d="M85.4446 3.35339C85.3567 3.58169 85.285 7.34666 85.285 11.7199C85.285 18.6106 85.3384 19.725 85.6843 20.0705C85.9042 20.2896 86.2186 20.4672 86.3833 20.4652C87.3064 20.453 87.3268 20.2465 87.2584 11.5736L87.1913 3.09262L86.3978 3.0155C85.847 2.96198 85.5552 3.06548 85.4446 3.35339ZM79.6543 4.85207C79.2947 5.64022 79.5094 6.19069 80.3205 6.55952C80.8532 6.80178 81.0484 6.77337 81.4714 6.39134C82.4568 5.50121 81.9764 4.23413 80.6537 4.23413C80.1403 4.23413 79.8564 4.40993 79.6543 4.85207ZM28.8588 8.4415C27.1378 9.0711 26.5456 9.4478 26.4065 10.0013C26.1496 11.0231 26.6508 11.221 27.9509 10.6111C29.2525 10.0005 31.3121 9.88944 32.0016 10.3927C32.4482 10.7184 33.0448 12.7148 32.8094 13.0951C32.74 13.2072 31.8415 13.3528 30.8126 13.4185C28.5759 13.5618 27.1802 14.1767 26.3839 15.3697C25.7198 16.3651 25.6565 17.3313 26.1747 18.569C26.967 20.4616 29.7039 21.0684 31.8712 19.8318C33.1993 19.0741 33.1797 19.0761 33.1797 19.691C33.1797 20.4056 34.1888 20.6567 34.6481 20.0563C35.1307 19.4254 34.933 11.2385 34.4094 10.1725C33.82 8.97243 32.893 8.49122 30.9788 8.39203C30.0226 8.34257 29.0685 8.36463 28.8588 8.4415ZM40.0474 8.73728C38.285 9.62081 37.4938 11.9807 38.2733 14.0273C38.4739 14.5537 38.4434 14.957 38.1462 15.6977C37.6277 16.9914 37.6526 17.7342 38.2393 18.4787C38.7202 19.0885 38.7191 19.0982 38.1203 19.6735C37.3087 20.4527 37.1077 21.6762 37.5985 22.8484C38.1948 24.2723 39.7463 24.8752 42.4339 24.7281C45.917 24.5371 47.4134 23.3679 47.4134 20.8371C47.4134 19.8477 47.2875 19.5406 46.6325 18.93C45.8088 18.1619 45.367 18.0464 42.3693 17.8148C40.2449 17.6507 39.534 17.3636 39.534 16.67C39.534 15.9653 39.868 15.8618 41.1872 16.1569C42.7442 16.5051 44.1264 16.1264 45.3368 15.0197C46.2233 14.2089 46.2696 14.0874 46.2673 12.5616C46.2663 11.6788 46.1712 10.7646 46.0563 10.53C45.885 10.1804 45.9994 10.0891 46.694 10.0226C47.4057 9.95464 47.5404 9.84074 47.5404 9.30752C47.5404 8.75047 47.4014 8.65255 46.3967 8.50187C44.0776 8.15434 40.981 8.269 40.0474 8.73728ZM51.4981 8.72307C50.2949 9.35496 49.6422 10.3336 49.6099 11.5545C49.5718 13.0101 50.2827 13.8419 52.4818 14.9146C55.0594 16.1723 55.6318 17.0866 54.5302 18.186C53.9008 18.814 52.2086 18.8653 50.8459 18.2971C49.7106 17.8235 49.1267 17.9807 49.2383 18.7301C49.4373 20.0677 52.492 20.9286 54.5884 20.2379C56.5681 19.586 57.535 17.5003 56.7392 15.5995C56.409 14.8106 56.0433 14.5326 54.1657 13.6422C51.655 12.4518 51.125 11.7887 51.8286 10.7172C52.4157 9.82273 53.3765 9.64719 54.842 10.1667C56.1556 10.6324 56.5635 10.5548 56.5635 9.83922C56.5635 8.4968 53.299 7.77739 51.4981 8.72307ZM60.1728 8.59725C59.9542 8.81541 59.8678 10.462 59.8678 14.4007C59.8678 20.386 59.9405 20.6968 61.2624 20.3657L61.9012 20.2057V16.1941V12.1824L62.8408 11.2445C64.298 9.79051 65.4047 9.68448 66.3222 10.911C66.8016 11.5517 66.8707 12.0662 66.9846 15.8309C67.0947 19.4738 67.1712 20.0722 67.5565 20.314C67.88 20.5172 68.1225 20.5172 68.4461 20.314C68.8286 20.0738 68.9087 19.4865 69.018 16.117C69.1603 11.7329 69.3581 11.1433 70.939 10.3909C71.5976 10.0774 71.9936 10.0338 72.5146 10.2167C73.727 10.6421 73.9652 11.5484 74.0597 16.0939C74.1451 20.2161 74.1451 20.2166 74.762 20.3711C75.1189 20.4606 75.5497 20.3843 75.784 20.1899C76.134 19.9003 76.1755 19.2483 76.0888 15.4055C75.9772 10.4589 75.8143 9.83566 74.3815 8.87299C72.889 7.87049 70.6421 8.23247 69.2627 9.69818L68.6832 10.3136L67.863 9.36663C67.0741 8.45596 66.9803 8.41968 65.4054 8.41968C64.0105 8.41968 63.6321 8.52318 62.8515 9.11727C61.7339 9.96808 61.647 9.97468 61.647 9.20783C61.647 8.38214 60.7576 8.01356 60.1728 8.59725ZM80.138 8.56681C79.7359 8.80069 79.6932 9.35673 79.6932 14.3624C79.6932 20.3893 79.7646 20.697 81.0878 20.3657L81.7266 20.2057V14.4032C81.7266 9.34608 81.675 8.58101 81.3245 8.44682C80.7986 8.24541 80.6685 8.2586 80.138 8.56681ZM93.2662 8.76264C91.487 9.59239 90.3669 11.8052 90.3699 14.4847C90.3727 17.2415 91.4105 19.1575 93.3689 20.022C94.2989 20.4327 94.8858 20.5063 96.4464 20.4079C98.8608 20.2559 99.6719 19.8939 99.8757 18.8775C99.9609 18.4526 99.9787 18.0533 99.9154 17.9901C99.8521 17.927 99.2591 18.0594 98.5975 18.2844C97.9359 18.5091 96.7375 18.6933 95.9345 18.6933C94.7379 18.6933 94.3343 18.5758 93.6996 18.0429C93.0169 17.4696 92.4074 16.1353 92.4033 15.2053C92.4021 14.9664 93.2978 14.8883 96.0387 14.8883C100.487 14.8883 100.686 14.7979 100.458 12.8802C100.274 11.331 99.4279 9.69386 98.4303 8.95721C97.4136 8.20685 94.6792 8.10361 93.2662 8.76264ZM14.999 8.8636C14.934 9.03813 14.8519 12.7379 14.8166 17.0858L14.7522 24.9909L11.0668 22.9894C7.27298 20.9294 7 20.8099 7 21.2133C7 21.6557 9.56943 24.6497 10.8484 25.6976C13.7409 28.0677 19.1835 30.3159 24.665 31.4049C27.4532 31.9589 28.326 32.0102 34.8318 32.0011C43.3372 31.9894 45.3347 31.7291 59.8678 28.7366C70.4335 26.5609 75.1938 25.7354 80.4557 25.1662C82.4827 24.9468 85.1134 24.6568 86.3017 24.5214C89.0772 24.2055 99.3623 24.2162 101.679 24.5373C102.658 24.6731 104.03 24.8519 104.729 24.9348L106 25.0855L105.237 24.4265C103.995 23.3527 101.061 22.024 98.8832 21.5491C96.1043 20.9428 88.8665 20.9558 84.6496 21.5742C78.8677 22.4225 68.8177 24.8237 58.9782 27.7082C54.9577 28.887 49.5667 30.0229 45.6341 30.5204C41.7847 31.0072 34.0777 31.0729 31.2734 30.6429C28.4417 30.2089 24.2105 28.9943 20.8768 27.6587C16.5444 25.9231 16.886 26.3919 16.9691 22.2977L17.0398 18.8201L18.9461 18.6629C22.9066 18.3359 24.5539 16.705 24.5272 13.1382C24.5089 10.6867 23.3247 9.24411 20.9647 8.79739C19.0139 8.42831 15.1457 8.47118 14.999 8.8636ZM43.338 10.1911C44.3618 10.7192 44.7644 12.0172 44.2703 13.1973C43.6524 14.6731 41.9911 15.1128 40.7406 14.1313C39.0813 12.8285 40.0502 9.87169 42.152 9.82501C42.4034 9.81943 42.9371 9.98406 43.338 10.1911ZM97.1754 10.4724C97.8299 10.9006 98.6127 12.4746 98.368 12.8701C98.199 13.1428 92.4018 13.2097 92.4018 12.9391C92.4018 12.8434 92.6349 12.2848 92.9198 11.6976C93.7794 9.92546 95.5563 9.41381 97.1754 10.4724ZM20.2691 10.586C21.6479 10.9683 22.2503 11.8703 22.2503 13.5527C22.2503 14.7837 22.156 15.0331 21.409 15.7786C20.5558 16.6302 19.0409 17.0729 17.6516 16.877C17.051 16.7923 17.0385 16.7375 16.9674 13.889C16.9277 12.2932 16.9526 10.8377 17.023 10.6548C17.1778 10.2519 18.9301 10.2149 20.2691 10.586ZM32.8155 15.7771C32.9337 16.4057 32.8584 16.8552 32.559 17.3113C32.0738 18.0505 30.7168 18.9447 30.0781 18.946C29.2378 18.948 28.3726 18.3607 28.1108 17.6109C27.5473 15.9978 28.8603 14.9337 31.4526 14.9025C32.6218 14.8885 32.6521 14.9078 32.8155 15.7771ZM44.1706 19.7207C45.6212 20.1227 45.8459 21.6227 44.5953 22.5534C43.2653 23.5437 40.1173 23.3322 39.5167 22.2125C39.1675 21.561 39.3912 20.6115 40.0487 19.9553C40.6219 19.3833 42.5564 19.2734 44.1706 19.7207Z" fill="url(#paint0_linear_588_38282)"/>
<defs>
<linearGradient id="paint0_linear_588_38282" x1="56.5" y1="3.00196" x2="56.5" y2="32.002" gradientUnits="userSpaceOnUse">
<stop stop-color="white"/>
<stop offset="1" stop-color="#C4CCDD"/>
</linearGradient>
</defs>
</svg>
