<svg width="113" height="37" viewBox="0 0 113 37" fill="none" xmlns="http://www.w3.org/2000/svg">
<path d="M50.6331 29.2858H44.7197L48.4184 6.41602H54.3315L50.6331 29.2858Z" fill="url(#paint0_linear_588_38290)"/>
<path d="M72.0692 6.97561C70.9028 6.51287 69.0528 6.00195 66.7653 6.00195C60.9256 6.00195 56.8134 9.11598 56.7882 13.5681C56.7397 16.8529 59.7324 18.6773 61.9708 19.7725C64.2586 20.8917 65.0363 21.6222 65.0363 22.6198C65.013 24.1519 63.1876 24.8581 61.4851 24.8581C59.1242 24.8581 57.8591 24.494 55.9367 23.6416L55.1581 23.2762L54.3306 28.41C55.7175 29.0419 58.2727 29.6026 60.9256 29.6272C67.1304 29.6272 71.1699 26.5613 71.2178 21.8169C71.2414 19.2134 69.6611 17.2186 66.2541 15.5885C64.1858 14.5421 62.9192 13.8365 62.9192 12.7658C62.9435 11.7925 63.9905 10.7955 66.3252 10.7955C68.2476 10.7467 69.6601 11.2088 70.7301 11.6712L71.265 11.9141L72.0692 6.97561Z" fill="url(#paint1_linear_588_38290)"/>
<path d="M79.9298 21.1839C80.4168 19.87 82.2907 14.7851 82.2907 14.7851C82.2661 14.8339 82.7767 13.447 83.0687 12.5956L83.482 14.5662C83.482 14.5662 84.6018 20.0404 84.845 21.1839C83.9208 21.1839 81.0978 21.1839 79.9298 21.1839ZM87.2292 6.41602H82.6551C81.2446 6.41602 80.173 6.82928 79.5644 8.31353L70.7808 29.2855H76.9855C76.9855 29.2855 78.007 26.4628 78.2266 25.8549C78.9073 25.8549 84.9433 25.8549 85.8189 25.8549C85.9887 26.6578 86.5245 29.2855 86.5245 29.2855H91.9998L87.2292 6.41602Z" fill="url(#paint2_linear_588_38290)"/>
<path d="M39.7804 6.41602L33.9892 22.011L33.3564 18.8482C32.2857 15.1987 28.9278 11.2335 25.1807 9.26197L30.4852 29.2616H36.7385L46.0333 6.41602H39.7804Z" fill="url(#paint3_linear_588_38290)"/>
<path d="M28.6114 6.41602H19.0973L19 6.87811C26.4216 8.77595 31.3368 13.3506 33.3562 18.8492L31.2879 8.33843C30.9474 6.87778 29.901 6.4642 28.6114 6.41602Z" fill="url(#paint4_linear_588_38290)"/>
<defs>
<linearGradient id="paint0_linear_588_38290" x1="49.5256" y1="6.41602" x2="49.5256" y2="29.2858" gradientUnits="userSpaceOnUse">
<stop stop-color="white"/>
<stop offset="1" stop-color="#C4CCDD"/>
</linearGradient>
<linearGradient id="paint1_linear_588_38290" x1="63.1999" y1="6.00195" x2="63.1999" y2="29.6272" gradientUnits="userSpaceOnUse">
<stop stop-color="white"/>
<stop offset="1" stop-color="#C4CCDD"/>
</linearGradient>
<linearGradient id="paint2_linear_588_38290" x1="81.3903" y1="6.41602" x2="81.3903" y2="29.2855" gradientUnits="userSpaceOnUse">
<stop stop-color="white"/>
<stop offset="1" stop-color="#C4CCDD"/>
</linearGradient>
<linearGradient id="paint3_linear_588_38290" x1="35.607" y1="6.41602" x2="35.607" y2="29.2616" gradientUnits="userSpaceOnUse">
<stop stop-color="white"/>
<stop offset="1" stop-color="#C4CCDD"/>
</linearGradient>
<linearGradient id="paint4_linear_588_38290" x1="26.1781" y1="6.41602" x2="26.1781" y2="18.8492" gradientUnits="userSpaceOnUse">
<stop stop-color="white"/>
<stop offset="1" stop-color="#C4CCDD"/>
</linearGradient>
</defs>
</svg>
