<svg width="113" height="37" viewBox="0 0 113 37" fill="none" xmlns="http://www.w3.org/2000/svg">
<path d="M34.4696 23.4116H36.3169L35.1565 27.4398H37.63L37.2152 28.8658H32.8945L34.4696 23.4116Z" fill="url(#paint0_linear_588_38275)"/>
<path d="M37.7195 26.9886C37.7357 26.8013 37.7762 26.615 37.8328 26.4126L38.6988 23.4126H40.546L39.6902 26.3814C39.6456 26.5294 39.6183 26.6623 39.6082 26.7792C39.5647 27.2696 39.8105 27.5042 40.2799 27.5042C40.812 27.5042 41.1287 27.2001 41.3644 26.3824L42.2202 23.4136H44.0361L43.1469 26.4911C42.6745 28.1276 41.6042 28.9927 39.9208 28.9927C38.4337 28.9927 37.6092 28.2132 37.7175 26.9896L37.7195 26.9886Z" fill="url(#paint1_linear_588_38275)"/>
<path d="M42.8208 28.4381L43.6524 27.0826C44.232 27.4331 44.8451 27.5892 45.4551 27.5892C45.9326 27.5892 46.1936 27.4643 46.2108 27.27C46.2613 26.6929 43.625 27.0283 43.7738 25.3374C43.883 24.0988 44.9948 23.2881 46.7247 23.2881C47.539 23.2881 48.2522 23.4512 48.7348 23.7554L47.9518 25.0957C47.537 24.8228 47.017 24.6909 46.4849 24.6909C45.9528 24.6909 45.6625 24.8702 45.6463 25.0575C45.5937 25.6577 48.2421 25.276 48.0934 26.9588C47.9862 28.1743 46.8501 28.992 45.1435 28.992C44.1653 28.992 43.3165 28.7584 42.8208 28.4391V28.4381Z" fill="url(#paint2_linear_588_38275)"/>
<path d="M59.9546 23.4116L56.6263 28.8658H54.6456L54.5849 25.9907L52.8297 28.8658H50.8489L50.6709 23.4116H52.4949L52.5738 26.5204L54.4756 23.4116H56.1741L56.2096 26.5677L58.1387 23.4116H59.9546Z" fill="url(#paint3_linear_588_38275)"/>
<path d="M62.4295 27.9151H60.3394L59.7082 28.8658H57.7588L61.7294 23.4116H63.5453L64.3657 28.8658H62.5266L62.4305 27.9151H62.4295ZM62.2878 26.5909L62.1442 25.1961L61.2155 26.5909H62.2878Z" fill="url(#paint4_linear_588_38275)"/>
<path d="M66.1815 23.4116H68.0288L66.8684 27.4398H69.3419L68.9271 28.8658H64.6064L66.1815 23.4116Z" fill="url(#paint5_linear_588_38275)"/>
<path d="M70.852 23.4116H72.6992L71.5389 27.4398H74.0123L73.5975 28.8658H69.2769L70.852 23.4116Z" fill="url(#paint6_linear_588_38275)"/>
<path d="M76.9346 24.7993L76.7535 25.4378H79.0701L78.6877 26.7621H76.363L76.1587 27.4791H78.9063L78.5026 28.8658H73.9473L75.5224 23.4116H79.9766L79.5729 24.7983H76.9346V24.7993Z" fill="url(#paint7_linear_588_38275)"/>
<path d="M81.4697 24.8376H79.8652L80.28 23.4116H85.3371L84.9224 24.8376H83.3179L82.1576 28.8658H80.3104L81.4707 24.8376H81.4697Z" fill="url(#paint8_linear_588_38275)"/>
<path d="M84.0859 28.4381L84.9175 27.0826C85.4972 27.4331 86.1102 27.5892 86.7202 27.5892C87.1977 27.5892 87.4587 27.4643 87.4759 27.27C87.5265 26.6929 84.8902 27.0283 85.0389 25.3374C85.1481 24.0988 86.2599 23.2881 87.9898 23.2881C88.8042 23.2881 89.5174 23.4512 89.9999 23.7554L89.2169 25.0957C88.8021 24.8228 88.2822 24.6909 87.75 24.6909C87.2179 24.6909 86.9286 24.8702 86.9114 25.0575C86.8588 25.6577 89.5072 25.276 89.3585 26.9588C89.2513 28.1743 88.1152 28.992 86.4086 28.992C85.4304 28.992 84.5816 28.7584 84.0859 28.4391V28.4381Z" fill="url(#paint9_linear_588_38275)"/>
<path d="M34.5012 22.1853C34.2746 24.7633 32.0884 26.4975 28.9423 26.4975H27.1719L26.4547 29.003H23L25.9448 18.8066H30.4961C33.2468 18.8066 34.6883 20.0594 34.5012 22.1863V22.1853ZM30.9767 22.4914C31.0404 21.7633 30.57 21.4572 29.7799 21.4572H28.6236L27.9307 23.8459H29.35C30.3009 23.8459 30.9008 23.3504 30.9767 22.4914Z" fill="url(#paint10_linear_588_38275)"/>
<path d="M44.6383 8.00195H54.0363C54.0363 8.00195 51.5821 11.7814 52.2306 16.8972C48.8305 20.859 42.5068 21.1369 42.5068 15.6988C42.5068 10.859 44.6383 8.00195 44.6383 8.00195Z" fill="url(#paint11_linear_588_38275)"/>
<path d="M58.2969 8.00195H67.6949C66.7693 14.5468 62.2069 19.7693 58.4568 19.8308H49.4482C53.5747 18.2708 58.2969 12.5639 58.2969 8.00195Z" fill="url(#paint12_linear_588_38275)"/>
<path d="M70.5655 8.00195H79.9635C79.0379 14.5468 74.4754 19.7693 70.7253 19.8308H61.7168C65.8432 18.2708 70.5655 12.5639 70.5655 8.00195Z" fill="url(#paint13_linear_588_38275)"/>
<defs>
<linearGradient id="paint0_linear_588_38275" x1="35.2622" y1="23.4116" x2="35.2622" y2="28.8658" gradientUnits="userSpaceOnUse">
<stop stop-color="white"/>
<stop offset="1" stop-color="#C4CCDD"/>
</linearGradient>
<linearGradient id="paint1_linear_588_38275" x1="40.8721" y1="23.4126" x2="40.8721" y2="28.9927" gradientUnits="userSpaceOnUse">
<stop stop-color="white"/>
<stop offset="1" stop-color="#C4CCDD"/>
</linearGradient>
<linearGradient id="paint2_linear_588_38275" x1="45.7778" y1="23.2881" x2="45.7778" y2="28.992" gradientUnits="userSpaceOnUse">
<stop stop-color="white"/>
<stop offset="1" stop-color="#C4CCDD"/>
</linearGradient>
<linearGradient id="paint3_linear_588_38275" x1="55.3127" y1="23.4116" x2="55.3127" y2="28.8658" gradientUnits="userSpaceOnUse">
<stop stop-color="white"/>
<stop offset="1" stop-color="#C4CCDD"/>
</linearGradient>
<linearGradient id="paint4_linear_588_38275" x1="61.0623" y1="23.4116" x2="61.0623" y2="28.8658" gradientUnits="userSpaceOnUse">
<stop stop-color="white"/>
<stop offset="1" stop-color="#C4CCDD"/>
</linearGradient>
<linearGradient id="paint5_linear_588_38275" x1="66.9742" y1="23.4116" x2="66.9742" y2="28.8658" gradientUnits="userSpaceOnUse">
<stop stop-color="white"/>
<stop offset="1" stop-color="#C4CCDD"/>
</linearGradient>
<linearGradient id="paint6_linear_588_38275" x1="71.6446" y1="23.4116" x2="71.6446" y2="28.8658" gradientUnits="userSpaceOnUse">
<stop stop-color="white"/>
<stop offset="1" stop-color="#C4CCDD"/>
</linearGradient>
<linearGradient id="paint7_linear_588_38275" x1="76.9619" y1="23.4116" x2="76.9619" y2="28.8658" gradientUnits="userSpaceOnUse">
<stop stop-color="white"/>
<stop offset="1" stop-color="#C4CCDD"/>
</linearGradient>
<linearGradient id="paint8_linear_588_38275" x1="82.6012" y1="23.4116" x2="82.6012" y2="28.8658" gradientUnits="userSpaceOnUse">
<stop stop-color="white"/>
<stop offset="1" stop-color="#C4CCDD"/>
</linearGradient>
<linearGradient id="paint9_linear_588_38275" x1="87.0429" y1="23.2881" x2="87.0429" y2="28.992" gradientUnits="userSpaceOnUse">
<stop stop-color="white"/>
<stop offset="1" stop-color="#C4CCDD"/>
</linearGradient>
<linearGradient id="paint10_linear_588_38275" x1="28.7587" y1="18.8066" x2="28.7587" y2="29.003" gradientUnits="userSpaceOnUse">
<stop stop-color="white"/>
<stop offset="1" stop-color="#C4CCDD"/>
</linearGradient>
<linearGradient id="paint11_linear_588_38275" x1="48.2716" y1="8.00195" x2="48.2716" y2="19.8314" gradientUnits="userSpaceOnUse">
<stop stop-color="white"/>
<stop offset="1" stop-color="#C4CCDD"/>
</linearGradient>
<linearGradient id="paint12_linear_588_38275" x1="58.5716" y1="8.00195" x2="58.5716" y2="19.8308" gradientUnits="userSpaceOnUse">
<stop stop-color="white"/>
<stop offset="1" stop-color="#C4CCDD"/>
</linearGradient>
<linearGradient id="paint13_linear_588_38275" x1="70.8402" y1="8.00195" x2="70.8401" y2="19.8308" gradientUnits="userSpaceOnUse">
<stop stop-color="white"/>
<stop offset="1" stop-color="#C4CCDD"/>
</linearGradient>
</defs>
</svg>
