<svg width="113" height="37" viewBox="0 0 113 37" fill="none" xmlns="http://www.w3.org/2000/svg">
<path d="M41.4037 35.9229V33.5338C41.4037 32.6198 40.847 32.0214 39.8914 32.0214C39.4135 32.0214 38.8939 32.1791 38.5367 32.6987C38.2584 32.2626 37.8594 32.0214 37.2609 32.0214C36.862 32.0214 36.463 32.142 36.1475 32.5781V32.1003H35.3125V35.9229H36.1475V33.8121C36.1475 33.1348 36.5048 32.8147 37.0615 32.8147C37.6182 32.8147 37.8965 33.1719 37.8965 33.8121V35.9229H38.7316V33.8121C38.7316 33.1348 39.1305 32.8147 39.6455 32.8147C40.2022 32.8147 40.4805 33.1719 40.4805 33.8121V35.9229H41.4037ZM53.7903 32.1003H52.4356V30.9451H51.6006V32.1003H50.8444V32.8564H51.6006V34.61C51.6006 35.4868 51.9578 36.0018 52.9135 36.0018C53.2707 36.0018 53.6697 35.8812 53.948 35.7234L53.7068 35.0044C53.4655 35.1621 53.1872 35.2039 52.9877 35.2039C52.5887 35.2039 52.431 34.9626 52.431 34.5683V32.8564H53.7856V32.1003H53.7903ZM60.8789 32.0168C60.4011 32.0168 60.081 32.258 59.8815 32.5735V32.0956H59.0465V35.9183H59.8815V33.7657C59.8815 33.1302 60.1599 32.7683 60.6794 32.7683C60.8372 32.7683 61.0367 32.8101 61.199 32.8472L61.4403 32.0492C61.2733 32.0168 61.0367 32.0168 60.8789 32.0168ZM50.1671 32.4157C49.7681 32.1374 49.2114 32.0168 48.613 32.0168C47.6573 32.0168 47.0217 32.4946 47.0217 33.2508C47.0217 33.8863 47.4996 34.2482 48.3346 34.3642L48.7336 34.4059C49.1697 34.4848 49.4109 34.6054 49.4109 34.8049C49.4109 35.0832 49.0908 35.2827 48.5341 35.2827C47.9774 35.2827 47.5367 35.0832 47.2583 34.8838L46.8594 35.5193C47.2955 35.8394 47.8939 35.9972 48.4924 35.9972C49.6058 35.9972 50.246 35.4776 50.246 34.7631C50.246 34.0858 49.7264 33.7286 48.9331 33.608L48.5341 33.5662C48.1769 33.5245 47.8985 33.4456 47.8985 33.209C47.8985 32.9307 48.1769 32.7729 48.6176 32.7729C49.0955 32.7729 49.5733 32.9724 49.8145 33.093L50.1671 32.4157ZM72.384 32.0168C71.9062 32.0168 71.5861 32.258 71.3866 32.5735V32.0956H70.5516V35.9183H71.3866V33.7657C71.3866 33.1302 71.665 32.7683 72.1846 32.7683C72.3423 32.7683 72.5418 32.8101 72.7042 32.8472L72.9454 32.0585C72.783 32.0168 72.5464 32.0168 72.384 32.0168ZM61.714 34.0116C61.714 35.1667 62.5119 36.0018 63.7459 36.0018C64.3026 36.0018 64.7016 35.8812 65.1006 35.5657L64.7016 34.8884C64.3815 35.1296 64.066 35.2456 63.7042 35.2456C63.0269 35.2456 62.549 34.7678 62.549 34.0116C62.549 33.2925 63.0269 32.8147 63.7042 32.7776C64.0614 32.7776 64.3815 32.8982 64.7016 33.1348L65.1006 32.4575C64.7016 32.1374 64.3026 32.0214 63.7459 32.0214C62.5119 32.0168 61.714 32.8564 61.714 34.0116ZM69.4382 34.0116V32.1003H68.6031V32.5781C68.3248 32.2209 67.9258 32.0214 67.4062 32.0214C66.3299 32.0214 65.4949 32.8564 65.4949 34.0116C65.4949 35.1667 66.3299 36.0018 67.4062 36.0018C67.9629 36.0018 68.3619 35.8023 68.6031 35.4451V35.9229H69.4382V34.0116ZM66.3717 34.0116C66.3717 33.3343 66.8078 32.7776 67.5268 32.7776C68.2042 32.7776 68.682 33.2972 68.682 34.0116C68.682 34.6889 68.2042 35.2456 67.5268 35.2456C66.8124 35.2039 66.3717 34.6843 66.3717 34.0116ZM56.3789 32.0168C55.2655 32.0168 54.4676 32.8147 54.4676 34.007C54.4676 35.2039 55.2655 35.9972 56.4207 35.9972C56.9774 35.9972 57.5341 35.8394 57.9748 35.4776L57.5758 34.8791C57.2557 35.1204 56.8568 35.2781 56.4624 35.2781C55.9429 35.2781 55.4279 35.0368 55.3073 34.3642H58.1325C58.1325 34.2436 58.1325 34.1647 58.1325 34.0441C58.1697 32.8147 57.4506 32.0168 56.3789 32.0168ZM56.3789 32.7358C56.8985 32.7358 57.2557 33.0559 57.3346 33.6497H55.3444C55.4233 33.1348 55.7805 32.7358 56.3789 32.7358ZM77.1253 34.0116V30.5879H76.2902V32.5781C76.0119 32.2209 75.6129 32.0214 75.0933 32.0214C74.017 32.0214 73.182 32.8564 73.182 34.0116C73.182 35.1667 74.017 36.0018 75.0933 36.0018C75.65 36.0018 76.049 35.8023 76.2902 35.4451V35.9229H77.1253V34.0116ZM74.0588 34.0116C74.0588 33.3343 74.4949 32.7776 75.2139 32.7776C75.8913 32.7776 76.3691 33.2972 76.3691 34.0116C76.3691 34.6889 75.8913 35.2456 75.2139 35.2456C74.4949 35.2039 74.0588 34.6843 74.0588 34.0116ZM46.1032 34.0116V32.1003H45.2681V32.5781C44.9898 32.2209 44.5908 32.0214 44.0712 32.0214C42.995 32.0214 42.1599 32.8564 42.1599 34.0116C42.1599 35.1667 42.995 36.0018 44.0712 36.0018C44.6279 36.0018 45.0269 35.8023 45.2681 35.4451V35.9229H46.1032V34.0116ZM42.9996 34.0116C42.9996 33.3343 43.4357 32.7776 44.1547 32.7776C44.8321 32.7776 45.3099 33.2972 45.3099 34.0116C45.3099 34.6889 44.8321 35.2456 44.1547 35.2456C43.4357 35.2039 42.9996 34.6843 42.9996 34.0116Z" fill="white"/>
<path d="M62.431 3.06641H49.8867V25.6035H62.431V3.06641Z" fill="url(#paint0_linear_588_38295)"/>
<path d="M62.431 3.06641H49.8867V25.6035H62.431V3.06641Z" fill="black" fill-opacity="0.1"/>
<path d="M50.7216 14.335C50.7216 9.75616 52.8742 5.69225 56.1773 3.06649C53.7463 1.15515 50.6798 0 47.335 0C39.4113 0 33 6.41132 33 14.335C33 22.2587 39.4113 28.67 47.335 28.67C50.6798 28.67 53.7463 27.5149 56.1773 25.6035C52.8695 23.0149 50.7216 18.9139 50.7216 14.335Z" fill="url(#paint1_linear_588_38295)"/>
<path d="M79.3569 14.335C79.3569 22.2587 72.9456 28.67 65.0219 28.67C61.6771 28.67 58.6106 27.5149 56.1797 25.6035C59.5245 22.9731 61.6353 18.9139 61.6353 14.335C61.6353 9.75616 59.4828 5.69225 56.1797 3.06649C58.606 1.15515 61.6725 0 65.0173 0C72.9456 0 79.3569 6.45308 79.3569 14.335Z" fill="url(#paint2_linear_588_38295)"/>
<defs>
<linearGradient id="paint0_linear_588_38295" x1="56.1589" y1="3.06641" x2="56.1589" y2="25.6035" gradientUnits="userSpaceOnUse">
<stop stop-color="white"/>
<stop offset="1" stop-color="#C4CCDD"/>
</linearGradient>
<linearGradient id="paint1_linear_588_38295" x1="44.5886" y1="2.0317e-06" x2="44.5886" y2="28.67" gradientUnits="userSpaceOnUse">
<stop stop-color="white"/>
<stop offset="1" stop-color="#C4CCDD"/>
</linearGradient>
<linearGradient id="paint2_linear_588_38295" x1="67.7683" y1="2.0317e-06" x2="67.7683" y2="28.67" gradientUnits="userSpaceOnUse">
<stop stop-color="white"/>
<stop offset="1" stop-color="#C4CCDD"/>
</linearGradient>
</defs>
</svg>
