<svg width="113" height="37" viewBox="0 0 113 37" fill="none" xmlns="http://www.w3.org/2000/svg">
<path d="M109.986 10.4462C108.584 9.48629 106.463 9.00218 103.682 9.00218H96.3993L93.6918 23.694H84.1511L84.7643 20.3607H90.5115L91.1925 16.617L85.4486 16.6252L86.0635 13.3068H91.9834L92.771 9.00304H80.7491L78.1788 22.9391H73.7671L76.3548 9.00231H70.0704L67.5002 22.9384H63.2024L65.7926 9.00231H59.5116L56.8008 23.6941H47.1915L47.799 20.3609H53.5692L54.2511 16.6383L48.4864 16.6326L49.098 13.3076H55.0842L55.8668 9.00195H18.4045L16.2722 20.6441L12.0258 9.00195H5.50577L1.99658 28.002H8.22332L10.3473 16.0387L14.4679 28.002H36.784L39.4973 13.3057H42.9875L40.2742 28.002H98.9922L100.695 18.7252L103.448 28.002H109.679L106.825 20.4217L107.478 20.2812C108.916 19.9731 110.037 19.3114 110.818 18.3193C111.598 17.3181 111.996 16.0327 111.996 14.4887C111.996 12.6911 111.338 11.3685 109.984 10.4451L109.986 10.4462ZM31.3654 23.694H21.8339L22.4497 20.3607H28.4282L29.1059 16.6063H23.1849L23.7552 13.3078H33.2728L31.3636 23.694L31.3654 23.694ZM104.853 17.2942C104.226 17.732 103.318 17.9451 102.076 17.9451H100.844L101.789 12.8464H102.695C103.726 12.8464 104.478 13.0116 104.997 13.3487C105.402 13.613 105.884 14.1359 105.884 15.1248C105.883 16.3209 105.322 16.9636 104.851 17.2941L104.853 17.2942Z" fill="url(#paint0_linear_588_38286)"/>
<defs>
<linearGradient id="paint0_linear_588_38286" x1="56.9963" y1="9.00195" x2="56.9963" y2="28.002" gradientUnits="userSpaceOnUse">
<stop stop-color="white"/>
<stop offset="1" stop-color="#C4CCDD"/>
</linearGradient>
</defs>
</svg>
