<svg width="113" height="37" viewBox="0 0 113 37" fill="none" xmlns="http://www.w3.org/2000/svg">
<mask id="mask0_588_38284" style="mask-type:luminance" maskUnits="userSpaceOnUse" x="10" y="5" width="94" height="26">
<path d="M104 5.00195H10V30.002H104V5.00195Z" fill="white"/>
</mask>
<g mask="url(#mask0_588_38284)">
<path d="M46.6786 9.32615C48.628 9.20841 50.5673 9.68099 52.2356 10.6803C52.8912 11.133 53.4163 11.7453 53.7596 12.4573C54.1029 13.1693 54.2527 13.9568 54.1944 14.7428C54.2309 15.6064 54.049 16.4654 53.6651 17.2428C53.316 17.9246 52.7857 18.5006 52.1306 18.9095C51.3785 19.3546 50.5553 19.6715 49.6959 19.847C48.634 20.0644 47.5515 20.1692 46.4669 20.1595H44.5615V26.4095H42.1802V9.74281C42.9289 9.57689 43.6902 9.47236 44.4565 9.43031C45.194 9.34611 45.9364 9.31131 46.6786 9.32615ZM46.8903 11.357C45.8851 11.357 45.0908 11.357 44.509 11.4095V18.0236H46.3086C47.0526 18.0313 47.7961 17.9792 48.5315 17.8678C49.1218 17.789 49.6944 17.613 50.2252 17.347C50.676 17.1117 51.0447 16.7489 51.2838 16.3053C51.56 15.7936 51.6883 15.2171 51.6547 14.6386C51.683 14.0772 51.555 13.5188 51.2846 13.0236C51.0429 12.5948 50.6731 12.2495 50.2252 12.0345C49.7509 11.7682 49.2302 11.5916 48.6899 11.5136C48.0965 11.4052 47.4939 11.3527 46.8903 11.357Z" fill="url(#paint0_linear_588_38284)"/>
<path d="M61.2874 13.4412C61.5181 13.4344 61.7489 13.4517 61.9759 13.4929C62.2263 13.4983 62.4751 13.5333 62.7169 13.5971C62.9425 13.6534 63.1731 13.6882 63.4054 13.7012C63.5667 13.7246 63.726 13.7594 63.8822 13.8054L63.5113 15.7846C63.2195 15.685 62.9182 15.6152 62.6119 15.5762C62.0735 15.4593 61.5228 15.4067 60.9716 15.4196C60.5432 15.4203 60.1166 15.4729 59.7013 15.5762C59.2779 15.6804 59.0137 15.7329 58.8544 15.7846V26.4621H56.5239V14.2221C57.1835 13.996 57.8549 13.8046 58.5352 13.6487C59.4441 13.4957 60.3654 13.4259 61.2874 13.4404" fill="url(#paint1_linear_588_38284)"/>
<path d="M69.756 13.3886C70.5489 13.3612 71.3397 13.4852 72.0848 13.7536C72.6663 13.9646 73.1914 14.3032 73.6201 14.7436C74.0249 15.1906 74.3153 15.7263 74.467 16.3061C74.6432 16.9515 74.732 17.617 74.7312 18.2853V26.202C74.5195 26.2536 74.2553 26.2536 73.8843 26.3578C73.5143 26.4103 73.1434 26.462 72.6674 26.5145C72.244 26.5661 71.7147 26.6186 71.2388 26.6703C70.7095 26.7228 70.1802 26.7228 69.7035 26.7228C69.0268 26.7364 68.3511 26.6664 67.6922 26.5145C67.1224 26.3953 66.5825 26.1652 66.1044 25.8378C65.6573 25.508 65.2948 25.0799 65.0458 24.5878C64.7762 23.9995 64.6495 23.3576 64.6757 22.7128C64.6717 22.0813 64.8167 21.4574 65.0992 20.8903C65.3723 20.3962 65.7742 19.9826 66.2636 19.692C66.7998 19.3647 67.3916 19.1355 68.0106 19.0153C68.6881 18.8661 69.3811 18.7962 70.0752 18.807C70.3234 18.8003 70.5716 18.8179 70.8162 18.8595C71.0491 18.8647 71.2802 18.8997 71.5039 18.9636C71.7156 19.0161 71.9273 19.0161 72.0865 19.0678C72.2059 19.1074 72.3316 19.1252 72.4574 19.1203V18.4953C72.4484 18.1289 72.413 17.7635 72.3516 17.402C72.2657 17.0519 72.1227 16.7178 71.9281 16.4128C71.6873 16.1198 71.3786 15.8877 71.0279 15.7361C70.5745 15.5554 70.0885 15.467 69.5993 15.4761C68.9255 15.4702 68.2525 15.5226 67.588 15.6328C67.1559 15.6988 66.7307 15.8034 66.3178 15.9453L66.0536 14.0703C66.5353 13.9049 67.0313 13.783 67.5355 13.7061C68.2476 13.4589 69.0019 13.3511 69.756 13.3886ZM69.9143 24.7428C70.3914 24.7536 70.8688 24.7364 71.3438 24.6911C71.7033 24.7026 72.062 24.6498 72.4024 24.5353V20.7328C72.1545 20.6123 71.8848 20.5415 71.6089 20.5245C71.1533 20.4577 70.6934 20.4229 70.2327 20.4203C69.8616 20.4115 69.4903 20.4288 69.1217 20.472C68.7543 20.5205 68.397 20.626 68.0631 20.7845C67.755 20.9331 67.4839 21.1464 67.2688 21.4095C67.0465 21.7115 66.9346 22.0786 66.9512 22.4511C66.919 22.781 66.9755 23.1135 67.1149 23.4152C67.2543 23.7169 67.4718 23.9773 67.7456 24.1703C68.3853 24.5903 69.1469 24.7915 69.9143 24.7428Z" fill="url(#paint2_linear_588_38284)"/>
<path d="M85.6868 26.3578C85.4867 25.9431 85.2569 25.543 84.9991 25.1603C84.7349 24.7437 84.4698 24.2753 84.1523 23.8062C83.8347 23.337 83.5171 22.8687 83.1996 22.452C82.882 21.9837 82.5644 21.567 82.2469 21.1503C81.9293 21.567 81.6117 21.9837 81.2942 22.452L80.3415 23.8587C80.0239 24.327 79.7597 24.7962 79.4946 25.2128C79.2296 25.6295 79.0187 26.0462 78.8061 26.3587H76.4248C77.046 25.1922 77.735 24.062 78.4886 22.9737C79.2823 21.8281 80.0764 20.7342 80.8707 19.692L76.5832 13.6503H79.1762L82.246 18.0778L85.3684 13.6503H87.803L83.623 19.5345C84.4165 20.5762 85.2108 21.722 86.0577 22.8678C86.8361 23.9687 87.5432 25.1168 88.1748 26.3053L85.6868 26.357V26.3578Z" fill="url(#paint3_linear_588_38284)"/>
<path d="M91.297 11.4095C90.9037 11.4057 90.526 11.2571 90.2385 10.9928C90.0867 10.8551 89.9694 10.6847 89.8959 10.4948C89.8224 10.3049 89.7948 10.1009 89.8151 9.89866C89.8071 9.69775 89.8405 9.49733 89.9133 9.30944C89.9861 9.12155 90.0967 8.95008 90.2385 8.80533C90.3781 8.67036 90.5436 8.56402 90.7253 8.4925C90.907 8.42097 91.1013 8.38567 91.297 8.38866C91.6904 8.39245 92.0681 8.5411 92.3556 8.80533C92.4974 8.95008 92.608 9.12155 92.6808 9.30944C92.7536 9.49733 92.787 9.69775 92.779 9.89866C92.7871 10.0997 92.7537 10.3003 92.681 10.4883C92.6082 10.6764 92.4975 10.848 92.3556 10.9928C92.0681 11.2571 91.6904 11.4057 91.297 11.4095ZM92.4615 26.357H90.1326V13.7012H92.4615V26.357Z" fill="url(#paint4_linear_588_38284)"/>
<path d="M98.9189 24.7436C99.6443 24.7936 100.371 24.6683 101.036 24.3786C101.253 24.2757 101.434 24.112 101.556 23.9081C101.679 23.7042 101.737 23.4693 101.725 23.2328C101.739 22.9751 101.683 22.7183 101.562 22.4893C101.441 22.2604 101.26 22.0676 101.037 21.9311C100.342 21.4817 99.5961 21.1147 98.8139 20.8378C98.338 20.6295 97.8612 20.4211 97.3853 20.2653C96.9641 20.0776 96.5721 19.8321 96.2209 19.5361C95.9001 19.2542 95.6316 18.9195 95.4274 18.547C95.1995 18.0946 95.0903 17.5932 95.1098 17.0886C95.0842 16.5773 95.1866 16.0676 95.4081 15.6044C95.6296 15.1411 95.9634 14.7385 96.3801 14.432C97.3763 13.7208 98.5922 13.3713 99.8208 13.4428C100.192 13.4343 100.564 13.4518 100.933 13.4953C101.304 13.5478 101.62 13.5995 101.938 13.652C102.227 13.6905 102.511 13.7604 102.785 13.8603C102.982 13.899 103.177 13.9514 103.367 14.017L102.943 15.9436C102.562 15.7855 102.174 15.6464 101.779 15.527C101.157 15.3688 100.515 15.2986 99.8733 15.3186C99.2865 15.2974 98.7037 15.423 98.1796 15.6836C97.9502 15.7897 97.7575 15.9599 97.6257 16.173C97.494 16.3861 97.4289 16.6327 97.4386 16.882C97.4348 17.1337 97.4889 17.383 97.597 17.6111C97.709 17.8358 97.8722 18.0319 98.0738 18.1845C98.3357 18.3741 98.62 18.5316 98.9206 18.6536C99.2382 18.8103 99.6616 18.9661 100.085 19.1228C100.643 19.3203 101.191 19.5461 101.725 19.7995C102.176 19.9854 102.589 20.2503 102.943 20.5811C103.265 20.8822 103.533 21.2343 103.737 21.6228C103.915 22.107 104.005 22.6186 104.002 23.1336C104.035 23.6513 103.931 24.1687 103.699 24.6345C103.467 25.1003 103.115 25.4984 102.679 25.7895C101.547 26.4535 100.236 26.7622 98.9214 26.6745C98.0144 26.6899 97.1085 26.6027 96.2217 26.4145C95.5866 26.2061 95.1631 26.102 94.8989 25.9978L95.3223 24.0711C95.7372 24.2341 96.1614 24.3732 96.5926 24.4878C97.3536 24.6766 98.1368 24.7643 98.9214 24.7486" fill="url(#paint5_linear_588_38284)"/>
<path d="M32.1762 8.49283C30.5071 8.49679 28.9075 9.15101 27.7273 10.3124C26.5471 11.4738 25.8822 13.0479 25.8782 14.6903V18.1803H23.5494V14.6903C23.5454 13.0479 22.8805 11.4738 21.7003 10.3124C20.5201 9.15101 18.9205 8.49679 17.2514 8.49283C15.5711 8.4926 13.958 9.14218 12.7599 10.3015C11.5618 11.4608 10.8747 13.0371 10.8467 14.6903C10.845 16.2901 11.4721 17.8285 12.5967 18.9837C13.7212 20.139 15.2562 20.8215 16.8805 20.8887H20.6913V25.4203C20.6907 25.5436 20.715 25.6658 20.7627 25.7797C20.8103 25.8937 20.8805 25.9973 20.9691 26.0845C21.0576 26.1716 21.1629 26.2407 21.2787 26.2876C21.3946 26.3345 21.5187 26.3584 21.644 26.3578H22.4908C22.6161 26.3584 22.7402 26.3345 22.8561 26.2876C22.9719 26.2407 23.0772 26.1716 23.1657 26.0845C23.2543 25.9973 23.3245 25.8937 23.3722 25.7797C23.4198 25.6658 23.4441 25.5436 23.4435 25.4203V20.8887H25.7724V25.4203C25.7718 25.5436 25.7961 25.6658 25.8437 25.7797C25.8914 25.8937 25.9616 25.9973 26.0501 26.0845C26.1387 26.1716 26.244 26.2407 26.3598 26.2876C26.4757 26.3345 26.5998 26.3584 26.7251 26.3578H27.5719C27.6972 26.3584 27.8213 26.3345 27.9372 26.2876C28.053 26.2407 28.1582 26.1716 28.2468 26.0845C28.3354 25.9973 28.4056 25.8937 28.4532 25.7797C28.5009 25.6658 28.5252 25.5436 28.5246 25.4203V20.8887H32.3354C33.9536 20.8044 35.4784 20.1165 36.5993 18.9649C37.7203 17.8134 38.3532 16.2848 38.3692 14.6903C38.3925 13.879 38.2491 13.0713 37.9474 12.3158C37.6458 11.5603 37.1922 10.8726 36.6139 10.2938C36.0355 9.71506 35.3444 9.25721 34.5818 8.94773C33.8192 8.63825 33.001 8.48353 32.1762 8.49283ZM20.6913 18.1803H16.828C15.9588 18.099 15.1518 17.7017 14.5645 17.066C13.9772 16.4303 13.652 15.6019 13.6523 14.7428C13.6314 13.8287 13.9786 12.9434 14.6182 12.2801C15.2578 11.6168 16.1379 11.2291 17.0667 11.2016C17.9955 11.1741 18.8977 11.509 19.5767 12.1333C20.2556 12.7576 20.6563 13.6207 20.6913 14.5345V14.6387V18.1803ZM32.4946 18.1803H28.6305V14.5345C28.6814 13.6399 29.076 12.7977 29.7344 12.1788C30.3928 11.5598 31.2657 11.2103 32.1762 11.2012C33.1167 11.2012 34.0186 11.5687 34.6837 12.2231C35.3488 12.8774 35.7226 13.7649 35.7228 14.6903C35.7133 15.5604 35.3792 16.3967 34.784 17.0402C34.1888 17.6836 33.374 18.0894 32.4946 18.1803Z" fill="url(#paint6_linear_588_38284)"/>
</g>
<defs>
<linearGradient id="paint0_linear_588_38284" x1="48.1934" y1="9.30847" x2="48.1934" y2="26.4095" gradientUnits="userSpaceOnUse">
<stop stop-color="white"/>
<stop offset="1" stop-color="#C4CCDD"/>
</linearGradient>
<linearGradient id="paint1_linear_588_38284" x1="60.2031" y1="13.4385" x2="60.203" y2="26.4621" gradientUnits="userSpaceOnUse">
<stop stop-color="white"/>
<stop offset="1" stop-color="#C4CCDD"/>
</linearGradient>
<linearGradient id="paint2_linear_588_38284" x1="69.7018" y1="13.3813" x2="69.7018" y2="26.7245" gradientUnits="userSpaceOnUse">
<stop stop-color="white"/>
<stop offset="1" stop-color="#C4CCDD"/>
</linearGradient>
<linearGradient id="paint3_linear_588_38284" x1="82.2998" y1="13.6503" x2="82.2998" y2="26.3587" gradientUnits="userSpaceOnUse">
<stop stop-color="white"/>
<stop offset="1" stop-color="#C4CCDD"/>
</linearGradient>
<linearGradient id="paint4_linear_588_38284" x1="91.2944" y1="8.38849" x2="91.2944" y2="26.357" gradientUnits="userSpaceOnUse">
<stop stop-color="white"/>
<stop offset="1" stop-color="#C4CCDD"/>
</linearGradient>
<linearGradient id="paint5_linear_588_38284" x1="99.4534" y1="13.4337" x2="99.4534" y2="26.6891" gradientUnits="userSpaceOnUse">
<stop stop-color="white"/>
<stop offset="1" stop-color="#C4CCDD"/>
</linearGradient>
<linearGradient id="paint6_linear_588_38284" x1="24.6092" y1="8.49243" x2="24.6092" y2="26.3578" gradientUnits="userSpaceOnUse">
<stop stop-color="white"/>
<stop offset="1" stop-color="#C4CCDD"/>
</linearGradient>
</defs>
</svg>
