<svg width="113" height="37" viewBox="0 0 113 37" fill="none" xmlns="http://www.w3.org/2000/svg">
<mask id="mask0_588_38281" style="mask-type:luminance" maskUnits="userSpaceOnUse" x="5" y="5" width="103" height="28">
<path d="M108 5.00195H5V32.002H108V5.00195Z" fill="white"/>
</mask>
<g mask="url(#mask0_588_38281)">
<path d="M57.1504 8.49194H63.9421V10.0363H61.4068V18.1984H59.7082V10.0363H57.1504V8.49194Z" fill="url(#paint0_linear_588_38281)"/>
<path d="M70.9171 8.49194H72.6157V18.1993H70.9171V14.0089H66.8088V18.2002H65.1211V8.49194H66.8088V12.4591H70.9171V8.49194Z" fill="url(#paint1_linear_588_38281)"/>
<path d="M77.3492 8.48114H78.5635L82.2679 18.2011H80.4835L79.795 16.2805H76.0906L75.4021 18.2011H73.6665L77.3492 8.48114ZM77.9085 11.1649L76.639 14.737L76.6689 14.7739H79.2222L79.252 14.7514L77.9871 11.164L77.9085 11.1649Z" fill="url(#paint2_linear_588_38281)"/>
<path d="M83.4209 8.49194H85.1086V18.1993H83.4209V8.49194Z" fill="url(#paint3_linear_588_38281)"/>
<path d="M94.4705 8.31825C95.1051 8.28969 95.738 8.40438 96.3219 8.65373C96.9058 8.90309 97.4256 9.28067 97.8424 9.75826C98.6822 10.764 99.122 12.0418 99.0784 13.3493C99.13 14.6229 98.7173 15.8722 97.9164 16.8665V16.9565L98.8787 17.9186L97.7385 18.9617L96.7021 17.8817H96.6208C95.9528 18.2104 95.2154 18.3749 94.4705 18.3614C93.8355 18.3924 93.2018 18.2788 92.6175 18.0293C92.0333 17.7798 91.5138 17.4009 91.0986 16.9214C90.3023 15.8902 89.8706 14.6258 89.8706 13.325C89.8706 12.0241 90.3023 10.7597 91.0986 9.72855C91.5181 9.25615 92.0391 8.88403 92.6228 8.63987C93.2066 8.3957 93.8382 8.28577 94.4705 8.31825ZM94.4705 15.5588L95.6143 14.5193L96.6362 15.5849H96.7582C97.1677 14.8996 97.3694 14.111 97.3391 13.3142C97.3804 12.4198 97.1199 11.5374 96.5991 10.8077C96.1 10.2454 95.3975 9.90315 94.6455 9.85608C93.8934 9.80901 93.1534 10.0609 92.5876 10.5566C92.498 10.6346 92.4138 10.7185 92.3355 10.8077C91.8499 11.5556 91.5916 12.4274 91.5916 13.3182C91.5916 14.209 91.8499 15.0808 92.3355 15.8288C92.5855 16.1478 92.9092 16.4018 93.2791 16.5694C93.6489 16.7369 94.0539 16.8129 94.4596 16.7909C94.7968 16.7928 95.1322 16.7418 95.4535 16.6397V16.5731L94.4705 15.5588Z" fill="url(#paint4_linear_588_38281)"/>
<path d="M100.72 8.49201H103.951C104.367 8.4685 104.782 8.53107 105.172 8.67575C105.562 8.82044 105.918 9.04411 106.216 9.33261C106.486 9.611 106.697 9.9404 106.836 10.3013C106.976 10.6623 107.042 11.0475 107.029 11.4341C107.043 12.0357 106.875 12.6274 106.548 13.1333C106.214 13.6343 105.717 14.0053 105.141 14.1836V14.2169L107.219 18.1985H105.412L103.424 14.3573H102.411V18.1985H100.72V8.49201ZM103.707 10.022H102.408V12.857H103.711C104.142 12.8874 104.568 12.7557 104.906 12.488C105.043 12.3508 105.15 12.1863 105.218 12.0053C105.287 11.8243 105.317 11.6309 105.306 11.4377C105.317 11.2461 105.287 11.0543 105.218 10.8751C105.15 10.6958 105.043 10.5332 104.906 10.3982C104.568 10.1305 104.142 9.99881 103.711 10.0292L103.707 10.022Z" fill="url(#paint5_linear_588_38281)"/>
<path d="M57.6719 20.2333H60.4294C60.7797 20.2048 61.1321 20.2515 61.4628 20.3702C61.7934 20.4889 62.0947 20.6769 62.3462 20.9214C62.5977 21.166 62.7936 21.4614 62.9207 21.7879C63.0479 22.1143 63.1032 22.4641 63.083 22.8136C63.096 23.1518 63.0408 23.4891 62.9207 23.8057C62.8006 24.1223 62.618 24.4117 62.3837 24.6568C62.1272 24.9081 61.821 25.1034 61.4845 25.2304C61.148 25.3573 60.7887 25.413 60.4294 25.3939H59.1121V28.561H57.6665L57.6719 20.2333ZM60.2298 21.5455H59.1193V24.0745H60.2298C61.1441 24.0745 61.6031 23.6506 61.6031 22.81C61.6031 21.9694 61.1441 21.5599 60.2298 21.5599V21.5455Z" fill="url(#paint6_linear_588_38281)"/>
<path d="M66.3075 20.2332H67.3475L70.4935 28.5393H68.9864L68.3983 26.8914H65.2414L64.6532 28.5393H63.1724L66.3075 20.2332ZM66.7891 22.53L65.7049 25.5828V25.6161H67.9248L66.8406 22.5561L66.7891 22.53Z" fill="url(#paint7_linear_588_38281)"/>
<path d="M69.6729 20.2332H71.2269L73.0032 23.5254H73.0773L74.8942 20.2332H76.4004L73.7432 24.9852V28.5285H72.312V25.0005L69.6729 20.2332Z" fill="url(#paint8_linear_588_38281)"/>
<path d="M77.275 20.2332H78.2002L81.4383 24.9132H81.5052L84.7578 20.2332H85.7056V28.5393H84.26V23.3292H84.223L81.8838 26.7132H81.0914L78.7631 23.3292H78.7034V28.5492H77.2578L77.275 20.2332Z" fill="url(#paint9_linear_588_38281)"/>
<path d="M87.3999 20.2332H92.1813V21.5454H88.85V23.6397H91.6328V24.9492H88.85V27.2352H92.2996V28.5402H87.3999V20.2332Z" fill="url(#paint10_linear_588_38281)"/>
<path d="M93.4371 20.2332H94.3768L99.0163 25.7592H99.0796V20.2332H100.525V28.5573H99.5584L94.9361 23.0277H94.8602V28.5429H93.4146L93.4371 20.2332Z" fill="url(#paint11_linear_588_38281)"/>
<path d="M101.731 20.2332H107.541V21.5526H105.373V28.5573H103.927V21.567H101.74L101.731 20.2332Z" fill="url(#paint12_linear_588_38281)"/>
<path d="M46.5614 7.25195H11.3246C7.8316 7.25195 5 10.0726 5 13.552V23.452C5 26.9313 7.8316 29.752 11.3246 29.752H46.5614C50.0544 29.752 52.886 26.9313 52.886 23.452V13.552C52.886 10.0726 50.0544 7.25195 46.5614 7.25195Z" fill="url(#paint13_linear_588_38281)"/>
<path d="M44.3182 21.6176V14.9333C44.3142 13.839 43.8754 12.7909 43.0978 12.018C42.3201 11.2451 41.2669 10.8103 40.1684 10.8086H32.8075C31.709 10.8103 30.6558 11.2451 29.8782 12.018C29.1006 12.7909 28.6618 13.839 28.6577 14.9333V22.2746C28.6601 23.3699 29.0982 24.4197 29.876 25.194C30.6538 25.9682 31.7079 26.4039 32.8075 26.4056H49.1276L44.3182 21.6176Z" fill="#161D2F"/>
<path d="M38.8077 15.4249C39.0473 15.4249 39.2771 15.5198 39.4466 15.6885C39.616 15.8573 39.7112 16.0862 39.7112 16.3249V17.692H42.5889V14.812C42.5889 14.2213 42.3533 13.6547 41.9339 13.237C41.5145 12.8192 40.9458 12.5845 40.3527 12.5845H37.4497V15.4312L38.8077 15.4249Z" fill="url(#paint14_linear_588_38281)"/>
<path d="M33.3267 16.3221C33.3266 16.0844 33.4211 15.8563 33.5894 15.6876C33.7576 15.519 33.9861 15.4236 34.2247 15.4221H35.5854V12.5781H32.6942C32.4007 12.5778 32.1099 12.6351 31.8387 12.7467C31.5674 12.8584 31.3208 13.0222 31.1131 13.2288C30.9055 13.4354 30.7407 13.6808 30.6283 13.9509C30.5159 14.221 30.458 14.5105 30.458 14.8029V17.6892H33.3357L33.3267 16.3221Z" fill="url(#paint15_linear_588_38281)"/>
<path d="M34.223 21.7823C33.9843 21.7809 33.7559 21.6854 33.5877 21.5168C33.4194 21.3482 33.3249 21.1201 33.3249 20.8823V19.5548H30.4473V22.4213C30.4469 22.7141 30.5045 23.004 30.6167 23.2746C30.7289 23.5451 30.8936 23.791 31.1013 23.9981C31.309 24.2053 31.5556 24.3696 31.8271 24.4817C32.0986 24.5938 32.3896 24.6515 32.6834 24.6515H35.581V21.785L34.223 21.7823Z" fill="url(#paint16_linear_588_38281)"/>
<path d="M42.5915 22.2755L39.7139 19.535V20.8733C39.7139 21.112 39.6187 21.3409 39.4492 21.5097C39.2798 21.6785 39.05 21.7733 38.8103 21.7733H37.4551V24.638H44.937L42.5915 22.2755Z" fill="url(#paint17_linear_588_38281)"/>
<path d="M15.6103 11.4908H14.957V12.1415H15.6103V11.4908Z" fill="#161D2F"/>
<path d="M21.4892 11.4908H17.5698V16.043H22.1425V11.4908H21.4892ZM21.4892 12.7895V15.3995H18.2113V12.1388H21.4892V12.7895Z" fill="#161D2F"/>
<path d="M16.9166 12.1388V11.4908H16.2661V12.7895H16.9166V12.1388Z" fill="#161D2F"/>
<path d="M14.3036 12.7897H13.6504V13.4404H14.3036V12.7897Z" fill="#161D2F"/>
<path d="M15.6103 12.7897H14.957V13.4404H15.6103V12.7897Z" fill="#161D2F"/>
<path d="M19.5297 12.7897H18.8765V14.7391H20.8389V12.7897H19.5297Z" fill="#161D2F"/>
<path d="M11.0374 14.7391H11.6969V12.7897H9.73633V14.7391H11.0374Z" fill="#161D2F"/>
<path d="M9.73101 16.043H12.9972V11.4908H8.42725V16.043H9.73101ZM9.07777 14.7416V12.1388H12.3412V15.4013H9.07777V14.7416Z" fill="#161D2F"/>
<path d="M16.9164 15.3924H16.2632V16.0431H16.9164V15.3924Z" fill="#161D2F"/>
<path d="M20.8359 16.6912H20.1826V17.3419H20.8359V16.6912Z" fill="#161D2F"/>
<path d="M12.3474 17.3418H13.6539V17.9925H14.3044V15.3924H13.6539V16.6938H11.0337V17.3418H11.6896V17.9925H12.3474V17.3418Z" fill="#161D2F"/>
<path d="M10.387 17.9924V16.6937H8.42725V17.9924H9.07777V17.3417H9.73372V18.6458H10.3842L10.387 17.9924Z" fill="#161D2F"/>
<path d="M12.997 17.9952H12.3438V18.6459H12.997V17.9952Z" fill="#161D2F"/>
<path d="M21.4892 17.9952V17.3373H20.836V17.9907H20.1828V17.3373H19.5295V18.6414H18.8763V17.3373H18.2113V17.9907H17.5698V17.3373H18.2113V16.6839H16.2633V17.3373H16.9166V18.6414H16.2633V17.3373H15.6218V15.4014H16.2751V14.7417H16.9166V13.4403H16.2633V14.091H15.6218V14.7417H14.9659V14.091H14.3036V15.4014H14.9659V18.0042H15.6309V18.6549H14.9659V17.9952H14.3036V19.9473H13.6504V22.5501H14.3036V21.8967H15.6218V21.2487H14.3036V20.598H15.6218V19.9473H16.2751V19.2966H16.9166V19.9473H17.5698V20.598H18.2113V19.9473H18.8636V19.2966H19.5169V19.9473H20.1701V20.598H21.4766V19.2966H22.1298V18.6459H21.4883L21.4892 17.9952ZM17.5698 19.2966V18.6459H18.2113V19.2966H17.5698ZM20.836 19.2966H20.1828V18.6459H20.836V19.2966Z" fill="#161D2F"/>
<path d="M13.6529 18.6459H12.997V19.2975H12.3464V18.6495H11.6932V17.9925H11.0372V19.2975H10.3867V19.9482H13.6529V18.6459Z" fill="#161D2F"/>
<path d="M9.73643 19.9445V18.6458H9.07777V19.2938H8.42725V19.9445H9.73643Z" fill="#161D2F"/>
<path d="M11.6907 20.5979H8.42725V25.1474H12.9972V20.5979H11.6907ZM12.344 21.8993V24.5021H9.07777V21.2486H12.3412L12.344 21.8993Z" fill="#161D2F"/>
<path d="M16.9164 20.5979H16.2632V21.2486H16.9164V20.5979Z" fill="#161D2F"/>
<path d="M19.5297 20.5979H18.8765V21.2486H19.5297V20.5979Z" fill="#161D2F"/>
<path d="M22.1425 20.5979H21.4893V21.2486H22.1425V20.5979Z" fill="#161D2F"/>
<path d="M20.1855 21.2487V22.5474H20.8388V21.8967H21.4893V21.2487H20.1855Z" fill="#161D2F"/>
<path d="M10.3869 21.8967H9.73633V23.8488H11.6969V21.8967H10.3869Z" fill="#161D2F"/>
<path d="M16.9164 21.8967H16.2632V22.5474H16.9164V21.8967Z" fill="#161D2F"/>
<path d="M18.226 21.8967V21.2487H17.5728V22.5474H18.226V21.8967Z" fill="#161D2F"/>
<path d="M19.5297 21.8967H18.8765V22.5474H19.5297V21.8967Z" fill="#161D2F"/>
<path d="M22.1425 21.8967H21.4893V22.5474H22.1425V21.8967Z" fill="#161D2F"/>
<path d="M14.9569 22.5472H14.3037V23.1979H14.9569V22.5472Z" fill="#161D2F"/>
<path d="M21.4892 22.5472H20.8359V23.1979H21.4892V22.5472Z" fill="#161D2F"/>
<path d="M14.3038 23.2007H13.6533V25.1528H14.9598V23.8487H14.3038V23.2007Z" fill="#161D2F"/>
<path d="M22.1425 23.2007H21.4893V23.8514H22.1425V23.2007Z" fill="#161D2F"/>
<path d="M20.8386 24.502H20.1854V23.854H20.8386V23.2006H20.1854V22.5472H19.5322V23.854H18.8789V22.5472H18.2139V23.2006H17.5724V22.5472H16.9174V23.854H16.2642V22.5472H15.6227V23.2006H14.9658V23.854H15.6308V25.1527H16.284V24.502H16.9255V25.1473H18.8852V24.502H19.5385V25.1473H22.1514V24.502H21.4892V23.854H20.8386V24.502ZM17.5724 24.502V23.854H18.2139V24.5047L17.5724 24.502Z" fill="#161D2F"/>
</g>
<defs>
<linearGradient id="paint0_linear_588_38281" x1="60.5462" y1="8.49194" x2="60.5462" y2="18.1984" gradientUnits="userSpaceOnUse">
<stop stop-color="white"/>
<stop offset="1" stop-color="#C4CCDD"/>
</linearGradient>
<linearGradient id="paint1_linear_588_38281" x1="68.8684" y1="8.49194" x2="68.8684" y2="18.2002" gradientUnits="userSpaceOnUse">
<stop stop-color="white"/>
<stop offset="1" stop-color="#C4CCDD"/>
</linearGradient>
<linearGradient id="paint2_linear_588_38281" x1="77.9672" y1="8.48114" x2="77.9672" y2="18.2011" gradientUnits="userSpaceOnUse">
<stop stop-color="white"/>
<stop offset="1" stop-color="#C4CCDD"/>
</linearGradient>
<linearGradient id="paint3_linear_588_38281" x1="84.2648" y1="8.49194" x2="84.2648" y2="18.1993" gradientUnits="userSpaceOnUse">
<stop stop-color="white"/>
<stop offset="1" stop-color="#C4CCDD"/>
</linearGradient>
<linearGradient id="paint4_linear_588_38281" x1="94.4766" y1="8.31268" x2="94.4766" y2="18.9617" gradientUnits="userSpaceOnUse">
<stop stop-color="white"/>
<stop offset="1" stop-color="#C4CCDD"/>
</linearGradient>
<linearGradient id="paint5_linear_588_38281" x1="103.97" y1="8.48718" x2="103.97" y2="18.1985" gradientUnits="userSpaceOnUse">
<stop stop-color="white"/>
<stop offset="1" stop-color="#C4CCDD"/>
</linearGradient>
<linearGradient id="paint6_linear_588_38281" x1="60.3768" y1="20.2252" x2="60.3768" y2="28.561" gradientUnits="userSpaceOnUse">
<stop stop-color="white"/>
<stop offset="1" stop-color="#C4CCDD"/>
</linearGradient>
<linearGradient id="paint7_linear_588_38281" x1="66.8329" y1="20.2332" x2="66.8329" y2="28.5393" gradientUnits="userSpaceOnUse">
<stop stop-color="white"/>
<stop offset="1" stop-color="#C4CCDD"/>
</linearGradient>
<linearGradient id="paint8_linear_588_38281" x1="73.0366" y1="20.2332" x2="73.0366" y2="28.5285" gradientUnits="userSpaceOnUse">
<stop stop-color="white"/>
<stop offset="1" stop-color="#C4CCDD"/>
</linearGradient>
<linearGradient id="paint9_linear_588_38281" x1="81.4817" y1="20.2332" x2="81.4817" y2="28.5492" gradientUnits="userSpaceOnUse">
<stop stop-color="white"/>
<stop offset="1" stop-color="#C4CCDD"/>
</linearGradient>
<linearGradient id="paint10_linear_588_38281" x1="89.8498" y1="20.2332" x2="89.8498" y2="28.5402" gradientUnits="userSpaceOnUse">
<stop stop-color="white"/>
<stop offset="1" stop-color="#C4CCDD"/>
</linearGradient>
<linearGradient id="paint11_linear_588_38281" x1="96.9699" y1="20.2332" x2="96.9699" y2="28.5573" gradientUnits="userSpaceOnUse">
<stop stop-color="white"/>
<stop offset="1" stop-color="#C4CCDD"/>
</linearGradient>
<linearGradient id="paint12_linear_588_38281" x1="104.636" y1="20.2332" x2="104.636" y2="28.5573" gradientUnits="userSpaceOnUse">
<stop stop-color="white"/>
<stop offset="1" stop-color="#C4CCDD"/>
</linearGradient>
<linearGradient id="paint13_linear_588_38281" x1="28.943" y1="7.25195" x2="28.943" y2="29.752" gradientUnits="userSpaceOnUse">
<stop stop-color="white"/>
<stop offset="1" stop-color="#C4CCDD"/>
</linearGradient>
<linearGradient id="paint14_linear_588_38281" x1="40.0193" y1="12.5845" x2="40.0193" y2="17.692" gradientUnits="userSpaceOnUse">
<stop stop-color="white"/>
<stop offset="1" stop-color="#C4CCDD"/>
</linearGradient>
<linearGradient id="paint15_linear_588_38281" x1="33.0217" y1="12.5781" x2="33.0217" y2="17.6892" gradientUnits="userSpaceOnUse">
<stop stop-color="white"/>
<stop offset="1" stop-color="#C4CCDD"/>
</linearGradient>
<linearGradient id="paint16_linear_588_38281" x1="33.0141" y1="19.5548" x2="33.0141" y2="24.6515" gradientUnits="userSpaceOnUse">
<stop stop-color="white"/>
<stop offset="1" stop-color="#C4CCDD"/>
</linearGradient>
<linearGradient id="paint17_linear_588_38281" x1="41.1961" y1="19.535" x2="41.1961" y2="24.638" gradientUnits="userSpaceOnUse">
<stop stop-color="white"/>
<stop offset="1" stop-color="#C4CCDD"/>
</linearGradient>
</defs>
</svg>
