<svg width="113" height="37" viewBox="0 0 113 37" fill="none" xmlns="http://www.w3.org/2000/svg">
<mask id="mask0_588_38289" style="mask-type:luminance" maskUnits="userSpaceOnUse" x="15" y="2" width="85" height="33">
<path d="M99.2667 2.00195H15V34.002H99.2667V2.00195Z" fill="white"/>
</mask>
<g mask="url(#mask0_588_38289)">
<path d="M49.5425 29.9932V13.4556C49.5425 11.9944 50.1229 10.5931 51.1561 9.55988C52.1893 8.52668 53.5906 7.94623 55.0518 7.94623L59.935 7.95369C61.392 7.95652 62.7884 8.53731 63.8177 9.56861C64.847 10.5999 65.4251 11.9974 65.4251 13.4545V16.9745C65.4251 18.4357 64.8447 19.837 63.8115 20.8702C62.7783 21.9034 61.377 22.4838 59.9158 22.4838H53.0166" stroke="url(#paint0_linear_588_38289)" stroke-width="3.5712" stroke-linecap="round" stroke-linejoin="round"/>
<path d="M66.7896 7.94495H68.9026C69.5024 7.94495 70.0776 8.1832 70.5017 8.60728C70.9257 9.03136 71.164 9.60654 71.164 10.2063V22.5593" stroke="url(#paint1_linear_588_38289)" stroke-width="3.5712" stroke-linecap="round" stroke-linejoin="round"/>
<path d="M70.7139 6.03043L69.754 5.07043C69.6973 5.01377 69.6523 4.94651 69.6217 4.87248C69.591 4.79844 69.5752 4.7191 69.5752 4.63896C69.5752 4.55883 69.591 4.47948 69.6217 4.40545C69.6523 4.33142 69.6973 4.26415 69.754 4.2075L70.7139 3.2475C70.8285 3.13299 70.984 3.06866 71.146 3.06866C71.308 3.06866 71.4633 3.13299 71.5779 3.2475L72.538 4.2075C72.5946 4.26415 72.6396 4.33142 72.6702 4.40545C72.7009 4.47948 72.7167 4.55883 72.7167 4.63896C72.7167 4.7191 72.7009 4.79844 72.6702 4.87248C72.6396 4.94651 72.5946 5.01377 72.538 5.07043L71.5779 6.03043C71.5213 6.0871 71.454 6.13205 71.38 6.16272C71.306 6.19339 71.2266 6.20917 71.1465 6.20917C71.0664 6.20917 70.987 6.19339 70.913 6.16272C70.8389 6.13205 70.7717 6.0871 70.715 6.03043" fill="url(#paint2_linear_588_38289)"/>
<path d="M75.2319 7.93451H77.3322C78.4125 7.93476 79.4485 8.3641 80.2122 9.12811L85.1252 14.0412C85.2766 14.1925 85.4563 14.3126 85.654 14.3945C85.8518 14.4764 86.0637 14.5186 86.2778 14.5186C86.4918 14.5186 86.7038 14.4764 86.9015 14.3945C87.0993 14.3126 87.279 14.1925 87.4303 14.0412L92.3252 9.14624C93.0891 8.38233 94.125 7.95301 95.2052 7.95264H96.912" stroke="url(#paint3_linear_588_38289)" stroke-width="3.5712" stroke-linecap="round" stroke-linejoin="round"/>
<path d="M75.2319 22.4507H77.3322C78.4125 22.4504 79.4485 22.0211 80.2122 21.2571L85.1252 16.344C85.2766 16.1926 85.4563 16.0726 85.654 15.9907C85.8518 15.9087 86.0637 15.8666 86.2778 15.8666C86.4918 15.8666 86.7038 15.9087 86.9015 15.9907C87.0993 16.0726 87.279 16.1926 87.4303 16.344L92.3252 21.2389C93.0891 22.0028 94.125 22.4322 95.2052 22.4325H96.912" stroke="url(#paint4_linear_588_38289)" stroke-width="3.5712" stroke-linecap="round" stroke-linejoin="round"/>
<path d="M37.0209 25.5887C36.5024 25.5902 35.9887 25.4889 35.5095 25.2906C35.0304 25.0923 34.5953 24.801 34.2295 24.4335L30.1996 20.4037C30.057 20.2672 29.8674 20.191 29.67 20.191C29.4727 20.191 29.2829 20.2672 29.1404 20.4037L25.0956 24.4485C24.7297 24.8159 24.2947 25.1072 23.8155 25.3055C23.3364 25.5038 22.8227 25.6051 22.3041 25.6037H21.5073L26.6113 30.7077C27.3768 31.4731 28.4152 31.9032 29.4978 31.9032C30.5804 31.9032 31.6186 31.4731 32.3841 30.7077L37.5041 25.5877L37.0209 25.5887Z" fill="url(#paint5_linear_588_38289)"/>
<path d="M22.3052 11.3338C22.8237 11.3323 23.3374 11.4336 23.8166 11.6319C24.2957 11.8302 24.7308 12.1215 25.0966 12.489L29.1414 16.5349C29.2108 16.6047 29.2934 16.6601 29.3843 16.6979C29.4752 16.7357 29.5726 16.7552 29.6711 16.7552C29.7695 16.7552 29.867 16.7357 29.9578 16.6979C30.0487 16.6601 30.1313 16.6047 30.2007 16.5349L34.2305 12.5039C34.5964 12.1364 35.0314 11.8451 35.5106 11.6469C35.9897 11.4486 36.5034 11.3472 37.022 11.3487H37.5073L32.3873 6.22873C31.6218 5.46324 30.5835 5.0332 29.5009 5.0332C28.4183 5.0332 27.3801 5.46324 26.6146 6.22873L21.5073 11.3338H22.3052Z" fill="url(#paint6_linear_588_38289)"/>
<path d="M41.7399 15.5824L38.6465 12.489C38.5768 12.5179 38.5022 12.5331 38.4268 12.5338H37.0209C36.2887 12.5359 35.5868 12.8269 35.0678 13.3434L31.038 17.3733C30.6748 17.7355 30.1828 17.9389 29.6699 17.9389C29.157 17.9389 28.6651 17.7355 28.302 17.3733L24.2572 13.3264C23.7383 12.8097 23.0364 12.5187 22.3041 12.5168H20.575C20.5037 12.5156 20.4332 12.5015 20.367 12.4752L17.262 15.5802C16.4965 16.3458 16.0664 17.384 16.0664 18.4666C16.0664 19.5492 16.4965 20.5875 17.262 21.353L20.367 24.4581C20.4332 24.4317 20.5037 24.4176 20.575 24.4165H22.3041C23.0362 24.4147 23.738 24.1241 24.2572 23.608L28.302 19.5632C28.6705 19.2113 29.1604 19.0149 29.6699 19.0149C30.1795 19.0149 30.6695 19.2113 31.038 19.5632L35.0678 23.593C35.5868 24.1096 36.2887 24.4005 37.0209 24.4026H38.4268C38.5022 24.4034 38.5768 24.4186 38.6465 24.4474L41.7399 21.3541C42.5053 20.5886 42.9354 19.5503 42.9354 18.4677C42.9354 17.3851 42.5053 16.3479 41.7399 15.5824Z" fill="url(#paint7_linear_588_38289)"/>
<path d="M53.7422 28.5873C53.4867 28.5985 53.2332 28.6371 52.9859 28.7025V29.7105C53.1751 29.7767 53.3743 29.8099 53.5747 29.8086C54.0803 29.8086 54.3214 29.6379 54.3214 29.1931C54.3214 28.775 54.1251 28.5873 53.7443 28.5873M52.8174 30.4582V28.4667H52.9561L52.971 28.5531C53.2288 28.4844 53.493 28.4419 53.7593 28.4262C53.9441 28.4136 54.1274 28.4669 54.2766 28.5766C54.3585 28.6559 54.4216 28.7525 54.4611 28.8594C54.5006 28.9663 54.5155 29.0807 54.5049 29.1942C54.5148 29.3199 54.4902 29.4459 54.4338 29.5587C54.3774 29.6714 54.2914 29.7667 54.1849 29.8342C54.0029 29.9248 53.8015 29.9694 53.5982 29.9643C53.3925 29.9632 53.188 29.9319 52.9913 29.8715V30.4582H52.8174Z" fill="url(#paint8_linear_588_38289)"/>
<path d="M55.7698 28.5819C55.2642 28.5819 55.039 28.7408 55.039 29.1856C55.039 29.6304 55.261 29.8096 55.7698 29.8096C56.2786 29.8096 56.4972 29.6539 56.4972 29.2091C56.4972 28.7643 56.2754 28.5819 55.7698 28.5819ZM56.4193 29.8096C56.2243 29.9279 55.9972 29.9823 55.7698 29.9653C55.5413 29.9821 55.3132 29.9277 55.1169 29.8096C55.026 29.7373 54.9545 29.6434 54.9091 29.5365C54.8636 29.4296 54.8456 29.313 54.8567 29.1974C54.8462 29.0813 54.8645 28.9644 54.9099 28.8571C54.9553 28.7498 55.0264 28.6553 55.1169 28.5819C55.3187 28.4794 55.5418 28.426 55.7681 28.426C55.9944 28.426 56.2175 28.4794 56.4193 28.5819C56.5017 28.6615 56.5673 28.7568 56.6121 28.8623C56.6568 28.9678 56.6799 29.0812 56.6799 29.1957C56.6799 29.3103 56.6568 29.4237 56.6121 29.5292C56.5673 29.6347 56.5017 29.73 56.4193 29.8096Z" fill="url(#paint9_linear_588_38289)"/>
<path d="M58.8119 29.9247L58.2487 28.7151H58.237L57.6823 29.9247H57.5287L56.9282 28.4666H57.1159L57.6151 29.6911H57.6269L58.1698 28.4666H58.3256L58.8834 29.6911H58.8952L59.3837 28.4666H59.565L58.9645 29.9247H58.8119Z" fill="url(#paint10_linear_588_38289)"/>
<path d="M60.6549 28.5787C60.1867 28.5787 60.0277 28.7867 59.9989 29.0875H61.3099C61.296 28.7558 61.1264 28.5787 60.6549 28.5787ZM60.6485 29.9654C60.4332 29.988 60.2171 29.9302 60.0416 29.8033C59.8875 29.6329 59.8059 29.4091 59.814 29.1795C59.8222 28.9498 59.9195 28.7324 60.0853 28.5734C60.2553 28.4672 60.4538 28.4158 60.6539 28.4262C60.8582 28.414 61.0614 28.4634 61.2373 28.5681C61.333 28.6496 61.4063 28.7542 61.4504 28.872C61.4944 28.9898 61.5077 29.1168 61.4891 29.2411H59.9957C60.0011 29.5409 60.1024 29.8075 60.6656 29.8075C60.9189 29.8014 61.1713 29.7732 61.4198 29.7233V29.8758C61.1669 29.9279 60.9098 29.9579 60.6517 29.9654" fill="url(#paint11_linear_588_38289)"/>
<path d="M61.98 29.9249V28.4657H62.1187L62.1336 28.5521C62.368 28.4753 62.6123 28.4325 62.8589 28.4252H62.8791V28.5873H62.8386C62.6053 28.5919 62.3738 28.6307 62.1517 28.7025V29.9238L61.98 29.9249Z" fill="url(#paint12_linear_588_38289)"/>
<path d="M63.8679 28.5787C63.3996 28.5787 63.2417 28.7867 63.2118 29.0875H64.5228C64.5089 28.7558 64.3382 28.5787 63.8668 28.5787M63.8614 29.9654C63.6461 29.988 63.43 29.9302 63.2545 29.8033C63.1004 29.6329 63.0188 29.4091 63.0269 29.1795C63.0351 28.9498 63.1324 28.7324 63.2983 28.5734C63.4682 28.4672 63.6666 28.4158 63.8668 28.4262C64.0711 28.414 64.2743 28.4634 64.4502 28.5681C64.5459 28.6496 64.6192 28.7542 64.6633 28.872C64.7073 28.9898 64.7206 29.1168 64.702 29.2411H63.2086C63.214 29.5409 63.3153 29.8075 63.8785 29.8075C64.1318 29.8014 64.3842 29.7732 64.6327 29.7233V29.8758C64.3797 29.9279 64.1227 29.9579 63.8646 29.9654" fill="url(#paint13_linear_588_38289)"/>
<path d="M66.5674 28.679C66.3782 28.6128 66.1791 28.5796 65.9786 28.5809C65.473 28.5809 65.232 28.7515 65.232 29.1963C65.232 29.623 65.4282 29.8022 65.8101 29.8022C66.0654 29.7903 66.3188 29.7524 66.5663 29.6891L66.5674 28.679ZM66.5994 29.9238L66.5845 29.8374C66.3267 29.9061 66.0626 29.9486 65.7962 29.9643C65.6113 29.9782 65.4276 29.9248 65.2789 29.8139C65.1971 29.7346 65.1341 29.638 65.0946 29.5311C65.0551 29.4242 65.0401 29.3098 65.0507 29.1963C65.0399 29.0705 65.0641 28.9442 65.1206 28.8313C65.177 28.7184 65.2636 28.6232 65.3706 28.5563C65.5527 28.4633 65.7551 28.4175 65.9594 28.423C66.164 28.4258 66.3672 28.457 66.5632 28.5158V27.8491H66.7338V29.9227L66.5994 29.9238Z" fill="url(#paint14_linear_588_38289)"/>
<path d="M69.2373 28.5883C68.9818 28.5995 68.7282 28.6381 68.481 28.7035V29.7083C68.6697 29.7766 68.8691 29.8109 69.0698 29.8096C69.5754 29.8096 69.8165 29.6389 69.8165 29.1941C69.8165 28.776 69.6202 28.5883 69.2394 28.5883M69.6757 29.8352C69.4937 29.9257 69.2922 29.9704 69.089 29.9653C68.8671 29.9649 68.6467 29.9289 68.4362 29.8587L68.4277 29.928H68.3125V27.8512H68.4831V28.5467C68.7358 28.4819 68.994 28.4412 69.2544 28.4251C69.4392 28.4124 69.6225 28.4657 69.7717 28.5755C69.8536 28.6547 69.9166 28.7514 69.9561 28.8583C69.9956 28.9652 70.0106 29.0796 69.9999 29.1931C70.0098 29.3188 69.9853 29.4448 69.9289 29.5575C69.8725 29.6703 69.7864 29.7656 69.6799 29.8331" fill="url(#paint15_linear_588_38289)"/>
<path d="M70.223 30.4847V30.3257C70.3062 30.3343 70.3851 30.3407 70.4363 30.3407C70.5351 30.3491 70.6339 30.324 70.7167 30.2694C70.7995 30.2149 70.8616 30.134 70.8928 30.0399L70.9473 29.9247L70.1846 28.4666H70.3809L71.0337 29.7252H71.0454L71.6662 28.4666H71.8592L71.039 30.1039C70.9955 30.2279 70.9122 30.3341 70.802 30.4057C70.6917 30.4773 70.5609 30.5103 70.4299 30.4996C70.3586 30.4989 70.2873 30.4939 70.2166 30.4847" fill="url(#paint16_linear_588_38289)"/>
<path d="M74.2125 29.0928H73.6461V29.6038H74.2146C74.605 29.6038 74.7479 29.56 74.7479 29.3467C74.7479 29.1334 74.5464 29.0928 74.2082 29.0928M74.1016 28.264H73.6397V28.7835H74.1048C74.4888 28.7835 74.6381 28.7376 74.6381 28.5211C74.6381 28.3046 74.445 28.264 74.0983 28.264M74.9762 29.7862C74.6892 29.9178 74.3709 29.9658 74.0578 29.9248H73.1938V27.9462H74.0375C74.324 27.9123 74.6144 27.9561 74.8781 28.0731C74.9452 28.1131 74.9997 28.1711 75.0355 28.2404C75.0713 28.3098 75.087 28.3878 75.0808 28.4656C75.0863 28.5633 75.0585 28.66 75.0019 28.7399C74.9453 28.8197 74.8633 28.878 74.7693 28.9051V28.9168C75.0242 28.9744 75.1885 29.1046 75.1885 29.3851C75.1943 29.4653 75.1774 29.5454 75.1396 29.6164C75.1019 29.6874 75.0459 29.7462 74.9762 29.7862Z" fill="url(#paint17_linear_588_38289)"/>
<path d="M76.9247 29.3125C76.754 29.2976 76.5812 29.2891 76.3988 29.2891C76.1012 29.2891 75.9967 29.3499 75.9967 29.4853C75.9967 29.6208 76.083 29.6816 76.3166 29.6816C76.5232 29.674 76.7284 29.6451 76.9289 29.5952L76.9247 29.3125ZM77.011 29.9248L76.9993 29.8384C76.7412 29.9107 76.4757 29.9533 76.2079 29.9653C76.0532 29.9758 75.8991 29.9386 75.7663 29.8587C75.7093 29.8108 75.6652 29.7496 75.6376 29.6805C75.6101 29.6115 75.6 29.5367 75.6083 29.4628C75.6167 29.3889 75.6431 29.3182 75.6854 29.257C75.7277 29.1958 75.7844 29.146 75.8506 29.112C76.0252 29.0485 76.2112 29.022 76.3967 29.0341C76.5492 29.0341 76.7551 29.0427 76.93 29.0544V29.0277C76.93 28.7995 76.7796 28.7248 76.37 28.7248C76.2111 28.7248 76.018 28.7333 75.8367 28.7504V28.456C76.0415 28.4389 76.2729 28.4272 76.4638 28.4272C76.6983 28.4068 76.9337 28.4538 77.1423 28.5627C77.2168 28.6208 77.2744 28.6976 77.3095 28.7853C77.3445 28.873 77.3556 28.9685 77.3417 29.0619V29.9259L77.011 29.9248Z" fill="url(#paint18_linear_588_38289)"/>
<path d="M79.2353 29.9247V29.1183C79.2353 28.8527 79.0998 28.7578 78.8566 28.7578C78.6554 28.7668 78.4558 28.7979 78.2614 28.8506V29.9247H77.854V28.4655H78.1857L78.1996 28.5583C78.4534 28.4838 78.7151 28.4394 78.9793 28.426C79.1587 28.4119 79.3368 28.4656 79.4785 28.5764C79.537 28.6361 79.5817 28.708 79.6091 28.7869C79.6366 28.8658 79.6463 28.9499 79.6375 29.033V29.9258L79.2353 29.9247Z" fill="url(#paint19_linear_588_38289)"/>
<path d="M80.7938 29.9653C80.6005 29.9799 80.4082 29.9259 80.2508 29.8128C80.1674 29.7343 80.1031 29.6377 80.063 29.5304C80.0228 29.4232 80.0079 29.3081 80.0194 29.1941C80.0117 29.0734 80.0351 28.9527 80.0871 28.8435C80.1392 28.7343 80.2183 28.6402 80.317 28.5701C80.5119 28.4613 80.7342 28.4113 80.957 28.4261C81.1245 28.4261 81.2887 28.4379 81.4711 28.4549V28.7664C81.3239 28.7525 81.1511 28.7408 81.006 28.7408C80.6188 28.7408 80.4375 28.8624 80.4375 29.1973C80.4375 29.5173 80.573 29.6475 80.8909 29.6475C81.0968 29.641 81.3017 29.616 81.5031 29.5728V29.8725C81.2699 29.9266 81.0319 29.9577 80.7927 29.9653" fill="url(#paint20_linear_588_38289)"/>
<path d="M82.7043 28.7366C82.3171 28.7366 82.1465 28.8582 82.1465 29.19C82.1465 29.5217 82.3139 29.6636 82.7043 29.6636C83.0947 29.6636 83.2558 29.5452 83.2558 29.2124C83.2558 28.8796 83.0915 28.7366 82.7043 28.7366ZM83.403 29.8161C83.1904 29.9351 82.9472 29.9882 82.7043 29.9686C82.4605 29.988 82.2163 29.9349 82.0024 29.8161C81.9161 29.7383 81.847 29.6432 81.7998 29.537C81.7525 29.4308 81.728 29.3158 81.728 29.1996C81.728 29.0833 81.7525 28.9683 81.7998 28.8621C81.847 28.7559 81.9161 28.6608 82.0024 28.583C82.2221 28.4823 82.461 28.4301 82.7027 28.4301C82.9444 28.4301 83.1833 28.4823 83.403 28.583C83.4978 28.6532 83.5727 28.7469 83.6203 28.8548C83.668 28.9627 83.6869 29.0811 83.675 29.1985C83.6865 29.3163 83.6675 29.4351 83.6199 29.5434C83.5723 29.6517 83.4975 29.7449 83.403 29.8161Z" fill="url(#paint21_linear_588_38289)"/>
<path d="M86.0248 29.9653C85.7714 29.9812 85.5204 29.9088 85.3144 29.7605C85.2042 29.6547 85.1192 29.5254 85.0656 29.3824C85.0121 29.2393 84.9914 29.086 85.0051 28.9338C84.9959 28.7713 85.0278 28.6091 85.0979 28.4622C85.168 28.3153 85.274 28.1884 85.4061 28.0933C85.6613 27.9514 85.952 27.8862 86.2434 27.9056C86.4631 27.9056 86.6882 27.9205 86.9336 27.9397V28.2949C86.7202 28.2778 86.4632 28.2629 86.2605 28.2629C85.6973 28.2629 85.4573 28.4762 85.4573 28.9328C85.4573 29.3893 85.6792 29.6058 86.0973 29.6058C86.3942 29.5955 86.6893 29.5559 86.9784 29.4874V29.8394C86.6654 29.9122 86.346 29.9551 86.0248 29.9653Z" fill="url(#paint22_linear_588_38289)"/>
<path d="M88.174 28.6853C87.8359 28.6853 87.7057 28.8069 87.6801 29.0288H88.6625C88.6508 28.792 88.5121 28.6853 88.174 28.6853ZM88.1132 29.9653C87.8947 29.9848 87.6763 29.9275 87.4956 29.8032C87.4131 29.7259 87.3492 29.631 87.3088 29.5255C87.2683 29.42 87.2523 29.3067 87.262 29.1941C87.2557 29.0771 87.2772 28.9603 87.3249 28.8533C87.3725 28.7463 87.4449 28.6522 87.5361 28.5786C87.7285 28.4627 87.9522 28.4094 88.1762 28.4261C88.3969 28.4119 88.6168 28.4631 88.8086 28.5733C89.0422 28.7376 89.0625 28.9925 89.0657 29.2922H87.6791C87.6876 29.5152 87.806 29.6592 88.2124 29.6592C88.4728 29.6536 88.7323 29.6286 88.9889 29.5845V29.8704C88.6993 29.9255 88.4057 29.9572 88.1111 29.9653" fill="url(#paint23_linear_588_38289)"/>
<path d="M90.8759 29.9247V29.1183C90.8759 28.8527 90.7405 28.7578 90.4973 28.7578C90.2961 28.7668 90.0965 28.798 89.9021 28.8506V29.9247H89.4946V28.4655H89.8263L89.8412 28.5583C90.0951 28.4838 90.3568 28.4394 90.621 28.426C90.8004 28.4119 90.9785 28.4656 91.1202 28.5764C91.1787 28.6361 91.2233 28.708 91.2508 28.7869C91.2783 28.8658 91.288 28.9499 91.2791 29.033V29.9258L90.8759 29.9247Z" fill="url(#paint24_linear_588_38289)"/>
<path d="M92.4396 29.9654C92.3495 29.9738 92.2587 29.9591 92.1759 29.9227C92.093 29.8863 92.0208 29.8294 91.966 29.7574C91.886 29.6246 91.8488 29.4705 91.8593 29.3158V28.7697H91.5649V28.4667H91.8593L91.903 28.0251H92.2636V28.4667H92.8385V28.7697H92.2636V29.2379C92.2582 29.3322 92.272 29.4265 92.3041 29.5153C92.3291 29.5625 92.368 29.6008 92.4155 29.625C92.4631 29.6493 92.5169 29.6583 92.5697 29.6507C92.6677 29.6489 92.7655 29.6393 92.862 29.6219V29.9131C92.7217 29.9439 92.5789 29.9614 92.4353 29.9654" fill="url(#paint25_linear_588_38289)"/>
<path d="M93.2354 29.9249V28.4657H93.5671L93.582 28.5585C93.815 28.4796 94.0583 28.435 94.3042 28.4262C94.3216 28.4251 94.339 28.4251 94.3564 28.4262V28.7729C94.3106 28.7729 94.2551 28.7729 94.2146 28.7729C94.0216 28.7736 93.8295 28.7986 93.6428 28.8476V29.9249H93.2354Z" fill="url(#paint26_linear_588_38289)"/>
<path d="M95.8367 29.3125C95.666 29.2976 95.4933 29.2891 95.3109 29.2891C95.0133 29.2891 94.9087 29.3499 94.9087 29.4853C94.9087 29.6208 94.9952 29.6816 95.2288 29.6816C95.4353 29.674 95.6404 29.6451 95.841 29.5952L95.8367 29.3125ZM95.9232 29.9248L95.9114 29.8384C95.6533 29.9107 95.3877 29.9533 95.1199 29.9653C94.9653 29.9757 94.8111 29.9385 94.6783 29.8587C94.6214 29.8108 94.5772 29.7496 94.5497 29.6805C94.5221 29.6115 94.5121 29.5367 94.5204 29.4628C94.5288 29.3889 94.5552 29.3182 94.5974 29.257C94.6397 29.1958 94.6965 29.146 94.7626 29.112C94.9373 29.0485 95.1232 29.0219 95.3087 29.0341C95.4623 29.0341 95.6671 29.0427 95.842 29.0544V29.0277C95.842 28.7995 95.6917 28.7248 95.2821 28.7248C95.1231 28.7248 94.9301 28.7333 94.7487 28.7504V28.456C94.9535 28.4389 95.185 28.4272 95.376 28.4272C95.6104 28.4068 95.8458 28.4538 96.0543 28.5627C96.1288 28.6208 96.1865 28.6976 96.2215 28.7853C96.2566 28.873 96.2678 28.9685 96.2538 29.0619V29.9259L95.9232 29.9248Z" fill="url(#paint27_linear_588_38289)"/>
<path d="M96.7681 27.8502H97.1756V29.9238H96.7681V27.8502Z" fill="url(#paint28_linear_588_38289)"/>
</g>
<defs>
<linearGradient id="paint0_linear_588_38289" x1="57.4838" y1="7.94623" x2="57.4838" y2="29.9932" gradientUnits="userSpaceOnUse">
<stop stop-color="white"/>
<stop offset="1" stop-color="#C4CCDD"/>
</linearGradient>
<linearGradient id="paint1_linear_588_38289" x1="68.9768" y1="7.94495" x2="68.9768" y2="22.5593" gradientUnits="userSpaceOnUse">
<stop stop-color="white"/>
<stop offset="1" stop-color="#C4CCDD"/>
</linearGradient>
<linearGradient id="paint2_linear_588_38289" x1="71.1459" y1="3.06866" x2="71.1459" y2="6.20917" gradientUnits="userSpaceOnUse">
<stop stop-color="white"/>
<stop offset="1" stop-color="#C4CCDD"/>
</linearGradient>
<linearGradient id="paint3_linear_588_38289" x1="86.0719" y1="7.93451" x2="86.0719" y2="14.5186" gradientUnits="userSpaceOnUse">
<stop stop-color="white"/>
<stop offset="1" stop-color="#C4CCDD"/>
</linearGradient>
<linearGradient id="paint4_linear_588_38289" x1="86.0719" y1="15.8666" x2="86.0719" y2="22.4507" gradientUnits="userSpaceOnUse">
<stop stop-color="white"/>
<stop offset="1" stop-color="#C4CCDD"/>
</linearGradient>
<linearGradient id="paint5_linear_588_38289" x1="29.5057" y1="20.191" x2="29.5057" y2="31.9032" gradientUnits="userSpaceOnUse">
<stop stop-color="white"/>
<stop offset="1" stop-color="#C4CCDD"/>
</linearGradient>
<linearGradient id="paint6_linear_588_38289" x1="29.5073" y1="5.0332" x2="29.5073" y2="16.7552" gradientUnits="userSpaceOnUse">
<stop stop-color="white"/>
<stop offset="1" stop-color="#C4CCDD"/>
</linearGradient>
<linearGradient id="paint7_linear_588_38289" x1="29.5009" y1="12.4752" x2="29.5009" y2="24.4581" gradientUnits="userSpaceOnUse">
<stop stop-color="white"/>
<stop offset="1" stop-color="#C4CCDD"/>
</linearGradient>
<linearGradient id="paint8_linear_588_38289" x1="53.6628" y1="28.4244" x2="53.6628" y2="30.4582" gradientUnits="userSpaceOnUse">
<stop stop-color="white"/>
<stop offset="1" stop-color="#C4CCDD"/>
</linearGradient>
<linearGradient id="paint9_linear_588_38289" x1="55.7667" y1="28.426" x2="55.7667" y2="29.9684" gradientUnits="userSpaceOnUse">
<stop stop-color="white"/>
<stop offset="1" stop-color="#C4CCDD"/>
</linearGradient>
<linearGradient id="paint10_linear_588_38289" x1="58.2466" y1="28.4666" x2="58.2466" y2="29.9247" gradientUnits="userSpaceOnUse">
<stop stop-color="white"/>
<stop offset="1" stop-color="#C4CCDD"/>
</linearGradient>
<linearGradient id="paint11_linear_588_38289" x1="60.6554" y1="28.4244" x2="60.6554" y2="29.9702" gradientUnits="userSpaceOnUse">
<stop stop-color="white"/>
<stop offset="1" stop-color="#C4CCDD"/>
</linearGradient>
<linearGradient id="paint12_linear_588_38289" x1="62.4296" y1="28.4252" x2="62.4296" y2="29.9249" gradientUnits="userSpaceOnUse">
<stop stop-color="white"/>
<stop offset="1" stop-color="#C4CCDD"/>
</linearGradient>
<linearGradient id="paint13_linear_588_38289" x1="63.8683" y1="28.4244" x2="63.8683" y2="29.9702" gradientUnits="userSpaceOnUse">
<stop stop-color="white"/>
<stop offset="1" stop-color="#C4CCDD"/>
</linearGradient>
<linearGradient id="paint14_linear_588_38289" x1="65.8906" y1="27.8491" x2="65.8906" y2="29.9665" gradientUnits="userSpaceOnUse">
<stop stop-color="white"/>
<stop offset="1" stop-color="#C4CCDD"/>
</linearGradient>
<linearGradient id="paint15_linear_588_38289" x1="69.1579" y1="27.8512" x2="69.1579" y2="29.9657" gradientUnits="userSpaceOnUse">
<stop stop-color="white"/>
<stop offset="1" stop-color="#C4CCDD"/>
</linearGradient>
<linearGradient id="paint16_linear_588_38289" x1="71.0219" y1="28.4666" x2="71.0219" y2="30.5016" gradientUnits="userSpaceOnUse">
<stop stop-color="white"/>
<stop offset="1" stop-color="#C4CCDD"/>
</linearGradient>
<linearGradient id="paint17_linear_588_38289" x1="74.1917" y1="27.9351" x2="74.1917" y2="29.9391" gradientUnits="userSpaceOnUse">
<stop stop-color="white"/>
<stop offset="1" stop-color="#C4CCDD"/>
</linearGradient>
<linearGradient id="paint18_linear_588_38289" x1="76.4765" y1="28.4225" x2="76.4765" y2="29.9671" gradientUnits="userSpaceOnUse">
<stop stop-color="white"/>
<stop offset="1" stop-color="#C4CCDD"/>
</linearGradient>
<linearGradient id="paint19_linear_588_38289" x1="78.7473" y1="28.4238" x2="78.7473" y2="29.9258" gradientUnits="userSpaceOnUse">
<stop stop-color="white"/>
<stop offset="1" stop-color="#C4CCDD"/>
</linearGradient>
<linearGradient id="paint20_linear_588_38289" x1="80.7594" y1="28.4236" x2="80.7594" y2="29.9677" gradientUnits="userSpaceOnUse">
<stop stop-color="white"/>
<stop offset="1" stop-color="#C4CCDD"/>
</linearGradient>
<linearGradient id="paint21_linear_588_38289" x1="82.7032" y1="28.4301" x2="82.7032" y2="29.9726" gradientUnits="userSpaceOnUse">
<stop stop-color="white"/>
<stop offset="1" stop-color="#C4CCDD"/>
</linearGradient>
<linearGradient id="paint22_linear_588_38289" x1="85.9897" y1="27.9022" x2="85.9897" y2="29.9674" gradientUnits="userSpaceOnUse">
<stop stop-color="white"/>
<stop offset="1" stop-color="#C4CCDD"/>
</linearGradient>
<linearGradient id="paint23_linear_588_38289" x1="88.1625" y1="28.4231" x2="88.1625" y2="29.969" gradientUnits="userSpaceOnUse">
<stop stop-color="white"/>
<stop offset="1" stop-color="#C4CCDD"/>
</linearGradient>
<linearGradient id="paint24_linear_588_38289" x1="90.3885" y1="28.4238" x2="90.3885" y2="29.9258" gradientUnits="userSpaceOnUse">
<stop stop-color="white"/>
<stop offset="1" stop-color="#C4CCDD"/>
</linearGradient>
<linearGradient id="paint25_linear_588_38289" x1="92.2135" y1="28.0251" x2="92.2135" y2="29.9677" gradientUnits="userSpaceOnUse">
<stop stop-color="white"/>
<stop offset="1" stop-color="#C4CCDD"/>
</linearGradient>
<linearGradient id="paint26_linear_588_38289" x1="93.7959" y1="28.4254" x2="93.7959" y2="29.9249" gradientUnits="userSpaceOnUse">
<stop stop-color="white"/>
<stop offset="1" stop-color="#C4CCDD"/>
</linearGradient>
<linearGradient id="paint27_linear_588_38289" x1="95.3886" y1="28.4225" x2="95.3886" y2="29.9671" gradientUnits="userSpaceOnUse">
<stop stop-color="white"/>
<stop offset="1" stop-color="#C4CCDD"/>
</linearGradient>
<linearGradient id="paint28_linear_588_38289" x1="96.9718" y1="27.8502" x2="96.9718" y2="29.9238" gradientUnits="userSpaceOnUse">
<stop stop-color="white"/>
<stop offset="1" stop-color="#C4CCDD"/>
</linearGradient>
</defs>
</svg>
