<svg width="113" height="37" viewBox="0 0 113 37" fill="none" xmlns="http://www.w3.org/2000/svg">
<mask id="mask0_588_38296" style="mask-type:luminance" maskUnits="userSpaceOnUse" x="0" y="8" width="113" height="23">
<path d="M113 8.00195H0V30.002H113V8.00195Z" fill="white"/>
</mask>
<g mask="url(#mask0_588_38296)">
<path d="M35.5972 14.9663H39.2003C39.7222 14.9392 40.2439 15.0226 40.7326 15.2112C41.0642 15.3624 41.34 15.6172 41.52 15.9387C41.7107 16.3016 41.8041 16.7094 41.7907 17.1208C41.7987 17.6987 41.6285 18.2645 41.3041 18.7385C41.006 19.1929 40.5836 19.5481 40.0892 19.7601C39.4374 19.9921 38.7486 20.0966 38.0588 20.0681H36.9705L36.3472 23.0447H33.8828L35.5972 14.9663ZM37.3167 18.4657H38.1523C38.5002 18.4826 38.8408 18.3605 39.1017 18.1255C39.2185 18.0234 39.3122 17.8967 39.3763 17.7541C39.4404 17.6116 39.4734 17.4566 39.4731 17.2997C39.4731 16.8148 39.2156 16.5723 38.7008 16.5723H37.7335L37.3167 18.4657Z" fill="url(#paint0_linear_588_38296)"/>
<path d="M42.4464 18.8039C42.5061 18.5386 42.6174 18.2882 42.774 18.0676C42.9305 17.847 43.129 17.6607 43.3576 17.5199C44.7951 16.9241 46.4029 16.9173 47.8452 17.5008C48.0398 17.6429 48.1962 17.8327 48.2998 18.0527C48.4035 18.2726 48.4511 18.5156 48.4383 18.7592C48.4005 19.3725 48.3009 19.9802 48.1411 20.5727C47.9964 21.117 47.9041 21.6742 47.8654 22.2367C47.8692 22.5118 47.9178 22.7844 48.0093 23.0433H45.8631C45.8148 22.8243 45.7907 22.6005 45.7911 22.376C45.2741 22.8889 44.5823 23.178 43.8607 23.1827C43.5797 23.2096 43.2963 23.178 43.0276 23.0897C42.759 23.0015 42.5108 22.8584 42.2982 22.6693C41.9904 22.3487 41.8192 21.9173 41.8217 21.4689C41.8076 21.2511 41.8381 21.0327 41.9112 20.8276C41.9843 20.6225 42.0984 20.435 42.2463 20.2772C42.5399 20.0001 42.9015 19.8088 43.2929 19.7235C43.8541 19.6042 44.4218 19.519 44.9929 19.4683C45.4225 19.4336 45.8489 19.3652 46.2683 19.2637C46.305 19.1345 46.327 19.0014 46.3338 18.867C46.3332 18.7936 46.3127 18.7219 46.2746 18.6596C46.2365 18.5974 46.1822 18.5471 46.1178 18.5143C45.9391 18.4179 45.7383 18.372 45.5363 18.3815C45.3251 18.3735 45.1151 18.4162 44.9231 18.5062C44.7329 18.6291 44.5877 18.8123 44.5099 19.0276L42.4464 18.8039ZM46.0164 20.4305C45.402 20.49 44.8001 20.6445 44.2314 20.8888C44.1531 20.9384 44.088 21.0069 44.0419 21.0883C43.9958 21.1696 43.9702 21.2613 43.9672 21.3552C43.9633 21.4389 43.978 21.5224 44.0105 21.5994C44.0429 21.6764 44.0921 21.7449 44.1544 21.7996C44.2917 21.9142 44.4649 21.9746 44.6424 21.9697C44.9484 21.9593 45.2409 21.8387 45.4679 21.6295C45.7803 21.306 45.9733 20.8824 46.0142 20.4305H46.0164Z" fill="url(#paint1_linear_588_38296)"/>
<path d="M56.146 17.1971L52.5077 23.7876C52.2649 24.2922 51.9142 24.735 51.4813 25.0834C51.1214 25.313 50.7024 25.4282 50.2779 25.4142C49.7317 25.4138 49.1881 25.3376 48.6621 25.1876L48.8413 23.6769C49.0696 23.7728 49.3141 23.8226 49.5611 23.8236C49.7872 23.8123 50.0049 23.7323 50.186 23.5939C50.3671 23.4555 50.5035 23.265 50.5774 23.047L49.474 17.1994H51.6469L51.9542 21.2606H51.9758L53.9278 17.1994L56.146 17.1971Z" fill="url(#paint2_linear_588_38296)"/>
<path d="M62.5409 18.0581C62.8722 17.7317 63.2568 17.4667 63.6774 17.2749C64.0251 17.1337 64.3964 17.0625 64.7707 17.0651C64.9838 17.0487 65.1979 17.0778 65.3993 17.1505C65.6007 17.2233 65.785 17.3381 65.9403 17.4875C66.1975 17.7622 66.3375 18.1295 66.3297 18.5091C66.3298 18.7425 66.3057 18.9753 66.2577 19.2035L65.4422 23.0433H63.2261L63.7559 20.5499C63.8897 19.9149 63.9632 19.5284 63.9783 19.414C63.9903 19.3299 63.9975 19.2452 63.9999 19.1603C63.9999 18.8552 63.8559 18.7056 63.5767 18.7056C63.4184 18.704 63.262 18.741 63.1206 18.8136C62.9792 18.8862 62.8569 18.9922 62.764 19.1229C62.5015 19.5198 62.3269 19.9703 62.2523 20.4429L61.706 23.0433H59.4935L60.0132 20.591C60.149 19.9339 60.2258 19.5445 60.2435 19.4228C60.2573 19.3315 60.2652 19.2394 60.2673 19.1471C60.2751 19.0862 60.269 19.0244 60.2495 18.9663C60.2299 18.9083 60.1974 18.8557 60.1545 18.8126C60.1116 18.7695 60.0595 18.7372 60.0023 18.7181C59.945 18.699 59.8842 18.6937 59.8246 18.7027C59.5544 18.7232 59.3021 18.8481 59.1193 19.0517C58.8214 19.3826 58.63 19.7985 58.5708 20.2434L57.9756 23.0477H55.7588L56.9924 17.2001H59.0408L58.8623 18.0375L58.8839 18.0595C59.1512 17.7527 59.4783 17.5059 59.8443 17.3349C60.2104 17.164 60.6074 17.0726 61.01 17.0666C61.3468 17.0601 61.6787 17.1497 61.968 17.3255C62.2399 17.4891 62.4444 17.7475 62.5438 18.0529L62.5409 18.0581Z" fill="url(#paint3_linear_588_38296)"/>
<path d="M73.494 21.5458C73.2132 22.0869 72.774 22.5255 72.2373 22.8005C71.6257 23.0743 70.9616 23.2046 70.294 23.1819C69.8608 23.2264 69.4231 23.1803 69.0079 23.0465C68.5927 22.9127 68.2087 22.694 67.8793 22.4038C67.4041 21.8888 67.1471 21.2038 67.1639 20.4972C67.1608 19.9862 67.2752 19.4817 67.4978 19.0239C67.7045 18.6027 67.9911 18.2274 68.3411 17.9199C68.6911 17.6124 69.0976 17.3787 69.5369 17.2324C69.9611 17.1149 70.3992 17.0576 70.8389 17.0622C71.6687 16.9815 72.4962 17.2373 73.1421 17.7743C73.3716 18.0026 73.5523 18.2768 73.6728 18.5797C73.7933 18.8826 73.851 19.2076 73.8424 19.5343C73.8233 19.9285 73.7752 20.3207 73.6984 20.7076H69.3209C69.3833 21.4898 69.7276 21.8809 70.3537 21.8809C70.5531 21.886 70.7505 21.8404 70.9282 21.7482C71.1059 21.6561 71.2583 21.5202 71.3715 21.3529L73.494 21.5458ZM71.6558 19.6113C71.685 19.5004 71.6979 19.3857 71.6939 19.271C71.7035 19.1445 71.6847 19.0174 71.639 18.8993C71.5932 18.7813 71.5217 18.6754 71.4298 18.5898C71.249 18.4346 71.0182 18.3534 70.782 18.3617C70.5037 18.3644 70.237 18.4754 70.0364 18.6719C69.7814 18.9258 69.6014 19.2475 69.5167 19.6003L71.6558 19.6113Z" fill="url(#paint4_linear_588_38296)"/>
<path d="M77.3421 18.1013C77.6146 17.7728 77.955 17.5097 78.3388 17.3307C78.7226 17.1518 79.1405 17.0613 79.5625 17.0658C79.7742 17.0498 79.9869 17.0775 80.1879 17.1472C80.3888 17.2169 80.5739 17.3271 80.7321 17.4713C80.8596 17.6017 80.9598 17.757 81.0267 17.9279C81.0936 18.0988 81.1259 18.2818 81.1215 18.4657C81.0882 18.9338 81.0159 19.3982 80.9056 19.8539L80.237 23.0454H78.0309L78.5974 20.3211C78.6842 19.9479 78.7522 19.5705 78.8011 19.1903C78.8011 18.8669 78.6571 18.707 78.3692 18.707C78.2018 18.7105 78.0376 18.7543 77.89 18.8348C77.7424 18.9154 77.6155 19.0304 77.5199 19.1705C77.2406 19.5699 77.0538 20.0288 76.9736 20.5125L76.4338 23.0461H74.2148L75.4564 17.1985H77.5156L77.327 18.0785L77.3421 18.1013Z" fill="url(#paint5_linear_588_38296)"/>
<path d="M86.5265 17.1971L86.1925 18.8009H85.0409L84.6199 20.8667C84.5903 20.9572 84.5757 21.0521 84.5767 21.1475C84.5767 21.413 84.7477 21.5453 85.0898 21.5443C85.3188 21.5262 85.5461 21.4909 85.77 21.4387L85.436 23.0425C84.9523 23.1175 84.4647 23.1631 83.9757 23.1789C83.7382 23.2039 83.4983 23.1765 83.2722 23.0987C83.046 23.0209 82.839 22.8944 82.665 22.7279C82.4189 22.4597 82.2805 22.1072 82.2771 21.7401C82.308 21.4229 82.3604 21.1083 82.434 20.7985L82.845 18.7994H82.0532L82.3778 17.1956H83.1832L83.374 16.2812L85.834 15.0294L85.3792 17.1956L86.5265 17.1971Z" fill="url(#paint6_linear_588_38296)"/>
<path d="M94.3681 23.0447H91.9641L91.8555 21.7247H89.2701L88.6598 23.0447H86.019L90.498 14.9663H93.11L94.3681 23.0447ZM91.6942 20.0087L91.4502 17.0658H91.4301L90.0662 20.0087H91.6942Z" fill="url(#paint7_linear_588_38296)"/>
<path d="M101.544 18.5984L99.483 18.8235C99.4216 18.4715 99.1632 18.295 98.7078 18.2941C98.4961 18.279 98.2849 18.3301 98.1025 18.4407C98.0435 18.4759 97.9938 18.5254 97.9579 18.5847C97.922 18.644 97.901 18.7114 97.8967 18.781C97.8969 18.8487 97.9136 18.9152 97.9454 18.9746C97.9772 19.0341 98.023 19.0845 98.0788 19.1213C98.3851 19.2633 98.714 19.348 99.0497 19.3713C99.6541 19.4096 100.238 19.6105 100.741 19.9536C100.881 20.085 100.991 20.2459 101.063 20.4249C101.136 20.604 101.169 20.797 101.161 20.9905C101.156 21.2958 101.079 21.5953 100.936 21.8635C100.792 22.1317 100.588 22.3606 100.339 22.5305C99.592 23.0119 98.7131 23.2358 97.8319 23.1693C97.1397 23.2193 96.4471 23.0787 95.8267 22.7623C95.6091 22.6117 95.4285 22.412 95.2989 22.1787C95.1694 21.9455 95.0943 21.6849 95.0796 21.4173L97.2525 21.2252C97.2834 21.4428 97.3972 21.6394 97.5692 21.7722C97.7412 21.905 97.9576 21.9636 98.1716 21.9351C98.395 21.9402 98.6158 21.8851 98.8115 21.7752C98.8959 21.7342 98.967 21.6695 99.0165 21.5887C99.066 21.5079 99.0917 21.4143 99.0907 21.3191C99.0992 21.2445 99.0846 21.1691 99.049 21.1034C99.0133 21.0376 98.9585 20.9849 98.8921 20.9524C98.6473 20.863 98.3932 20.8025 98.1349 20.772C97.5127 20.725 96.9137 20.5118 96.3981 20.1538C96.2519 20.0251 96.1353 19.8652 96.0566 19.6853C95.978 19.5054 95.9393 19.3101 95.9433 19.1132C95.9481 18.7513 96.065 18.4002 96.2772 18.11C96.5399 17.7551 96.8983 17.4858 97.3086 17.3349C97.8505 17.1303 98.4259 17.0337 99.0036 17.0503C99.6107 17.0169 100.217 17.1336 100.77 17.3906C100.982 17.5167 101.163 17.6915 101.297 17.9012C101.431 18.1109 101.516 18.3496 101.544 18.5984Z" fill="url(#paint8_linear_588_38296)"/>
<path d="M105.412 17.1971L104.178 23.0447H101.967L103.2 17.1971H105.412ZM105.864 14.9663L105.55 16.5063H103.352L103.659 14.9663H105.864Z" fill="url(#paint9_linear_588_38296)"/>
<path d="M106.451 18.8039C106.511 18.5385 106.622 18.2881 106.778 18.0675C106.935 17.8469 107.134 17.6606 107.362 17.5199C108.8 16.9241 110.408 16.9173 111.85 17.5008C112.044 17.6432 112.2 17.8331 112.303 18.053C112.407 18.2729 112.454 18.5157 112.441 18.7592C112.404 19.3725 112.304 19.9802 112.144 20.5727C112 21.117 111.908 21.6743 111.869 22.2367C111.872 22.5119 111.92 22.7846 112.013 23.0433H109.868C109.82 22.8243 109.796 22.6005 109.796 22.376C109.279 22.8896 108.587 23.1787 107.865 23.1827C107.584 23.2096 107.3 23.178 107.032 23.0897C106.763 23.0015 106.515 22.8584 106.302 22.6693C105.994 22.3487 105.823 21.9173 105.826 21.4689C105.812 21.2511 105.842 21.0327 105.915 20.8276C105.988 20.6225 106.102 20.435 106.25 20.2772C106.544 20.0004 106.906 19.8091 107.297 19.7235C107.857 19.6043 108.424 19.5191 108.995 19.4683C109.425 19.4336 109.852 19.3652 110.271 19.2637C110.307 19.1344 110.329 19.0013 110.335 18.867C110.334 18.7936 110.314 18.7219 110.276 18.6596C110.237 18.5974 110.183 18.5471 110.119 18.5143C109.94 18.418 109.739 18.3721 109.537 18.3815C109.326 18.3735 109.116 18.4162 108.924 18.5062C108.734 18.6295 108.589 18.8126 108.511 19.0276L106.451 18.8039ZM110.021 20.4305C109.407 20.4899 108.805 20.6445 108.236 20.8888C108.158 20.9384 108.093 21.0069 108.047 21.0883C108 21.1696 107.975 21.2613 107.972 21.3552C107.968 21.439 107.983 21.5226 108.016 21.5997C108.048 21.6767 108.098 21.7451 108.16 21.7996C108.298 21.9143 108.471 21.9748 108.648 21.9697C108.954 21.9596 109.246 21.8389 109.473 21.6295C109.789 21.3076 109.984 20.8817 110.021 20.4275V20.4305Z" fill="url(#paint10_linear_588_38296)"/>
<path d="M16.6261 19.1229C17.1281 18.3893 17.4245 17.5302 17.4833 16.6379C17.5422 15.7456 17.3613 14.8539 16.9601 14.0585C15.5393 11.3781 11.6001 12.9651 10.2348 14.6048C8.80105 16.3245 0 27.0715 0 27.0715C0 27.0715 4.8734 19.623 8.041 15.2039C11.2086 10.7849 13.8421 10.5363 16.0352 11.233C18.2283 11.9296 20.674 16.488 16.6261 19.1229Z" fill="url(#paint11_linear_588_38296)"/>
<path d="M13.075 15.6336C12.2786 16.0093 11.5975 16.5984 11.1043 17.3381C10.6111 18.0777 10.3246 18.9399 10.2752 19.8327C10.1701 22.8738 14.3648 23.5279 16.3534 22.8144C18.4407 22.0635 31.3565 17.3042 31.3565 17.3042C31.3565 17.3042 23.4645 21.2363 18.5451 23.4348C13.6256 25.6333 11.2267 24.4886 9.67709 22.7536C8.12748 21.0185 8.27862 15.8294 13.075 15.6336Z" fill="url(#paint12_linear_588_38296)"/>
</g>
<defs>
<linearGradient id="paint0_linear_588_38296" x1="37.8374" y1="14.9613" x2="37.8374" y2="23.0447" gradientUnits="userSpaceOnUse">
<stop stop-color="white"/>
<stop offset="1" stop-color="#C4CCDD"/>
</linearGradient>
<linearGradient id="paint1_linear_588_38296" x1="45.1294" y1="17.0681" x2="45.1294" y2="23.192" gradientUnits="userSpaceOnUse">
<stop stop-color="white"/>
<stop offset="1" stop-color="#C4CCDD"/>
</linearGradient>
<linearGradient id="paint2_linear_588_38296" x1="52.4041" y1="17.1971" x2="52.4041" y2="25.4153" gradientUnits="userSpaceOnUse">
<stop stop-color="white"/>
<stop offset="1" stop-color="#C4CCDD"/>
</linearGradient>
<linearGradient id="paint3_linear_588_38296" x1="61.0444" y1="17.0607" x2="61.0444" y2="23.0477" gradientUnits="userSpaceOnUse">
<stop stop-color="white"/>
<stop offset="1" stop-color="#C4CCDD"/>
</linearGradient>
<linearGradient id="paint4_linear_588_38296" x1="70.5032" y1="17.0476" x2="70.5032" y2="23.1983" gradientUnits="userSpaceOnUse">
<stop stop-color="white"/>
<stop offset="1" stop-color="#C4CCDD"/>
</linearGradient>
<linearGradient id="paint5_linear_588_38296" x1="77.6684" y1="17.0614" x2="77.6684" y2="23.0461" gradientUnits="userSpaceOnUse">
<stop stop-color="white"/>
<stop offset="1" stop-color="#C4CCDD"/>
</linearGradient>
<linearGradient id="paint6_linear_588_38296" x1="84.2898" y1="15.0294" x2="84.2898" y2="23.1879" gradientUnits="userSpaceOnUse">
<stop stop-color="white"/>
<stop offset="1" stop-color="#C4CCDD"/>
</linearGradient>
<linearGradient id="paint7_linear_588_38296" x1="90.1936" y1="14.9663" x2="90.1936" y2="23.0447" gradientUnits="userSpaceOnUse">
<stop stop-color="white"/>
<stop offset="1" stop-color="#C4CCDD"/>
</linearGradient>
<linearGradient id="paint8_linear_588_38296" x1="98.3116" y1="17.0447" x2="98.3116" y2="23.1807" gradientUnits="userSpaceOnUse">
<stop stop-color="white"/>
<stop offset="1" stop-color="#C4CCDD"/>
</linearGradient>
<linearGradient id="paint9_linear_588_38296" x1="103.915" y1="14.9663" x2="103.915" y2="23.0447" gradientUnits="userSpaceOnUse">
<stop stop-color="white"/>
<stop offset="1" stop-color="#C4CCDD"/>
</linearGradient>
<linearGradient id="paint10_linear_588_38296" x1="109.133" y1="17.0681" x2="109.133" y2="23.192" gradientUnits="userSpaceOnUse">
<stop stop-color="white"/>
<stop offset="1" stop-color="#C4CCDD"/>
</linearGradient>
<linearGradient id="paint11_linear_588_38296" x1="9.39965" y1="10.9379" x2="9.39964" y2="27.0715" gradientUnits="userSpaceOnUse">
<stop stop-color="white"/>
<stop offset="1" stop-color="#C4CCDD"/>
</linearGradient>
<linearGradient id="paint12_linear_588_38296" x1="20.0789" y1="15.6336" x2="20.0789" y2="24.6449" gradientUnits="userSpaceOnUse">
<stop stop-color="white"/>
<stop offset="1" stop-color="#C4CCDD"/>
</linearGradient>
</defs>
</svg>
