<svg width="292" height="40" viewBox="0 0 292 40" fill="none" xmlns="http://www.w3.org/2000/svg">
<path d="M41.0997 12.3265C40.0005 13.6211 39.3936 15.2622 39.3859 16.9605L54.9627 16.9229V21.608H39.3491C39.3454 22.5306 39.4515 23.4503 39.6652 24.3478C39.8873 25.242 40.3296 26.0664 40.9518 26.7459C41.4601 27.3834 42.1716 27.8274 42.9676 28.0039C43.7583 28.1669 44.5637 28.2484 45.371 28.2473L54.9469 28.2097V32.8978H45.4611C43.9951 32.9028 42.5321 32.7647 41.093 32.4855C39.6331 32.1849 38.2701 31.5283 37.1252 30.574C35.674 29.409 34.5871 27.8525 33.9933 26.0888C33.4138 24.3415 33.1001 22.5171 33.0628 20.6767C33.0357 20.2779 33.0357 18.7622 33.0628 18.3867C33.3361 14.1363 34.4852 11.0109 36.5101 9.01061C38.5259 7.00831 41.5699 5.9666 45.6188 5.9666H54.9732V10.6584H45.7352C43.6638 10.6834 42.1187 11.2395 41.0997 12.3265ZM65.5307 19.4299L56.2176 32.8955H62.8502L68.8098 23.5172L74.4374 32.8933H81.1811L71.9432 19.0522L80.5397 5.95007H74.0536L68.577 14.4843L63.0672 5.95007H56.5121L65.5307 19.4299ZM8.27583 5.95007L15.0961 26.634L21.9202 5.95007H30.1592V32.9053H24.642L25.0926 11.9337L18.2318 32.9053H12.2677L5.18225 11.6934L5.74328 32.9015H0V5.95007H8.27583Z" fill="url(#paint0_linear_630_41487)"/>
<path d="M290.134 0.00100477C289.911 -0.0018465 289.69 0.0397294 289.484 0.123296C289.278 0.206862 289.09 0.330742 288.932 0.487688C288.774 0.645226 288.648 0.832467 288.562 1.03868C288.477 1.24489 288.432 1.46601 288.432 1.68937V11.3329C288.427 11.56 288.468 11.7858 288.552 11.9971C288.635 12.2083 288.76 12.4007 288.919 12.5631C289.078 12.7254 289.268 12.8544 289.477 12.9424C289.687 13.0305 289.912 13.0758 290.139 13.0758C290.366 13.0758 290.591 13.0305 290.8 12.9424C291.01 12.8544 291.2 12.7254 291.359 12.5631C291.517 12.4007 291.642 12.2083 291.726 11.9971C291.81 11.7858 291.85 11.56 291.846 11.3329V1.69162C291.846 1.46716 291.801 1.2449 291.715 1.03772C291.629 0.830548 291.502 0.642571 291.342 0.484682C291.184 0.327471 290.995 0.203615 290.788 0.120416C290.581 0.0372182 290.359 -0.00363833 290.135 0.000254137L290.134 0.00100477Z" fill="white"/>
<path d="M285.21 3.77965C284.987 3.7768 284.767 3.81838 284.56 3.90195C284.354 3.98551 284.166 4.10939 284.008 4.26634C283.85 4.42385 283.724 4.61109 283.638 4.8173C283.553 5.02352 283.508 5.24465 283.508 5.46802V15.1108C283.503 15.3379 283.544 15.5637 283.628 15.775C283.711 15.9862 283.836 16.1786 283.995 16.341C284.154 16.5033 284.344 16.6323 284.553 16.7203C284.763 16.8083 284.988 16.8537 285.215 16.8537C285.442 16.8537 285.667 16.8083 285.877 16.7203C286.086 16.6323 286.276 16.5033 286.435 16.341C286.594 16.1786 286.719 15.9862 286.802 15.775C286.886 15.5637 286.926 15.3379 286.922 15.1108V5.46727C286.921 5.24364 286.876 5.02234 286.79 4.81611C286.703 4.60989 286.577 4.42279 286.418 4.26558C286.259 4.10804 286.07 3.98388 285.863 3.90042C285.656 3.81696 285.434 3.7759 285.21 3.77965Z" fill="white"/>
<path d="M280.292 0.000331172C280.068 -0.00411931 279.846 0.036326 279.638 0.119273C279.43 0.20222 279.241 0.325986 279.082 0.483258C278.922 0.641198 278.796 0.829275 278.709 1.03658C278.622 1.24389 278.578 1.46631 278.578 1.69095V11.3344C278.578 11.788 278.758 12.223 279.079 12.5437C279.4 12.8644 279.835 13.0446 280.288 13.0446C280.742 13.0446 281.177 12.8644 281.498 12.5437C281.818 12.223 281.998 11.788 281.998 11.3344V1.6917C281.998 1.4676 281.954 1.2457 281.868 1.03881C281.782 0.831917 281.656 0.644121 281.497 0.486261C281.339 0.329586 281.151 0.205983 280.945 0.122677C280.738 0.0393705 280.517 -0.00196659 280.295 0.00108181L280.292 0.000331172Z" fill="white"/>
<path d="M275.364 5.56485C275.141 5.5619 274.92 5.60336 274.714 5.6868C274.508 5.77023 274.32 5.89398 274.162 6.05079C274.003 6.20862 273.877 6.39641 273.791 6.60331C273.705 6.81021 273.66 7.03212 273.661 7.25622V13.4193C273.656 13.6465 273.696 13.8723 273.78 14.0835C273.864 14.2948 273.989 14.4872 274.148 14.6496C274.307 14.8119 274.496 14.9408 274.706 15.0289C274.915 15.1169 275.14 15.1623 275.367 15.1623C275.595 15.1623 275.819 15.1169 276.029 15.0289C276.238 14.9408 276.428 14.8119 276.587 14.6496C276.746 14.4872 276.871 14.2948 276.955 14.0835C277.038 13.8723 277.079 13.6465 277.074 13.4193V7.25547C277.074 7.03137 277.03 6.80946 276.944 6.60256C276.858 6.39566 276.731 6.20787 276.572 6.05004C276.414 5.89336 276.227 5.76976 276.02 5.68645C275.814 5.60315 275.593 5.56181 275.371 5.56485H275.364Z" fill="white"/>
<path d="M92.5482 9.01436C90.5324 11.0147 89.3856 14.1355 89.1077 18.377C89.0806 18.7525 89.0874 20.2613 89.1077 20.6602C89.1582 22.4991 89.4705 24.3214 90.0352 26.0722C90.6289 27.8313 91.7132 29.3839 93.1603 30.547C94.3047 31.4986 95.6651 32.155 97.1221 32.4584C98.5616 32.7353 100.024 32.8724 101.49 32.8677H110.975V28.1894L101.416 28.227C100.61 28.2285 99.8062 28.1469 99.017 27.9837C98.2212 27.8085 97.5096 27.3654 97.0012 26.7286C96.3787 26.0498 95.9373 25.225 95.7177 24.3305C95.5038 23.4354 95.3976 22.5178 95.4015 21.5975H110.985V16.9162L95.4383 16.9537C95.4438 15.2586 96.0497 13.6203 97.1484 12.3295C98.1679 11.2425 99.7055 10.6867 101.761 10.6622H110.985V5.95007H101.64C97.5983 5.95007 94.5678 7.01882 92.5482 9.01436Z" fill="white"/>
<path d="M127.717 13.1346L123.403 19.0875L119.198 13.1346H113.172L120.463 23.0215L113.245 32.8678H119.24L123.406 27.141L127.537 32.8678H133.561L126.421 23.1326L133.668 13.1346H127.717Z" fill="white"/>
<path d="M141.167 13.6224C139.869 13.9309 138.679 14.587 137.726 15.5203C136.884 16.3402 136.213 17.3199 135.754 18.4021C135.289 19.4753 135.001 20.6166 134.901 21.7818C134.874 22.0071 134.853 22.2324 134.844 22.4577C134.834 22.6831 134.823 22.9084 134.823 23.1337C134.82 23.3154 134.826 23.4972 134.844 23.6782C134.859 23.8583 134.864 24.039 134.86 24.2197C134.986 25.3998 135.288 26.5545 135.754 27.646C136.21 28.7357 136.881 29.7226 137.726 30.5481C138.677 31.4805 139.868 32.1305 141.167 32.4257C142.455 32.7139 143.771 32.858 145.091 32.8553H152.11V28.6306H146.613C146.563 28.6306 144.335 28.5931 143.865 28.5187C143.39 28.4444 142.934 28.2789 142.522 28.0313C141.696 27.5591 141.064 26.8102 140.737 25.9171C140.412 25.0215 140.236 24.0787 140.217 23.1262C140.216 22.1474 140.375 21.1751 140.687 20.2474C141.01 19.3098 141.665 18.5229 142.528 18.0356C142.942 17.7908 143.398 17.6255 143.872 17.5481C144.343 17.46 144.82 17.4098 145.299 17.3979H152.109V13.1522H145.09C143.768 13.1564 142.451 13.3141 141.166 13.6224H141.167Z" fill="white"/>
<path d="M171.259 14.7073C169.464 13.6144 167.389 13.0679 165.288 13.1346H160.671V5.98389H155.541V32.8715H160.671V17.478L164.802 17.5155C166.116 17.5155 167.023 17.7791 167.517 18.3034C168.088 19.0661 168.354 20.014 168.263 20.9621V32.8685H173.471V20.3966C173.443 17.5961 172.706 15.6997 171.259 14.7073Z" fill="white"/>
<path d="M195.079 15.1572C194.307 14.3508 193.319 13.7846 192.233 13.5267C191.151 13.2878 190.048 13.1565 188.941 13.1346H178.342V17.2106L186.971 17.2482C188.147 17.211 189.318 17.4171 190.411 17.8535C191.318 18.2541 191.734 19.2687 191.658 20.8975H184.85C183.019 20.862 181.202 21.2329 179.531 21.9835C178.044 22.6845 177.213 24.2192 177.038 26.5875C176.941 27.4175 177.021 28.2585 177.271 29.0557C177.521 29.853 177.936 30.5886 178.49 31.2147C179.102 31.7961 179.828 32.2442 180.622 32.5306C181.416 32.8171 182.26 32.9357 183.103 32.879H197.013V20.549C197.015 19.5602 196.871 18.5766 196.586 17.6297C196.306 16.6891 195.787 15.8372 195.079 15.1572ZM191.692 28.9015H185.221C184.548 28.9112 183.878 28.8224 183.232 28.6378C182.647 28.4666 182.38 27.8928 182.432 26.9164C182.398 26.5775 182.469 26.2364 182.635 25.9389C182.801 25.6414 183.054 25.4017 183.36 25.2521C183.967 24.9726 184.626 24.8252 185.295 24.8195H191.679L191.692 28.9015Z" fill="white"/>
<path d="M217.325 14.6705C215.887 13.6716 213.879 13.1597 211.301 13.1346H201.557V32.8678H206.728V17.478L210.894 17.5155C212.282 17.5155 213.199 17.7559 213.646 18.229C214.092 18.7022 214.318 19.626 214.318 20.9996V32.8663H219.489V20.3988C219.484 17.5789 218.763 15.6694 217.325 14.6705Z" fill="white"/>
<path d="M228.893 13.6029C227.599 13.9052 226.414 14.5597 225.469 15.494C224.629 16.312 223.965 17.2925 223.517 18.3758C223.064 19.4545 222.77 20.5928 222.643 21.7555C222.62 21.9808 222.6 22.2061 222.586 22.4315C222.573 22.6568 222.586 22.8776 222.586 23.1074V23.6519C222.586 23.8585 222.606 24.0274 222.606 24.2302C222.732 25.4388 223.026 26.6239 223.48 27.7512C223.925 28.8778 224.603 29.8978 225.469 30.7448C226.378 31.7235 227.579 32.3821 228.893 32.6225C230.198 32.8052 231.516 32.8923 232.834 32.8831H237.04C237.095 33.2965 237.059 33.717 236.934 34.115C236.81 34.5129 236.599 34.8787 236.318 35.1865C235.663 35.7416 234.823 36.0291 233.965 35.9917H224.684V40H234.838C237.492 40 239.389 39.3381 240.53 38.0143C241.671 36.6904 242.241 34.7432 242.24 32.1726V13.1522L232.833 13.1898C231.509 13.1807 230.188 13.3203 228.895 13.6059L228.893 13.6029ZM237.038 17.3746V28.8267H233.057C232.513 28.8078 231.972 28.7445 231.438 28.6374C230.907 28.538 230.405 28.3206 229.97 28.0013C229.172 27.4611 228.587 26.6615 228.313 25.7383C228.073 24.8282 227.967 23.8881 227.997 22.9474V22.0462C228.06 19.8478 228.87 18.5162 230.25 18.0378C231.696 17.5635 233.211 17.3351 234.732 17.3619L237.038 17.3746Z" fill="white"/>
<path d="M265.796 22.366C265.796 22.2038 265.689 21.1245 265.635 20.7663C265.517 19.9904 265.335 19.2257 265.09 18.4801C264.731 17.386 264.144 16.3807 263.367 15.5307C263.3 15.4556 263.232 15.3805 263.165 15.3144C262.274 14.358 261.132 13.6721 259.869 13.3354C258.526 12.9889 257.144 12.8138 255.756 12.8142H255.484C254.097 12.8099 252.715 12.9815 251.372 13.3249C250.108 13.6624 248.965 14.3481 248.072 15.3039L247.867 15.5202C247.09 16.3702 246.503 17.3755 246.143 18.4696C245.797 19.5683 245.572 20.7016 245.471 21.8493C245.451 22.0318 245.428 22.4547 245.428 22.6169V23.6315C245.491 24.8237 245.717 26.0015 246.1 27.1322C246.462 28.2622 247.063 29.3006 247.864 30.1762L248.062 30.3858C248.962 31.3251 250.104 31.9982 251.362 32.331C252.705 32.676 254.087 32.8476 255.475 32.8417H264.499V28.6741H255.595C254.572 28.6839 253.556 28.5038 252.598 28.1431C251.761 27.7578 251.321 26.6988 251.254 24.9504H265.642C265.723 24.5204 265.775 24.0852 265.796 23.6481C265.806 23.3289 265.799 22.6875 265.796 22.366ZM251.278 20.7595C251.332 19.0952 251.803 18.0557 252.679 17.6412C253.601 17.2156 254.604 16.9952 255.619 16.9952C256.634 16.9952 257.637 17.2156 258.559 17.6412C259.439 18.0603 259.903 19.096 259.964 20.7595H251.278Z" fill="white"/>
<defs>
<linearGradient id="paint0_linear_630_41487" x1="13.4761" y1="-7.58144" x2="19.9973" y2="51.9589" gradientUnits="userSpaceOnUse">
<stop stop-color="#A0762F"/>
<stop offset="0.2" stop-color="#FDC778"/>
<stop offset="0.5" stop-color="#EBCB88"/>
<stop offset="0.8" stop-color="#BB914A"/>
<stop offset="1" stop-color="#A0762F"/>
</linearGradient>
</defs>
</svg>
