<svg xmlns="http://www.w3.org/2000/svg" width="250" height="32" viewBox="0 0 250 32" fill="none">
  <g clip-path="url(#clip0_780_15092)">
    <path d="M246.427 2.46715V11.3629C246.427 12.2169 247.136 12.9172 248.009 12.9172C248.883 12.9172 249.595 12.2198 249.595 11.3629V2.46715C249.595 1.60746 248.886 0.910034 248.009 0.910034C247.133 0.910034 246.427 1.60746 246.427 2.46715Z" fill="white"/>
    <path d="M241.858 5.95153V14.8416C241.858 15.7041 242.566 16.3987 243.44 16.3987C244.314 16.3987 245.026 15.7013 245.026 14.8416V5.95153C245.026 5.09184 244.317 4.39441 243.44 4.39441C242.564 4.39441 241.858 5.09184 241.858 5.95153Z" fill="white"/>
    <path d="M237.28 2.46715V11.3629C237.28 12.2169 237.992 12.9172 238.869 12.9172C239.745 12.9172 240.454 12.2198 240.454 11.3629V2.46715C240.454 1.60746 239.74 0.910034 238.869 0.910034C237.998 0.910034 237.28 1.60746 237.28 2.46715Z" fill="white"/>
    <path d="M232.711 7.59972V13.2845C232.711 14.147 233.417 14.8416 234.294 14.8416C235.171 14.8416 235.88 14.147 235.88 13.2845V7.59972C235.88 6.74003 235.171 6.0426 234.294 6.0426C233.417 6.0426 232.711 6.74003 232.711 7.59972Z" fill="white"/>
    <path d="M176.371 31.8817H171.156L166.55 23.4044L164.292 25.8354V31.8817L159.063 31.8675V5.84624H164.292V19.6696L169.98 13.0141H175.924L169.667 19.8916L176.373 31.8817H176.371ZM55.0692 30.5637V31.8731L60.2985 31.8874V5.84624H55.0692V30.5637ZM80.6207 31.8731L85.8329 31.8874H85.8472V12.9259H80.6207V31.8703V31.8731ZM80.6065 10.9304H85.8472V5.84624H80.6065V10.9304ZM108.84 18.8241C111.362 19.9742 112.614 22.0209 112.614 24.9387C112.614 26.6439 112.221 28.0672 111.416 29.2144C110.73 30.2079 109.833 30.8797 108.737 31.264C107.63 31.634 106.004 31.8333 103.838 31.8333H94.9536L89.7271 31.8191V5.79785H104.157C106.468 5.79785 108.145 6.06259 109.198 6.59207C110.428 7.20979 111.353 8.21466 111.974 9.61805C112.421 10.5774 112.646 11.5965 112.646 12.627C112.646 13.9848 112.275 15.2402 111.561 16.4016C110.846 17.5773 109.936 18.3829 108.842 18.827L108.84 18.8241ZM106.502 23.9908C106.502 22.9318 106.135 22.1547 105.367 21.6651C104.812 21.3121 103.901 21.1271 102.634 21.1271H94.9479V27.199H102.511C103.306 27.199 103.889 27.1477 104.259 27.068C104.629 26.9883 104.971 26.8175 105.287 26.5641C106.107 25.9436 106.5 25.0867 106.5 23.9936L106.502 23.9908ZM106.502 13.2959C106.502 12.237 106.135 11.4627 105.367 10.9731C104.812 10.6144 103.901 10.4293 102.634 10.4293H94.9479V16.5041H102.511C103.306 16.5041 103.889 16.4529 104.242 16.3731C104.609 16.2934 104.954 16.1198 105.287 15.8693C106.107 15.2487 106.5 14.3919 106.5 13.2959H106.502ZM134.143 21.2039V31.8874H123.138C121.171 31.8874 119.808 31.8276 119.053 31.7166C118.299 31.5999 117.639 31.3522 117.066 30.9736C115.518 29.9346 114.743 28.3689 114.743 26.2795C114.743 24.9985 115.051 23.8627 115.669 22.8664C116.281 21.87 117.092 21.1982 118.094 20.8424C118.985 20.5264 120.46 20.367 122.532 20.367H128.928C128.928 19.0376 128.658 18.1409 128.117 17.6769C127.579 17.2158 126.523 16.9852 124.949 16.9852H116.118V12.9372H124.949C126.523 12.9372 127.61 12.9629 128.214 13.0198C128.814 13.0796 129.424 13.1991 130.03 13.3927C132.911 14.4801 134.283 17.0877 134.143 21.2039ZM128.928 24.4149H122.891L122.017 24.395C121.419 24.395 120.946 24.5544 120.596 24.8732C120.249 25.1864 120.072 25.6105 120.072 26.1457C120.072 26.7691 120.283 27.2018 120.707 27.458C121.134 27.7113 121.86 27.8394 122.888 27.8394H128.926V24.4149H128.928ZM151.294 13.239C150.492 13.0283 149.347 12.9259 147.847 12.9259H137.773V31.8817L142.988 31.8874V16.9681H147.543C148.491 16.9681 149.177 17.1788 149.598 17.5858C150.016 18.0071 150.23 18.6789 150.23 19.6155V31.8817L155.445 31.8874V20.2076C155.445 17.5716 154.784 15.6501 153.444 14.4374C152.815 13.8596 152.1 13.4639 151.297 13.239H151.294ZM46.1734 12.9259V27.8451H41.6188C40.6709 27.8451 39.9848 27.6345 39.5635 27.2274C39.1451 26.8061 38.9316 26.1343 38.9316 25.1978V12.9259H33.7165V24.6057C33.7165 27.2417 34.3769 29.1631 35.7177 30.3758C36.3468 30.9537 37.0613 31.3494 37.8641 31.5743C38.6668 31.7849 39.814 31.8874 41.3114 31.8874H51.3857V12.9259H46.1706H46.1734ZM15.0226 26.1685L8.52936 5.84624H0.405029V31.8703L5.70264 31.8874V12.3338L12.1389 31.8874H17.8493L24.6699 12.3338V31.8874H29.9675V5.84624H21.8631L15.0197 26.1685H15.0226ZM77.1165 12.8063L72.3085 12.7949V5.82062L67.139 5.83201V12.8063H63.7287V16.8485H67.1305L67.1248 25.2205C67.0564 28.0985 67.4436 29.4193 68.6136 30.4726C69.8177 31.56 71.2581 31.9102 74.4492 31.9102H76.9372V27.8622H75.6533C73.0913 27.8622 72.3085 27.0452 72.3085 24.3552V16.8457H77.1193V12.8035L77.1165 12.8063Z" fill="url(#paint0_linear_780_15092)"/>
    <path d="M184.441 9.15685C186.024 6.98201 189.499 5.89174 194.868 5.89174L203.209 5.85474V10.3894H194.396C192.098 10.4378 190.41 10.9332 189.337 11.8754C188.261 12.8176 187.663 14.4516 187.541 16.7716L203.209 16.7346V21.2323H187.541V31.8959H182.064V19.9286C182.064 14.9242 182.855 11.3317 184.438 9.15685H184.441Z" fill="white"/>
    <path d="M203.935 5.85758H210.317L215.686 14.0901L221.017 5.85758H227.328L218.951 18.5138L227.946 31.8959H221.382L215.905 22.8293L210.103 31.8959H203.647L212.714 18.8753L203.938 5.85474L203.935 5.85758Z" fill="white"/>
  </g>
  <defs>
    <linearGradient id="paint0_linear_780_15092" x1="0.405029" y1="18.8554" x2="176.371" y2="18.8554" gradientUnits="userSpaceOnUse">
      <stop offset="0.25" stop-color="#467BFF"/>
      <stop offset="1" stop-color="#75D9D9"/>
    </linearGradient>
    <clipPath id="clip0_780_15092">
      <rect width="249.19" height="31" fill="white" transform="translate(0.405029 0.910156)"/>
    </clipPath>
  </defs>
</svg>