<svg width="148" height="17" viewBox="0 0 148 17" fill="none" xmlns="http://www.w3.org/2000/svg">
<g clip-path="url(#clip0_481_182)">
<path d="M103.805 9.21967L107.647 5.06178H104.016L100.542 9.11441V0.693359H97.3842V16.5355H100.542V12.8513L101.91 11.3776L104.753 16.5355H107.91L103.805 9.21967Z" fill="url(#paint0_linear_481_182)"/>
<path d="M33.9631 15.746C33.9631 16.167 33.9631 16.5355 33.9631 16.5355H37.1737V0.693359H33.9631V15.746Z" fill="url(#paint1_linear_481_182)"/>
<path d="M49.542 16.5351H52.6999H52.7525V5.00879H49.542V16.5351Z" fill="url(#paint2_linear_481_182)"/>
<path d="M52.7525 0.693359H49.542V3.79862H52.7525V0.693359Z" fill="url(#paint3_linear_481_182)"/>
<path d="M68.3841 7.11431C68.8052 6.4301 69.0683 5.64062 69.0683 4.79852C69.0683 4.16694 68.9104 3.53536 68.6473 2.95641C68.2789 2.11431 67.6999 1.48273 66.9631 1.11431C66.3315 0.79852 65.2789 0.640625 63.9104 0.640625H55.121V16.4827H58.3315H63.7526C65.0683 16.4827 66.0683 16.3775 66.7525 16.1143C67.4368 15.9038 67.9631 15.4827 68.3841 14.8512C68.8578 14.1669 69.121 13.2722 69.121 12.2196C69.121 10.4301 68.3315 9.21957 66.8052 8.48273C67.4368 8.32483 67.9631 7.79852 68.3841 7.11431ZM64.5947 13.3248C64.3841 13.4827 64.1736 13.588 63.9631 13.6406C63.7526 13.6933 63.3841 13.7459 62.9104 13.7459H58.2789V10.0617H62.9631C63.7526 10.0617 64.2789 10.1669 64.6473 10.3775C65.121 10.6933 65.3315 11.1669 65.3315 11.7985C65.3315 12.3775 65.0683 12.9038 64.5947 13.3248ZM64.5947 6.79852C64.3841 6.95641 64.1736 7.06168 63.9631 7.11431C63.7526 7.16694 63.3841 7.21957 62.9104 7.21957H58.2789V3.53536H62.9631C63.7526 3.53536 64.2789 3.64062 64.6473 3.85115C65.121 4.16694 65.3315 4.64062 65.3315 5.2722C65.3315 5.90378 65.0683 6.4301 64.5947 6.79852Z" fill="url(#paint4_linear_481_182)"/>
<path d="M79.6475 5.27195C79.279 5.16668 78.9106 5.06142 78.5422 5.06142C78.1738 5.00879 77.4896 5.00879 76.5422 5.00879H71.1738V7.48247H76.5422C77.4896 7.48247 78.1211 7.64037 78.4896 7.90353C78.8053 8.16668 78.9632 8.74563 78.9632 9.5351H75.0685C73.8053 9.5351 72.9106 9.64037 72.3843 9.85089C71.7527 10.0614 71.279 10.4825 70.9106 11.0614C70.5422 11.693 70.3317 12.3772 70.3317 13.1667C70.3317 14.4298 70.8054 15.3772 71.7527 16.0088C72.1211 16.2193 72.4896 16.3772 72.9632 16.4825C73.4369 16.5351 74.279 16.5877 75.4369 16.5877H82.1211V10.0088C82.279 7.5351 81.4369 5.95616 79.6475 5.27195ZM79.0159 14.0614H75.3317C74.7001 14.0614 74.279 14.0088 74.0159 13.8509C73.7527 13.693 73.6475 13.4298 73.6475 13.0614C73.6475 12.7456 73.7527 12.4825 73.9632 12.2719C74.1738 12.0614 74.4896 11.9562 74.8053 11.9562H75.3317H79.0159V14.0614Z" fill="url(#paint5_linear_481_182)"/>
<path d="M92.6472 5.16756C92.1735 5.06229 91.4367 4.95703 90.5419 4.95703H84.384V16.536H87.5419V7.43072H90.3314C90.9103 7.43072 91.3314 7.53598 91.5946 7.79914C91.8577 8.06229 91.963 8.48335 91.963 9.06229V16.536H95.1209V9.43072C95.1209 7.79914 94.6998 6.64124 93.9103 5.9044C93.5419 5.53598 93.1209 5.32545 92.6472 5.16756Z" fill="url(#paint6_linear_481_182)"/>
<path d="M28.542 5.00879V14.1141H25.7525C25.1735 14.1141 24.7525 14.0088 24.4893 13.7456C24.2262 13.4825 24.1209 13.0614 24.1209 12.4825V5.00879H20.963V12.1141C20.963 13.7456 21.3841 14.9035 22.1735 15.6404C22.542 16.0088 23.0156 16.2193 23.4893 16.3772C23.963 16.4825 24.6999 16.5877 25.5946 16.5877H31.6999V5.00879H28.542Z" fill="url(#paint7_linear_481_182)"/>
<path d="M9.54208 13.0618L5.59471 0.693359H0.647339V16.5355H3.85786V4.64073L7.80523 16.5355H11.2789L15.4368 4.64073V16.5355H18.6473V0.693359H13.7526L9.54208 13.0618Z" fill="url(#paint8_linear_481_182)"/>
<path d="M47.3841 4.90378H44.4367V0.640625H41.2788V4.90378H39.2262V7.37747H41.2788V12.4827C41.2262 14.2196 41.4894 15.0617 42.1736 15.6933C42.9104 16.3775 43.8051 16.588 45.7525 16.588H47.2788V14.1143H46.4894C44.9104 14.1143 44.4367 13.6406 44.4367 11.9564V7.37747H47.3841V4.90378Z" fill="url(#paint9_linear_481_182)"/>
<path d="M124.858 3.79862L120.016 1.00915C119.279 0.588096 118.384 0.588096 117.7 1.00915L112.858 3.79862C112.121 4.21968 111.7 5.00915 111.7 5.79862V11.4302C111.7 12.2723 112.121 13.0091 112.858 13.4302L117.7 16.2197C118.437 16.6407 119.331 16.6407 120.016 16.2197L124.858 13.4302C125.595 13.0091 126.016 12.2197 126.016 11.4302V5.79862C126.016 4.95652 125.595 4.21968 124.858 3.79862ZM116.331 10.9565C116.331 11.3776 116.016 11.6934 115.595 11.6934C115.174 11.6934 114.858 11.3776 114.858 10.9565V8.00915C114.858 7.5881 115.174 7.27231 115.595 7.27231C116.016 7.27231 116.331 7.5881 116.331 8.00915V10.9565ZM118.489 9.79862C118.489 10.2197 118.174 10.5355 117.752 10.5355C117.331 10.5355 117.016 10.2197 117.016 9.79862V5.5881C117.016 5.16704 117.331 4.85125 117.752 4.85125C118.174 4.85125 118.489 5.16704 118.489 5.5881V9.79862ZM120.7 11.6407C120.7 12.0618 120.384 12.3776 119.963 12.3776C119.542 12.3776 119.226 12.0618 119.226 11.6407V7.37757C119.226 6.95652 119.542 6.64073 119.963 6.64073C120.384 6.64073 120.7 6.95652 120.7 7.37757V11.6407ZM122.858 9.79862C122.858 10.2197 122.542 10.5355 122.121 10.5355C121.7 10.5355 121.384 10.2197 121.384 9.79862V5.5881C121.384 5.16704 121.7 4.85125 122.121 4.85125C122.542 4.85125 122.858 5.16704 122.858 5.5881V9.79862Z" fill="url(#paint10_linear_481_182)"/>
<path d="M146.016 15.0089C145.437 15.5879 144.805 15.9563 144.016 16.2721C143.226 16.5353 142.437 16.6932 141.595 16.6932C140.753 16.6932 139.963 16.5353 139.174 16.2721C138.384 16.0089 137.7 15.5879 137.174 15.0616C136.595 14.4826 136.174 13.851 135.858 13.0616C135.595 12.2721 135.437 11.4826 135.437 10.6405C135.437 9.79842 135.595 9.00894 135.858 8.21947C136.121 7.43 136.595 6.74579 137.174 6.21947C137.753 5.69315 138.384 5.2721 139.174 5.00894C139.963 4.74579 140.753 4.58789 141.595 4.58789C142.437 4.58789 143.226 4.74579 144.016 5.00894C144.805 5.2721 145.489 5.69315 146.016 6.21947C146.595 6.79842 147.016 7.43 147.332 8.21947C147.595 9.00894 147.753 9.79842 147.753 10.6405C147.753 11.4826 147.595 12.2721 147.332 13.0616C147.016 13.7984 146.595 14.4826 146.016 15.0089ZM140.489 13.9563C140.595 14.0089 140.7 14.0616 140.805 14.0616C140.91 14.1142 141.016 14.1142 141.068 14.1142C141.753 14.2195 142.437 14.0616 143.068 13.6932C143.7 13.3247 144.121 12.7984 144.332 12.0616C144.384 11.7984 144.437 11.5353 144.489 11.2721C144.542 11.0089 144.542 10.6932 144.542 10.3774C144.489 9.74579 144.384 9.11421 144.068 8.53526C143.805 7.95631 143.331 7.53526 142.7 7.2721C142.542 7.21947 142.437 7.16684 142.279 7.11421C142.121 7.06157 142.016 7.06157 141.858 7.06157C141.174 7.00894 140.542 7.16684 139.963 7.53526C139.384 7.90368 138.963 8.43 138.753 9.06157C138.7 9.32473 138.647 9.58789 138.595 9.85105C138.542 10.1142 138.542 10.3774 138.542 10.6405C138.542 11.3247 138.7 12.0089 139.016 12.5879C139.331 13.2721 139.858 13.6932 140.489 13.9563Z" fill="url(#paint11_linear_481_182)"/>
<path d="M130.068 16.5351H133.226V5.00879H130.068V16.5351Z" fill="url(#paint12_linear_481_182)"/>
<path d="M133.226 0.693359H130.016V3.79862H133.226V0.693359Z" fill="url(#paint13_linear_481_182)"/>
</g>
<defs>
<linearGradient id="paint0_linear_481_182" x1="94.8731" y1="3.15925" x2="108.084" y2="16.3704" gradientUnits="userSpaceOnUse">
<stop stop-color="#9F762E"/>
<stop offset="0.2" stop-color="#FBC678"/>
<stop offset="0.5" stop-color="#EACA86"/>
<stop offset="0.8" stop-color="#BB9049"/>
<stop offset="1" stop-color="#9F762E"/>
</linearGradient>
<linearGradient id="paint1_linear_481_182" x1="30.7997" y1="3.84015" x2="40.3304" y2="13.3708" gradientUnits="userSpaceOnUse">
<stop stop-color="#9F762E"/>
<stop offset="0.2" stop-color="#FBC678"/>
<stop offset="0.5" stop-color="#EACA86"/>
<stop offset="0.8" stop-color="#BB9049"/>
<stop offset="1" stop-color="#9F762E"/>
</linearGradient>
<linearGradient id="paint2_linear_481_182" x1="47.454" y1="7.07889" x2="54.8262" y2="14.451" gradientUnits="userSpaceOnUse">
<stop stop-color="#9F762E"/>
<stop offset="0.2" stop-color="#FBC678"/>
<stop offset="0.5" stop-color="#EACA86"/>
<stop offset="0.8" stop-color="#BB9049"/>
<stop offset="1" stop-color="#9F762E"/>
</linearGradient>
<linearGradient id="paint3_linear_481_182" x1="49.559" y1="0.647044" x2="52.7061" y2="3.7941" gradientUnits="userSpaceOnUse">
<stop stop-color="#9F762E"/>
<stop offset="0.2" stop-color="#FBC678"/>
<stop offset="0.5" stop-color="#EACA86"/>
<stop offset="0.8" stop-color="#BB9049"/>
<stop offset="1" stop-color="#9F762E"/>
</linearGradient>
<linearGradient id="paint4_linear_481_182" x1="54.0335" y1="1.69752" x2="67.8224" y2="15.4865" gradientUnits="userSpaceOnUse">
<stop stop-color="#9F762E"/>
<stop offset="0.2" stop-color="#FBC678"/>
<stop offset="0.5" stop-color="#EACA86"/>
<stop offset="0.8" stop-color="#BB9049"/>
<stop offset="1" stop-color="#9F762E"/>
</linearGradient>
<linearGradient id="paint5_linear_481_182" x1="70.7295" y1="5.44974" x2="81.9989" y2="16.7191" gradientUnits="userSpaceOnUse">
<stop stop-color="#9F762E"/>
<stop offset="0.2" stop-color="#FBC678"/>
<stop offset="0.5" stop-color="#EACA86"/>
<stop offset="0.8" stop-color="#BB9049"/>
<stop offset="1" stop-color="#9F762E"/>
</linearGradient>
<linearGradient id="paint6_linear_481_182" x1="83.656" y1="5.71724" x2="94.822" y2="16.8832" gradientUnits="userSpaceOnUse">
<stop stop-color="#9F762E"/>
<stop offset="0.2" stop-color="#FBC678"/>
<stop offset="0.5" stop-color="#EACA86"/>
<stop offset="0.8" stop-color="#BB9049"/>
<stop offset="1" stop-color="#9F762E"/>
</linearGradient>
<linearGradient id="paint7_linear_481_182" x1="21.2889" y1="4.65068" x2="32.4536" y2="15.8154" gradientUnits="userSpaceOnUse">
<stop stop-color="#9F762E"/>
<stop offset="0.2" stop-color="#FBC678"/>
<stop offset="0.5" stop-color="#EACA86"/>
<stop offset="0.8" stop-color="#BB9049"/>
<stop offset="1" stop-color="#9F762E"/>
</linearGradient>
<linearGradient id="paint8_linear_481_182" x1="1.18697" y1="0.131359" x2="18.1364" y2="17.0808" gradientUnits="userSpaceOnUse">
<stop stop-color="#9F762E"/>
<stop offset="0.2" stop-color="#FBC678"/>
<stop offset="0.5" stop-color="#EACA86"/>
<stop offset="0.8" stop-color="#BB9049"/>
<stop offset="1" stop-color="#9F762E"/>
</linearGradient>
<linearGradient id="paint9_linear_481_182" x1="38.5845" y1="3.40584" x2="49.5198" y2="14.3411" gradientUnits="userSpaceOnUse">
<stop stop-color="#9F762E"/>
<stop offset="0.2" stop-color="#FBC678"/>
<stop offset="0.5" stop-color="#EACA86"/>
<stop offset="0.8" stop-color="#BB9049"/>
<stop offset="1" stop-color="#9F762E"/>
</linearGradient>
<linearGradient id="paint10_linear_481_182" x1="113.375" y1="3.1311" x2="124.332" y2="14.0874" gradientUnits="userSpaceOnUse">
<stop stop-color="#9F762F"/>
<stop offset="0.2" stop-color="#FCC678"/>
<stop offset="0.5" stop-color="#EACA87"/>
<stop offset="0.8" stop-color="#BA904A"/>
<stop offset="1" stop-color="#9F762F"/>
</linearGradient>
<linearGradient id="paint11_linear_481_182" x1="137.113" y1="6.19042" x2="145.991" y2="15.0682" gradientUnits="userSpaceOnUse">
<stop stop-color="#9F762F"/>
<stop offset="0.2" stop-color="#FCC678"/>
<stop offset="0.5" stop-color="#EACA87"/>
<stop offset="0.8" stop-color="#BA904A"/>
<stop offset="1" stop-color="#9F762F"/>
</linearGradient>
<linearGradient id="paint12_linear_481_182" x1="127.96" y1="7.07889" x2="135.332" y2="14.451" gradientUnits="userSpaceOnUse">
<stop stop-color="#9F762E"/>
<stop offset="0.2" stop-color="#FBC678"/>
<stop offset="0.5" stop-color="#EACA86"/>
<stop offset="0.8" stop-color="#BB9049"/>
<stop offset="1" stop-color="#9F762E"/>
</linearGradient>
<linearGradient id="paint13_linear_481_182" x1="130.065" y1="0.647044" x2="133.212" y2="3.79409" gradientUnits="userSpaceOnUse">
<stop stop-color="#9F762E"/>
<stop offset="0.2" stop-color="#FBC678"/>
<stop offset="0.5" stop-color="#EACA86"/>
<stop offset="0.8" stop-color="#BB9049"/>
<stop offset="1" stop-color="#9F762E"/>
</linearGradient>
<clipPath id="clip0_481_182">
<rect width="147.105" height="16" fill="white" transform="translate(0.647339 0.640625)"/>
</clipPath>
</defs>
</svg>
