<svg width="197" height="16" viewBox="0 0 197 16" fill="none" xmlns="http://www.w3.org/2000/svg">
<g clip-path="url(#clip0_2419_14878)">
<path d="M98.0741 8.55274L101.7 4.56408H98.2555L94.9603 8.42325V0.408569H91.9307V15.4942L94.9603 15.5035V11.9968L96.2691 10.5898L98.9386 15.5035H101.959L98.0741 8.55274Z" fill="url(#paint0_linear_2419_14878)"/>
<path d="M31.6738 14.7386V15.4968L34.7035 15.5062V0.408569H31.6738V14.7386Z" fill="url(#paint1_linear_2419_14878)"/>
<path d="M46.4795 15.4995L49.4998 15.5088H49.5078V4.51465H46.4795V15.4995Z" fill="url(#paint2_linear_2419_14878)"/>
<path d="M49.5061 0.408569H46.4697V3.35601H49.5061V0.408569Z" fill="url(#paint3_linear_2419_14878)"/>
<path d="M64.4037 6.52633C64.8186 5.85221 65.032 5.12603 65.032 4.33711C65.032 3.74041 64.9026 3.15039 64.6412 2.59374C64.281 1.78079 63.7473 1.19745 63.0323 0.84103C62.4239 0.534006 61.45 0.380493 60.1106 0.380493H51.75V15.4661L54.777 15.4754H59.9252C61.1806 15.4754 62.1238 15.3606 62.7628 15.1471C63.3978 14.9241 63.9181 14.533 64.3156 13.9577C64.7826 13.2929 65.0107 12.4653 65.0107 11.4774C65.0107 9.78613 64.285 8.59941 62.8241 7.93197C63.4592 7.67567 63.9888 7.20979 64.401 6.52633H64.4037ZM60.7723 12.4199C60.5882 12.5667 60.3908 12.6642 60.176 12.7122C59.9626 12.7603 59.625 12.7883 59.1648 12.7883H54.781V9.26686H59.2342C59.9679 9.26686 60.4949 9.37499 60.819 9.57922C61.2619 9.86489 61.4754 10.3161 61.4754 10.9275C61.4754 11.5629 61.2473 12.0621 60.7737 12.4199H60.7723ZM60.7723 6.22197C60.5802 6.36614 60.3815 6.46626 60.168 6.51432C59.9612 6.5597 59.6237 6.5904 59.1634 6.5904H54.7797V3.06763H59.2328C59.9666 3.06763 60.4935 3.17575 60.8177 3.38133C61.2606 3.66699 61.4741 4.11552 61.4741 4.72957C61.4741 5.36497 61.2459 5.86155 60.7723 6.22197Z" fill="url(#paint4_linear_2419_14878)"/>
<path d="M75.108 4.78567C74.7558 4.67487 74.4036 4.60546 74.0554 4.56942C73.7059 4.53605 73.0749 4.52136 72.1637 4.52136H67.0462V6.86676H72.1637C73.0775 6.86676 73.6885 7.00159 73.9994 7.26723C74.3129 7.53554 74.469 8.05615 74.469 8.82638H70.7602C69.5596 8.82638 68.7031 8.91983 68.1882 9.10271C67.6078 9.30961 67.1382 9.69807 66.7834 10.2761C66.4258 10.8541 66.2471 11.5135 66.2471 12.2544C66.2471 13.4651 66.6953 14.3729 67.5945 14.9762C67.928 15.1965 68.3082 15.338 68.7445 15.4074C69.1807 15.4728 69.9718 15.5075 71.1124 15.5075H77.488V9.31228C77.5667 6.92283 76.7742 5.4144 75.1053 4.78434L75.108 4.78567ZM74.469 13.1608H70.9697C70.3747 13.1608 69.9531 13.086 69.7063 12.9405C69.4595 12.7923 69.3368 12.54 69.3368 12.1796C69.3368 11.8699 69.4395 11.623 69.6383 11.4414C69.8397 11.2572 70.1159 11.1651 70.4601 11.1651L70.9657 11.1771H74.465V13.1608H74.4676H74.469Z" fill="url(#paint5_linear_2419_14878)"/>
<path d="M87.4284 4.69619C86.9628 4.57338 86.2998 4.51331 85.4313 4.51331H79.5947V15.5035L82.6177 15.5061V6.85737H85.2565C85.8048 6.85737 86.2037 6.98018 86.4479 7.21512C86.6893 7.45941 86.8147 7.84786 86.8147 8.3925V15.5035L89.8377 15.5061V8.73556C89.8377 7.20711 89.4562 6.09248 88.6771 5.39033C88.3062 5.05394 87.8927 4.827 87.4284 4.69752V4.69619Z" fill="url(#paint6_linear_2419_14878)"/>
<path d="M26.5171 4.51465V13.1661H23.8783C23.33 13.1661 22.9312 13.0433 22.687 12.8083C22.4456 12.564 22.3201 12.1756 22.3201 11.631V4.51465H19.2998V11.2852C19.2998 12.8137 19.6813 13.9283 20.4604 14.6304C20.8247 14.9668 21.2395 15.1964 21.7038 15.3259C22.1694 15.4487 22.8324 15.5088 23.7009 15.5088H29.5375V4.51465H26.5171Z" fill="url(#paint7_linear_2419_14878)"/>
<path d="M8.47137 12.1916L4.70795 0.408569H0V15.4968L3.07104 15.5088V4.17163L6.79844 15.5088H10.1083L14.0611 4.17163V15.5088H17.1308V0.408569H12.4349L8.47137 12.1916Z" fill="url(#paint8_linear_2419_14878)"/>
<path d="M44.449 4.44387L41.6635 4.43853V0.396484L38.6672 0.401824V4.44521H36.6914V6.78794H38.6618L38.6592 11.6429C38.6205 13.3129 38.8433 14.0778 39.5223 14.6892C40.22 15.3206 41.0538 15.5235 42.9042 15.5235H44.3423V13.1781H43.5966C42.1104 13.1781 41.6568 12.7028 41.6568 11.1437L41.6542 6.79061H44.4424V4.44521H44.4477L44.449 4.44387Z" fill="url(#paint9_linear_2419_14878)"/>
<path d="M118.083 3.37059L113.469 0.704818C112.783 0.308355 111.937 0.308355 111.251 0.704818L106.637 3.37059C105.951 3.76706 105.528 4.49858 105.528 5.2915V10.6231C105.528 11.416 105.951 12.1475 106.637 12.544L111.251 15.2097C111.937 15.6062 112.783 15.6062 113.469 15.2097L118.083 12.544C118.769 12.1475 119.192 11.416 119.192 10.6231V5.2915C119.192 4.49858 118.769 3.76706 118.083 3.37059ZM109.943 10.1679C109.943 10.559 109.627 10.8753 109.236 10.8753C108.845 10.8753 108.529 10.559 108.529 10.1679V7.3806C108.529 6.98948 108.845 6.67311 109.236 6.67311C109.627 6.67311 109.943 6.98948 109.943 7.3806V10.1679ZM112.025 9.10395C112.025 9.49507 111.709 9.81144 111.318 9.81144C110.927 9.81144 110.611 9.49507 110.611 9.10395V5.0659C110.611 4.67478 110.927 4.35841 111.318 4.35841C111.709 4.35841 112.025 4.67478 112.025 5.0659V9.10395ZM114.108 10.85C114.108 11.2411 113.792 11.5575 113.401 11.5575C113.01 11.5575 112.694 11.2411 112.694 10.85V6.81194C112.694 6.42082 113.01 6.10445 113.401 6.10445C113.792 6.10445 114.108 6.42082 114.108 6.81194V10.85ZM116.192 9.10395C116.192 9.49507 115.875 9.81144 115.485 9.81144C115.094 9.81144 114.777 9.49507 114.777 9.10395V5.0659C114.777 4.67478 115.094 4.35841 115.485 4.35841C115.875 4.35841 116.192 4.67478 116.192 5.0659V9.10395Z" fill="url(#paint10_linear_2419_14878)"/>
<path d="M138.172 14.0644C137.639 14.5971 136.998 14.9895 136.248 15.2418C135.498 15.4941 134.725 15.6209 133.927 15.6209C133.129 15.6209 132.357 15.4941 131.615 15.2418C130.872 14.9895 130.234 14.6037 129.702 14.0858C129.156 13.5532 128.745 12.9151 128.473 12.1716C128.2 11.428 128.063 10.6645 128.063 9.87955C128.063 9.09464 128.2 8.33108 128.473 7.58754C128.745 6.84401 129.156 6.20727 129.702 5.67331C130.234 5.15537 130.876 4.76559 131.625 4.50662C132.375 4.24765 133.149 4.11816 133.948 4.11816C134.747 4.11816 135.5 4.24765 136.249 4.50662C136.999 4.76559 137.639 5.15537 138.173 5.67331C138.72 6.20593 139.13 6.84401 139.402 7.58754C139.675 8.33108 139.813 9.09464 139.813 9.87955C139.813 10.6645 139.675 11.4294 139.402 12.1716C139.13 12.9151 138.719 13.5532 138.173 14.0858V14.0644H138.172ZM132.938 13.0339C133.037 13.0766 133.13 13.1113 133.222 13.1394C133.313 13.1674 133.401 13.1887 133.485 13.2021C134.158 13.2995 134.789 13.1741 135.377 12.823C135.965 12.4732 136.357 11.9606 136.554 11.2879C136.623 11.0503 136.676 10.794 136.711 10.5203C136.746 10.2466 136.763 9.97032 136.763 9.69C136.735 9.07328 136.588 8.4886 136.321 7.93462C136.055 7.38064 135.628 6.9775 135.039 6.72521C134.913 6.66914 134.779 6.62776 134.64 6.59839C134.5 6.57036 134.367 6.549 134.242 6.53565C133.597 6.47959 132.994 6.62642 132.434 6.9775C131.874 7.32858 131.495 7.81848 131.299 8.44988C131.228 8.68883 131.176 8.93712 131.141 9.19609C131.107 9.45506 131.096 9.71136 131.111 9.96365C131.124 10.6231 131.276 11.2425 131.563 11.8245C131.85 12.4065 132.308 12.8163 132.94 13.0553V13.0339H132.938Z" fill="url(#paint11_linear_2419_14878)"/>
<path d="M123.003 15.4995L126.023 15.5088H126.031V4.51465H123.003V15.4995Z" fill="url(#paint12_linear_2419_14878)"/>
<path d="M126.03 0.408569H122.993V3.35601H126.03V0.408569Z" fill="url(#paint13_linear_2419_14878)"/>
<path d="M151.691 0.404419C151.845 0.419103 151.996 0.425777 152.144 0.425777C152.292 0.425777 152.441 0.432452 152.596 0.447135C153.171 0.475168 153.734 0.565941 154.287 0.720788C154.841 0.875635 155.328 1.16264 155.748 1.58313C156.127 1.94755 156.41 2.37472 156.599 2.86596C156.789 3.3572 156.904 3.86178 156.946 4.37972C156.946 4.4785 156.949 4.57595 156.957 4.67473C156.964 4.77352 156.968 4.87096 156.968 4.96974C156.981 6.02164 156.739 6.92936 156.243 7.69292C155.746 8.45781 154.972 8.96507 153.921 9.21737L157.683 15.5047H154.11L150.79 9.57512H147.049V15.5047H143.875V0.404419H151.693H151.691ZM150.935 3.09689H147.047V6.90267H150.935C150.963 6.91735 150.991 6.92402 151.019 6.92402H151.103C151.775 6.92402 152.388 6.82257 152.941 6.61967C153.495 6.41677 153.764 5.88014 153.75 5.01113C153.75 4.11408 153.459 3.57478 152.877 3.3919C152.296 3.21036 151.647 3.11825 150.934 3.11825V3.09689H150.935Z" fill="white"/>
<path d="M161.871 0.404419L165.359 12.0126L168.302 0.404419H172.043L175.426 12.0126L178.684 0.404419H181.942L177.276 15.5034H173.389L170.174 4.23155L167.358 15.5034H163.49L158.487 0.404419H161.871Z" fill="white"/>
<path d="M190.571 0.404419L197.001 15.5034H193.471L192.083 11.9072H185.526L184.182 15.5034H180.84L187.207 0.404419H190.569H190.571ZM186.556 9.21603H191.054L188.763 3.41193L186.556 9.21603Z" fill="white"/>
</g>
<defs>
<linearGradient id="paint0_linear_2419_14878" x1="89.5654" y1="2.774" x2="102.131" y2="15.3316" gradientUnits="userSpaceOnUse">
<stop stop-color="#9F762E"/>
<stop offset="0.2" stop-color="#FBC678"/>
<stop offset="0.5" stop-color="#EACA86"/>
<stop offset="0.8" stop-color="#BB9049"/>
<stop offset="1" stop-color="#9F762E"/>
</linearGradient>
<linearGradient id="paint1_linear_2419_14878" x1="28.6615" y1="3.42275" x2="37.7267" y2="12.4811" gradientUnits="userSpaceOnUse">
<stop stop-color="#9F762E"/>
<stop offset="0.2" stop-color="#FBC678"/>
<stop offset="0.5" stop-color="#EACA86"/>
<stop offset="0.8" stop-color="#BB9049"/>
<stop offset="1" stop-color="#9F762E"/>
</linearGradient>
<linearGradient id="paint2_linear_2419_14878" x1="44.4917" y1="6.5023" x2="51.5039" y2="13.5102" gradientUnits="userSpaceOnUse">
<stop stop-color="#9F762E"/>
<stop offset="0.2" stop-color="#FBC678"/>
<stop offset="0.5" stop-color="#EACA86"/>
<stop offset="0.8" stop-color="#BB9049"/>
<stop offset="1" stop-color="#9F762E"/>
</linearGradient>
<linearGradient id="paint3_linear_2419_14878" x1="46.4924" y1="0.384541" x2="49.4852" y2="3.37687" gradientUnits="userSpaceOnUse">
<stop stop-color="#9F762E"/>
<stop offset="0.2" stop-color="#FBC678"/>
<stop offset="0.5" stop-color="#EACA86"/>
<stop offset="0.8" stop-color="#BB9049"/>
<stop offset="1" stop-color="#9F762E"/>
</linearGradient>
<linearGradient id="paint4_linear_2419_14878" x1="50.7454" y1="1.38433" x2="63.8607" y2="14.4916" gradientUnits="userSpaceOnUse">
<stop stop-color="#9F762E"/>
<stop offset="0.2" stop-color="#FBC678"/>
<stop offset="0.5" stop-color="#EACA86"/>
<stop offset="0.8" stop-color="#BB9049"/>
<stop offset="1" stop-color="#9F762E"/>
</linearGradient>
<linearGradient id="paint5_linear_2419_14878" x1="66.6153" y1="4.95387" x2="77.3344" y2="15.6651" gradientUnits="userSpaceOnUse">
<stop stop-color="#9F762E"/>
<stop offset="0.2" stop-color="#FBC678"/>
<stop offset="0.5" stop-color="#EACA86"/>
<stop offset="0.8" stop-color="#BB9049"/>
<stop offset="1" stop-color="#9F762E"/>
</linearGradient>
<linearGradient id="paint6_linear_2419_14878" x1="78.9037" y1="5.20745" x2="89.5241" y2="15.8213" gradientUnits="userSpaceOnUse">
<stop stop-color="#9F762E"/>
<stop offset="0.2" stop-color="#FBC678"/>
<stop offset="0.5" stop-color="#EACA86"/>
<stop offset="0.8" stop-color="#BB9049"/>
<stop offset="1" stop-color="#9F762E"/>
</linearGradient>
<linearGradient id="paint7_linear_2419_14878" x1="19.62" y1="4.19294" x2="30.239" y2="14.8055" gradientUnits="userSpaceOnUse">
<stop stop-color="#9F762E"/>
<stop offset="0.2" stop-color="#FBC678"/>
<stop offset="0.5" stop-color="#EACA86"/>
<stop offset="0.8" stop-color="#BB9049"/>
<stop offset="1" stop-color="#9F762E"/>
</linearGradient>
<linearGradient id="paint8_linear_2419_14878" x1="0.513619" y1="-0.105364" x2="16.6338" y2="16.0062" gradientUnits="userSpaceOnUse">
<stop stop-color="#9F762E"/>
<stop offset="0.2" stop-color="#FBC678"/>
<stop offset="0.5" stop-color="#EACA86"/>
<stop offset="0.8" stop-color="#BB9049"/>
<stop offset="1" stop-color="#9F762E"/>
</linearGradient>
<linearGradient id="paint9_linear_2419_14878" x1="36.0617" y1="3.00887" x2="46.4619" y2="13.404" gradientUnits="userSpaceOnUse">
<stop stop-color="#9F762E"/>
<stop offset="0.2" stop-color="#FBC678"/>
<stop offset="0.5" stop-color="#EACA86"/>
<stop offset="0.8" stop-color="#BB9049"/>
<stop offset="1" stop-color="#9F762E"/>
</linearGradient>
<linearGradient id="paint10_linear_2419_14878" x1="107.153" y1="2.7472" x2="117.573" y2="13.1623" gradientUnits="userSpaceOnUse">
<stop stop-color="#9F762F"/>
<stop offset="0.2" stop-color="#FCC678"/>
<stop offset="0.5" stop-color="#EACA87"/>
<stop offset="0.8" stop-color="#BA904A"/>
<stop offset="1" stop-color="#9F762F"/>
</linearGradient>
<linearGradient id="paint11_linear_2419_14878" x1="129.716" y1="5.65729" x2="138.161" y2="14.0966" gradientUnits="userSpaceOnUse">
<stop stop-color="#9F762F"/>
<stop offset="0.2" stop-color="#FCC678"/>
<stop offset="0.5" stop-color="#EACA87"/>
<stop offset="0.8" stop-color="#BA904A"/>
<stop offset="1" stop-color="#9F762F"/>
</linearGradient>
<linearGradient id="paint12_linear_2419_14878" x1="121.016" y1="6.5023" x2="128.027" y2="13.5102" gradientUnits="userSpaceOnUse">
<stop stop-color="#9F762F"/>
<stop offset="0.2" stop-color="#FCC678"/>
<stop offset="0.5" stop-color="#EACA87"/>
<stop offset="0.8" stop-color="#BA904A"/>
<stop offset="1" stop-color="#9F762F"/>
</linearGradient>
<linearGradient id="paint13_linear_2419_14878" x1="123.016" y1="0.384541" x2="126.01" y2="3.37687" gradientUnits="userSpaceOnUse">
<stop stop-color="#9F762F"/>
<stop offset="0.2" stop-color="#FCC678"/>
<stop offset="0.5" stop-color="#EACA87"/>
<stop offset="0.8" stop-color="#BA904A"/>
<stop offset="1" stop-color="#9F762F"/>
</linearGradient>
<clipPath id="clip0_2419_14878">
<rect width="197" height="15.2418" fill="white" transform="translate(0 0.37915)"/>
</clipPath>
</defs>
</svg>
