<svg width="1440" height="790" viewBox="0 0 1440 790" fill="none" xmlns="http://www.w3.org/2000/svg">
<g style="mix-blend-mode:luminosity" opacity="0.11">
<path opacity="0.01" fill-rule="evenodd" clip-rule="evenodd" d="M1289.32 1503.18C1145.56 1476.4 958.562 1537.74 876.242 1416.88C793.538 1295.46 874.553 1127.2 945.66 998.64C1002.75 895.424 1124.41 866.249 1219.45 796.386C1346.97 702.645 1430 515.941 1587.92 526.511C1755.02 537.696 1913.16 682.244 1951.11 845.361C1986.14 995.916 1820.07 1105.82 1755.35 1246.19C1706.48 1352.18 1725.61 1499.74 1623.4 1556.1C1520.76 1612.7 1404.54 1524.65 1289.32 1503.18Z" stroke="#138734" stroke-width="2"/>
<path opacity="0.0168067" fill-rule="evenodd" clip-rule="evenodd" d="M1274.48 1489.65C1131.21 1460.36 943.17 1518.43 862.971 1396.15C782.399 1273.31 866.338 1106.49 939.678 979.19C998.562 876.986 1120.71 849.938 1216.95 781.744C1346.09 690.244 1432.37 505.017 1590.08 518.342C1756.96 532.442 1912.56 679.728 1947.65 843.482C1980.05 994.625 1812.09 1101.61 1744.92 1240.83C1694.21 1345.96 1710.76 1493.82 1607.58 1548.39C1503.97 1603.19 1389.31 1513.13 1274.48 1489.65Z" stroke="#138735" stroke-width="2"/>
<path opacity="0.0252101" fill-rule="evenodd" clip-rule="evenodd" d="M1259.77 1476.19C1117.03 1444.4 928.007 1499.18 849.954 1375.52C771.538 1251.29 858.376 1085.96 933.926 959.961C994.585 858.799 1117.19 833.888 1214.61 767.384C1345.32 678.151 1434.82 494.459 1592.27 510.534C1758.88 527.544 1911.88 677.523 1944.12 841.864C1973.87 993.55 1804.07 1097.59 1734.48 1235.61C1681.94 1339.84 1695.91 1487.97 1591.79 1540.74C1487.25 1593.72 1374.17 1501.67 1259.77 1476.19Z" stroke="#138835" stroke-width="2"/>
<path opacity="0.0336134" fill-rule="evenodd" clip-rule="evenodd" d="M1245.18 1462.79C1103.02 1428.52 913.07 1479.99 837.188 1354.99C760.952 1229.4 850.662 1065.61 928.4 940.955C990.815 840.868 1113.83 818.1 1212.4 753.307C1344.65 666.369 1437.34 484.266 1594.49 503.087C1760.77 523.002 1911.14 675.628 1940.5 840.507C1967.6 992.689 1796.01 1093.75 1724.03 1230.54C1669.67 1333.83 1681.05 1482.19 1576.03 1533.12C1470.57 1584.27 1359.13 1490.26 1245.18 1462.79Z" stroke="#138935" stroke-width="2"/>
<path opacity="0.0420168" fill-rule="evenodd" clip-rule="evenodd" d="M1230.72 1449.46C1089.19 1412.71 898.361 1460.86 824.672 1334.56C750.64 1207.66 843.195 1045.46 923.096 922.179C987.248 823.196 1110.65 802.578 1210.33 739.515C1344.07 654.898 1439.93 474.441 1596.72 496.001C1762.63 518.815 1910.31 674.043 1936.79 839.409C1961.23 992.041 1787.9 1090.09 1713.55 1225.6C1657.4 1327.93 1666.19 1476.46 1560.3 1525.56C1453.96 1574.86 1344.17 1478.92 1230.72 1449.46Z" stroke="#148A35" stroke-width="2"/>
<path opacity="0.0504202" fill-rule="evenodd" clip-rule="evenodd" d="M1216.39 1436.21C1075.51 1396.99 883.878 1441.81 812.404 1314.23C740.598 1186.06 835.969 1025.5 918.011 903.634C983.88 805.786 1107.62 787.325 1208.38 726.011C1343.59 643.742 1442.58 464.985 1598.97 489.278C1764.46 514.984 1909.41 672.766 1933 838.569C1954.77 991.603 1779.76 1086.61 1703.04 1220.81C1645.12 1322.14 1651.32 1470.8 1544.58 1518.04C1437.4 1565.48 1329.3 1467.64 1216.39 1436.21Z" stroke="#148A36" stroke-width="2"/>
<path opacity="0.0588235" fill-rule="evenodd" clip-rule="evenodd" d="M1202.18 1423.03C1062.01 1381.36 869.619 1422.82 800.383 1294.02C730.824 1164.62 828.983 1005.75 913.139 885.326C980.706 788.643 1104.75 772.344 1206.57 712.798C1343.19 632.901 1445.28 455.899 1601.23 482.918C1766.24 511.508 1908.41 671.795 1929.1 837.985C1948.2 991.376 1771.56 1083.32 1692.52 1216.15C1632.83 1316.46 1636.43 1465.21 1528.89 1510.58C1420.9 1556.14 1314.53 1456.42 1202.18 1423.03Z" stroke="#148B36" stroke-width="2"/>
<path opacity="0.0672269" fill-rule="evenodd" clip-rule="evenodd" d="M1188.09 1409.92C1048.66 1365.81 855.583 1403.91 788.605 1273.92C721.315 1143.32 822.232 986.19 908.476 867.258C977.721 771.768 1102.03 757.637 1204.87 699.877C1342.87 622.376 1448.04 447.183 1603.48 476.919C1767.97 508.385 1907.33 671.129 1925.11 837.654C1941.53 991.356 1763.31 1080.2 1681.96 1211.64C1620.54 1310.89 1621.54 1459.67 1513.22 1503.16C1404.45 1546.83 1299.84 1445.27 1188.09 1409.92Z" stroke="#148C36" stroke-width="2"/>
<path opacity="0.092437" fill-rule="evenodd" clip-rule="evenodd" d="M1146.53 1371.08C1009.61 1319.74 814.799 1347.68 754.716 1214.36C694.353 1080.42 803.356 928.783 895.706 814.527C969.853 722.793 1094.73 715.187 1200.46 662.888C1342.32 592.715 1456.51 423.267 1610.19 461.098C1772.81 501.129 1903.45 670.943 1912.5 838.171C1920.85 992.521 1738.23 1071.91 1650.11 1198.91C1583.57 1294.81 1576.79 1443.45 1466.34 1481.21C1355.44 1519.12 1256.28 1412.23 1146.53 1371.08Z" stroke="#148E37" stroke-width="2"/>
<path opacity="0.10084" fill-rule="evenodd" clip-rule="evenodd" d="M1132.91 1358.3C996.91 1304.57 801.641 1329.11 743.893 1194.76C685.877 1059.79 797.51 910.081 891.84 797.454C967.577 707.027 1092.57 701.602 1199.19 651.156C1342.25 583.47 1459.39 416.04 1612.38 456.548C1774.28 499.411 1901.94 671.479 1908.07 838.84C1913.72 993.312 1729.74 1069.51 1639.42 1194.95C1571.22 1289.67 1561.84 1438.17 1450.76 1473.99C1339.21 1509.97 1241.93 1401.36 1132.91 1358.3Z" stroke="#148F37" stroke-width="2"/>
<path opacity="0.109244" fill-rule="evenodd" clip-rule="evenodd" d="M1119.41 1345.6C984.366 1289.51 788.698 1310.64 733.304 1175.3C677.653 1039.34 791.881 891.601 888.163 780.637C965.466 691.546 1090.53 688.303 1198.02 639.726C1342.24 574.547 1462.28 409.187 1614.55 452.358C1775.67 498.041 1900.31 672.311 1903.51 839.753C1906.47 994.3 1721.19 1067.27 1628.69 1191.12C1558.85 1284.64 1546.88 1432.94 1435.19 1466.83C1323.02 1500.85 1227.65 1390.56 1119.41 1345.6Z" stroke="#149038" stroke-width="2"/>
<path opacity="0.117647" fill-rule="evenodd" clip-rule="evenodd" d="M1106.02 1333C971.975 1274.56 775.969 1292.26 722.946 1155.99C669.675 1019.07 786.464 873.347 884.668 764.081C963.515 676.352 1088.62 675.293 1196.94 628.599C1342.27 565.947 1465.18 402.707 1616.67 448.529C1776.97 497.016 1898.55 673.435 1898.83 840.908C1899.09 995.483 1712.56 1065.21 1617.92 1187.42C1546.45 1279.71 1531.9 1427.79 1419.63 1459.71C1306.89 1491.77 1213.46 1379.84 1106.02 1333Z" stroke="#159038" stroke-width="2"/>
<path opacity="0.12605" fill-rule="evenodd" clip-rule="evenodd" d="M1092.74 1320.48C959.738 1259.71 763.452 1273.99 712.816 1136.81C661.943 998.988 781.258 855.324 881.353 747.789C961.719 661.45 1086.82 662.573 1195.94 617.777C1342.35 557.671 1468.09 396.601 1618.75 445.06C1778.18 496.338 1896.66 674.851 1894.02 842.303C1891.58 996.859 1703.87 1063.32 1607.11 1183.86C1534.04 1274.89 1516.91 1422.69 1404.1 1452.65C1290.81 1482.74 1199.35 1369.19 1092.74 1320.48Z" stroke="#159138" stroke-width="2"/>
<path opacity="0.134454" fill-rule="evenodd" clip-rule="evenodd" d="M1079.58 1308.06C947.651 1244.98 751.146 1255.83 702.911 1117.78C654.451 979.095 776.255 837.535 878.212 731.763C960.072 646.84 1085.14 650.146 1195.02 607.261C1342.45 549.72 1470.98 390.869 1620.78 441.95C1779.29 496.002 1894.64 676.556 1889.08 843.936C1883.94 998.427 1695.09 1061.6 1596.24 1180.44C1521.6 1270.17 1501.89 1417.65 1388.57 1445.64C1274.79 1473.75 1185.32 1358.62 1079.58 1308.06Z" stroke="#159239" stroke-width="2"/>
<path opacity="0.142857" fill-rule="evenodd" clip-rule="evenodd" d="M1066.52 1295.73C935.712 1230.35 739.048 1237.78 693.229 1098.91C647.198 959.395 771.454 819.983 875.241 716.006C958.571 632.525 1083.56 638.014 1194.17 597.053C1342.59 542.093 1473.87 385.509 1622.75 439.197C1780.3 496.007 1892.47 678.547 1883.99 845.805C1876.16 1000.18 1686.24 1060.05 1585.33 1177.14C1509.14 1265.56 1486.85 1412.67 1373.07 1438.68C1258.8 1464.8 1171.36 1348.13 1066.52 1295.73Z" stroke="#159339" stroke-width="2"/>
<path opacity="0.151261" fill-rule="evenodd" clip-rule="evenodd" d="M1053.56 1283.49C923.921 1215.85 727.156 1219.84 683.769 1080.19C640.179 939.895 766.849 802.673 872.435 700.523C957.209 618.508 1082.08 626.178 1193.39 587.154C1342.75 534.792 1476.74 380.524 1624.67 436.802C1781.19 496.353 1890.17 680.822 1878.77 847.907C1868.25 1002.12 1677.31 1058.67 1574.37 1173.98C1496.64 1261.06 1471.8 1407.76 1357.57 1431.78C1242.87 1455.9 1157.48 1337.72 1053.56 1283.49Z" stroke="#159339" stroke-width="2"/>
<path opacity="0.159664" fill-rule="evenodd" clip-rule="evenodd" d="M1040.72 1271.36C912.273 1201.46 715.469 1202.01 674.525 1061.63C633.39 920.597 762.436 785.606 869.789 685.315C955.981 604.792 1080.7 614.64 1192.68 577.564C1342.92 527.817 1479.59 375.911 1626.51 434.762C1781.97 497.036 1887.71 683.379 1873.4 850.239C1860.18 1004.25 1668.29 1057.45 1563.35 1170.95C1484.12 1256.66 1456.71 1402.9 1342.09 1424.92C1226.99 1447.04 1143.67 1327.39 1040.72 1271.36Z" stroke="#159439" stroke-width="2"/>
<path opacity="0.168067" fill-rule="evenodd" clip-rule="evenodd" d="M1027.97 1259.32C900.768 1187.19 703.984 1184.31 665.496 1043.24C626.829 901.506 758.211 768.788 867.298 670.385C954.883 591.379 1079.41 603.402 1192.02 568.286C1343.11 521.169 1482.41 371.671 1628.27 433.077C1782.63 498.054 1885.1 686.215 1867.87 852.799C1851.98 1006.56 1659.18 1056.4 1552.28 1168.05C1471.56 1252.36 1441.61 1398.11 1326.62 1418.12C1211.15 1438.23 1129.93 1317.14 1027.97 1259.32Z" stroke="#15953A" stroke-width="2"/>
<path opacity="0.176471" fill-rule="evenodd" clip-rule="evenodd" d="M1015.33 1247.39C889.403 1173.05 692.7 1166.73 656.68 1025.01C620.492 882.624 754.17 752.219 864.958 655.736C953.908 578.27 1078.21 592.464 1191.41 559.319C1343.3 514.846 1485.19 367.802 1629.96 431.744C1783.16 499.406 1882.33 689.326 1862.2 855.585C1843.62 1009.04 1649.98 1055.51 1541.15 1165.28C1458.97 1248.17 1426.48 1393.37 1311.16 1411.38C1195.35 1429.46 1116.26 1306.97 1015.33 1247.39Z" stroke="#15963A" stroke-width="2"/>
<path opacity="0.184874" fill-rule="evenodd" clip-rule="evenodd" d="M1002.79 1235.56C878.176 1159.03 681.613 1149.29 648.072 1006.95C614.375 863.958 750.309 735.906 862.764 641.37C953.052 565.469 1077.09 581.83 1190.85 550.666C1343.49 508.851 1487.92 364.305 1631.56 430.764C1783.55 501.089 1879.39 692.711 1856.36 858.593C1835.11 1011.7 1640.69 1054.79 1529.96 1162.64C1446.35 1244.08 1411.33 1388.69 1295.71 1404.68C1179.61 1420.74 1102.66 1296.89 1002.79 1235.56Z" stroke="#15963A" stroke-width="2"/>
<path opacity="0.193277" fill-rule="evenodd" clip-rule="evenodd" d="M990.34 1223.83C867.086 1145.14 670.722 1131.97 639.671 989.071C608.474 845.509 746.622 719.849 860.71 627.29C952.309 552.976 1076.04 571.5 1190.33 542.326C1343.68 503.181 1490.61 361.178 1633.06 430.134C1783.8 503.101 1876.29 696.366 1850.37 861.821C1826.44 1014.53 1631.3 1054.22 1518.71 1160.13C1433.69 1240.1 1396.15 1384.07 1280.27 1398.04C1163.9 1412.07 1089.13 1286.9 990.34 1223.83Z" stroke="#16973B" stroke-width="2"/>
<path opacity="0.201681" fill-rule="evenodd" clip-rule="evenodd" d="M977.99 1212.21C856.128 1131.38 660.025 1114.78 631.472 971.366C602.786 827.282 743.105 704.052 858.791 613.499C951.673 540.795 1075.06 561.475 1189.84 534.3C1343.85 497.837 1493.24 358.42 1634.47 429.852C1783.91 505.439 1873.01 700.288 1844.21 865.266C1817.62 1017.54 1621.82 1053.81 1507.39 1157.74C1420.99 1236.21 1380.94 1379.51 1264.83 1391.46C1148.24 1403.45 1075.67 1277 977.99 1212.21Z" stroke="#16983B" stroke-width="2"/>
<path opacity="0.210084" fill-rule="evenodd" clip-rule="evenodd" d="M965.735 1200.7C845.302 1117.76 649.519 1097.74 623.473 953.844C597.306 809.281 739.754 688.519 857.003 599.998C951.14 528.926 1074.15 551.757 1189.39 526.589C1344.01 492.82 1495.8 356.031 1635.77 429.916C1783.87 508.1 1869.55 704.475 1837.87 868.925C1808.64 1020.71 1612.23 1053.56 1496.01 1155.47C1408.24 1232.43 1365.7 1375.01 1249.41 1384.92C1132.62 1394.89 1062.27 1267.18 965.735 1200.7Z" stroke="#16993B" stroke-width="2"/>
<path opacity="0.218487" fill-rule="evenodd" clip-rule="evenodd" d="M953.572 1189.3C834.605 1104.27 639.201 1080.83 615.67 936.507C592.03 791.509 736.565 673.251 855.34 586.79C950.703 517.372 1073.29 542.346 1188.95 519.193C1344.14 488.128 1498.3 354.009 1636.95 430.326C1783.67 511.082 1865.91 708.923 1831.37 872.794C1799.49 1024.05 1602.53 1053.47 1484.55 1153.33C1395.46 1228.74 1350.44 1370.56 1233.98 1378.45C1117.04 1386.37 1048.93 1257.45 953.572 1189.3Z" stroke="#16993B" stroke-width="2"/>
<path opacity="0.226891" fill-rule="evenodd" clip-rule="evenodd" d="M941.5 1178.01C824.035 1090.91 629.069 1064.07 608.061 919.358C586.955 773.97 733.532 658.252 853.798 573.877C950.358 506.134 1072.49 533.244 1188.54 512.113C1344.25 483.76 1500.72 352.353 1638.02 431.078C1783.31 514.382 1862.08 713.628 1824.69 876.872C1790.17 1027.54 1592.73 1053.52 1473.03 1151.32C1382.63 1225.16 1335.14 1366.17 1218.57 1372.02C1101.51 1377.9 1035.65 1247.82 941.5 1178.01Z" stroke="#169A3C" stroke-width="2"/>
<path opacity="0.235294" fill-rule="evenodd" clip-rule="evenodd" d="M929.516 1166.83C813.589 1077.7 619.121 1047.46 600.642 902.4C582.076 756.666 730.65 643.525 852.371 561.262C950.099 495.214 1071.74 524.451 1188.14 505.349C1344.32 479.718 1503.07 351.061 1638.97 432.17C1782.78 517.998 1858.06 718.588 1817.82 881.154C1780.68 1031.2 1582.82 1053.73 1461.43 1149.42C1369.76 1221.67 1319.81 1361.83 1203.16 1365.65C1086.01 1369.48 1022.43 1238.27 929.516 1166.83Z" stroke="#169B3C" stroke-width="2"/>
<path opacity="0.243697" fill-rule="evenodd" clip-rule="evenodd" d="M917.618 1155.77C803.264 1064.63 609.354 1031 593.409 885.639C577.39 739.603 727.916 629.071 851.053 548.945C949.919 484.613 1071.03 515.969 1187.75 498.901C1344.35 475.999 1505.32 350.133 1639.78 433.602C1782.07 521.926 1853.85 723.799 1810.77 885.639C1771.02 1035.01 1572.8 1054.09 1449.75 1147.64C1356.84 1218.29 1304.45 1357.55 1187.75 1359.33C1070.55 1361.12 1009.28 1228.82 917.618 1155.77Z" stroke="#169C3C" stroke-width="2"/>
<path opacity="0.252101" fill-rule="evenodd" clip-rule="evenodd" d="M905.805 1144.82C793.059 1051.7 599.765 1014.69 586.36 869.075C572.892 722.782 725.324 614.894 849.841 536.929C949.814 474.333 1070.36 507.797 1187.36 492.769C1344.33 472.604 1507.47 349.566 1640.46 435.369C1781.19 526.162 1849.43 729.258 1803.54 890.321C1761.18 1038.98 1562.66 1054.59 1438 1145.98C1343.86 1215 1289.06 1353.32 1172.34 1353.07C1055.13 1352.81 996.174 1219.46 905.805 1144.82Z" stroke="#169C3D" stroke-width="2"/>
<path opacity="0.260504" fill-rule="evenodd" clip-rule="evenodd" d="M894.074 1133.99C782.971 1038.92 590.352 998.54 579.49 852.713C568.577 706.207 722.869 600.996 848.728 525.216C949.778 464.374 1069.73 499.937 1186.96 486.953C1344.27 469.531 1509.53 349.359 1641 437.469C1780.12 530.705 1844.81 734.961 1796.11 895.199C1751.17 1043.1 1552.41 1055.24 1426.17 1144.44C1330.84 1211.8 1273.63 1349.15 1156.93 1346.86C1039.75 1344.56 983.127 1210.2 894.074 1133.99Z" stroke="#169D3D" stroke-width="2"/>
<path opacity="0.268908" fill-rule="evenodd" clip-rule="evenodd" d="M882.423 1123.28C772.996 1026.28 581.112 982.55 572.796 836.556C564.442 689.881 720.546 587.38 847.709 513.808C949.806 454.738 1069.11 492.389 1186.56 481.453C1344.14 466.779 1511.48 349.509 1641.39 439.901C1778.87 535.551 1839.98 740.904 1788.49 900.268C1740.98 1047.36 1542.03 1056.03 1414.25 1143.02C1317.77 1208.7 1258.17 1345.03 1141.53 1340.71C1024.4 1336.36 970.133 1201.03 882.423 1123.28Z" stroke="#169E3D" stroke-width="2"/>
<path opacity="0.277311" fill-rule="evenodd" clip-rule="evenodd" d="M870.851 1112.69C763.133 1013.8 572.041 966.723 566.275 820.606C560.482 673.808 718.351 574.046 846.778 502.705C949.89 445.426 1068.52 485.154 1186.14 476.269C1343.96 464.348 1513.32 350.016 1641.63 442.662C1777.41 540.696 1834.93 747.084 1780.68 905.525C1730.6 1051.76 1531.53 1056.96 1402.25 1141.71C1304.64 1205.7 1242.67 1340.97 1126.12 1334.61C1009.09 1328.21 957.19 1191.96 870.851 1112.69Z" stroke="#179F3D" stroke-width="2"/>
<path opacity="0.285714" fill-rule="evenodd" clip-rule="evenodd" d="M859.355 1102.22C753.379 1001.46 563.138 951.063 559.923 804.867C556.692 657.99 716.279 560.999 845.931 491.91C950.027 436.439 1067.95 478.231 1185.71 471.4C1343.71 462.235 1515.03 350.877 1641.71 445.747C1775.76 546.137 1829.67 753.498 1772.66 910.967C1720.03 1056.31 1520.91 1058.03 1390.17 1140.51C1291.45 1202.79 1227.13 1336.95 1110.71 1328.56C993.809 1320.13 944.297 1182.99 859.355 1102.22Z" stroke="#179F3E" stroke-width="2"/>
<path opacity="0.294118" fill-rule="evenodd" clip-rule="evenodd" d="M847.932 1091.88C743.732 989.284 554.399 935.571 553.736 789.341C553.069 642.431 714.324 548.239 845.163 481.424C950.211 427.778 1067.39 471.622 1185.24 466.847C1343.38 460.441 1516.62 352.089 1641.63 449.157C1773.91 551.87 1824.18 760.14 1764.43 916.591C1709.28 1060.99 1510.15 1059.24 1378 1139.42C1278.21 1199.97 1211.56 1332.99 1095.3 1322.57C978.563 1312.09 931.452 1174.11 847.932 1091.88Z" stroke="#17A03E" stroke-width="2"/>
<path opacity="0.302521" fill-rule="evenodd" clip-rule="evenodd" d="M836.582 1081.66C734.188 977.261 545.821 920.251 547.71 774.033C549.607 627.133 712.482 535.77 844.466 471.248C950.435 419.444 1066.83 465.326 1184.75 462.609C1342.97 458.963 1518.08 353.652 1641.37 452.886C1771.84 557.892 1818.48 767.008 1756 922.392C1698.34 1065.81 1499.27 1060.58 1365.74 1138.45C1264.91 1197.24 1195.94 1329.08 1079.89 1316.63C963.349 1304.12 918.654 1165.34 836.582 1081.66Z" stroke="#17A13E" stroke-width="2"/>
<path opacity="0.310924" fill-rule="evenodd" clip-rule="evenodd" d="M825.301 1071.56C724.744 965.394 537.401 905.106 541.842 758.943C546.303 612.099 710.747 523.592 843.837 461.383C950.694 411.436 1066.27 459.343 1184.22 458.684C1342.48 457.8 1519.4 355.561 1640.94 456.932C1769.56 564.199 1812.54 774.097 1747.36 928.367C1687.2 1070.76 1488.26 1062.06 1353.39 1137.58C1251.54 1194.6 1180.29 1325.22 1064.47 1310.74C948.166 1296.2 905.9 1156.66 825.301 1071.56Z" stroke="#17A23F" stroke-width="2"/>
<path opacity="0.319328" fill-rule="evenodd" clip-rule="evenodd" d="M814.087 1061.6C715.399 953.687 529.137 890.139 536.127 744.075C543.15 597.331 709.114 511.708 843.27 451.831C950.982 403.757 1065.7 453.673 1183.65 455.073C1341.9 456.952 1520.58 357.816 1640.33 461.292C1767.05 570.788 1806.36 781.404 1738.51 934.513C1675.87 1075.83 1477.11 1063.66 1340.94 1136.81C1238.12 1192.05 1164.6 1321.41 1049.05 1304.91C933.014 1288.35 893.189 1148.09 814.087 1061.6Z" stroke="#17A23F" stroke-width="2"/>
<path opacity="0.327731" fill-rule="evenodd" clip-rule="evenodd" d="M802.939 1051.75C706.149 942.141 521.024 875.351 530.563 729.432C540.146 582.833 707.579 500.119 842.759 442.593C951.294 396.406 1065.13 448.317 1183.03 451.775C1341.23 456.415 1521.61 360.413 1639.54 465.963C1764.33 577.654 1799.95 788.924 1729.43 940.825C1664.34 1081.03 1465.82 1065.39 1328.4 1136.16C1224.63 1189.59 1148.86 1317.65 1033.62 1299.13C917.89 1280.55 880.519 1139.61 802.939 1051.75Z" stroke="#17A33F" stroke-width="2"/>
<path opacity="0.336134" fill-rule="evenodd" clip-rule="evenodd" d="M791.854 1042.04C696.992 930.757 513.061 860.746 525.144 715.015C537.284 568.606 706.135 488.827 842.299 433.669C951.623 389.383 1064.53 443.273 1182.36 448.788C1340.45 456.188 1522.48 363.349 1638.55 470.941C1761.37 584.793 1793.3 796.652 1720.14 947.3C1652.62 1086.35 1454.4 1067.25 1315.76 1135.6C1211.07 1187.22 1133.08 1313.93 1018.18 1293.41C902.794 1272.81 867.889 1131.24 791.854 1042.04Z" stroke="#17A43F" stroke-width="2"/>
<path opacity="0.344538" fill-rule="evenodd" clip-rule="evenodd" d="M780.829 1032.46C687.924 919.536 505.242 846.327 519.868 700.829C534.561 554.654 704.778 477.834 841.884 425.06C951.965 382.689 1063.91 438.541 1181.63 446.112C1339.57 456.27 1523.19 366.622 1637.36 476.224C1758.18 592.201 1786.41 804.586 1710.63 953.933C1640.69 1091.78 1442.83 1069.22 1303.02 1135.15C1197.45 1184.93 1117.26 1310.26 1002.73 1287.74C887.725 1265.13 855.296 1122.97 780.829 1032.46Z" stroke="#17A540" stroke-width="2"/>
<path opacity="0.352941" fill-rule="evenodd" clip-rule="evenodd" d="M769.863 1023.01C678.942 908.482 497.567 832.095 514.729 686.875C531.971 540.978 703.503 467.141 841.51 416.768C952.313 376.325 1063.27 434.122 1180.83 443.746C1338.57 456.659 1523.73 370.229 1635.97 481.807C1754.74 599.875 1779.27 812.72 1700.89 960.723C1628.56 1097.33 1431.13 1071.32 1290.19 1134.8C1183.76 1182.73 1101.39 1306.64 987.276 1282.13C872.682 1257.51 842.739 1114.81 769.863 1023.01Z" stroke="#18A540" stroke-width="2"/>
<path opacity="0.361345" fill-rule="evenodd" clip-rule="evenodd" d="M758.953 1013.69C670.045 897.594 490.03 818.054 509.724 673.155C529.51 527.581 702.305 456.749 841.169 408.792C952.661 370.289 1062.59 430.014 1179.97 441.688C1337.46 457.352 1524.1 374.166 1634.37 487.686C1751.07 607.809 1771.87 821.05 1690.93 967.662C1616.22 1102.98 1419.27 1073.54 1277.24 1134.54C1170 1180.61 1085.48 1303.07 971.811 1276.56C857.664 1249.95 830.215 1106.75 758.953 1013.69Z" stroke="#18A640" stroke-width="2"/>
<path opacity="0.369748" fill-rule="evenodd" clip-rule="evenodd" d="M748.097 1004.51C661.228 886.875 482.629 804.205 504.849 659.672C527.173 514.466 701.177 446.66 840.857 401.134C953.004 364.582 1061.88 426.217 1179.03 439.938C1336.22 458.348 1524.28 378.432 1632.57 493.859C1747.15 616.001 1764.23 829.572 1680.73 974.749C1603.67 1108.75 1407.27 1075.87 1264.2 1134.39C1156.17 1178.58 1069.53 1299.54 956.334 1271.05C842.669 1242.45 817.724 1098.79 748.097 1004.51Z" stroke="#18A741" stroke-width="2"/>
<path opacity="0.378151" fill-rule="evenodd" clip-rule="evenodd" d="M737.292 995.456C652.49 876.326 475.361 790.551 500.1 646.428C524.954 501.634 700.115 436.875 840.569 393.794C953.336 359.205 1061.12 422.73 1178.01 438.493C1334.86 459.644 1524.29 383.023 1630.54 500.322C1742.97 624.445 1756.32 838.281 1670.31 981.979C1590.92 1114.61 1395.12 1078.31 1251.05 1134.32C1142.26 1176.62 1053.52 1296.05 940.846 1265.59C827.698 1235.01 805.263 1090.94 737.292 995.456Z" stroke="#18A841" stroke-width="2"/>
<path opacity="0.386555" fill-rule="evenodd" clip-rule="evenodd" d="M726.536 986.54C643.826 865.947 468.221 777.094 495.472 633.425C522.849 489.087 699.114 427.394 840.298 386.771C953.652 354.156 1060.31 419.552 1176.91 437.353C1333.36 461.238 1524.1 387.934 1628.29 507.07C1738.54 633.136 1748.15 847.173 1659.64 989.348C1577.95 1120.57 1382.82 1080.86 1237.79 1134.35C1128.28 1174.74 1037.47 1292.61 925.345 1260.19C812.748 1227.63 792.831 1083.2 726.536 986.54Z" stroke="#18A841" stroke-width="2"/>
<path opacity="0.394958" fill-rule="evenodd" clip-rule="evenodd" d="M715.827 977.759C635.234 855.741 461.207 763.837 490.96 620.665C520.853 476.827 698.168 418.22 840.039 380.067C953.945 349.435 1059.44 416.683 1175.72 436.516C1331.73 463.128 1523.72 393.164 1625.81 514.1C1733.84 642.071 1739.72 856.243 1648.74 996.852C1564.78 1126.63 1370.36 1083.52 1224.43 1134.47C1114.23 1172.94 1021.38 1289.21 909.83 1254.84C797.818 1220.32 780.425 1075.56 715.827 977.759Z" stroke="#18A941" stroke-width="2"/>
<path opacity="0.403361" fill-rule="evenodd" clip-rule="evenodd" d="M705.163 969.115C626.712 845.709 454.314 750.782 486.562 608.151C518.96 464.856 697.271 409.353 839.787 373.682C954.21 345.042 1058.52 414.121 1174.43 435.98C1329.95 465.311 1523.13 398.708 1623.1 521.408C1728.88 651.244 1731.02 865.487 1637.6 1004.49C1551.38 1132.78 1357.75 1086.28 1210.95 1134.68C1100.1 1171.22 1005.23 1285.85 894.3 1249.53C782.907 1213.07 768.044 1068.03 705.163 969.115Z" stroke="#18AA42" stroke-width="2"/>
<path opacity="0.411765" fill-rule="evenodd" clip-rule="evenodd" d="M694.54 960.608C618.255 835.852 447.54 737.93 482.273 595.884C517.167 453.176 696.419 400.793 839.535 367.615C954.441 340.977 1057.53 411.865 1173.04 435.745C1328.03 467.785 1522.34 404.564 1620.15 528.989C1723.65 660.652 1722.05 874.899 1626.22 1012.25C1537.78 1139.02 1344.99 1089.15 1197.36 1134.97C1085.89 1169.58 989.033 1282.53 878.755 1244.29C768.015 1205.88 755.685 1060.6 694.54 960.608Z" stroke="#18AB42" stroke-width="2"/>
<path opacity="0.420168" fill-rule="evenodd" clip-rule="evenodd" d="M683.957 952.239C609.861 826.17 440.881 725.284 478.088 583.866C515.467 441.789 695.606 392.542 839.279 361.867C954.633 337.238 1056.47 409.915 1171.54 435.806C1325.95 470.547 1521.34 410.726 1616.96 536.84C1718.14 670.289 1712.81 884.476 1614.6 1020.13C1523.95 1145.34 1332.06 1092.11 1183.66 1135.35C1071.6 1168.01 972.787 1279.25 863.193 1239.09C753.141 1198.76 743.348 1053.29 683.957 952.239Z" stroke="#18AB42" stroke-width="2"/>
<path opacity="0.428571" fill-rule="evenodd" clip-rule="evenodd" d="M673.412 944.008C601.527 816.666 434.334 712.846 474.002 572.098C513.855 430.695 694.826 384.601 839.013 356.437C954.779 333.825 1055.33 408.268 1169.94 436.164C1323.71 473.594 1520.11 417.193 1613.52 544.956C1712.36 680.151 1703.29 894.212 1602.72 1028.13C1509.91 1151.74 1318.98 1095.17 1169.84 1135.82C1057.23 1166.51 956.491 1276.01 847.614 1233.94C738.282 1191.7 731.03 1046.08 673.412 944.008Z" stroke="#19AC43" stroke-width="2"/>
<path opacity="0.436975" fill-rule="evenodd" clip-rule="evenodd" d="M662.901 935.917C593.249 807.339 427.893 700.618 470.012 560.584C512.327 419.898 694.075 376.968 838.732 351.325C954.875 330.737 1054.11 406.924 1168.21 436.816C1321.31 476.924 1518.67 423.959 1609.83 553.333C1706.3 690.232 1693.49 904.102 1590.6 1036.25C1495.64 1158.21 1305.73 1098.32 1155.91 1136.36C1042.77 1165.08 940.142 1272.81 832.016 1228.85C723.438 1184.7 718.728 1038.98 662.901 935.917Z" stroke="#19AD43" stroke-width="2"/>
<path opacity="0.445378" fill-rule="evenodd" clip-rule="evenodd" d="M652.422 927.966C585.025 798.192 421.557 688.601 466.114 549.323C510.878 409.397 693.347 369.646 838.429 346.532C954.913 327.974 1052.8 405.881 1166.37 437.759C1318.75 480.533 1516.99 431.021 1605.88 561.966C1699.95 700.528 1683.41 914.141 1578.23 1044.47C1481.16 1164.76 1292.32 1101.56 1141.85 1136.98C1028.24 1163.73 923.742 1269.64 816.399 1223.8C708.609 1177.77 706.443 1031.98 652.422 927.966Z" stroke="#19AE43" stroke-width="2"/>
<path opacity="0.453782" fill-rule="evenodd" clip-rule="evenodd" d="M641.973 920.155C576.852 789.225 415.321 676.797 462.301 538.318C509.501 399.195 692.636 362.634 838.099 342.056C954.89 325.533 1051.41 405.137 1164.4 438.993C1316 484.42 1515.09 438.374 1601.68 570.851C1693.31 711.033 1673.04 924.326 1565.61 1052.8C1466.45 1171.38 1278.74 1104.89 1127.68 1137.68C1013.62 1162.44 907.289 1266.52 800.763 1218.81C693.792 1170.9 694.17 1025.1 641.973 920.155Z" stroke="#19AE43" stroke-width="2"/>
<path opacity="0.462185" fill-rule="evenodd" clip-rule="evenodd" d="M631.552 912.485C568.725 780.438 409.182 665.208 458.572 527.571C508.192 389.292 691.937 355.933 837.738 337.896C954.799 323.415 1049.91 404.691 1162.29 440.513C1313.08 488.579 1512.94 446.015 1597.21 579.983C1686.38 721.743 1662.39 934.65 1552.73 1061.23C1451.52 1178.06 1265 1108.31 1113.39 1138.45C998.912 1161.22 890.782 1263.42 785.105 1213.86C678.987 1164.1 681.91 1018.32 631.552 912.485Z" stroke="#19AF44" stroke-width="2"/>
<path opacity="0.470588" fill-rule="evenodd" clip-rule="evenodd" d="M621.156 904.956C560.643 771.833 403.135 653.836 454.919 517.082C506.945 379.69 691.245 349.543 837.338 334.054C954.634 321.617 1048.31 404.541 1160.05 442.319C1309.98 493.009 1510.55 453.94 1592.47 589.358C1679.15 732.653 1651.45 945.108 1539.6 1069.75C1436.36 1184.8 1251.09 1111.8 1098.98 1139.3C984.118 1160.06 874.222 1260.37 769.426 1208.97C664.192 1157.36 669.659 1011.66 621.156 904.956Z" stroke="#19B044" stroke-width="2"/>
<path opacity="0.478992" fill-rule="evenodd" clip-rule="evenodd" d="M610.782 897.569C552.602 763.41 397.177 642.682 451.34 506.852C505.756 370.39 690.554 343.464 836.895 330.526C954.39 320.139 1046.61 404.685 1157.67 444.408C1306.69 497.707 1507.91 462.143 1587.45 598.97C1671.62 743.756 1640.22 955.696 1526.21 1078.37C1420.98 1191.6 1237.01 1115.38 1084.44 1140.22C969.237 1158.97 857.607 1257.34 753.723 1204.12C649.406 1150.68 657.415 1005.1 610.782 897.569Z" stroke="#19B144" stroke-width="2"/>
<path opacity="0.487395" fill-rule="evenodd" clip-rule="evenodd" d="M600.428 890.324C544.598 755.17 391.304 631.749 447.83 496.884C504.619 361.392 689.858 337.696 836.403 327.314C954.061 318.979 1044.79 405.121 1155.14 446.776C1303.21 502.668 1505.02 470.622 1582.16 608.816C1663.79 755.049 1628.69 966.408 1512.56 1087.07C1405.37 1198.45 1222.76 1119.03 1069.78 1141.2C954.267 1157.94 840.937 1254.35 737.998 1199.33C634.629 1144.07 645.178 998.654 600.428 890.324Z" stroke="#19B145" stroke-width="2"/>
<path opacity="0.495798" fill-rule="evenodd" clip-rule="evenodd" d="M590.092 883.221C536.629 747.114 385.512 621.036 444.383 487.179C503.528 352.698 689.153 332.238 835.856 324.416C953.642 318.135 1042.85 405.848 1152.46 449.423C1299.53 507.89 1501.87 479.371 1576.59 618.89C1655.65 766.525 1616.87 977.24 1498.65 1095.86C1389.54 1205.35 1208.34 1122.76 1054.99 1142.25C939.206 1156.97 824.21 1251.39 722.248 1194.58C619.859 1137.53 632.944 992.316 590.092 883.221Z" stroke="#19B245" stroke-width="2"/>
<path opacity="0.504202" fill-rule="evenodd" clip-rule="evenodd" d="M579.771 876.262C528.692 739.242 379.798 610.545 440.996 477.736C502.479 344.308 688.433 327.091 835.25 321.83C953.128 317.606 1040.8 406.862 1149.63 452.343C1295.66 513.369 1498.46 488.385 1570.73 629.188C1647.21 778.18 1604.76 988.186 1484.48 1104.73C1373.47 1212.29 1193.74 1126.55 1040.08 1143.37C924.054 1156.07 807.428 1248.46 706.472 1189.88C605.095 1131.05 620.712 986.087 579.771 876.262Z" stroke="#1AB345" stroke-width="2"/>
<path opacity="0.512605" fill-rule="evenodd" clip-rule="evenodd" d="M569.462 869.445C520.782 731.554 374.157 600.279 437.664 468.558C501.466 336.224 687.692 322.254 834.579 319.557C952.512 317.391 1038.61 408.163 1146.63 455.537C1291.57 519.101 1494.78 497.661 1564.58 639.703C1638.45 790.008 1592.34 999.24 1470.05 1113.66C1357.18 1219.27 1178.97 1130.41 1025.04 1144.54C908.81 1155.21 790.589 1245.56 690.671 1185.22C590.336 1124.64 608.481 979.968 569.462 869.445Z" stroke="#1AB445" stroke-width="2"/>
<path opacity="0.521008" fill-rule="evenodd" clip-rule="evenodd" d="M559.164 862.771C512.897 724.052 368.586 590.238 434.382 459.646C500.484 328.445 686.925 317.728 833.837 317.594C951.79 317.486 1036.29 409.748 1143.47 458.999C1287.28 525.084 1490.83 507.193 1558.14 650.432C1629.37 802.003 1579.62 1010.4 1455.35 1122.67C1340.65 1226.3 1164.02 1134.33 1009.87 1145.78C893.472 1154.42 773.693 1242.69 674.843 1180.62C575.58 1118.29 596.247 973.959 559.164 862.771Z" stroke="#1AB446" stroke-width="2"/>
<path opacity="0.529412" fill-rule="evenodd" clip-rule="evenodd" d="M548.873 856.241C505.034 716.736 363.08 580.423 431.145 450.999C499.527 320.972 686.127 313.51 833.019 315.94C950.956 317.891 1033.83 411.613 1140.13 462.728C1282.77 531.312 1486.6 516.977 1551.41 661.368C1619.98 814.159 1566.59 1021.66 1440.39 1131.74C1323.9 1233.35 1148.9 1138.32 994.574 1147.07C878.04 1153.68 756.739 1239.84 658.987 1176.06C560.828 1112.01 584.01 968.059 548.873 856.241Z" stroke="#1AB546" stroke-width="2"/>
<path opacity="0.537815" fill-rule="evenodd" clip-rule="evenodd" d="M538.587 849.854C497.19 709.605 357.636 570.836 427.95 442.619C498.59 313.805 685.292 309.601 832.119 314.595C950.004 318.604 1031.23 413.758 1136.63 466.72C1278.04 537.783 1482.09 527.007 1544.37 672.508C1610.26 826.472 1553.27 1033.01 1425.16 1140.87C1306.91 1240.43 1133.6 1142.36 979.144 1148.42C862.513 1152.99 739.726 1237.03 643.103 1171.54C546.076 1105.79 571.767 962.268 538.587 849.854Z" stroke="#1AB646" stroke-width="2"/>
<path opacity="0.546219" fill-rule="evenodd" clip-rule="evenodd" d="M528.303 843.611C489.36 702.661 352.25 561.477 424.79 434.507C497.668 306.945 684.415 306.001 831.132 313.556C948.93 319.622 1028.48 416.179 1132.94 470.972C1273.09 544.493 1477.3 537.28 1537.03 683.845C1600.22 838.936 1539.63 1044.44 1409.66 1150.06C1289.7 1247.54 1118.12 1146.46 963.583 1149.82C846.89 1152.36 722.655 1234.23 627.189 1167.08C531.325 1099.64 559.517 956.587 528.303 843.611Z" stroke="#1AB747" stroke-width="2"/>
<path opacity="0.554622" fill-rule="evenodd" clip-rule="evenodd" d="M518.02 837.511C481.543 695.903 346.917 552.348 421.662 426.663C496.756 300.393 683.49 302.707 830.054 312.822C947.727 320.943 1025.58 418.874 1129.07 475.482C1267.92 551.437 1472.22 547.789 1529.38 695.374C1589.86 851.544 1525.69 1055.96 1393.89 1159.29C1272.25 1254.66 1102.46 1150.6 947.89 1151.27C831.169 1151.77 705.525 1231.47 611.246 1162.65C516.573 1093.55 547.257 951.015 518.02 837.511Z" stroke="#1AB747" stroke-width="2"/>
<path opacity="0.563025" fill-rule="evenodd" clip-rule="evenodd" d="M507.734 831.555C473.734 689.331 341.634 543.449 418.562 419.087C495.847 294.147 682.513 299.72 828.877 312.391C946.391 322.564 1022.53 421.839 1125.01 480.245C1262.51 558.611 1466.85 558.53 1521.42 707.09C1579.16 864.292 1511.44 1067.56 1377.86 1168.57C1254.57 1261.81 1086.62 1154.8 932.062 1152.77C815.351 1151.23 688.335 1228.72 595.271 1158.27C501.818 1087.53 534.986 945.551 507.734 831.555Z" stroke="#1AB847" stroke-width="2"/>
<path opacity="0.571429" fill-rule="evenodd" clip-rule="evenodd" d="M497.443 825.742C465.931 682.946 336.397 534.781 415.483 411.781C494.937 288.208 681.477 297.038 827.598 312.262C944.917 324.484 1019.31 425.073 1120.75 485.258C1256.87 566.013 1461.17 569.497 1513.15 718.987C1568.14 877.173 1496.88 1079.23 1361.55 1177.89C1236.65 1268.96 1070.6 1159.04 916.101 1154.31C799.435 1150.74 671.085 1226 579.265 1153.94C487.061 1081.58 522.701 940.197 497.443 825.742Z" stroke="#1AB947" stroke-width="2"/>
<path opacity="0.579832" fill-rule="evenodd" clip-rule="evenodd" d="M487.145 820.072C458.129 676.749 331.201 526.345 412.422 404.744C494.02 282.577 680.378 294.662 826.211 312.433C943.299 326.701 1015.92 428.572 1116.3 490.519C1250.99 573.637 1455.2 580.686 1504.56 731.061C1556.78 890.182 1482 1090.96 1344.98 1187.25C1218.51 1276.13 1054.4 1163.32 900.005 1155.9C783.418 1150.29 653.775 1223.3 563.226 1149.65C472.3 1075.69 510.402 934.951 487.145 820.072Z" stroke="#1BBA48" stroke-width="2"/>
<path opacity="0.588235" fill-rule="evenodd" clip-rule="evenodd" d="M476.837 814.546C450.327 670.738 326.043 518.142 409.373 397.977C493.092 277.253 679.21 292.588 824.711 312.901C941.531 329.211 1012.37 432.334 1111.65 496.023C1244.86 581.479 1448.92 592.091 1495.65 743.304C1545.09 903.313 1466.81 1102.76 1328.13 1196.64C1200.13 1283.29 1038.02 1167.65 883.773 1157.52C767.302 1149.88 636.404 1220.62 547.155 1145.4C457.533 1069.86 498.085 929.813 476.837 814.546Z" stroke="#1BBA48" stroke-width="2"/>
<path opacity="0.596639" fill-rule="evenodd" clip-rule="evenodd" d="M466.516 809.163C442.52 664.914 320.918 510.172 406.333 391.48C492.146 272.235 677.968 290.816 823.092 313.665C939.61 332.011 1008.64 436.355 1106.79 501.767C1238.49 589.535 1442.34 603.707 1486.41 755.712C1533.05 916.559 1451.31 1114.61 1311.01 1206.06C1181.52 1290.46 1021.45 1172 867.404 1159.19C751.085 1149.52 618.972 1217.96 531.049 1141.19C442.759 1064.1 485.75 924.783 466.516 809.163Z" stroke="#1BBB48" stroke-width="2"/>
<path opacity="0.605042" fill-rule="evenodd" clip-rule="evenodd" d="M456.18 803.922C434.706 659.276 315.823 502.436 403.296 385.252C491.177 267.523 676.647 289.344 821.35 314.723C937.53 335.1 1004.72 440.633 1101.72 507.748C1231.87 597.8 1435.44 615.528 1476.85 768.279C1520.68 929.916 1435.5 1126.51 1293.62 1215.49C1162.67 1297.63 1004.7 1176.39 850.899 1160.89C734.766 1149.19 601.479 1215.32 514.909 1137.03C427.978 1058.41 473.393 919.86 456.18 803.922Z" stroke="#1BBC49" stroke-width="2"/>
<path opacity="0.613445" fill-rule="evenodd" clip-rule="evenodd" d="M445.827 798.824C426.88 653.825 310.753 494.934 400.258 379.295C490.18 263.118 675.241 288.172 819.479 316.073C935.286 338.474 1000.63 445.163 1096.44 513.961C1225 606.271 1428.22 627.549 1466.97 781C1507.97 943.377 1419.36 1138.45 1275.96 1224.95C1143.6 1304.78 987.758 1180.81 834.256 1162.63C718.344 1148.9 583.924 1212.69 498.733 1132.9C413.187 1052.78 461.014 915.045 445.827 798.824Z" stroke="#1BBD49" stroke-width="2"/>
<path opacity="0.621849" fill-rule="evenodd" clip-rule="evenodd" d="M435.454 793.868C419.041 648.561 305.704 487.667 397.214 373.608C489.149 259.017 673.745 287.298 817.474 317.712C932.872 342.13 996.342 449.944 1090.94 520.403C1217.87 614.943 1420.69 639.764 1456.75 793.868C1494.91 956.936 1402.92 1150.43 1258.02 1234.42C1124.29 1311.93 970.636 1185.25 817.474 1164.4C701.82 1148.65 566.307 1210.08 482.522 1128.82C398.387 1047.22 448.61 910.336 435.454 793.868Z" stroke="#1BBD49" stroke-width="2"/>
<path opacity="0.630252" fill-rule="evenodd" clip-rule="evenodd" d="M425.059 789.054C411.184 643.482 300.672 480.635 394.159 368.19C488.08 255.222 672.154 286.719 815.331 319.637C930.285 346.066 991.864 454.971 1085.22 527.07C1210.47 623.811 1412.83 652.168 1446.2 806.878C1481.51 970.587 1386.15 1162.45 1239.81 1243.89C1104.74 1319.06 953.329 1189.72 800.554 1166.19C685.192 1148.43 548.627 1207.49 466.274 1124.78C383.576 1041.72 436.18 905.734 425.059 789.054Z" stroke="#1BBE49" stroke-width="2"/>
<path opacity="0.638655" fill-rule="evenodd" clip-rule="evenodd" d="M414.639 784.381C403.306 638.589 295.654 473.838 391.088 363.042C486.967 251.73 670.463 286.435 813.043 321.847C927.519 350.278 987.188 460.241 1079.27 533.958C1202.82 632.871 1404.65 664.755 1435.31 820.024C1467.76 984.324 1369.07 1174.49 1221.33 1253.37C1084.97 1326.17 935.835 1194.2 783.494 1168.02C668.46 1148.24 530.885 1204.91 449.988 1120.77C368.752 1036.28 423.722 901.237 414.639 784.381Z" stroke="#1BBF4A" stroke-width="2"/>
<path opacity="0.647059" fill-rule="evenodd" clip-rule="evenodd" d="M404.191 779.849C395.405 633.882 290.644 467.277 387.998 358.163C485.804 248.541 668.667 286.444 810.607 324.338C924.569 354.763 982.31 465.751 1073.09 541.064C1194.89 642.117 1396.14 677.519 1424.09 833.299C1453.66 998.141 1351.66 1186.56 1202.57 1262.84C1064.97 1333.25 918.156 1198.71 766.295 1169.86C651.624 1148.08 513.081 1202.34 433.664 1116.81C353.915 1030.91 411.234 896.846 404.191 779.849Z" stroke="#1BC04A" stroke-width="2"/>
<path opacity="0.655462" fill-rule="evenodd" clip-rule="evenodd" d="M393.714 775.457C387.476 629.359 285.639 460.951 384.882 353.553C484.587 245.655 666.76 286.743 808.018 327.109C921.431 359.518 977.226 471.496 1066.68 548.382C1186.7 651.546 1387.3 690.455 1412.52 846.699C1439.21 1012.03 1333.94 1198.64 1183.55 1272.31C1044.73 1340.31 900.29 1203.22 748.956 1171.73C634.682 1147.96 495.213 1199.79 417.301 1112.88C339.064 1025.6 398.713 892.559 393.714 775.457Z" stroke="#1CC04A" stroke-width="2"/>
<path opacity="0.663866" fill-rule="evenodd" clip-rule="evenodd" d="M383.204 771.205C379.517 625.021 280.635 454.861 381.737 349.211C483.31 243.07 664.738 287.331 805.27 330.156C918.101 364.539 971.933 477.475 1060.03 555.91C1178.23 661.153 1378.12 703.557 1400.61 860.217C1424.42 1025.99 1315.91 1210.73 1164.24 1281.77C1024.26 1347.33 882.238 1207.75 731.476 1173.62C617.635 1147.85 477.283 1197.24 400.899 1108.99C324.197 1020.36 386.159 888.377 383.204 771.205Z" stroke="#1CC14B" stroke-width="2"/>
<path opacity="0.672269" fill-rule="evenodd" clip-rule="evenodd" d="M372.66 767.093C371.524 620.866 275.627 449.007 378.558 345.137C481.968 240.785 662.596 288.206 802.359 333.477C914.572 369.824 966.425 483.681 1053.14 563.643C1169.49 670.932 1368.61 716.818 1388.36 873.847C1409.27 1040.01 1297.55 1222.83 1144.67 1291.21C1003.57 1354.32 863.999 1212.28 713.856 1175.52C600.481 1147.77 459.288 1194.71 384.457 1105.13C309.313 1015.18 373.569 884.298 372.66 767.093Z" stroke="#1CC24B" stroke-width="2"/>
<path opacity="0.680672" fill-rule="evenodd" clip-rule="evenodd" d="M362.078 763.119C363.495 616.895 270.612 443.388 375.34 341.331C480.555 238.799 660.328 289.365 799.279 337.068C910.841 375.369 960.699 490.114 1046 571.576C1160.46 680.88 1358.75 730.234 1375.76 887.584C1393.76 1054.09 1278.87 1234.93 1124.82 1300.63C982.64 1361.27 845.573 1216.81 696.094 1177.44C583.221 1147.72 441.231 1192.18 367.974 1101.31C294.412 1010.06 360.942 880.322 362.078 763.119Z" stroke="#1CC34B" stroke-width="2"/>
<path opacity="0.689076" fill-rule="evenodd" clip-rule="evenodd" d="M351.457 759.283C355.426 613.106 265.585 438.004 372.078 337.791C479.067 237.111 657.93 290.807 796.027 340.928C906.904 381.169 954.752 496.767 1038.62 579.705C1151.16 690.99 1348.55 743.797 1362.81 901.42C1377.91 1068.21 1259.88 1247.02 1104.71 1310.02C961.485 1368.17 826.96 1221.34 678.191 1179.37C565.855 1147.68 423.11 1189.66 351.45 1097.53C279.492 1005.01 348.276 876.449 351.457 759.283Z" stroke="#1CC34B" stroke-width="2"/>
<path opacity="0.697479" fill-rule="evenodd" clip-rule="evenodd" d="M340.794 755.585C347.314 609.499 260.542 432.856 368.768 334.516C477.497 235.719 655.396 292.528 792.598 345.052C902.756 387.222 948.578 503.637 1030.99 588.027C1141.56 701.259 1338.01 757.503 1349.52 915.351C1361.7 1082.38 1240.57 1259.1 1084.32 1319.39C940.103 1375.02 808.161 1225.87 660.147 1181.31C548.38 1147.67 404.925 1187.15 334.884 1093.78C264.551 1000.01 335.569 872.677 340.794 755.585Z" stroke="#1CC44C" stroke-width="2"/>
<path opacity="0.705882" fill-rule="evenodd" clip-rule="evenodd" d="M330.087 752.022C339.155 606.073 255.479 427.942 365.405 331.506C475.842 234.622 652.722 294.527 788.987 349.437C898.392 393.523 942.176 510.721 1023.1 596.536C1131.68 711.68 1327.11 771.344 1335.87 929.369C1345.13 1096.59 1220.93 1271.17 1063.66 1328.71C918.494 1381.83 789.175 1230.39 641.961 1183.26C530.799 1147.67 386.676 1184.64 318.276 1090.06C249.59 995.085 322.819 869.006 330.087 752.022Z" stroke="#1CC54C" stroke-width="2"/>
<path opacity="0.714286" fill-rule="evenodd" clip-rule="evenodd" d="M319.333 748.596C330.947 602.827 250.393 423.263 361.985 328.761C474.096 233.818 649.904 296.801 785.189 354.081C893.808 400.07 935.54 518.013 1014.95 605.228C1121.51 722.25 1315.87 785.315 1321.87 943.469C1328.21 1110.82 1200.98 1283.21 1042.73 1338C896.659 1388.57 770.003 1234.91 623.634 1185.21C513.11 1147.68 368.364 1182.13 301.624 1086.38C234.606 990.217 310.025 865.434 319.333 748.596Z" stroke="#1CC64C" stroke-width="2"/>
<path opacity="0.722689" fill-rule="evenodd" clip-rule="evenodd" d="M308.53 745.305C322.686 599.76 245.278 418.818 358.502 326.277C472.254 233.306 646.935 299.348 781.201 358.98C889 406.858 928.667 525.511 1006.55 614.098C1111.05 732.962 1304.28 799.41 1307.51 957.644C1310.93 1125.08 1180.72 1295.22 1021.53 1347.25C874.599 1395.26 750.644 1239.41 605.165 1187.16C495.312 1147.71 349.987 1179.63 284.929 1082.72C219.599 985.41 297.184 861.963 308.53 745.305Z" stroke="#1CC64D" stroke-width="2"/>
<path opacity="0.731092" fill-rule="evenodd" clip-rule="evenodd" d="M297.676 742.147C314.37 596.872 240.132 414.607 354.954 324.056C470.31 233.083 643.813 302.164 777.017 364.13C883.964 413.882 921.555 533.21 997.877 623.143C1100.28 743.812 1292.33 813.623 1292.8 971.889C1293.3 1139.36 1160.13 1307.21 1000.06 1356.44C852.315 1401.88 731.099 1243.89 586.554 1189.12C477.406 1147.76 331.546 1177.13 268.189 1079.1C204.568 980.664 284.295 858.589 297.676 742.147Z" stroke="#1DC74D" stroke-width="2"/>
<path opacity="0.739496" fill-rule="evenodd" clip-rule="evenodd" d="M286.768 739.123C305.995 594.161 234.949 410.628 351.334 322.095C468.26 233.149 640.531 305.248 772.633 369.529C878.696 421.14 914.198 541.106 988.939 632.357C1089.23 754.795 1280.02 827.947 1277.73 986.197C1275.3 1153.65 1139.23 1319.15 978.323 1365.58C829.808 1408.44 711.368 1248.35 567.801 1191.07C459.392 1147.81 313.041 1174.63 251.405 1075.51C189.512 975.978 271.357 855.314 286.768 739.123Z" stroke="#1DC84D" stroke-width="2"/>
<path opacity="0.747899" fill-rule="evenodd" clip-rule="evenodd" d="M275.804 736.23C297.558 591.627 229.726 406.881 347.638 320.393C466.099 233.502 637.085 308.595 768.045 375.173C873.191 428.627 906.594 549.194 979.732 641.735C1077.87 765.905 1267.35 842.375 1262.3 1000.56C1256.95 1167.95 1118.01 1331.04 956.321 1374.66C807.08 1414.92 691.452 1252.79 548.907 1193.01C441.269 1147.86 294.473 1172.13 234.576 1071.95C174.429 971.352 258.368 852.135 275.804 736.23Z" stroke="#1DC94D" stroke-width="2"/>
<path opacity="0.756303" fill-rule="evenodd" clip-rule="evenodd" d="M264.782 733.469C289.056 589.267 224.458 403.366 343.862 318.949C463.822 234.138 633.471 312.205 763.249 381.057C867.446 436.338 898.74 557.47 970.251 651.274C1066.2 777.138 1254.33 856.903 1246.52 1014.98C1238.25 1182.25 1096.48 1342.89 934.053 1383.68C784.132 1421.33 671.351 1257.21 529.871 1194.94C423.038 1147.93 275.84 1169.63 217.701 1068.42C159.318 966.786 245.325 849.052 264.782 733.469Z" stroke="#1DC94E" stroke-width="2"/>
<path opacity="0.764706" fill-rule="evenodd" clip-rule="evenodd" d="M253.699 730.838C280.486 587.082 219.142 400.082 340.001 317.761C461.423 235.057 629.684 316.072 758.241 387.18C861.457 444.27 890.632 565.93 960.495 660.968C1054.24 788.487 1240.94 871.523 1230.37 1029.44C1219.18 1196.54 1074.64 1354.68 911.52 1392.63C760.965 1427.66 651.066 1261.59 510.694 1196.87C404.697 1148 257.143 1167.13 200.779 1064.92C144.179 962.279 232.228 846.064 253.699 730.838Z" stroke="#1DCA4E" stroke-width="2"/>
<path opacity="0.773109" fill-rule="evenodd" clip-rule="evenodd" d="M242.553 728.336C271.845 585.069 213.774 397.027 336.051 316.828C458.898 236.256 625.719 320.195 753.016 393.535C855.22 452.419 882.267 574.569 950.461 670.812C1041.96 799.947 1227.19 886.23 1213.86 1043.93C1199.76 1210.81 1052.48 1366.41 888.724 1401.51C737.581 1433.9 630.596 1265.95 491.375 1198.78C386.248 1148.07 238.383 1164.62 183.811 1061.44C129.011 957.83 219.074 843.169 242.553 728.336Z" stroke="#1DCB4E" stroke-width="2"/>
<path opacity="0.781513" fill-rule="evenodd" clip-rule="evenodd" d="M231.342 725.962C263.13 583.228 208.35 394.201 332.008 316.149C456.242 237.733 621.573 324.571 747.57 400.121C848.731 460.78 873.643 583.383 940.146 680.801C1029.38 811.514 1213.07 901.016 1197 1058.46C1179.99 1225.07 1030.01 1378.08 865.666 1410.31C713.981 1440.06 609.944 1270.26 471.916 1200.68C367.69 1148.14 219.558 1162.1 166.795 1057.99C113.812 953.44 205.863 840.368 231.342 725.962Z" stroke="#1DCC4F" stroke-width="2"/>
<path opacity="0.789916" fill-rule="evenodd" clip-rule="evenodd" d="M220.064 723.715C254.338 581.557 202.865 391.603 327.867 315.721C453.45 239.485 617.24 329.195 741.9 406.933C841.987 469.348 864.755 592.367 929.548 690.931C1016.49 823.181 1198.59 915.875 1179.77 1073.02C1159.85 1239.3 1007.23 1389.67 842.348 1419.03C690.166 1446.13 589.108 1274.54 452.316 1202.56C349.023 1148.2 200.67 1159.59 149.732 1054.57C98.5816 949.107 192.592 837.659 220.064 723.715Z" stroke="#1DCC4F" stroke-width="2"/>
<path opacity="0.798319" fill-rule="evenodd" clip-rule="evenodd" d="M208.716 721.593C245.465 580.055 197.316 389.232 323.623 315.542C450.518 241.51 612.717 334.065 736.001 413.967C834.984 478.119 855.601 601.517 918.664 701.197C1003.28 834.944 1183.74 930.802 1162.18 1087.59C1139.36 1253.5 984.137 1401.18 818.77 1427.66C666.139 1452.1 568.091 1278.77 432.576 1204.42C330.247 1148.27 181.718 1157.06 132.621 1051.17C83.3186 944.831 179.259 835.04 208.716 721.593Z" stroke="#1DCD4F" stroke-width="2"/>
<path opacity="0.806723" fill-rule="evenodd" clip-rule="evenodd" d="M197.296 719.596C236.511 578.721 191.699 387.086 319.272 315.612C447.44 243.806 608 339.177 729.87 421.218C827.718 487.088 846.179 610.827 907.493 711.592C989.762 846.796 1168.52 945.789 1144.23 1102.18C1118.52 1267.67 960.738 1412.62 794.935 1436.2C641.901 1457.97 546.893 1282.96 412.696 1206.25C311.362 1148.33 162.703 1154.52 115.461 1047.79C68.0222 940.611 165.865 832.511 197.296 719.596Z" stroke="#1DCE4F" stroke-width="2"/>
<path opacity="0.815126" fill-rule="evenodd" clip-rule="evenodd" d="M185.803 717.722C227.47 577.552 186.009 385.165 314.811 315.928C444.212 246.369 603.083 344.529 723.503 428.684C820.186 496.251 836.484 620.294 896.031 722.114C975.928 858.733 1152.93 960.83 1125.91 1116.77C1097.32 1281.79 937.034 1423.96 770.844 1444.65C617.453 1463.75 525.514 1287.11 392.676 1208.06C292.369 1148.38 143.624 1151.98 98.2522 1044.44C52.6912 936.446 152.405 830.071 185.803 717.722Z" stroke="#1ECF50" stroke-width="2"/>
<path opacity="0.823529" fill-rule="evenodd" clip-rule="evenodd" d="M174.233 715.969C218.34 576.548 180.243 383.466 310.234 316.488C440.829 249.198 597.963 350.115 716.896 436.36C812.385 505.604 826.516 629.912 884.276 732.756C961.777 870.748 1136.97 975.919 1107.23 1131.37C1075.77 1295.86 913.024 1435.21 746.499 1453C592.798 1469.41 503.955 1291.19 372.517 1209.85C273.267 1148.42 124.482 1149.42 80.994 1041.11C37.3245 932.337 138.88 827.719 174.233 715.969Z" stroke="#1ECF50" stroke-width="2"/>
<path opacity="0.831933" fill-rule="evenodd" clip-rule="evenodd" d="M162.585 714.337C209.119 575.707 174.398 381.989 305.537 317.29C437.287 252.29 592.636 355.934 710.045 444.241C804.312 515.141 816.271 639.677 872.228 743.513C947.309 882.837 1120.64 991.05 1088.19 1145.96C1053.86 1309.87 888.712 1446.36 721.901 1461.24C567.937 1474.97 482.218 1295.23 352.22 1211.6C254.057 1148.45 105.277 1146.86 63.6862 1037.8C21.9217 928.283 125.287 825.452 162.585 714.337Z" stroke="#1ED050" stroke-width="2"/>
<path opacity="0.840336" fill-rule="evenodd" clip-rule="evenodd" d="M150.858 712.823C199.804 575.027 168.469 380.733 300.717 318.332C433.582 255.641 587.097 361.981 702.948 452.323C795.963 524.858 805.747 649.583 859.883 754.38C932.521 894.993 1103.94 1006.21 1068.79 1160.53C1031.61 1323.82 864.098 1457.41 697.053 1469.37C542.872 1480.42 460.304 1299.21 331.785 1213.32C234.739 1148.47 86.0094 1144.28 46.3283 1034.51C6.48145 924.282 111.626 823.271 150.858 712.823Z" stroke="#1ED151" stroke-width="2"/>
<path opacity="0.84874" fill-rule="evenodd" clip-rule="evenodd" d="M139.048 711.427C190.391 574.506 162.452 379.695 295.769 319.612C429.707 259.249 581.344 368.252 695.6 460.602C787.335 534.749 794.941 659.627 847.239 765.352C917.412 907.212 1086.86 1021.41 1049.03 1175.09C1009 1337.7 839.184 1468.35 671.956 1477.4C517.606 1485.75 438.213 1303.12 311.213 1215.01C215.313 1148.47 66.6792 1141.69 28.9198 1031.24C-8.99717 920.334 97.8943 821.174 139.048 711.427Z" stroke="#1ED251" stroke-width="2"/>
<path opacity="0.857143" fill-rule="evenodd" clip-rule="evenodd" d="M127.153 710.148C180.878 574.144 156.343 378.875 290.689 321.127C425.66 263.111 575.371 374.744 687.998 469.074C778.425 544.811 783.85 669.802 834.296 776.424C901.982 919.487 1069.41 1036.62 1028.9 1189.62C986.041 1351.51 813.973 1479.17 646.612 1485.3C492.14 1490.96 415.947 1306.97 290.503 1216.65C195.78 1148.45 47.2867 1139.08 11.4607 1027.99C-24.5149 916.439 84.0909 819.16 127.153 710.148Z" stroke="#1ED251" stroke-width="2"/>
<path opacity="0.865546" fill-rule="evenodd" clip-rule="evenodd" d="M115.172 708.983C171.263 573.937 150.139 378.27 285.473 322.876C421.436 267.224 569.176 381.453 680.139 477.734C769.231 555.038 772.474 680.104 821.051 787.591C886.23 931.813 1051.59 1051.85 1008.42 1204.12C962.736 1365.24 788.466 1489.88 621.024 1493.08C466.477 1496.04 393.506 1310.76 269.658 1218.26C176.139 1148.42 27.8322 1136.45 -6.0496 1024.76C-40.0729 912.596 70.2141 817.227 115.172 708.983Z" stroke="#1ED351" stroke-width="2"/>
<path opacity="0.87395" fill-rule="evenodd" clip-rule="evenodd" d="M103.103 707.931C161.542 573.885 143.837 377.878 280.116 324.855C417.03 271.585 562.754 388.374 672.02 486.578C759.749 565.424 760.809 690.528 807.502 798.846C870.154 944.184 1033.39 1067.09 987.572 1218.58C939.085 1378.88 762.666 1500.46 595.194 1500.74C440.618 1501 370.892 1314.47 248.677 1219.83C156.392 1148.36 8.31603 1133.81 -23.6113 1021.54C-55.672 908.804 56.2627 815.374 103.103 707.931Z" stroke="#1ED452" stroke-width="2"/>
<path opacity="0.882353" fill-rule="evenodd" clip-rule="evenodd" d="M90.9438 706.991C151.713 573.985 137.431 377.7 274.615 327.063C412.438 276.19 556.101 395.505 663.637 495.6C749.976 575.966 748.853 701.07 793.649 810.186C853.755 956.595 1014.82 1082.33 966.366 1233C915.088 1392.43 736.575 1510.91 569.123 1508.27C414.567 1505.83 348.106 1318.11 227.562 1221.35C136.538 1148.29 -11.2616 1131.15 -41.2247 1018.34C-71.3129 905.062 42.2353 813.6 90.9438 706.991Z" stroke="#1ED552" stroke-width="2"/>
<path opacity="0.890756" fill-rule="evenodd" clip-rule="evenodd" d="M78.6923 706.161C141.774 574.236 130.92 377.731 268.966 329.496C407.656 281.036 549.215 402.84 654.988 504.797C739.911 586.657 736.604 711.722 779.489 821.604C837.031 969.039 995.882 1097.57 944.801 1247.37C890.749 1405.88 710.195 1521.22 542.814 1515.66C388.324 1510.53 325.15 1321.68 206.312 1222.83C116.577 1148.19 -30.9002 1128.47 -58.8899 1015.16C-86.9965 901.37 28.1306 811.903 78.6923 706.161Z" stroke="#1FD552" stroke-width="2"/>
<path opacity="0.89916" fill-rule="evenodd" clip-rule="evenodd" d="M66.3465 705.439C131.721 574.635 124.298 377.97 263.165 332.152C402.68 286.12 542.092 410.376 646.069 514.164C729.55 597.493 724.061 722.482 765.022 833.095C819.982 981.512 976.566 1112.79 922.878 1261.68C866.067 1419.22 683.528 1531.4 516.27 1522.92C361.893 1515.09 302.024 1325.16 184.93 1224.25C96.5115 1148.06 -50.5996 1125.78 -76.6074 1011.99C-102.724 897.727 13.9472 810.283 66.3465 705.439Z" stroke="#1FD653" stroke-width="2"/>
<path opacity="0.907563" fill-rule="evenodd" clip-rule="evenodd" d="M53.9048 704.824C121.552 575.181 117.562 378.417 257.208 335.029C397.505 291.439 534.727 418.109 636.877 523.695C718.891 608.469 711.222 733.343 750.246 844.654C802.607 994.008 956.876 1128 900.598 1275.93C841.047 1432.45 656.577 1541.43 489.493 1530.03C335.276 1519.51 278.731 1328.57 163.416 1225.63C76.3404 1147.9 -70.3594 1123.06 -94.3774 1008.83C-118.496 894.132 -0.316359 808.737 53.9048 704.824Z" stroke="#1FD753" stroke-width="2"/>
<path opacity="0.915966" fill-rule="evenodd" clip-rule="evenodd" d="M41.3652 704.314C111.265 575.871 110.71 379.067 251.092 338.123C392.127 296.988 527.118 426.034 627.41 533.387C707.932 619.579 698.085 744.3 735.16 856.275C784.907 1006.52 936.813 1143.19 877.963 1290.11C815.688 1445.57 629.345 1551.31 462.485 1536.99C308.475 1523.78 255.271 1331.89 141.77 1226.95C56.0647 1147.72 -90.1792 1120.31 -112.2 1005.69C-134.313 890.584 -14.6612 807.265 41.3652 704.314Z" stroke="#1FD853" stroke-width="2"/>
<path opacity="0.92437" fill-rule="evenodd" clip-rule="evenodd" d="M28.7259 703.907C100.856 576.703 103.736 379.92 244.811 341.432C386.543 302.765 519.261 434.147 617.664 543.234C696.67 630.818 684.647 755.348 719.763 867.953C766.88 1019.04 916.378 1158.34 854.972 1304.21C789.994 1458.56 601.834 1561.03 435.249 1543.81C281.494 1527.91 231.647 1335.12 119.994 1228.22C35.6847 1147.5 -110.059 1117.55 -130.076 1002.55C-150.176 887.082 -29.0887 805.865 28.7259 703.907Z" stroke="#1FD853" stroke-width="2"/>
<path opacity="0.932773" fill-rule="evenodd" clip-rule="evenodd" d="M15.9852 703.602C90.3246 577.676 96.6385 380.973 238.364 344.953C380.749 308.766 511.154 442.444 607.638 553.231C685.103 642.181 670.909 766.483 704.054 879.683C748.527 1031.57 895.571 1173.46 831.629 1318.23C763.967 1471.43 574.047 1570.6 407.789 1550.47C254.334 1531.89 207.859 1338.26 98.0893 1229.43C15.2012 1147.25 -129.997 1114.76 -148.004 999.432C-166.087 883.627 -43.6 804.535 15.9852 703.602Z" stroke="#1FD954" stroke-width="2"/>
<path opacity="0.941176" fill-rule="evenodd" clip-rule="evenodd" d="M3.1413 703.396C79.667 578.787 89.4129 382.224 231.745 348.683C374.74 314.986 502.792 450.92 597.328 563.374C673.229 653.663 656.868 777.697 688.032 891.459C729.848 1044.1 874.393 1188.53 807.934 1332.17C737.609 1484.16 545.987 1580 380.105 1556.97C226.998 1535.72 183.91 1341.3 76.056 1230.57C-5.38525 1146.96 -149.995 1111.94 -165.986 996.32C-182.045 880.216 -58.1964 803.274 3.1413 703.396Z" stroke="#1FDA54" stroke-width="2"/>
<path opacity="0.94958" fill-rule="evenodd" clip-rule="evenodd" d="M-9.80752 703.288C68.8813 580.034 82.0562 383.671 224.952 352.619C368.514 321.423 494.174 459.57 586.733 573.658C661.047 665.257 642.523 788.987 671.697 903.276C710.842 1056.63 852.845 1203.56 783.889 1346.01C710.922 1496.75 517.657 1589.23 352.202 1563.32C199.489 1539.39 159.8 1344.25 53.8956 1231.66C-26.074 1146.64 -170.05 1109.1 -184.021 993.216C-198.051 876.85 -72.879 802.08 -9.80752 703.288Z" stroke="#1FDB54" stroke-width="2"/>
<path opacity="0.957983" fill-rule="evenodd" clip-rule="evenodd" d="M-22.8631 703.277C57.9648 581.415 74.5647 385.311 217.981 356.758C362.065 328.072 485.295 468.392 575.848 584.077C648.553 676.96 627.872 800.347 655.047 915.128C691.51 1069.14 830.927 1218.52 759.496 1359.75C683.909 1509.2 489.059 1598.29 324.081 1569.49C171.809 1542.91 135.533 1347.1 31.609 1232.68C-46.8646 1146.27 -190.164 1106.23 -202.11 990.119C-214.107 873.526 -87.6491 800.953 -22.8631 703.277Z" stroke="#1FDB55" stroke-width="2"/>
<path opacity="0.966387" fill-rule="evenodd" clip-rule="evenodd" d="M-36.0267 703.359C46.9156 582.926 66.9355 387.143 210.828 361.097C355.391 334.93 476.153 477.378 564.674 594.627C635.746 688.764 612.915 811.772 638.083 927.009C671.853 1081.63 808.641 1233.43 734.756 1373.39C656.572 1521.49 460.197 1607.17 295.747 1575.5C143.962 1546.26 111.108 1349.85 9.19776 1233.63C-67.7559 1145.87 -210.334 1103.33 -220.253 987.03C-230.213 870.245 -102.508 799.89 -36.0267 703.359Z" stroke="#20DC55" stroke-width="2"/>
<path opacity="0.97479" fill-rule="evenodd" clip-rule="evenodd" d="M-49.3004 703.534C35.7311 584.567 59.1648 389.163 203.49 365.632C348.488 341.992 466.745 486.527 553.206 605.302C622.625 700.665 597.651 823.256 620.803 938.915C651.869 1094.1 785.988 1248.26 709.671 1386.91C628.915 1533.63 431.074 1615.87 267.202 1581.33C115.951 1549.45 86.5295 1352.5 -13.3373 1234.51C-88.7476 1145.42 -230.562 1100.4 -238.449 983.946C-246.37 867.006 -117.456 798.89 -49.3004 703.534Z" stroke="#20DD55" stroke-width="2"/>
<path opacity="0.983193" fill-rule="evenodd" clip-rule="evenodd" d="M-62.6856 703.799C24.4093 586.334 51.2497 391.369 195.964 370.36C341.352 349.254 457.069 495.831 541.444 616.097C609.187 712.658 582.078 834.794 603.208 950.839C631.561 1106.55 762.969 1263.02 684.244 1400.32C600.939 1545.61 401.693 1624.38 238.449 1586.98C87.7771 1552.47 61.7977 1355.03 -35.9948 1235.32C-109.839 1144.93 -250.846 1097.44 -256.7 980.868C-262.578 863.807 -132.495 797.951 -62.6856 703.799Z" stroke="#20DE55" stroke-width="2"/>
<path opacity="0.991597" fill-rule="evenodd" clip-rule="evenodd" d="M-76.1838 704.153C12.9478 588.226 43.1868 393.758 188.246 375.279C333.98 356.713 447.121 505.287 529.384 627.008C595.432 724.736 566.195 846.38 585.297 962.777C610.928 1118.95 739.585 1277.7 658.475 1413.61C572.648 1557.41 372.058 1632.7 209.491 1592.46C59.4446 1555.32 36.9148 1357.46 -58.7735 1236.06C-131.029 1144.39 -271.185 1094.45 -275.004 977.793C-278.838 860.647 -147.626 797.072 -76.1838 704.153Z" stroke="#20DE56" stroke-width="2"/>
<path fill-rule="evenodd" clip-rule="evenodd" d="M-89.7969 704.593C1.3444 590.239 34.9727 396.329 180.332 380.384C326.368 364.365 436.899 514.891 517.025 638.028C581.357 736.894 550.002 858.01 567.07 974.722C589.971 1131.32 715.838 1292.29 632.369 1426.76C544.045 1569.05 342.171 1640.82 180.332 1597.75C30.956 1558 11.8828 1359.77 -81.6723 1236.73C-152.317 1143.81 -291.58 1091.43 -293.362 974.722C-295.151 857.527 -162.849 796.251 -89.7969 704.593Z" stroke="#20DF56" stroke-width="2"/>
</g>
</svg>
