<svg width="210" height="58" viewBox="0 0 210 58" fill="none" xmlns="http://www.w3.org/2000/svg">
<g clip-path="url(#clip0_257_27564)">
<path d="M4.45627 47.4964C4.4511 47.5119 7.48587 45.7852 11.3478 43.5828C7.48587 45.7903 4.46144 47.5274 4.47695 47.5326C4.47695 47.5326 16.6677 68.3417 34.0181 49.5334C35.6001 47.817 37.0425 45.8369 38.7124 43.407C38.7124 43.407 38.6814 42.8073 38.1954 42.5539C37.7095 42.3058 33.3667 40.4291 33.3667 40.4291C33.3667 40.4291 32.7773 40 32.1621 40.7755C31.5469 41.551 27.2403 46.7158 22.9079 46.8967C22.9079 46.8967 32.5964 44.5444 27.3747 34.4319C21.3155 24.8003 14.3671 31.9503 14.3671 31.9503C16.7194 28.3107 23.3628 27.2198 24.3399 27.0854C25.3171 26.951 25.2447 26.222 25.2447 26.222C25.2447 26.222 25.8392 21.5277 25.8702 20.9797C25.9013 20.4317 25.3998 20.1008 25.3998 20.1008C22.4581 20.3076 20.0179 20.5402 17.7379 21.0314C-7.27436 26.4288 4.45627 47.4964 4.45627 47.4964Z" fill="#677403"/>
<path d="M5.55257 46.7881C5.5474 46.7881 5.55774 46.8036 5.57842 46.8347C5.59393 46.8657 5.60427 46.8812 5.60427 46.8812C5.60427 46.8812 5.60427 46.8812 5.60427 46.876C6.57623 48.4167 19.8372 68.4761 36.9808 43.438L33.0671 41.7216C33.0671 41.7216 26.6874 49.5334 20.7212 48.1478C20.7212 48.1478 26.5478 43.8206 27.3233 41.4372C28.0884 39.0901 26.6408 35.9622 26.16 35.104C26.1549 35.0989 26.1549 35.0937 26.1497 35.0833C26.1445 35.0782 26.1445 35.073 26.1394 35.0627C25.643 34.2096 23.6836 31.3765 21.2744 30.844C18.829 30.3011 12.1391 33.1188 12.1391 33.1188C13.9796 27.2767 23.9473 25.7516 23.9473 25.7516L24.4488 21.5019C-5.82134 23.5543 4.72021 45.1699 5.55257 46.7881ZM11.2499 43.5983C12.8784 42.6677 14.6982 41.6285 16.4974 40.5997C14.7034 41.6285 12.8784 42.6677 11.2499 43.5983Z" fill="#778602"/>
<mask id="mask0_257_27564" style="mask-type:luminance" maskUnits="userSpaceOnUse" x="3" y="21" width="34" height="35">
<path d="M5.55748 46.7985C5.55231 46.7985 5.56265 46.814 5.57816 46.8398C5.59367 46.8709 5.59884 46.8812 5.59884 46.8812C5.59884 46.8812 5.59884 46.8812 5.59884 46.876C6.51909 48.3443 19.8059 68.5382 36.9805 43.4483L33.0668 41.7267C33.0668 41.7267 26.6871 49.5386 20.721 48.153C20.721 48.153 26.5475 43.8257 27.323 41.4424C28.083 39.1107 26.6457 35.9881 26.1546 35.0989C26.1494 35.0885 26.1443 35.0782 26.1391 35.073C26.1339 35.0627 26.1287 35.0523 26.1236 35.0472C25.6066 34.1734 23.6627 31.3765 21.269 30.844C18.8236 30.3011 12.1337 33.1188 12.1337 33.1188C13.9742 27.2767 23.9419 25.7516 23.9419 25.7516L24.4433 21.5019C-5.88364 23.5595 4.76648 45.2578 5.55748 46.7985Z" fill="white"/>
</mask>
<g mask="url(#mask0_257_27564)">
<path opacity="0.79" d="M19.7804 49.0939C25.608 49.0939 30.3323 44.3697 30.3323 38.5421C30.3323 32.7144 25.608 27.9902 19.7804 27.9902C13.9527 27.9902 9.22849 32.7144 9.22849 38.5421C9.22849 44.3697 13.9527 49.0939 19.7804 49.0939Z" fill="url(#paint0_radial_257_27564)"/>
</g>
<mask id="mask1_257_27564" style="mask-type:luminance" maskUnits="userSpaceOnUse" x="3" y="21" width="34" height="35">
<path d="M5.55748 46.7985C5.55231 46.7985 5.56265 46.814 5.57816 46.8398C5.59367 46.8709 5.59884 46.8812 5.59884 46.8812C5.59884 46.8812 5.59884 46.8812 5.59884 46.876C6.51909 48.3443 19.8059 68.5382 36.9805 43.4483L33.0668 41.7267C33.0668 41.7267 26.6871 49.5386 20.721 48.153C20.721 48.153 26.5475 43.8257 27.323 41.4424C28.083 39.1107 26.6457 35.9881 26.1546 35.0989C26.1494 35.0885 26.1443 35.0782 26.1391 35.073C26.1339 35.0627 26.1287 35.0523 26.1236 35.0472C25.6066 34.1734 23.6627 31.3765 21.269 30.844C18.8236 30.3011 12.1337 33.1188 12.1337 33.1188C13.9742 27.2767 23.9419 25.7516 23.9419 25.7516L24.4433 21.5019C-5.88364 23.5595 4.76648 45.2578 5.55748 46.7985Z" fill="white"/>
</mask>
<g mask="url(#mask1_257_27564)">
<path opacity="0.52" d="M12.9404 31.9297C8.11685 31.5419 5.27854 34.101 6.60205 37.6373C7.92556 41.1735 12.9094 44.3582 17.733 44.746C22.5566 45.1337 25.3949 42.5746 24.0713 39.0383C22.7478 35.4969 17.764 32.3174 12.9404 31.9297Z" fill="url(#paint1_radial_257_27564)"/>
</g>
<mask id="mask2_257_27564" style="mask-type:luminance" maskUnits="userSpaceOnUse" x="3" y="21" width="34" height="35">
<path d="M5.55748 46.7985C5.55231 46.7985 5.56265 46.814 5.57816 46.8398C5.59367 46.8709 5.59884 46.8812 5.59884 46.8812C5.59884 46.8812 5.59884 46.8812 5.59884 46.876C6.51909 48.3443 19.8059 68.5382 36.9805 43.4483L33.0668 41.7267C33.0668 41.7267 26.6871 49.5386 20.721 48.153C20.721 48.153 26.5475 43.8257 27.323 41.4424C28.083 39.1107 26.6457 35.9881 26.1546 35.0989C26.1494 35.0885 26.1443 35.0782 26.1391 35.073C26.1339 35.0627 26.1287 35.0523 26.1236 35.0472C25.6066 34.1734 23.6627 31.3765 21.269 30.844C18.8236 30.3011 12.1337 33.1188 12.1337 33.1188C13.9742 27.2767 23.9419 25.7516 23.9419 25.7516L24.4433 21.5019C-5.88364 23.5595 4.76648 45.2578 5.55748 46.7985Z" fill="white"/>
</mask>
<g mask="url(#mask2_257_27564)">
<path opacity="0.52" d="M12.5992 44.8752C12.7698 49.7091 15.6392 52.2373 18.9996 50.5105C22.3653 48.7889 24.9503 43.469 24.7745 38.6351C24.5987 33.8012 21.7345 31.2731 18.3741 32.9998C15.0084 34.7214 12.4234 40.0361 12.5992 44.8752Z" fill="url(#paint2_radial_257_27564)"/>
</g>
<path d="M4.27499 39.8965C4.27499 39.8965 3.76317 40.6617 3.57188 41.0804C3.57188 41.0804 3.43746 40.4704 3.41678 40.3463L4.27499 39.8965Z" fill="#389A00"/>
<path d="M20.0487 38.6144L13.9585 42.0938L15.4061 45.2888L20.0487 38.6144Z" fill="white"/>
<path d="M10.929 51.5497C10.929 51.5497 10.0088 51.6014 9.55383 51.5548C9.55383 51.5548 10.0088 51.9788 10.107 52.0615L10.929 51.5497Z" fill="#389A00"/>
<path d="M5.55768 46.7881C5.55768 46.7881 19.1805 69.4584 36.991 43.4432L33.0722 41.7216C33.0722 41.7216 24.7434 52.1752 17.8467 46.7261L15.5616 45.3767L13.7779 42.1196L5.55768 46.7881Z" fill="url(#paint3_radial_257_27564)"/>
<path d="M12.0044 50.9603C12.0044 50.9603 18.7253 57.6347 27.3747 51.9788L27.4677 52.5578C27.4677 52.5578 19.1545 59.2891 10.4379 51.5135L10.1846 51.0637L12.0044 50.9603Z" fill="url(#paint4_linear_257_27564)"/>
<path d="M9.54868 51.5497C9.54868 51.5497 12.5317 51.9064 15.4838 50.769L15.0082 49.0371L17.2674 49.0009L19.8059 38.7488L19.0976 39.1262L9.54868 51.5497Z" fill="url(#paint5_radial_257_27564)"/>
<path d="M9.55383 51.5548C9.55383 51.5548 12.5369 51.9116 15.4889 50.7742L15.0133 49.0422L17.2726 49.006L19.811 38.754L19.1027 39.1314L16.8125 48.3857L14.1758 48.4115L14.76 50.3606C14.76 50.3606 11.9941 51.2705 10.531 50.7432L9.55383 51.5548Z" fill="#677403"/>
<path d="M5.604 46.8864C5.604 46.8864 -7.00554 23.6371 24.4485 21.507L23.947 25.7567C23.947 25.7567 10.593 27.8299 11.87 36.3862L11.901 38.9815L13.8036 42.1714L5.604 46.8864Z" fill="url(#paint6_linear_257_27564)"/>
<path d="M3.5567 41.0805C3.5567 41.0805 4.76647 38.3301 7.24288 36.3603L8.49401 37.6528L9.67793 35.7244L19.8007 38.7489L19.1131 39.1676L3.5567 41.0805Z" fill="url(#paint7_radial_257_27564)"/>
<path opacity="0.41" d="M5.55748 43.5931C7.78573 42.3213 10.4017 42.7039 11.3995 44.4565C12.3973 46.2091 11.3995 48.6545 9.17128 49.9263C6.94302 51.1981 4.32702 50.8155 3.32922 49.0629C2.33142 47.3103 3.32922 44.8649 5.55748 43.5931Z" fill="url(#paint8_radial_257_27564)"/>
<path opacity="0.77" d="M11.1514 35.6055C11.1514 35.6055 10.6189 29.3344 18.8184 26.3565L18.1153 25.2397C18.1153 25.2397 10.1536 28.9311 11.1514 35.6055Z" fill="url(#paint9_linear_257_27564)"/>
<path d="M5.32511 39.271C5.32511 39.271 2.99346 30.0892 12.2529 25.5138L11.8031 25.1364C11.8031 25.1364 1.78369 28.8794 4.0533 40.3361L4.30663 40.7858L5.32511 39.271Z" fill="url(#paint10_linear_257_27564)"/>
<path d="M3.56702 41.0805C3.56702 41.0805 4.77679 38.3301 7.2532 36.3603L8.50433 37.6528L9.68825 35.7244L19.811 38.7489L19.1234 39.1676L9.98811 36.4379L8.62324 38.6972L7.24286 37.203C7.24286 37.203 5.05597 39.1263 4.76645 40.6514L3.56702 41.0805Z" fill="#677403"/>
<path d="M20.054 38.6144L13.9638 42.0938L11.9424 39.2245L20.054 38.6144Z" fill="white"/>
<path d="M20.0487 38.6093L13.9585 42.0887L15.4061 45.2889L20.0487 38.6093Z" fill="white"/>
<path d="M11.165 51.4162C15.0847 49.1772 16.772 44.7533 14.9338 41.5352C13.0955 38.3172 8.42778 37.5235 4.50809 39.7626C0.588397 42.0016 -1.09894 46.4255 0.739319 49.6436C2.57758 52.8616 7.24532 53.6553 11.165 51.4162Z" fill="#677403"/>
<path d="M5.16456 40.9047C8.46299 39.0177 12.3353 39.5915 13.8139 42.1817C15.2925 44.7718 13.8191 48.396 10.5155 50.283C7.21186 52.1701 3.34473 51.591 1.86612 49.0009C0.387512 46.4107 1.86095 42.7866 5.16456 40.9047Z" fill="url(#paint11_radial_257_27564)"/>
<path opacity="0.77" d="M18.1201 47.8066C18.1201 47.8066 23.2487 51.4515 29.98 45.9041L30.5849 47.0777C30.5849 47.0725 23.3625 52.0563 18.1201 47.8066Z" fill="url(#paint12_linear_257_27564)"/>
<path opacity="0.56" d="M27.3387 41.4476C28.0987 39.1159 26.6615 35.9933 26.1703 35.104C26.1652 35.0937 26.16 35.0834 26.1548 35.0782C26.1496 35.0678 26.1445 35.0575 26.1393 35.0523C25.6223 34.1786 23.6784 31.3817 21.2847 30.8492C20.7212 30.7251 19.925 30.7768 19.041 30.937L19.2271 31.2783C19.7544 31.2266 20.2249 31.2317 20.5919 31.3145C22.9856 31.847 24.9295 34.6387 25.4465 35.5176C25.4517 35.528 25.4569 35.5383 25.462 35.5435C25.4672 35.5538 25.4724 35.5642 25.4776 35.5693C25.9739 36.4586 27.406 39.5812 26.646 41.9129C26.5064 42.3368 26.2065 42.828 25.8084 43.3398L25.9273 43.5569C26.6098 42.7969 27.1371 42.0576 27.3387 41.4476Z" fill="url(#paint13_linear_257_27564)"/>
<path d="M5.70252 41.7164C8.51498 40.2791 11.71 40.9047 12.8371 43.1123C13.9641 45.3198 12.5941 48.2719 9.78162 49.7091C6.96916 51.1464 3.77412 50.5208 2.64707 48.3133C1.52002 46.1057 2.89006 43.1536 5.70252 41.7164Z" fill="url(#paint14_linear_257_27564)"/>
<path d="M54.4601 47.7808C54.4756 47.7756 51.477 45.992 47.6461 43.7275C51.477 45.9868 54.486 47.7601 54.4808 47.7394C54.4808 47.7394 66.5268 26.8476 41.5921 21.0831C39.3173 20.5558 36.8822 20.2869 33.9405 20.0388C33.9405 20.0388 33.4339 20.3645 33.4597 20.9125C33.4804 21.4605 34.0077 26.16 34.0077 26.16C34.0077 26.16 33.925 26.8838 34.9021 27.0337C35.8793 27.1836 42.502 28.3676 44.8026 32.0486C44.8026 32.0486 37.9628 24.7951 31.7588 34.3337C26.3872 44.3634 36.0447 46.8605 36.0447 46.8605C31.7123 46.6175 27.4833 41.3855 26.8835 40.6049C26.2787 39.8242 25.6841 40.243 25.6841 40.243C25.6841 40.243 21.3103 42.0524 20.8243 42.2954C20.3332 42.5384 20.2918 43.1381 20.2918 43.1381C21.9255 45.5939 23.3369 47.5946 24.8983 49.3369C41.9643 68.4089 54.4601 47.7808 54.4601 47.7808Z" fill="#094CB5"/>
<path d="M53.302 47.1759C53.3072 47.1759 53.3072 47.181 53.302 47.1759C53.302 47.181 53.3124 47.1655 53.3331 47.1293C53.3537 47.0983 53.3641 47.0828 53.3641 47.0828C53.3641 47.0828 53.3641 47.0828 53.3589 47.0828C54.2171 45.475 65.0792 24.0196 34.8401 21.5225L35.2796 25.7774C35.2796 25.7774 45.2266 27.4525 46.9792 33.3204C46.9792 33.3204 40.3358 30.4045 37.88 30.906C35.4605 31.4023 33.4597 34.2096 32.9531 35.0523C32.9479 35.0575 32.9479 35.0627 32.9427 35.0678C32.9376 35.073 32.9376 35.0782 32.9324 35.0833C32.4361 35.9364 30.942 39.0384 31.6761 41.401C32.4154 43.7947 38.1747 48.2099 38.1747 48.2099C32.1879 49.5024 25.9271 41.5975 25.9271 41.5975L21.9824 43.2726C38.7486 68.564 52.3094 48.701 53.302 47.1759ZM47.7081 43.8102C46.0951 42.859 44.2856 41.7888 42.5072 40.7341C44.2908 41.7836 46.0951 42.8538 47.7081 43.8102Z" fill="#064996"/>
<mask id="mask3_257_27564" style="mask-type:luminance" maskUnits="userSpaceOnUse" x="21" y="21" width="35" height="36">
<path d="M53.3072 47.1655C53.3124 47.1707 53.3124 47.1707 53.3072 47.1655C53.3072 47.1707 53.3175 47.1552 53.3331 47.1242C53.3486 47.0983 53.3589 47.0828 53.3589 47.0828C53.3589 47.0828 53.3589 47.0828 53.3537 47.0828C54.1706 45.5525 65.1412 24.0145 34.8401 21.5122L35.2796 25.7671C35.2796 25.7671 45.2266 27.4421 46.9792 33.31C46.9792 33.31 40.3358 30.3942 37.88 30.8957C35.476 31.392 33.4752 34.1838 32.9479 35.0523C32.9427 35.0627 32.9376 35.073 32.9324 35.0782C32.9272 35.0885 32.9221 35.0988 32.9169 35.104C32.4102 35.9829 30.9471 39.059 31.6709 41.401C32.4102 43.7947 38.1696 48.2099 38.1696 48.2099C32.1828 49.5024 25.9219 41.5975 25.9219 41.5975L21.9824 43.2726C38.7848 68.6157 52.3663 48.6183 53.3072 47.1655Z" fill="white"/>
</mask>
<g mask="url(#mask3_257_27564)">
<path opacity="0.74" d="M39.0948 49.4507C44.9225 49.4507 49.6467 44.7264 49.6467 38.8988C49.6467 33.0711 44.9225 28.3469 39.0948 28.3469C33.2672 28.3469 28.5429 33.0711 28.5429 38.8988C28.5429 44.7264 33.2672 49.4507 39.0948 49.4507Z" fill="url(#paint15_radial_257_27564)"/>
</g>
<path d="M47.9508 51.6996C47.9508 51.6996 48.8711 51.7668 49.326 51.7255C49.326 51.7255 48.8659 52.1442 48.7677 52.2218L47.9508 51.6996Z" fill="#389A00"/>
<path d="M39.0224 38.63L45.0609 42.1972L47.1185 39.3589L39.0224 38.63Z" fill="white"/>
<path d="M54.7804 40.1498C54.7804 40.1498 55.2819 40.9253 55.468 41.3441C55.468 41.3441 55.6128 40.7392 55.6335 40.6151L54.7804 40.1498Z" fill="#389A00"/>
<path d="M53.302 47.1759C53.302 47.1759 66.2528 24.1179 34.8349 21.5225L35.2744 25.7774C35.2744 25.7774 48.4836 27.8402 47.1601 36.5258L47.1188 39.1831L45.1697 42.3471L53.302 47.1759Z" fill="url(#paint16_radial_257_27564)"/>
<path d="M53.7363 39.5037C53.7363 39.5037 56.2076 30.358 47.0102 25.643L47.4703 25.2759C47.4703 25.2759 57.4328 29.1689 54.9926 40.5893L54.7289 41.034L53.7363 39.5037Z" fill="url(#paint17_linear_257_27564)"/>
<path d="M55.4632 41.3493C55.4632 41.3493 54.2948 38.5834 51.8494 36.5775L50.5776 37.8493L49.4247 35.9002L39.2606 38.7695L39.9379 39.1986L55.4632 41.3493Z" fill="url(#paint18_radial_257_27564)"/>
<path d="M55.4632 41.3442C55.4632 41.3442 54.2948 38.5782 51.8494 36.5723L50.5776 37.8441L49.4247 35.9002L39.2606 38.7695L39.9379 39.1986L49.1145 36.6085L50.4432 38.8884L51.8494 37.415C51.8494 37.415 54.0105 39.3692 54.2742 40.8996L55.4632 41.3442Z" fill="#094CB5"/>
<path d="M53.3641 47.088C53.3641 47.088 39.4052 69.5515 21.9824 43.2777L25.9219 41.613C25.9219 41.613 34.3335 52.1907 41.1371 46.8398L43.3809 45.5267L45.2111 42.2954L53.3641 47.088Z" fill="url(#paint19_linear_257_27564)"/>
<path d="M49.3364 51.741C49.3364 51.741 46.3481 52.0512 43.4116 50.8724L43.9131 49.1456L41.6538 49.0733L39.2704 38.785L39.9736 39.1728L49.3364 51.741Z" fill="url(#paint20_radial_257_27564)"/>
<path opacity="0.41" d="M50.5258 48.7579C48.3182 47.4499 47.3566 44.989 48.3802 43.2571C49.4039 41.5251 52.0251 41.1787 54.2326 42.4816C56.4402 43.7896 57.4018 46.2505 56.3782 47.9824C55.3545 49.7143 52.7334 50.0607 50.5258 48.7579Z" fill="url(#paint21_radial_257_27564)"/>
<path d="M40.8164 47.848C40.8164 47.848 35.6309 51.4153 28.9875 45.7697L28.3671 46.9329C28.362 46.9329 35.512 52.0253 40.8164 47.848Z" fill="url(#paint22_linear_257_27564)"/>
<path d="M46.8813 51.0999C46.8813 51.0999 40.0621 57.6709 31.4955 51.8909L31.3921 52.47C31.3921 52.47 39.602 59.3202 48.4374 51.6789L48.7011 51.2343L46.8813 51.0999Z" fill="url(#paint23_linear_257_27564)"/>
<path d="M49.3265 51.7306C49.3265 51.7306 46.3383 52.0408 43.4017 50.8621L43.9032 49.1353L41.6439 49.0629L39.2606 38.7747L39.9637 39.1624L42.1144 48.4477L44.7511 48.5149L44.1307 50.4588C44.1307 50.4588 46.8863 51.4101 48.3545 50.9034L49.3265 51.7306Z" fill="#094CB5"/>
<path d="M39.0224 38.63L45.0609 42.1972L43.5668 45.3716L39.0224 38.63Z" fill="white"/>
<path d="M39.0224 38.63L45.0609 42.2024L47.1185 39.3589L39.0224 38.63Z" fill="white"/>
<path d="M58.1652 49.9474C60.0513 46.7571 58.4301 42.3085 54.5443 40.0113C50.6585 37.714 45.9794 38.4379 44.0933 41.6282C42.2073 44.8184 43.8284 49.267 47.7142 51.5642C51.6001 53.8615 56.2791 53.1376 58.1652 49.9474Z" fill="#094CB5"/>
<path d="M48.3802 50.433C45.1077 48.4994 43.6859 44.8494 45.2059 42.2851C46.7259 39.7208 50.6033 39.2038 53.8759 41.1374C57.1485 43.0709 58.5702 46.7209 57.0503 49.2852C55.5303 51.8495 51.6528 52.3665 48.3802 50.433Z" fill="url(#paint24_radial_257_27564)"/>
<path opacity="0.77" d="M47.9615 35.7554C47.9615 35.7554 48.587 29.4946 40.434 26.3926L41.1526 25.2863C41.1578 25.2863 49.0627 29.0965 47.9615 35.7554Z" fill="url(#paint25_linear_257_27564)"/>
<path d="M48.7421 49.5179C46.0227 47.91 44.8388 44.8804 46.1003 42.7452C47.3617 40.61 50.5878 40.1861 53.3072 41.7939C56.0266 43.4018 57.2105 46.4314 55.949 48.5666C54.6876 50.6966 51.4615 51.1257 48.7421 49.5179Z" fill="url(#paint26_linear_257_27564)"/>
<path opacity="0.56" d="M37.8746 30.8956C35.4706 31.3919 33.4698 34.1837 32.9425 35.0523C32.9373 35.0626 32.9321 35.073 32.927 35.0781C32.9218 35.0885 32.9166 35.0988 32.9115 35.104C32.4048 35.9829 30.9417 39.059 31.6655 41.401C31.8361 41.9542 32.2756 42.6159 32.8494 43.3087L33.0562 42.9778C32.7512 42.5436 32.5237 42.1351 32.41 41.7732C31.6862 39.4312 33.1493 36.3551 33.6559 35.4762C33.6611 35.4659 33.6663 35.4555 33.6714 35.4504C33.6766 35.44 33.6818 35.4297 33.687 35.4245C34.2143 34.556 36.2202 31.759 38.6191 31.2679C39.0585 31.18 39.6324 31.1955 40.2735 31.2885L40.4027 31.0817C39.4101 30.8594 38.5054 30.7664 37.8746 30.8956Z" fill="url(#paint27_linear_257_27564)"/>
<path d="M29.6133 4.2859C29.603 4.27556 29.5926 7.76528 29.5926 12.2114C29.5875 7.76528 29.5823 4.27556 29.5719 4.2859C29.5719 4.2859 5.45925 4.54957 13.1832 28.9466C13.8863 31.1749 14.8944 33.4083 16.1766 36.0656C16.1766 36.0656 16.7143 36.3345 17.1744 36.0346C17.6345 35.7348 21.4137 32.8965 21.4137 32.8965C21.4137 32.8965 22.0807 32.5966 21.7136 31.6815C21.3465 30.7664 18.9994 24.4591 20.9898 20.6075C20.9898 20.6075 18.2291 30.1874 29.5978 30.6682C40.9665 30.1874 38.2058 20.6075 38.2058 20.6075C40.2014 24.4591 37.8491 30.7613 37.482 31.6815C37.1149 32.5966 37.7818 32.8965 37.7818 32.8965C37.7818 32.8965 41.5662 35.7399 42.0212 36.0346C42.4762 36.3293 43.019 36.0656 43.019 36.0656C44.3012 33.4083 45.3041 31.1749 46.0124 28.9466C53.7312 4.54957 29.6133 4.2859 29.6133 4.2859Z" fill="#276A02"/>
<path d="M29.6857 5.5939C29.6857 5.58873 29.6857 5.58873 29.6857 5.5939C29.6857 5.58873 29.6702 5.58873 29.634 5.5939C29.5978 5.5939 29.5771 5.5939 29.5771 5.5939C29.5771 5.5939 29.5771 5.5939 29.5771 5.59907C27.7573 5.67662 3.75832 7.24312 16.9986 34.5457L20.4366 32.0021C20.4366 32.0021 16.8176 22.5876 20.9795 18.0949C20.9795 18.0949 21.848 25.2966 23.5334 27.1526C25.193 28.9828 28.6258 29.2775 29.6133 29.2827C29.6185 29.2827 29.6288 29.2827 29.634 29.2827C29.6391 29.2827 29.6495 29.2827 29.6547 29.2827C30.6421 29.2723 34.075 28.9828 35.7345 27.1526C37.4199 25.2966 38.2885 18.0949 38.2885 18.0949C42.4503 22.5927 38.8313 32.0021 38.8313 32.0021L42.2694 34.5457C55.4993 7.23794 31.5003 5.67145 29.6857 5.5939ZM29.6288 12.1236C29.6288 14.0003 29.6288 16.0941 29.6288 18.1621C29.6288 16.0941 29.6288 13.9951 29.6288 12.1236Z" fill="#389A00"/>
<mask id="mask4_257_27564" style="mask-type:luminance" maskUnits="userSpaceOnUse" x="13" y="5" width="34" height="30">
<path d="M29.6702 5.5939C29.6754 5.58873 29.6754 5.58873 29.6702 5.5939C29.6702 5.58873 29.6547 5.58873 29.6237 5.5939C29.5926 5.5939 29.572 5.5939 29.572 5.5939C29.572 5.5939 29.572 5.5939 29.572 5.59907C27.84 5.67145 3.71699 7.18624 16.9831 34.5457L20.4211 32.0021C20.4211 32.0021 16.8022 22.5876 20.964 18.0949C20.964 18.0949 21.8325 25.2966 23.5179 27.1526C25.1672 28.9673 28.5897 29.2723 29.6081 29.2827C29.6185 29.2827 29.6288 29.2827 29.6392 29.2827C29.6495 29.2827 29.6598 29.2827 29.6702 29.2827C30.6887 29.2723 34.0802 28.9673 35.7242 27.1526C37.4096 25.2966 38.2782 18.0949 38.2782 18.0949C42.44 22.5927 38.821 32.0021 38.821 32.0021L42.259 34.5457C55.5303 7.18108 31.4021 5.66628 29.6702 5.5939Z" fill="white"/>
</mask>
<g mask="url(#mask4_257_27564)">
<path opacity="0.74" d="M35.7707 33.9305C41.5984 33.9305 46.3226 29.2062 46.3226 23.3786C46.3226 17.5509 41.5984 12.8267 35.7707 12.8267C29.9431 12.8267 25.2188 17.5509 25.2188 23.3786C25.2188 29.2062 29.9431 33.9305 35.7707 33.9305Z" fill="url(#paint28_linear_257_27564)"/>
</g>
<path d="M36.3032 7.8997C36.3032 7.8997 35.8896 7.07251 35.626 6.70027C35.626 6.70027 36.2205 6.88639 36.3394 6.92775L36.3032 7.8997Z" fill="#389A00"/>
<path d="M29.5926 22.236V15.2204L26.1029 14.8947L29.5926 22.236Z" fill="white"/>
<path d="M22.8823 7.89973C22.8823 7.89973 23.2959 7.07254 23.5596 6.7003C23.5596 6.7003 22.965 6.88642 22.8461 6.92778L22.8823 7.89973Z" fill="#389A00"/>
<path d="M29.686 5.59392C29.686 5.59392 3.24678 6.17812 16.9989 34.5457L20.4369 32.0021C20.4369 32.0021 15.4893 19.5838 23.6423 16.3009L25.9533 14.9826L29.6653 15.0498L29.686 5.59392Z" fill="url(#paint29_radial_257_27564)"/>
<path d="M22.8616 9.12503C22.8616 9.12503 13.7314 11.6531 14.3518 21.9672L13.8038 21.7604C13.8038 21.7604 12.0822 11.2034 23.1563 7.49133H23.6733L22.8616 9.12503Z" fill="url(#paint30_linear_257_27564)"/>
<path d="M23.5696 6.70027C23.5696 6.70027 21.7808 9.11464 21.3 12.2425L23.0423 12.6871L21.9514 14.6723L29.5978 21.962L29.6185 21.1606L23.5696 6.70027Z" fill="url(#paint31_radial_257_27564)"/>
<path d="M23.5642 6.7003C23.5642 6.7003 21.7754 9.11467 21.2946 12.2425L23.0369 12.6871L21.946 14.6724L29.5924 21.962L29.6131 21.1607L22.7164 14.5793L23.9985 12.2735L22.0132 11.8134C22.0132 11.8134 22.5974 8.95957 23.7762 7.95143L23.5642 6.7003Z" fill="#276A02"/>
<path d="M29.5773 5.58867C29.5773 5.58867 56.0165 6.17287 42.2644 34.5404L38.8264 31.9968C38.8264 31.9968 43.6499 19.3718 35.5848 16.2388L33.3152 14.9773L29.6032 15.0445L29.5773 5.58867Z" fill="#389A00"/>
<path d="M35.6314 6.68996C35.6314 6.68996 37.4202 9.10434 37.901 12.2322L36.1587 12.6768L37.2496 14.662L29.6032 21.9517L29.5826 21.1503L35.6314 6.68996Z" fill="url(#paint32_radial_257_27564)"/>
<path opacity="0.41" d="M28.8117 11.8288C30.8247 11.8288 32.4565 9.7479 32.4565 7.181C32.4565 4.61409 30.8247 2.5332 28.8117 2.5332C26.7987 2.5332 25.1669 4.61409 25.1669 7.181C25.1669 9.7479 26.7987 11.8288 28.8117 11.8288Z" fill="url(#paint33_radial_257_27564)"/>
<path d="M36.6189 16.0011C36.6189 16.0011 42.3265 18.6481 40.8479 27.2457L42.1662 27.1889C42.1662 27.1889 42.9107 18.4413 36.6189 16.0011Z" fill="url(#paint34_linear_257_27564)"/>
<path d="M37.1356 17.0609L37.725 17.5158C37.725 17.5158 36.7789 23.7611 35.6208 25.1363L34.2094 23.3475C34.2094 23.3475 36.6083 19.2167 37.1356 17.0609Z" fill="url(#paint35_linear_257_27564)"/>
<path d="M36.3239 9.12498C36.3239 9.12498 45.4541 11.6531 44.8337 21.9672L45.3817 21.7604C45.3817 21.7604 47.1033 11.2033 36.0292 7.49127H35.5122L36.3239 9.12498Z" fill="url(#paint36_linear_257_27564)"/>
<path d="M35.6262 6.7003C35.6262 6.7003 37.415 9.11467 37.8958 12.2425L36.1535 12.6871L37.2444 14.6724L29.598 21.962L29.5773 21.1607L36.474 14.5793L35.1919 12.2735L37.1771 11.8134C37.1771 11.8134 36.5929 8.95957 35.4142 7.95143L35.6262 6.7003Z" fill="#276A02"/>
<path d="M29.5924 22.236V15.2204L33.0873 14.8947L29.5924 22.236Z" fill="white"/>
<path d="M29.5978 22.236V15.2204L26.1029 14.8947L29.5978 22.236Z" fill="white"/>
<path d="M29.5928 16.3474C33.299 16.3474 36.3034 12.6879 36.3034 8.17371C36.3034 3.65949 33.299 0 29.5928 0C25.8867 0 22.8822 3.65949 22.8822 8.17371C22.8822 12.6879 25.8867 16.3474 29.5928 16.3474Z" fill="#276A02"/>
<path d="M29.5923 15.0549C32.5732 15.0549 34.9897 11.9741 34.9897 8.17366C34.9897 4.37327 32.5732 1.29244 29.5923 1.29244C26.6114 1.29244 24.1949 4.37327 24.1949 8.17366C24.1949 11.9741 26.6114 15.0549 29.5923 15.0549Z" fill="url(#paint37_radial_257_27564)"/>
<path d="M32.6896 3.42761C32.6896 3.42761 30.2132 4.12555 29.2723 5.34049C28.3314 6.55543 26.739 9.14041 27.6127 13.6383V13.6434C25.9842 12.656 24.9864 10.6811 24.9864 8.17363C24.9864 4.74078 27.1112 1.95417 29.7324 1.95417C30.9577 1.95417 31.8624 2.41947 32.7051 3.41727L32.6896 3.42761Z" fill="url(#paint38_linear_257_27564)"/>
<path d="M22.5665 16.0011C22.5665 16.0011 16.8588 18.6481 18.3374 27.2457L17.0191 27.1889C17.0191 27.1889 16.2746 18.4413 22.5665 16.0011Z" fill="url(#paint39_linear_257_27564)"/>
<path d="M30.0168 11.5496C31.9784 11.5496 33.5686 9.52429 33.5686 7.02591C33.5686 4.52753 31.9784 2.5022 30.0168 2.5022C28.0552 2.5022 26.4651 4.52753 26.4651 7.02591C26.4651 9.52429 28.0552 11.5496 30.0168 11.5496Z" fill="url(#paint40_radial_257_27564)"/>
<mask id="mask5_257_27564" style="mask-type:luminance" maskUnits="userSpaceOnUse" x="31" y="18" width="9" height="11">
<path d="M37.9883 20.2662C37.9883 20.2662 39.8806 22.0188 38.5364 28.1401C38.5364 28.1401 33.7593 28.0005 33.6197 27.7627C33.4801 27.5248 31.7637 25.9066 31.7999 24.8054C31.8361 23.7042 31.1795 21.4346 31.3191 20.6798C31.4587 19.925 31.4897 19.5786 31.9395 19.3718C32.3841 19.165 32.6271 18.5808 33.9351 18.7876C35.2379 18.9944 37.9883 20.2662 37.9883 20.2662Z" fill="white"/>
</mask>
<g mask="url(#mask5_257_27564)">
<path d="M54.4595 47.7807C54.475 47.7755 51.4765 45.9919 47.6455 43.7275C51.4765 45.9867 54.4854 47.76 54.4802 47.7394C54.4802 47.7394 66.5262 26.8475 41.5915 21.083C39.3167 20.5557 36.8817 20.2869 33.94 20.0387C33.94 20.0387 33.4333 20.3644 33.4591 20.9124C33.4798 21.4605 34.0072 26.1599 34.0072 26.1599C34.0072 26.1599 33.9244 26.8837 34.9016 27.0337C35.8787 27.1836 42.5014 28.3675 44.802 32.0485C44.802 32.0485 37.9622 24.7951 31.7582 34.3336C26.3866 44.3634 36.0441 46.8605 36.0441 46.8605C31.7117 46.6175 27.4827 41.3855 26.883 40.6048C26.2781 39.8241 25.6835 40.2429 25.6835 40.2429C25.6835 40.2429 21.3097 42.0524 20.8238 42.2954C20.3326 42.5384 20.2913 43.1381 20.2913 43.1381C21.925 45.5938 23.3364 47.5946 24.8977 49.3369C41.9637 68.4088 54.4595 47.7807 54.4595 47.7807Z" fill="#094CB5"/>
<path d="M53.3015 47.1758C53.3066 47.1758 53.3066 47.181 53.3015 47.1758C53.3015 47.181 53.3118 47.1655 53.3325 47.1293C53.3532 47.0983 53.3635 47.0828 53.3635 47.0828C53.3635 47.0828 53.3635 47.0828 53.3583 47.0828C54.2165 45.4749 65.0786 24.0196 34.8395 21.5225L35.279 25.7774C35.279 25.7774 45.226 27.4524 46.9786 33.3203C46.9786 33.3203 40.3352 30.4045 37.8795 30.906C35.4599 31.4023 33.4592 34.2096 32.9525 35.0523C32.9473 35.0574 32.9473 35.0626 32.9422 35.0678C32.937 35.073 32.937 35.0781 32.9318 35.0833C32.4355 35.9363 30.9414 39.0383 31.6755 41.401C32.4148 43.7947 38.1742 48.2098 38.1742 48.2098C32.1873 49.5023 25.9265 41.5974 25.9265 41.5974L21.9818 43.2725C38.748 68.564 52.3088 48.701 53.3015 47.1758ZM47.7076 43.8102C46.0945 42.8589 44.285 41.7887 42.5066 40.7341C44.2902 41.7836 46.0945 42.8537 47.7076 43.8102Z" fill="#064996"/>
<path d="M53.3014 47.1758C53.3014 47.1758 66.2522 24.1178 34.8344 21.5225L35.2738 25.7774C35.2738 25.7774 48.483 27.8402 47.1595 36.5257L47.1182 39.1831L45.1691 42.3471L53.3014 47.1758Z" fill="url(#paint41_radial_257_27564)"/>
</g>
<mask id="mask6_257_27564" style="mask-type:luminance" maskUnits="userSpaceOnUse" x="29" y="37" width="13" height="10">
<path d="M29.5463 43.4846C29.5463 43.4846 32.8293 46.7365 36.045 46.8657L36.6188 46.8761C36.6188 46.8761 39.9793 45.3975 39.9897 45.3613C40 45.3251 41.2615 41.2822 41.2718 40.9926C41.2822 40.7083 40.5273 38.997 40.3412 38.8471C40.1603 38.6972 39.0694 38.206 38.3456 38.0458C37.6218 37.8855 36.7636 37.8028 36.5258 37.8028C36.2828 37.8028 35.1299 37.7924 34.4526 37.7821C33.7754 37.7718 33.217 37.9424 32.5708 38.0354C31.9297 38.1285 30.5183 39.1263 30.4252 39.2866C30.3322 39.4468 29.474 41.6337 29.4636 41.6802C29.4533 41.7268 29.2361 42.6315 29.2361 42.6315L29.5463 43.4846Z" fill="white"/>
</mask>
<g mask="url(#mask6_257_27564)">
<path d="M4.45627 47.4965C4.4511 47.512 7.48587 45.7853 11.3478 43.5829C7.48587 45.7904 4.46144 47.5275 4.47695 47.5327C4.47695 47.5327 16.6677 68.3418 34.0181 49.5335C35.6001 47.8171 37.0425 45.837 38.7124 43.4071C38.7124 43.4071 38.6814 42.8074 38.1954 42.554C37.7095 42.3059 33.3667 40.4292 33.3667 40.4292C33.3667 40.4292 32.7773 40.0001 32.1621 40.7756C31.5469 41.5511 27.2403 46.7159 22.9079 46.8968C22.9079 46.8968 32.5964 44.5445 27.3747 34.432C21.3155 24.8004 14.3671 31.9505 14.3671 31.9505C16.7194 28.3108 23.3628 27.2199 24.3399 27.0855C25.3171 26.9511 25.2447 26.2221 25.2447 26.2221C25.2447 26.2221 25.8392 21.5278 25.8702 20.9798C25.9013 20.4318 25.3998 20.1009 25.3998 20.1009C22.4581 20.3077 20.0179 20.5404 17.7379 21.0315C-7.27436 26.4289 4.45627 47.4965 4.45627 47.4965Z" fill="#677403"/>
<path d="M5.55257 46.7882C5.5474 46.7882 5.55774 46.8038 5.57842 46.8348C5.59393 46.8658 5.60427 46.8813 5.60427 46.8813C5.60427 46.8813 5.60427 46.8813 5.60427 46.8761C6.57623 48.4168 19.8372 68.4762 36.9808 43.4381L33.0671 41.7217C33.0671 41.7217 26.6874 49.5335 20.7212 48.1479C20.7212 48.1479 26.5478 43.8207 27.3233 41.4373C28.0884 39.0902 26.6408 35.9623 26.16 35.1041C26.1549 35.099 26.1549 35.0938 26.1497 35.0835C26.1445 35.0783 26.1445 35.0731 26.1394 35.0628C25.643 34.2097 23.6836 31.3766 21.2744 30.8441C18.829 30.3012 12.1391 33.1189 12.1391 33.1189C13.9796 27.2768 23.9473 25.7517 23.9473 25.7517L24.4488 21.502C-5.82134 23.5544 4.72021 45.17 5.55257 46.7882ZM11.2499 43.5984C12.8784 42.6678 14.6982 41.6286 16.4974 40.5998C14.7034 41.6286 12.8784 42.6678 11.2499 43.5984Z" fill="#778602"/>
<mask id="mask7_257_27564" style="mask-type:luminance" maskUnits="userSpaceOnUse" x="3" y="21" width="34" height="35">
<path d="M5.55748 46.7986C5.55231 46.7986 5.56265 46.8141 5.57816 46.8399C5.59367 46.871 5.59884 46.8813 5.59884 46.8813C5.59884 46.8813 5.59884 46.8813 5.59884 46.8761C6.51909 48.3444 19.8059 68.5383 36.9805 43.4484L33.0668 41.7269C33.0668 41.7269 26.6871 49.5387 20.721 48.1531C20.721 48.1531 26.5475 43.8259 27.323 41.4425C28.083 39.1109 26.6457 35.9882 26.1546 35.099C26.1494 35.0886 26.1443 35.0783 26.1391 35.0731C26.1339 35.0628 26.1287 35.0524 26.1236 35.0473C25.6066 34.1735 23.6627 31.3766 21.269 30.8441C18.8236 30.3012 12.1337 33.1189 12.1337 33.1189C13.9742 27.2768 23.9419 25.7517 23.9419 25.7517L24.4433 21.502C-5.88364 23.5596 4.76648 45.2579 5.55748 46.7986Z" fill="white"/>
</mask>
<g mask="url(#mask7_257_27564)">
<path opacity="0.79" d="M19.7804 49.0941C25.608 49.0941 30.3323 44.3698 30.3323 38.5422C30.3323 32.7145 25.608 27.9903 19.7804 27.9903C13.9527 27.9903 9.22849 32.7145 9.22849 38.5422C9.22849 44.3698 13.9527 49.0941 19.7804 49.0941Z" fill="url(#paint42_radial_257_27564)"/>
</g>
<path d="M5.55768 46.7882C5.55768 46.7882 19.1805 69.4585 36.991 43.4433L33.0722 41.7217C33.0722 41.7217 24.7434 52.1753 17.8467 46.7262L15.5616 45.3768L13.7779 42.1198L5.55768 46.7882Z" fill="url(#paint43_radial_257_27564)"/>
<path opacity="0.77" d="M18.1201 47.8067C18.1201 47.8067 23.2487 51.4516 29.98 45.9042L30.5849 47.0778C30.5849 47.0726 23.3625 52.0564 18.1201 47.8067Z" fill="url(#paint44_linear_257_27564)"/>
</g>
<mask id="mask8_257_27564" style="mask-type:luminance" maskUnits="userSpaceOnUse" x="9" y="18" width="18" height="15">
<path d="M14.2691 31.8883C14.2691 31.8883 15.6805 28.7243 23.208 27.1423C23.2442 27.2095 24.516 27.5559 24.7538 27.5559C24.9968 27.5559 25.3742 28.2073 25.7516 26.9355C26.129 25.6637 26.1962 25.1467 26.3358 24.4591C26.4754 23.7715 26.6822 20.9177 26.5426 20.1939C26.403 19.4701 26.129 18.5757 25.5448 18.4723C24.9606 18.3689 22.1068 18.7153 20.9022 18.8187C19.6976 18.9221 19.2168 18.8187 18.0484 19.1961C16.88 19.5735 14.0623 20.9849 13.8866 21.0521C13.7159 21.1193 11.891 22.7375 11.891 22.7375L9.22842 23.9214L13.3902 32.2295L14.2691 31.8883Z" fill="white"/>
</mask>
<g mask="url(#mask8_257_27564)">
<path d="M4.45627 47.4964C4.4511 47.5119 7.48587 45.7851 11.3478 43.5827C7.48587 45.7903 4.46144 47.5274 4.47695 47.5325C4.47695 47.5325 16.6677 68.3416 34.0181 49.5333C35.6001 47.8169 37.0425 45.8368 38.7124 43.4069C38.7124 43.4069 38.6814 42.8072 38.1954 42.5539C37.7095 42.3057 33.3667 40.429 33.3667 40.429C33.3667 40.429 32.7773 39.9999 32.1621 40.7754C31.5469 41.5509 27.2403 46.7157 22.9079 46.8966C22.9079 46.8966 32.5964 44.5443 27.3747 34.4319C21.3155 24.8002 14.3671 31.9503 14.3671 31.9503C16.7194 28.3106 23.3628 27.2198 24.3399 27.0854C25.3171 26.9509 25.2447 26.222 25.2447 26.222C25.2447 26.222 25.8392 21.5276 25.8702 20.9796C25.9013 20.4316 25.3998 20.1007 25.3998 20.1007C22.4581 20.3075 20.0179 20.5402 17.7379 21.0313C-7.27436 26.4288 4.45627 47.4964 4.45627 47.4964Z" fill="#677403"/>
<path d="M5.55257 46.7881C5.5474 46.7881 5.55774 46.8036 5.57842 46.8346C5.59393 46.8656 5.60427 46.8811 5.60427 46.8811C5.60427 46.8811 5.60427 46.8811 5.60427 46.876C6.57623 48.4166 19.8372 68.4761 36.9808 43.4379L33.0671 41.7215C33.0671 41.7215 26.6874 49.5333 20.7212 48.1478C20.7212 48.1478 26.5478 43.8205 27.3233 41.4372C28.0884 39.09 26.6408 35.9622 26.16 35.104C26.1549 35.0988 26.1549 35.0936 26.1497 35.0833C26.1445 35.0781 26.1445 35.0729 26.1394 35.0626C25.643 34.2096 23.6836 31.3764 21.2744 30.8439C18.829 30.3011 12.1391 33.1187 12.1391 33.1187C13.9796 27.2766 23.9473 25.7515 23.9473 25.7515L24.4488 21.5018C-5.82134 23.5543 4.72021 45.1699 5.55257 46.7881ZM11.2499 43.5982C12.8784 42.6676 14.6982 41.6285 16.4974 40.5996C14.7034 41.6285 12.8784 42.6676 11.2499 43.5982Z" fill="#778602"/>
<mask id="mask9_257_27564" style="mask-type:luminance" maskUnits="userSpaceOnUse" x="3" y="21" width="34" height="35">
<path d="M5.55748 46.7984C5.55231 46.7984 5.56265 46.8139 5.57816 46.8398C5.59367 46.8708 5.59884 46.8811 5.59884 46.8811C5.59884 46.8811 5.59884 46.8811 5.59884 46.876C6.51909 48.3442 19.8059 68.5381 36.9805 43.4483L33.0668 41.7267C33.0668 41.7267 26.6871 49.5385 20.721 48.1529C20.721 48.1529 26.5475 43.8257 27.323 41.4423C28.083 39.1107 26.6457 35.988 26.1546 35.0988C26.1494 35.0885 26.1443 35.0781 26.1391 35.0729C26.1339 35.0626 26.1287 35.0523 26.1236 35.0471C25.6066 34.1734 23.6627 31.3764 21.269 30.8439C18.8236 30.3011 12.1337 33.1187 12.1337 33.1187C13.9742 27.2766 23.9419 25.7515 23.9419 25.7515L24.4433 21.5018C-5.88364 23.5594 4.76648 45.2578 5.55748 46.7984Z" fill="white"/>
</mask>
<g mask="url(#mask9_257_27564)">
<path opacity="0.79" d="M19.7804 49.0939C25.608 49.0939 30.3323 44.3696 30.3323 38.542C30.3323 32.7144 25.608 27.9901 19.7804 27.9901C13.9527 27.9901 9.22849 32.7144 9.22849 38.542C9.22849 44.3696 13.9527 49.0939 19.7804 49.0939Z" fill="url(#paint45_radial_257_27564)"/>
</g>
<mask id="mask10_257_27564" style="mask-type:luminance" maskUnits="userSpaceOnUse" x="3" y="21" width="34" height="35">
<path d="M5.55748 46.7984C5.55231 46.7984 5.56265 46.8139 5.57816 46.8398C5.59367 46.8708 5.59884 46.8811 5.59884 46.8811C5.59884 46.8811 5.59884 46.8811 5.59884 46.876C6.51909 48.3442 19.8059 68.5381 36.9805 43.4483L33.0668 41.7267C33.0668 41.7267 26.6871 49.5385 20.721 48.1529C20.721 48.1529 26.5475 43.8257 27.323 41.4423C28.083 39.1107 26.6457 35.988 26.1546 35.0988C26.1494 35.0885 26.1443 35.0781 26.1391 35.0729C26.1339 35.0626 26.1287 35.0523 26.1236 35.0471C25.6066 34.1734 23.6627 31.3764 21.269 30.8439C18.8236 30.3011 12.1337 33.1187 12.1337 33.1187C13.9742 27.2766 23.9419 25.7515 23.9419 25.7515L24.4433 21.5018C-5.88364 23.5594 4.76648 45.2578 5.55748 46.7984Z" fill="white"/>
</mask>
<g mask="url(#mask10_257_27564)">
<path opacity="0.52" d="M12.9404 31.9296C8.11685 31.5418 5.27854 34.101 6.60205 37.6372C7.92556 41.1735 12.9094 44.3582 17.733 44.7459C22.5566 45.1337 25.3949 42.5745 24.0713 39.0383C22.7478 35.4969 17.764 32.3173 12.9404 31.9296Z" fill="url(#paint46_radial_257_27564)"/>
</g>
<mask id="mask11_257_27564" style="mask-type:luminance" maskUnits="userSpaceOnUse" x="3" y="21" width="34" height="35">
<path d="M5.55748 46.7984C5.55231 46.7984 5.56265 46.8139 5.57816 46.8398C5.59367 46.8708 5.59884 46.8811 5.59884 46.8811C5.59884 46.8811 5.59884 46.8811 5.59884 46.876C6.51909 48.3442 19.8059 68.5381 36.9805 43.4483L33.0668 41.7267C33.0668 41.7267 26.6871 49.5385 20.721 48.1529C20.721 48.1529 26.5475 43.8257 27.323 41.4423C28.083 39.1107 26.6457 35.988 26.1546 35.0988C26.1494 35.0885 26.1443 35.0781 26.1391 35.0729C26.1339 35.0626 26.1287 35.0523 26.1236 35.0471C25.6066 34.1734 23.6627 31.3764 21.269 30.8439C18.8236 30.3011 12.1337 33.1187 12.1337 33.1187C13.9742 27.2766 23.9419 25.7515 23.9419 25.7515L24.4433 21.5018C-5.88364 23.5594 4.76648 45.2578 5.55748 46.7984Z" fill="white"/>
</mask>
<g mask="url(#mask11_257_27564)">
<path opacity="0.52" d="M12.5992 44.8752C12.7698 49.7091 15.6392 52.2372 18.9996 50.5104C22.3653 48.7888 24.9503 43.4689 24.7745 38.635C24.5987 33.8011 21.7345 31.273 18.3741 32.9998C15.0084 34.7214 12.4234 40.0361 12.5992 44.8752Z" fill="url(#paint47_radial_257_27564)"/>
</g>
<path d="M5.604 46.8863C5.604 46.8863 -7.00554 23.637 24.4485 21.507L23.947 25.7567C23.947 25.7567 10.593 27.8298 11.87 36.3861L11.901 38.9814L13.8036 42.1713L5.604 46.8863Z" fill="url(#paint48_linear_257_27564)"/>
<path opacity="0.77" d="M11.1514 35.6055C11.1514 35.6055 10.6189 29.3343 18.8184 26.3564L18.1153 25.2397C18.1153 25.2397 10.1536 28.931 11.1514 35.6055Z" fill="url(#paint49_linear_257_27564)"/>
<path d="M5.32511 39.271C5.32511 39.271 2.99346 30.0891 12.2529 25.5137L11.8031 25.1363C11.8031 25.1363 1.78369 28.8794 4.0533 40.336L4.30663 40.7858L5.32511 39.271Z" fill="url(#paint50_linear_257_27564)"/>
<path opacity="0.56" d="M27.3387 41.4475C28.0987 39.1159 26.6615 35.9932 26.1703 35.104C26.1652 35.0936 26.16 35.0833 26.1548 35.0781C26.1496 35.0678 26.1445 35.0574 26.1393 35.0523C25.6223 34.1785 23.6784 31.3816 21.2847 30.8491C20.7212 30.725 19.925 30.7767 19.041 30.937L19.2271 31.2782C19.7544 31.2265 20.2249 31.2317 20.5919 31.3144C22.9856 31.8469 24.9295 34.6387 25.4465 35.5176C25.4517 35.5279 25.4569 35.5382 25.462 35.5434C25.4672 35.5538 25.4724 35.5641 25.4776 35.5693C25.9739 36.4585 27.406 39.5812 26.646 41.9128C26.5064 42.3367 26.2065 42.8279 25.8084 43.3397L25.9273 43.5569C26.6098 42.7969 27.1371 42.0576 27.3387 41.4475Z" fill="url(#paint51_linear_257_27564)"/>
</g>
<path d="M29.4995 45.8369C37.0061 45.8369 43.0914 39.7516 43.0914 32.245C43.0914 24.7385 37.0061 18.6532 29.4995 18.6532C21.993 18.6532 15.9077 24.7385 15.9077 32.245C15.9077 39.7516 21.993 45.8369 29.4995 45.8369Z" fill="url(#paint52_linear_257_27564)"/>
<path d="M29.4995 45.1958C36.652 45.1958 42.4503 39.3975 42.4503 32.245C42.4503 25.0925 36.652 19.2943 29.4995 19.2943C22.347 19.2943 16.5488 25.0925 16.5488 32.245C16.5488 39.3975 22.347 45.1958 29.4995 45.1958Z" fill="url(#paint53_linear_257_27564)"/>
<mask id="mask12_257_27564" style="mask-type:luminance" maskUnits="userSpaceOnUse" x="16" y="19" width="27" height="27">
<path d="M29.4995 45.1958C36.652 45.1958 42.4503 39.3975 42.4503 32.245C42.4503 25.0925 36.652 19.2943 29.4995 19.2943C22.347 19.2943 16.5488 25.0925 16.5488 32.245C16.5488 39.3975 22.347 45.1958 29.4995 45.1958Z" fill="white"/>
</mask>
<g mask="url(#mask12_257_27564)">
<path d="M32.8807 34.9128H16.6832V50.3968H32.8807V34.9128Z" fill="url(#paint54_linear_257_27564)"/>
<path d="M32.8807 34.9128H16.6832V50.3968H32.8807V34.9128Z" fill="url(#paint55_linear_257_27564)"/>
</g>
<path d="M27.2457 40.6152C26.8683 40.6152 26.5684 40.6048 26.341 40.5893C26.222 40.579 26.0876 40.5635 25.9274 40.5376C25.0071 40.4135 24.3815 40.2378 24.3505 40.2326L24.1385 40.1757L24.4281 37.4925L25.581 37.8079C25.7412 37.8389 25.8808 37.8648 26.0049 37.8803C26.3254 37.9268 26.6563 37.9475 26.982 37.9475C27.5766 37.9475 28.1194 37.8699 28.6054 37.7148C29.0862 37.5597 29.505 37.3426 29.8514 37.0634C30.1926 36.7842 30.4666 36.4482 30.6579 36.0656C30.8492 35.683 30.9474 35.2591 30.9474 34.8041C30.9474 34.1269 30.7458 33.5995 30.327 33.1963C29.9082 32.7879 29.3654 32.5914 28.6623 32.5914C28.2021 32.5914 27.711 32.6431 27.2095 32.7362C26.6977 32.8344 26.0721 32.9998 25.338 33.2325L24.9709 33.3462L25.7671 23.8645H34.2613L33.703 27.0389H29.1586L28.8897 29.7066C28.988 29.691 29.0707 29.6807 29.1379 29.6704C29.2827 29.6549 29.4688 29.6445 29.6911 29.6445C30.4356 29.6445 31.1283 29.7634 31.7642 30.0012C32.4001 30.2391 32.9482 30.5699 33.4031 30.9887C33.8529 31.4075 34.2148 31.9141 34.4681 32.4983C34.7215 33.0825 34.8507 33.734 34.8507 34.4319C34.8507 35.3366 34.6594 36.1845 34.2768 36.9393C33.8994 37.689 33.3618 38.3456 32.6948 38.8884C32.0279 39.4261 31.2214 39.8552 30.2908 40.155C29.3654 40.4652 28.3417 40.6152 27.2457 40.6152Z" fill="#D6783D"/>
<path d="M34.2303 32.6069C33.9873 32.0537 33.6564 31.5832 33.2273 31.1852C32.7982 30.7871 32.2812 30.4769 31.6764 30.2546C31.0715 30.0271 30.4097 29.9185 29.6963 29.9185C29.4791 29.9185 29.3033 29.9289 29.1741 29.9444C29.0397 29.9599 28.8536 29.9909 28.6002 30.0374L28.9259 26.7959H33.4962L33.9615 24.1385H26.0101L25.2656 32.9998C26.0101 32.7672 26.646 32.6017 27.1681 32.4983C27.6903 32.3949 28.1918 32.3484 28.6726 32.3484C29.4326 32.3484 30.0478 32.5759 30.5131 33.0257C30.9784 33.4755 31.2111 34.0752 31.2111 34.8196C31.2111 35.316 31.1077 35.7761 30.8957 36.1948C30.6837 36.6136 30.3942 36.9755 30.022 37.2805C29.6497 37.5856 29.2051 37.8182 28.6933 37.9785C28.1815 38.1439 27.6128 38.2215 26.9924 38.2215C26.6512 38.2215 26.3099 38.1956 25.9791 38.1491C25.8395 38.1284 25.6844 38.1026 25.5189 38.0664L24.6607 37.8337L24.4281 39.9948C24.4281 39.9948 25.0536 40.1706 25.9687 40.2946C26.1186 40.3205 26.2479 40.336 26.3616 40.3412C26.5788 40.3567 26.8735 40.367 27.2457 40.367C28.3159 40.367 29.3033 40.2171 30.2081 39.9224C31.1077 39.6277 31.8832 39.2193 32.5294 38.6971C33.1756 38.1749 33.6823 37.5546 34.0442 36.8308C34.4113 36.107 34.5922 35.3108 34.5922 34.4422C34.5922 33.765 34.4733 33.1549 34.2303 32.6069Z" fill="#F18E41"/>
<path opacity="0.43" d="M34.2303 32.6069C33.9873 32.0537 33.6564 31.5832 33.2273 31.1852C32.7982 30.7871 32.2812 30.4769 31.6764 30.2546C31.0715 30.0271 30.4097 29.9185 29.6963 29.9185C29.4791 29.9185 29.3033 29.9289 29.1741 29.9444C29.0397 29.9599 28.8536 29.9909 28.6002 30.0374L28.9259 26.7959H33.4962L33.9615 24.1385H26.0101L25.2656 32.9998C26.0101 32.7672 26.646 32.6017 27.1681 32.4983C27.6903 32.3949 28.1918 32.3484 28.6726 32.3484C29.4326 32.3484 30.0478 32.5759 30.5131 33.0257C30.9784 33.4755 31.2111 34.0752 31.2111 34.8196C31.2111 35.316 31.1077 35.7761 30.8957 36.1948C30.6837 36.6136 30.3942 36.9755 30.022 37.2805C29.6497 37.5856 29.2051 37.8182 28.6933 37.9785C28.1815 38.1439 27.6128 38.2215 26.9924 38.2215C26.6512 38.2215 26.3099 38.1956 25.9791 38.1491C25.8395 38.1284 25.6844 38.1026 25.5189 38.0664L24.6607 37.8337L24.4281 39.9948C24.4281 39.9948 25.0536 40.1706 25.9687 40.2946C26.1186 40.3205 26.2479 40.336 26.3616 40.3412C26.5788 40.3567 26.8735 40.367 27.2457 40.367C28.3159 40.367 29.3033 40.2171 30.2081 39.9224C31.1077 39.6277 31.8832 39.2193 32.5294 38.6971C33.1756 38.1749 33.6823 37.5546 34.0442 36.8308C34.4113 36.107 34.5922 35.3108 34.5922 34.4422C34.5922 33.765 34.4733 33.1549 34.2303 32.6069Z" fill="url(#paint56_linear_257_27564)"/>
</g>
<path d="M197.854 42.1292C196.87 42.1551 195.887 42.0654 194.924 41.8621L193.805 38.0445C194.983 38.3883 196.203 38.57 197.43 38.5847C201.517 38.5847 204.409 36.2709 204.409 32.9548C204.409 30.484 202.712 28.8674 200.206 28.8674C198.284 28.9298 196.385 29.2942 194.577 29.9472L195.811 15.2944H208.96L208.188 19.6903H200.631L200.09 25.0504C200.685 24.9162 201.293 24.8517 201.903 24.8581C206.684 24.8581 210 27.9432 210 32.3371C210 38.0438 204.949 42.1312 197.853 42.1312L197.854 42.1292Z" fill="#F1843D"/>
<path d="M82.1987 34.6527L81.5469 25.3534C81.4722 24.2502 81.4213 23.3728 81.4213 22.4459C81.221 23.4476 81.0708 24.0753 80.7696 25.1277L78.0124 34.6527H75.0295L72.5474 25.5043C72.3217 24.6522 72.0212 23.4235 71.8456 22.4212C71.8456 23.4489 71.7955 24.4766 71.72 25.5551L71.119 34.654H67.634L69.2634 17.2327H73.7507L76.0318 25.9557C76.2796 26.864 76.4802 27.7845 76.6328 28.7136C76.7831 27.8108 76.9834 26.9106 77.2599 25.8809L79.6164 17.2327H84.0784L85.6323 34.654H82.198L82.1987 34.6527Z" fill="white"/>
<path d="M91.3985 29.2886V29.3888C91.3985 31.3694 92.3761 32.4972 94.1056 32.4972C95.3102 32.4765 96.467 32.0225 97.3643 31.2185L98.6678 33.2218C97.3222 34.3784 95.6042 35.0104 93.8298 35.0013C90.1451 35.0013 87.7638 32.3971 87.7638 28.3584C87.7638 26.0526 88.2399 24.5234 89.3664 23.2693C89.8653 22.6957 90.4874 22.2422 91.1861 21.9428C91.8849 21.6433 92.6423 21.5055 93.4018 21.5398C94.7675 21.4911 96.0984 21.9767 97.1118 22.8934C98.2898 24.0954 98.816 25.8262 98.816 28.508V29.2853H91.3964L91.3985 29.2886ZM95.3336 26.6843C95.3994 26.0153 95.2597 25.342 94.9329 24.7545C94.7767 24.5078 94.5568 24.3079 94.2966 24.1755C94.0363 24.0432 93.7452 23.9835 93.4539 24.0026C92.1751 24.0026 91.4506 25.0042 91.4506 26.7845V26.8346H95.3356V26.6843H95.3336Z" fill="white"/>
<path d="M104.884 34.9539C103.18 34.9539 101.826 34.202 101.425 33.0735C101.209 32.4369 101.133 31.7616 101.199 31.0929V24.1247H99.9206V21.8189H101.199C101.172 20.8063 101.214 19.7929 101.325 18.7859L104.73 17.9339C104.598 19.2247 104.531 20.5214 104.53 21.8189H107.538L106.686 24.1247H104.531V30.5673C104.531 32.1967 104.832 32.6227 105.985 32.6227C106.395 32.596 106.8 32.5117 107.187 32.3723L107.613 34.3756C106.751 34.7483 105.823 34.9449 104.884 34.9539Z" fill="white"/>
<path d="M118.195 35.3053C117.434 35.0075 116.798 34.4593 116.392 33.7514C116.152 33.998 115.892 34.2242 115.614 34.4278C114.846 34.9218 113.945 35.1669 113.032 35.1296C110.174 35.1296 108.621 33.6759 108.621 31.119C108.621 28.1141 110.701 26.7071 114.787 26.7071C115.037 26.7071 115.263 26.7071 115.539 26.7325V26.2063C115.539 24.7779 115.263 24.3011 114.035 24.3011C112.685 24.4201 111.397 24.9247 110.325 25.7548L108.897 23.3509C109.555 22.9353 110.252 22.5829 110.977 22.2985C112.081 21.8062 113.277 21.5501 114.486 21.5466C116.641 21.5466 118.12 22.3479 118.622 23.7776C118.848 24.5239 118.925 25.3074 118.848 26.0834L118.773 30.3952C118.748 31.7975 118.848 32.3985 119.975 33.2525L118.195 35.3079V35.3053ZM115.337 29.0383C113.005 29.0383 112.203 29.4643 112.203 30.9935C112.182 31.2026 112.204 31.4139 112.268 31.6142C112.332 31.8145 112.436 31.9993 112.575 32.1571C112.714 32.3149 112.884 32.4421 113.075 32.5309C113.265 32.6197 113.472 32.668 113.682 32.6729C114.02 32.6566 114.35 32.5701 114.652 32.419C114.954 32.2679 115.222 32.0556 115.437 31.7955L115.488 29.0383H115.337Z" fill="white"/>
<path d="M132.809 20.1388H128.648V34.6527H125.088V20.1388H120.828V17.2314H133.386L132.81 20.1388H132.809Z" fill="white"/>
<path d="M140.029 24.7517C139.731 24.5813 139.393 24.4948 139.051 24.5013C138.649 24.5152 138.256 24.6193 137.9 24.8058C137.545 24.9924 137.235 25.2567 136.996 25.5791V34.6533H133.637V26.0792C133.685 24.8085 133.524 23.5384 133.161 22.3197L136.165 21.5184C136.481 22.0788 136.662 22.7054 136.692 23.3481C137.017 22.8304 137.458 22.3955 137.98 22.0779C138.503 21.7604 139.092 21.5688 139.701 21.5184C140.135 21.5038 140.566 21.5986 140.954 21.7942L140.027 24.7524L140.029 24.7517Z" fill="white"/>
<path d="M150.782 35.3053C150.021 35.0075 149.385 34.4594 148.979 33.7514C148.739 33.998 148.479 34.2242 148.201 34.4278C147.433 34.9218 146.531 35.1669 145.619 35.1296C142.761 35.1296 141.208 33.6759 141.208 31.119C141.208 28.1141 143.288 26.7071 147.374 26.7071C147.624 26.7071 147.85 26.7071 148.126 26.7325V26.2063C148.126 24.7779 147.85 24.3011 146.622 24.3011C145.272 24.4202 143.984 24.9248 142.912 25.7548L141.483 23.3509C142.142 22.9353 142.839 22.583 143.564 22.2985C144.668 21.8062 145.863 21.5501 147.073 21.5466C149.228 21.5466 150.707 22.3479 151.208 23.7776C151.434 24.5239 151.511 25.3074 151.434 26.0834L151.359 30.3952C151.334 31.7975 151.434 32.3985 152.561 33.2525L150.781 35.3079L150.782 35.3053ZM147.924 29.0383C145.592 29.0383 144.79 29.4643 144.79 30.9935C144.768 31.2026 144.79 31.4139 144.854 31.6142C144.918 31.8145 145.023 31.9993 145.162 32.1571C145.301 32.3149 145.471 32.4421 145.661 32.5309C145.852 32.6197 146.059 32.668 146.269 32.6729C146.606 32.6565 146.937 32.57 147.239 32.419C147.541 32.2679 147.808 32.0555 148.024 31.7955L148.074 29.0383H147.924Z" fill="white"/>
<path d="M162.513 34.6528C162.404 34.4154 162.336 34.1611 162.313 33.9009C161.498 34.6207 160.441 35.0057 159.354 34.9786C156.096 34.9786 154.04 32.4471 154.04 28.4612C154.04 24.4753 156.271 21.6934 159.53 21.6934C160.353 21.6564 161.162 21.9143 161.811 22.4206C161.739 21.7885 161.705 21.1524 161.711 20.5161V16.1035L165.045 16.6304V29.9657C165.045 33.1242 165.296 34.152 165.521 34.6534H162.513V34.6528ZM161.761 25.2025C161.274 24.71 160.623 24.4152 159.931 24.3752C158.428 24.3752 157.776 25.6286 157.776 28.4866C157.776 31.3447 158.352 32.146 160.107 32.146C160.424 32.1242 160.733 32.0399 161.017 31.8979C161.301 31.7558 161.554 31.559 161.762 31.3186V25.2025H161.761Z" fill="white"/>
<path d="M171.436 29.2886V29.3888C171.436 31.3694 172.414 32.4972 174.143 32.4972C175.348 32.4763 176.504 32.0224 177.401 31.2185L178.705 33.2218C177.359 34.3784 175.641 35.0104 173.867 35.0013C170.182 35.0013 167.8 32.3971 167.8 28.3584C167.8 26.0526 168.276 24.5234 169.403 23.2693C169.902 22.6957 170.524 22.2422 171.223 21.9428C171.921 21.6433 172.679 21.5055 173.438 21.5398C174.804 21.4912 176.135 21.9767 177.148 22.8934C178.326 24.0954 178.852 25.8262 178.852 28.508V29.2853H171.432L171.436 29.2886ZM175.371 26.6843C175.437 26.0153 175.297 25.342 174.971 24.7545C174.814 24.5078 174.595 24.3079 174.334 24.1755C174.074 24.0432 173.783 23.9835 173.492 24.0026C172.213 24.0026 171.488 25.0042 171.488 26.7845V26.8346H175.373V26.6843H175.371Z" fill="white"/>
<path d="M187.629 24.7517C187.332 24.5813 186.994 24.4947 186.651 24.5013C186.25 24.5152 185.857 24.6193 185.501 24.8059C185.145 24.9925 184.836 25.2567 184.596 25.5791V34.6533H181.237V26.0792C181.285 24.8085 181.124 23.5384 180.761 22.3197L183.766 21.5184C184.082 22.0789 184.262 22.7054 184.293 23.3481C184.617 22.8308 185.058 22.3962 185.579 22.0787C186.101 21.7611 186.689 21.5693 187.298 21.5184C187.732 21.5038 188.163 21.5986 188.551 21.7942L187.624 24.7524L187.629 24.7517Z" fill="white"/>
<defs>
<radialGradient id="paint0_radial_257_27564" cx="0" cy="0" r="1" gradientUnits="userSpaceOnUse" gradientTransform="translate(26.8535 38.6953) scale(13.0643)">
<stop offset="0.00193331" stop-color="#A0AA63"/>
<stop offset="0.6587" stop-color="#A2AC57" stop-opacity="0.3242"/>
<stop offset="0.9737" stop-color="#A3AD50" stop-opacity="0"/>
</radialGradient>
<radialGradient id="paint1_radial_257_27564" cx="0" cy="0" r="1" gradientUnits="userSpaceOnUse" gradientTransform="translate(15.3214 38.3733) rotate(23.34) scale(8.45425 5.02915)">
<stop offset="0.00270339" stop-color="white"/>
<stop offset="0.0822319" stop-color="#F9F9F3" stop-opacity="0.9123"/>
<stop offset="0.2247" stop-color="#E8EBD4" stop-opacity="0.7552"/>
<stop offset="0.4139" stop-color="#CDD3A2" stop-opacity="0.5466"/>
<stop offset="0.6425" stop-color="#A8B15C" stop-opacity="0.2945"/>
<stop offset="0.9022" stop-color="#788705" stop-opacity="0.01"/>
<stop offset="0.9096" stop-color="#778602" stop-opacity="0"/>
</radialGradient>
<radialGradient id="paint2_radial_257_27564" cx="0" cy="0" r="1" gradientUnits="userSpaceOnUse" gradientTransform="translate(18.7213 41.7653) rotate(-73.2794) scale(8.4538 5.02875)">
<stop offset="0.00270339" stop-color="white"/>
<stop offset="0.0822319" stop-color="#F9F9F3" stop-opacity="0.9123"/>
<stop offset="0.2247" stop-color="#E8EBD4" stop-opacity="0.7552"/>
<stop offset="0.4139" stop-color="#CDD3A2" stop-opacity="0.5466"/>
<stop offset="0.6425" stop-color="#A8B15C" stop-opacity="0.2945"/>
<stop offset="0.9022" stop-color="#788705" stop-opacity="0.01"/>
<stop offset="0.9096" stop-color="#778602" stop-opacity="0"/>
</radialGradient>
<radialGradient id="paint3_radial_257_27564" cx="0" cy="0" r="1" gradientUnits="userSpaceOnUse" gradientTransform="translate(6.50333 46.3062) rotate(-119.736) scale(25.7894 25.7894)">
<stop offset="0.00154812" stop-color="#A2AD0D"/>
<stop offset="0.28" stop-color="#9EA90F"/>
<stop offset="0.9853" stop-color="#768701"/>
</radialGradient>
<linearGradient id="paint4_linear_257_27564" x1="8.7674" y1="51.9888" x2="22.6197" y2="53.572" gradientUnits="userSpaceOnUse">
<stop offset="0.4357" stop-color="#D3D98E"/>
<stop offset="0.543" stop-color="#D0D78A" stop-opacity="0.8098"/>
<stop offset="0.6608" stop-color="#C8CF7C" stop-opacity="0.6009"/>
<stop offset="0.7836" stop-color="#BAC366" stop-opacity="0.3831"/>
<stop offset="0.909" stop-color="#A7B248" stop-opacity="0.1608"/>
<stop offset="0.9996" stop-color="#96A32D" stop-opacity="0"/>
</linearGradient>
<radialGradient id="paint5_radial_257_27564" cx="0" cy="0" r="1" gradientUnits="userSpaceOnUse" gradientTransform="translate(16.9933 40.9286) rotate(116.117) scale(11.2789 11.2789)">
<stop offset="0.0921381" stop-color="#E1E824"/>
<stop offset="0.4151" stop-color="#B0BB14"/>
<stop offset="0.7248" stop-color="#879507"/>
<stop offset="0.8839" stop-color="#778602"/>
</radialGradient>
<linearGradient id="paint6_linear_257_27564" x1="6.42169" y1="42.3226" x2="17.552" y2="22.2753" gradientUnits="userSpaceOnUse">
<stop offset="0.00193292" stop-color="#D6DE1F"/>
<stop offset="0.2796" stop-color="#E3E922"/>
<stop offset="0.9853" stop-color="#9EA90F"/>
</linearGradient>
<radialGradient id="paint7_radial_257_27564" cx="0" cy="0" r="1" gradientUnits="userSpaceOnUse" gradientTransform="translate(18.4814 38.5181) rotate(116.117) scale(14.3623 14.3623)">
<stop offset="0.0954407" stop-color="#DFE523"/>
<stop offset="0.5048" stop-color="#A4AE10"/>
<stop offset="0.8683" stop-color="#738100"/>
</radialGradient>
<radialGradient id="paint8_radial_257_27564" cx="0" cy="0" r="1" gradientUnits="userSpaceOnUse" gradientTransform="translate(6.50478 47.3299) rotate(-119.736) scale(2.77952)">
<stop stop-color="#8AF750"/>
<stop offset="1" stop-color="#8AF750" stop-opacity="0"/>
</radialGradient>
<linearGradient id="paint9_linear_257_27564" x1="13.7117" y1="30.6312" x2="17.504" y2="25.7791" gradientUnits="userSpaceOnUse">
<stop offset="0.00166804" stop-color="#EFF2CF"/>
<stop offset="0.9992" stop-color="#B8C21A" stop-opacity="0"/>
</linearGradient>
<linearGradient id="paint10_linear_257_27564" x1="6.58401" y1="38.5878" x2="9.0292" y2="24.8517" gradientUnits="userSpaceOnUse">
<stop offset="0.000535905" stop-color="#F0F397"/>
<stop offset="1" stop-color="#F5F882" stop-opacity="0"/>
</linearGradient>
<radialGradient id="paint11_radial_257_27564" cx="0" cy="0" r="1" gradientUnits="userSpaceOnUse" gradientTransform="translate(11.5324 43.2908) rotate(-15.5039) scale(9.67555 9.67555)">
<stop offset="0.0527877" stop-color="#778602"/>
<stop offset="0.9985" stop-color="#C9D11A"/>
</radialGradient>
<linearGradient id="paint12_linear_257_27564" x1="19.0175" y1="47.1086" x2="28.599" y2="47.8919" gradientUnits="userSpaceOnUse">
<stop stop-color="#FEFEFD"/>
<stop offset="0.9918" stop-color="#899605" stop-opacity="0"/>
</linearGradient>
<linearGradient id="paint13_linear_257_27564" x1="22.8136" y1="33.045" x2="25.909" y2="45.3998" gradientUnits="userSpaceOnUse">
<stop offset="0.00154052" stop-color="#778602"/>
<stop offset="0.0457036" stop-color="#778602"/>
<stop offset="0.4814" stop-color="#778602"/>
<stop offset="0.9789" stop-color="#778602" stop-opacity="0"/>
</linearGradient>
<linearGradient id="paint14_linear_257_27564" x1="3.87871" y1="41.6784" x2="7.76183" y2="45.7323" gradientUnits="userSpaceOnUse">
<stop offset="0.00711697" stop-color="white"/>
<stop offset="0.9981" stop-color="white" stop-opacity="0"/>
</linearGradient>
<radialGradient id="paint15_radial_257_27564" cx="0" cy="0" r="1" gradientUnits="userSpaceOnUse" gradientTransform="translate(37.0146 31.4626) rotate(-3.55557) scale(14.0267 14.0267)">
<stop offset="0.00154837" stop-color="#ADE3F5"/>
<stop offset="0.1198" stop-color="#A1D8EE" stop-opacity="0.8783"/>
<stop offset="0.3317" stop-color="#82BCDD" stop-opacity="0.6604"/>
<stop offset="0.6126" stop-color="#508DC0" stop-opacity="0.3715"/>
<stop offset="0.9486" stop-color="#0B4E99" stop-opacity="0.0257616"/>
<stop offset="0.9737" stop-color="#064996" stop-opacity="0"/>
</radialGradient>
<radialGradient id="paint16_radial_257_27564" cx="0" cy="0" r="1" gradientUnits="userSpaceOnUse" gradientTransform="translate(52.4106 46.5907) rotate(120.591) scale(25.7893 25.7893)">
<stop offset="0.00193292" stop-color="#3889C5"/>
<stop offset="0.28" stop-color="#378AC5"/>
<stop offset="0.9853" stop-color="#74D4FB"/>
</radialGradient>
<linearGradient id="paint17_linear_257_27564" x1="56.232" y1="41.817" x2="50.75" y2="28.9971" gradientUnits="userSpaceOnUse">
<stop offset="0.4357" stop-color="#63A8DB"/>
<stop offset="0.6342" stop-color="#5FA7DA" stop-opacity="0.648"/>
<stop offset="0.8518" stop-color="#51A3D6" stop-opacity="0.2622"/>
<stop offset="0.9996" stop-color="#449FD2" stop-opacity="0"/>
</linearGradient>
<radialGradient id="paint18_radial_257_27564" cx="0" cy="0" r="1" gradientUnits="userSpaceOnUse" gradientTransform="translate(42.5499 40.145) rotate(-3.55557) scale(11.2792 11.2792)">
<stop offset="0.0921381" stop-color="#53ABDE"/>
<stop offset="0.985" stop-color="#064996"/>
</radialGradient>
<linearGradient id="paint19_linear_257_27564" x1="48.9944" y1="48.6404" x2="26.0654" y2="48.8938" gradientUnits="userSpaceOnUse">
<stop offset="0.00193292" stop-color="#3889C5"/>
<stop offset="0.28" stop-color="#378AC5"/>
<stop offset="0.9853" stop-color="#74D4FB"/>
</linearGradient>
<radialGradient id="paint20_radial_257_27564" cx="0" cy="0" r="1" gradientUnits="userSpaceOnUse" gradientTransform="translate(39.7182 40.0453) rotate(-3.55557) scale(14.3627 14.3627)">
<stop offset="0.0903576" stop-color="#4094CD"/>
<stop offset="0.9853" stop-color="#064996"/>
</radialGradient>
<radialGradient id="paint21_radial_257_27564" cx="0" cy="0" r="1" gradientUnits="userSpaceOnUse" gradientTransform="translate(53.2993 46.0825) rotate(120.591) scale(2.77951 2.77951)">
<stop stop-color="#8AF750"/>
<stop offset="1" stop-color="#8AF750" stop-opacity="0"/>
</radialGradient>
<linearGradient id="paint22_linear_257_27564" x1="39.9235" y1="47.1402" x2="30.3315" y2="47.7805" gradientUnits="userSpaceOnUse">
<stop offset="0.00120314" stop-color="#FEFEFD"/>
<stop offset="0.9996" stop-color="#72D2F9" stop-opacity="0"/>
</linearGradient>
<linearGradient id="paint23_linear_257_27564" x1="45.6693" y1="50.3487" x2="32.5236" y2="55.0241" gradientUnits="userSpaceOnUse">
<stop offset="0.00184365" stop-color="#64A8DB"/>
<stop offset="1" stop-color="#29A7D5" stop-opacity="0"/>
</linearGradient>
<radialGradient id="paint24_radial_257_27564" cx="0" cy="0" r="1" gradientUnits="userSpaceOnUse" gradientTransform="translate(50.3686 44.0001) rotate(-3.55557) scale(5.99726)">
<stop offset="0.0527875" stop-color="#8EDCFC"/>
<stop offset="0.9985" stop-color="#064996"/>
</radialGradient>
<linearGradient id="paint25_linear_257_27564" x1="46.9185" y1="35.3238" x2="42.8559" y2="26.611" gradientUnits="userSpaceOnUse">
<stop stop-color="#FEFEFD"/>
<stop offset="0.9914" stop-color="#74D4FB" stop-opacity="0"/>
</linearGradient>
<linearGradient id="paint26_linear_257_27564" x1="46.9621" y1="38.9699" x2="51.3642" y2="46.2061" gradientUnits="userSpaceOnUse">
<stop offset="0.00711716" stop-color="#8EDCFC"/>
<stop offset="0.9989" stop-color="#81C9EE" stop-opacity="0"/>
</linearGradient>
<linearGradient id="paint27_linear_257_27564" x1="32.8182" y1="38.9906" x2="42.0209" y2="30.1849" gradientUnits="userSpaceOnUse">
<stop offset="0.00154052" stop-color="#2465A9" stop-opacity="0"/>
<stop offset="0.04238" stop-color="#2C79B5" stop-opacity="0.0851102"/>
<stop offset="0.1163" stop-color="#3997C8" stop-opacity="0.2391"/>
<stop offset="0.1942" stop-color="#43AFD6" stop-opacity="0.4014"/>
<stop offset="0.2768" stop-color="#4AC0E0" stop-opacity="0.5737"/>
<stop offset="0.3675" stop-color="#4ECAE6" stop-opacity="0.7626"/>
<stop offset="0.4814" stop-color="#4FCDE8"/>
<stop offset="0.7191" stop-color="#54C7E8" stop-opacity="0.5221"/>
<stop offset="0.9789" stop-color="#5EB9E8" stop-opacity="0"/>
</linearGradient>
<linearGradient id="paint28_linear_257_27564" x1="39.9994" y1="26.7316" x2="32.0566" y2="20.4393" gradientUnits="userSpaceOnUse">
<stop offset="0.000778415" stop-color="#85F149"/>
<stop offset="0.9904" stop-color="#85F149" stop-opacity="0"/>
</linearGradient>
<radialGradient id="paint29_radial_257_27564" cx="0" cy="0" r="1" gradientUnits="userSpaceOnUse" gradientTransform="translate(29.6334 6.65503) scale(25.7899 25.7899)">
<stop offset="0.00154817" stop-color="#8FFC53"/>
<stop offset="0.2796" stop-color="#8DFA52"/>
<stop offset="0.9853" stop-color="#389A00"/>
</radialGradient>
<linearGradient id="paint30_linear_257_27564" x1="21.9487" y1="8.83603" x2="12.8025" y2="20.1829" gradientUnits="userSpaceOnUse">
<stop stop-color="#C3FBA5"/>
<stop offset="1" stop-color="#66CF2D" stop-opacity="0"/>
</linearGradient>
<radialGradient id="paint31_radial_257_27564" cx="0" cy="0" r="1" gradientUnits="userSpaceOnUse" gradientTransform="translate(28.8245 20.5632) scale(9.87353 9.87353)">
<stop offset="0.0917534" stop-color="#84F04A"/>
<stop offset="0.9853" stop-color="#389A00"/>
</radialGradient>
<radialGradient id="paint32_radial_257_27564" cx="0" cy="0" r="1" gradientUnits="userSpaceOnUse" gradientTransform="translate(30.3735 20.5518) rotate(180) scale(9.87352 9.87353)">
<stop offset="0.0917534" stop-color="#84F04A"/>
<stop offset="0.9853" stop-color="#389A00"/>
</radialGradient>
<radialGradient id="paint33_radial_257_27564" cx="0" cy="0" r="1" gradientUnits="userSpaceOnUse" gradientTransform="translate(28.7431 6.14859) scale(2.77957)">
<stop stop-color="#8AF750"/>
<stop offset="1" stop-color="#8AF750" stop-opacity="0"/>
</radialGradient>
<linearGradient id="paint34_linear_257_27564" x1="36.4613" y1="17.1246" x2="41.894" y2="25.056" gradientUnits="userSpaceOnUse">
<stop stop-color="#FEFEFD"/>
<stop offset="1" stop-color="#389A00"/>
</linearGradient>
<linearGradient id="paint35_linear_257_27564" x1="37.3323" y1="17.2593" x2="35.506" y2="22.807" gradientUnits="userSpaceOnUse">
<stop stop-color="#9CD17D"/>
<stop offset="1" stop-color="#62CA2A" stop-opacity="0"/>
</linearGradient>
<linearGradient id="paint36_linear_257_27564" x1="35.518" y1="14.7293" x2="45.4829" y2="14.7293" gradientUnits="userSpaceOnUse">
<stop stop-color="#9CD17D"/>
<stop offset="1" stop-color="#389A00"/>
</linearGradient>
<radialGradient id="paint37_radial_257_27564" cx="0" cy="0" r="1" gradientUnits="userSpaceOnUse" gradientTransform="translate(28.8815 5.72056) scale(6.59052 6.59053)">
<stop stop-color="#8AF750"/>
<stop offset="1" stop-color="#389A00"/>
</radialGradient>
<linearGradient id="paint38_linear_257_27564" x1="30.1312" y1="2.04591" x2="27.0022" y2="9.09473" gradientUnits="userSpaceOnUse">
<stop stop-color="#9CD17D"/>
<stop offset="0.9996" stop-color="#84F04A" stop-opacity="0"/>
</linearGradient>
<linearGradient id="paint39_linear_257_27564" x1="22.7253" y1="17.1246" x2="17.2926" y2="25.056" gradientUnits="userSpaceOnUse">
<stop stop-color="#FEFEFD"/>
<stop offset="0.9913" stop-color="#47AA0D" stop-opacity="0"/>
</linearGradient>
<radialGradient id="paint40_radial_257_27564" cx="0" cy="0" r="1" gradientUnits="userSpaceOnUse" gradientTransform="translate(30.0168 7.02715) scale(4.06764 4.06764)">
<stop stop-color="#54E320" stop-opacity="0.77"/>
<stop offset="1" stop-color="#62CA2A" stop-opacity="0"/>
</radialGradient>
<radialGradient id="paint41_radial_257_27564" cx="0" cy="0" r="1" gradientUnits="userSpaceOnUse" gradientTransform="translate(52.41 46.5907) rotate(120.591) scale(25.7893 25.7893)">
<stop offset="0.00193292" stop-color="#3889C5"/>
<stop offset="0.28" stop-color="#378AC5"/>
<stop offset="0.9853" stop-color="#74D4FB"/>
</radialGradient>
<radialGradient id="paint42_radial_257_27564" cx="0" cy="0" r="1" gradientUnits="userSpaceOnUse" gradientTransform="translate(26.8535 38.6954) scale(13.0643 13.0643)">
<stop offset="0.00193331" stop-color="#A0AA63"/>
<stop offset="0.6587" stop-color="#A2AC57" stop-opacity="0.3242"/>
<stop offset="0.9737" stop-color="#A3AD50" stop-opacity="0"/>
</radialGradient>
<radialGradient id="paint43_radial_257_27564" cx="0" cy="0" r="1" gradientUnits="userSpaceOnUse" gradientTransform="translate(6.50333 46.3063) rotate(-119.736) scale(25.7894 25.7894)">
<stop offset="0.00154812" stop-color="#A2AD0D"/>
<stop offset="0.28" stop-color="#9EA90F"/>
<stop offset="0.9853" stop-color="#768701"/>
</radialGradient>
<linearGradient id="paint44_linear_257_27564" x1="19.0175" y1="47.1087" x2="28.599" y2="47.892" gradientUnits="userSpaceOnUse">
<stop stop-color="#FEFEFD"/>
<stop offset="0.9918" stop-color="#899605" stop-opacity="0"/>
</linearGradient>
<radialGradient id="paint45_radial_257_27564" cx="0" cy="0" r="1" gradientUnits="userSpaceOnUse" gradientTransform="translate(26.8535 38.6953) scale(13.0643 13.0643)">
<stop offset="0.00193331" stop-color="#A0AA63"/>
<stop offset="0.6587" stop-color="#A2AC57" stop-opacity="0.3242"/>
<stop offset="0.9737" stop-color="#A3AD50" stop-opacity="0"/>
</radialGradient>
<radialGradient id="paint46_radial_257_27564" cx="0" cy="0" r="1" gradientUnits="userSpaceOnUse" gradientTransform="translate(15.3214 38.3732) rotate(23.34) scale(8.45425 5.02915)">
<stop offset="0.00270339" stop-color="white"/>
<stop offset="0.0822319" stop-color="#F9F9F3" stop-opacity="0.9123"/>
<stop offset="0.2247" stop-color="#E8EBD4" stop-opacity="0.7552"/>
<stop offset="0.4139" stop-color="#CDD3A2" stop-opacity="0.5466"/>
<stop offset="0.6425" stop-color="#A8B15C" stop-opacity="0.2945"/>
<stop offset="0.9022" stop-color="#788705" stop-opacity="0.01"/>
<stop offset="0.9096" stop-color="#778602" stop-opacity="0"/>
</radialGradient>
<radialGradient id="paint47_radial_257_27564" cx="0" cy="0" r="1" gradientUnits="userSpaceOnUse" gradientTransform="translate(18.7213 41.7653) rotate(-73.2794) scale(8.4538 5.02875)">
<stop offset="0.00270339" stop-color="white"/>
<stop offset="0.0822319" stop-color="#F9F9F3" stop-opacity="0.9123"/>
<stop offset="0.2247" stop-color="#E8EBD4" stop-opacity="0.7552"/>
<stop offset="0.4139" stop-color="#CDD3A2" stop-opacity="0.5466"/>
<stop offset="0.6425" stop-color="#A8B15C" stop-opacity="0.2945"/>
<stop offset="0.9022" stop-color="#788705" stop-opacity="0.01"/>
<stop offset="0.9096" stop-color="#778602" stop-opacity="0"/>
</radialGradient>
<linearGradient id="paint48_linear_257_27564" x1="6.42169" y1="42.3226" x2="17.552" y2="22.2752" gradientUnits="userSpaceOnUse">
<stop offset="0.00193292" stop-color="#D6DE1F"/>
<stop offset="0.2796" stop-color="#E3E922"/>
<stop offset="0.9853" stop-color="#9EA90F"/>
</linearGradient>
<linearGradient id="paint49_linear_257_27564" x1="13.7117" y1="30.6311" x2="17.504" y2="25.779" gradientUnits="userSpaceOnUse">
<stop offset="0.00166804" stop-color="#EFF2CF"/>
<stop offset="0.9992" stop-color="#B8C21A" stop-opacity="0"/>
</linearGradient>
<linearGradient id="paint50_linear_257_27564" x1="6.58401" y1="38.5877" x2="9.0292" y2="24.8517" gradientUnits="userSpaceOnUse">
<stop offset="0.000535905" stop-color="#F0F397"/>
<stop offset="1" stop-color="#F5F882" stop-opacity="0"/>
</linearGradient>
<linearGradient id="paint51_linear_257_27564" x1="22.8136" y1="33.045" x2="25.909" y2="45.3998" gradientUnits="userSpaceOnUse">
<stop offset="0.00154052" stop-color="#778602"/>
<stop offset="0.0457036" stop-color="#778602"/>
<stop offset="0.4814" stop-color="#778602"/>
<stop offset="0.9789" stop-color="#778602" stop-opacity="0"/>
</linearGradient>
<linearGradient id="paint52_linear_257_27564" x1="36.1438" y1="21.6831" x2="22.6343" y2="43.1547" gradientUnits="userSpaceOnUse">
<stop offset="0.00115604" stop-color="#36562D"/>
<stop offset="0.5345" stop-color="#064179"/>
<stop offset="0.5724" stop-color="#194768"/>
<stop offset="0.6444" stop-color="#37504D"/>
<stop offset="0.7202" stop-color="#4F5738"/>
<stop offset="0.8008" stop-color="#605C2A"/>
<stop offset="0.8891" stop-color="#6A5F21"/>
<stop offset="1" stop-color="#6D601E"/>
</linearGradient>
<linearGradient id="paint53_linear_257_27564" x1="26.3903" y1="28.1463" x2="36.4692" y2="41.429" gradientUnits="userSpaceOnUse">
<stop offset="0.00115604" stop-color="white"/>
<stop offset="0.174" stop-color="#F7F7F9"/>
<stop offset="0.5306" stop-color="#EEEDF1"/>
<stop offset="0.9793" stop-color="#EBEAEF"/>
</linearGradient>
<linearGradient id="paint54_linear_257_27564" x1="16.6838" y1="42.6561" x2="32.8819" y2="42.6561" gradientUnits="userSpaceOnUse">
<stop offset="0.00115604" stop-color="#DCDBE0"/>
<stop offset="0.9798" stop-color="#DCDBE0" stop-opacity="0"/>
</linearGradient>
<linearGradient id="paint55_linear_257_27564" x1="16.6838" y1="42.6561" x2="32.8819" y2="42.6561" gradientUnits="userSpaceOnUse">
<stop offset="0.00115604" stop-color="#DCDBE0"/>
<stop offset="0.9798" stop-color="#DCDBE0" stop-opacity="0"/>
</linearGradient>
<linearGradient id="paint56_linear_257_27564" x1="29.5106" y1="23.6818" x2="29.5106" y2="42.0945" gradientUnits="userSpaceOnUse">
<stop offset="0.00115624" stop-color="white"/>
<stop offset="0.0553126" stop-color="#FDF0E6" stop-opacity="0.9445"/>
<stop offset="0.1646" stop-color="#FAD6BB" stop-opacity="0.8326"/>
<stop offset="0.2791" stop-color="#F7C095" stop-opacity="0.7152"/>
<stop offset="0.3975" stop-color="#F5AE77" stop-opacity="0.5939"/>
<stop offset="0.5212" stop-color="#F3A05F" stop-opacity="0.4671"/>
<stop offset="0.6525" stop-color="#F2964E" stop-opacity="0.3326"/>
<stop offset="0.7964" stop-color="#F19044" stop-opacity="0.1852"/>
<stop offset="0.9771" stop-color="#F18E41" stop-opacity="0"/>
</linearGradient>
<clipPath id="clip0_257_27564">
<rect width="58.9531" height="57.4279" fill="white"/>
</clipPath>
</defs>
</svg>
