<svg width="211" height="57" viewBox="0 0 211 57" fill="none" xmlns="http://www.w3.org/2000/svg">
<g clip-path="url(#clip0_257_27549)">
<path d="M4.42301 47.1425C4.41788 47.1579 7.43003 45.444 11.2632 43.258C7.43003 45.4491 4.42814 47.1733 4.44354 47.1784C4.44354 47.1784 16.5435 67.8325 33.7646 49.1643C35.3348 47.4606 36.7665 45.4953 38.4239 43.0835C38.4239 43.0835 38.3931 42.4883 37.9108 42.2368C37.4284 41.9905 33.118 40.1278 33.118 40.1278C33.118 40.1278 32.533 39.7019 31.9224 40.4716C31.3117 41.2414 27.0373 46.3677 22.7371 46.5473C22.7371 46.5473 32.3534 44.2125 27.1707 34.1754C21.1566 24.6155 14.26 31.7123 14.26 31.7123C16.5948 28.0997 23.1887 27.017 24.1585 26.8836C25.1284 26.7502 25.0565 26.0266 25.0565 26.0266C25.0565 26.0266 25.6466 21.3673 25.6774 20.8234C25.7082 20.2794 25.2105 19.951 25.2105 19.951C22.2907 20.1563 19.8686 20.3872 17.6057 20.8747C-7.22022 26.2319 4.42301 47.1425 4.42301 47.1425Z" fill="#677403"/>
<path d="M5.5112 46.4395C5.50607 46.4395 5.51633 46.4549 5.53685 46.4857C5.55225 46.5165 5.56251 46.5319 5.56251 46.5319C5.56251 46.5319 5.56251 46.5319 5.56251 46.5267C6.52722 48.0559 19.6894 67.9659 36.7052 43.1143L32.8207 41.4107C32.8207 41.4107 26.4885 49.1643 20.5668 47.7891C20.5668 47.7891 26.35 43.4941 27.1197 41.1285C27.8791 38.7988 26.4423 35.6943 25.9651 34.8425C25.96 34.8373 25.96 34.8322 25.9548 34.8219C25.9497 34.8168 25.9497 34.8117 25.9446 34.8014C25.452 33.9547 23.5071 31.1427 21.1159 30.6141C18.6887 30.0753 12.0486 32.872 12.0486 32.872C13.8754 27.0735 23.7689 25.5597 23.7689 25.5597L24.2666 21.3416C-5.77796 23.3788 4.68504 44.8334 5.5112 46.4395ZM11.166 43.2734C12.7824 42.3497 14.5887 41.3183 16.3745 40.2972C14.5938 41.3183 12.7824 42.3497 11.166 43.2734Z" fill="#778602"/>
<mask id="mask0_257_27549" style="mask-type:luminance" maskUnits="userSpaceOnUse" x="3" y="21" width="34" height="35">
<path d="M5.51604 46.4498C5.51091 46.4498 5.52117 46.4652 5.53657 46.4908C5.55196 46.5216 5.55709 46.5319 5.55709 46.5319C5.55709 46.5319 5.55709 46.5319 5.55709 46.5267C6.47049 47.9841 19.6583 68.0275 36.7049 43.1246L32.8204 41.4158C32.8204 41.4158 26.4882 49.1694 20.5665 47.7942C20.5665 47.7942 26.3497 43.4992 27.1194 41.1336C27.8737 38.8193 26.4472 35.7199 25.9597 34.8373C25.9545 34.8271 25.9494 34.8168 25.9443 34.8117C25.9392 34.8014 25.934 34.7911 25.9289 34.786C25.4158 33.9188 23.4863 31.1427 21.1105 30.6141C18.6833 30.0753 12.0432 32.872 12.0432 32.872C13.87 27.0735 23.7634 25.5597 23.7634 25.5597L24.2612 21.3416C-5.83983 23.384 4.73093 44.9206 5.51604 46.4498Z" fill="white"/>
</mask>
<g mask="url(#mask0_257_27549)">
<path opacity="0.79" d="M19.6329 48.7281C25.4172 48.7281 30.1062 44.0391 30.1062 38.2549C30.1062 32.4707 25.4172 27.7816 19.6329 27.7816C13.8487 27.7816 9.15967 32.4707 9.15967 38.2549C9.15967 44.0391 13.8487 48.7281 19.6329 48.7281Z" fill="url(#paint0_radial_257_27549)"/>
</g>
<mask id="mask1_257_27549" style="mask-type:luminance" maskUnits="userSpaceOnUse" x="3" y="21" width="34" height="35">
<path d="M5.51604 46.4498C5.51091 46.4498 5.52117 46.4652 5.53657 46.4908C5.55196 46.5216 5.55709 46.5319 5.55709 46.5319C5.55709 46.5319 5.55709 46.5319 5.55709 46.5267C6.47049 47.9841 19.6583 68.0275 36.7049 43.1246L32.8204 41.4158C32.8204 41.4158 26.4882 49.1694 20.5665 47.7942C20.5665 47.7942 26.3497 43.4992 27.1194 41.1336C27.8737 38.8193 26.4472 35.7199 25.9597 34.8373C25.9545 34.8271 25.9494 34.8168 25.9443 34.8117C25.9392 34.8014 25.934 34.7911 25.9289 34.786C25.4158 33.9188 23.4863 31.1427 21.1105 30.6141C18.6833 30.0753 12.0432 32.872 12.0432 32.872C13.87 27.0735 23.7634 25.5597 23.7634 25.5597L24.2612 21.3416C-5.83983 23.384 4.73093 44.9206 5.51604 46.4498Z" fill="white"/>
</mask>
<g mask="url(#mask1_257_27549)">
<path opacity="0.52" d="M12.844 31.6917C8.05633 31.3069 5.23917 33.8469 6.55282 37.3568C7.86647 40.8667 12.8132 44.0277 17.6008 44.4126C22.3884 44.7974 25.2056 42.2574 23.8919 38.7474C22.5783 35.2324 17.6316 32.0766 12.844 31.6917Z" fill="url(#paint1_radial_257_27549)"/>
</g>
<mask id="mask2_257_27549" style="mask-type:luminance" maskUnits="userSpaceOnUse" x="3" y="21" width="34" height="35">
<path d="M5.51604 46.4498C5.51091 46.4498 5.52117 46.4652 5.53657 46.4908C5.55196 46.5216 5.55709 46.5319 5.55709 46.5319C5.55709 46.5319 5.55709 46.5319 5.55709 46.5267C6.47049 47.9841 19.6583 68.0275 36.7049 43.1246L32.8204 41.4158C32.8204 41.4158 26.4882 49.1694 20.5665 47.7942C20.5665 47.7942 26.3497 43.4992 27.1194 41.1336C27.8737 38.8193 26.4472 35.7199 25.9597 34.8373C25.9545 34.8271 25.9494 34.8168 25.9443 34.8117C25.9392 34.8014 25.934 34.7911 25.9289 34.786C25.4158 33.9188 23.4863 31.1427 21.1105 30.6141C18.6833 30.0753 12.0432 32.872 12.0432 32.872C13.87 27.0735 23.7634 25.5597 23.7634 25.5597L24.2612 21.3416C-5.83983 23.384 4.73093 44.9206 5.51604 46.4498Z" fill="white"/>
</mask>
<g mask="url(#mask2_257_27549)">
<path opacity="0.52" d="M12.5053 44.5409C12.6747 49.3388 15.5226 51.848 18.8581 50.1341C22.1986 48.4254 24.7643 43.1451 24.5899 38.3472C24.4154 33.5493 21.5726 31.04 18.2372 32.7539C14.8966 34.4627 12.3309 39.7378 12.5053 44.5409Z" fill="url(#paint2_radial_257_27549)"/>
</g>
<path d="M4.24311 39.5992C4.24311 39.5992 3.7351 40.3587 3.54524 40.7743C3.54524 40.7743 3.41182 40.1688 3.3913 40.0457L4.24311 39.5992Z" fill="#389A00"/>
<path d="M19.8993 38.3267L13.8544 41.7801L15.2912 44.9514L19.8993 38.3267Z" fill="white"/>
<path d="M10.8476 51.1655C10.8476 51.1655 9.93417 51.2169 9.4826 51.1707C9.4826 51.1707 9.93417 51.5915 10.0317 51.6736L10.8476 51.1655Z" fill="#389A00"/>
<path d="M5.51624 46.4395C5.51624 46.4395 19.0376 68.9408 36.7154 43.1194L32.8257 41.4107C32.8257 41.4107 24.559 51.7864 17.7137 46.3779L15.4456 45.0386L13.6752 41.8058L5.51624 46.4395Z" fill="url(#paint3_radial_257_27549)"/>
<path d="M11.9149 50.5806C11.9149 50.5806 18.5858 57.2053 27.1707 51.5915L27.263 52.1662C27.263 52.1662 19.0117 58.8473 10.3601 51.1296L10.1086 50.6832L11.9149 50.5806Z" fill="url(#paint4_linear_257_27549)"/>
<path d="M9.47748 51.1656C9.47748 51.1656 12.4383 51.5196 15.3684 50.3907L14.8963 48.6717L17.1387 48.6358L19.6582 38.4601L18.9552 38.8347L9.47748 51.1656Z" fill="url(#paint5_radial_257_27549)"/>
<path d="M9.4826 51.1707C9.4826 51.1707 12.4434 51.5247 15.3735 50.3958L14.9014 48.6768L17.1438 48.6409L19.6634 38.4652L18.9604 38.8398L16.6871 48.0251L14.0701 48.0508L14.65 49.9853C14.65 49.9853 11.9046 50.8884 10.4524 50.365L9.4826 51.1707Z" fill="#677403"/>
<path d="M5.56223 46.537C5.56223 46.537 -6.95335 23.4609 24.2663 21.3468L23.7686 25.5648C23.7686 25.5648 10.5141 27.6225 11.7815 36.115L11.8123 38.691L13.7007 41.8571L5.56223 46.537Z" fill="url(#paint6_linear_257_27549)"/>
<path d="M3.53015 40.7744C3.53015 40.7744 4.73091 38.0445 7.18887 36.0894L8.43067 37.3722L9.60577 35.4582L19.6531 38.4601L18.9706 38.8758L3.53015 40.7744Z" fill="url(#paint7_radial_257_27549)"/>
<path opacity="0.41" d="M5.51601 43.2683C7.72766 42.0059 10.3242 42.3857 11.3145 44.1252C12.3049 45.8648 11.3145 48.2919 9.10289 49.5543C6.89124 50.8166 4.29473 50.4369 3.30437 48.6973C2.314 46.9578 3.30437 44.5306 5.51601 43.2683Z" fill="url(#paint8_radial_257_27549)"/>
<path opacity="0.77" d="M11.0682 35.3402C11.0682 35.3402 10.5397 29.1158 18.6782 26.1601L17.9803 25.0517C17.9803 25.0517 10.0779 28.7155 11.0682 35.3402Z" fill="url(#paint9_linear_257_27549)"/>
<path d="M5.28537 38.9784C5.28537 38.9784 2.97109 29.865 12.1615 25.3237L11.7151 24.9491C11.7151 24.9491 1.77034 28.6642 4.02304 40.0355L4.27448 40.4819L5.28537 38.9784Z" fill="url(#paint10_linear_257_27549)"/>
<path d="M3.54041 40.7744C3.54041 40.7744 4.74116 38.0445 7.19912 36.0894L8.44093 37.3722L9.61603 35.4582L19.6634 38.4601L18.9809 38.8758L9.91365 36.1664L8.55895 38.4088L7.18886 36.9258C7.18886 36.9258 5.01826 38.8347 4.7309 40.3485L3.54041 40.7744Z" fill="#677403"/>
<path d="M19.9046 38.3267L13.8597 41.7801L11.8533 38.9322L19.9046 38.3267Z" fill="white"/>
<path d="M19.8993 38.3216L13.8544 41.7751L15.2912 44.9514L19.8993 38.3216Z" fill="white"/>
<path d="M11.0818 51.0331C14.9723 48.8107 16.647 44.4198 14.8225 41.2257C12.9979 38.0317 8.36495 37.2439 4.47446 39.4663C0.583976 41.6887 -1.09079 46.0796 0.733774 49.2736C2.55834 52.4677 7.19129 53.2555 11.0818 51.0331Z" fill="#677403"/>
<path d="M5.12602 40.5999C8.39988 38.7269 12.2433 39.2965 13.7109 41.8674C15.1785 44.4382 13.716 48.0354 10.4371 49.9083C7.15807 51.7813 3.31976 51.2066 1.85217 48.6358C0.384575 46.0649 1.84703 42.4678 5.12602 40.5999Z" fill="url(#paint11_radial_257_27549)"/>
<path opacity="0.77" d="M17.9851 47.4504C17.9851 47.4504 23.0755 51.0681 29.7566 45.562L30.357 46.7269C30.357 46.7217 23.1884 51.6684 17.9851 47.4504Z" fill="url(#paint12_linear_257_27549)"/>
<path opacity="0.56" d="M27.135 41.1387C27.8893 38.8245 26.4628 35.7251 25.9753 34.8425C25.9702 34.8322 25.965 34.8219 25.9599 34.8168C25.9548 34.8065 25.9496 34.7963 25.9445 34.7911C25.4314 33.9239 23.5019 31.1478 21.1261 30.6193C20.5668 30.4961 19.7765 30.5474 18.899 30.7065L19.0838 31.0452C19.6072 30.9939 20.0741 30.999 20.4385 31.0811C22.8143 31.6097 24.7438 34.3806 25.2569 35.253C25.262 35.2632 25.2672 35.2735 25.2723 35.2786C25.2774 35.2889 25.2826 35.2992 25.2877 35.3043C25.7803 36.1869 27.2017 39.2863 26.4474 41.6006C26.3088 42.0213 26.0112 42.5088 25.6161 43.0168L25.7341 43.2324C26.4115 42.478 26.9349 41.7442 27.135 41.1387Z" fill="url(#paint13_linear_257_27549)"/>
<path d="M5.65999 41.4055C8.4515 39.979 11.6227 40.5999 12.7414 42.791C13.86 44.9821 12.5002 47.9122 9.7087 49.3387C6.9172 50.7653 3.74597 50.1444 2.62731 47.9532C1.50866 45.7621 2.86849 42.8321 5.65999 41.4055Z" fill="url(#paint14_linear_257_27549)"/>
<path d="M54.0543 47.4247C54.0697 47.4196 51.0934 45.6493 47.2911 43.4017C51.0934 45.6441 54.0799 47.4042 54.0748 47.3837C54.0748 47.3837 66.0311 26.6476 41.2821 20.926C39.0243 20.4026 36.6074 20.1358 33.6876 19.8895C33.6876 19.8895 33.1847 20.2127 33.2104 20.7567C33.2309 21.3006 33.7543 25.9651 33.7543 25.9651C33.7543 25.9651 33.6722 26.6835 34.6421 26.8323C35.6119 26.9811 42.1853 28.1562 44.4688 31.8098C44.4688 31.8098 37.6799 24.6104 31.5222 34.0779C26.1906 44.0329 35.7761 46.5113 35.7761 46.5113C31.476 46.2702 27.2785 41.0772 26.6832 40.3023C26.0828 39.5275 25.4927 39.9431 25.4927 39.9431C25.4927 39.9431 21.1515 41.7391 20.6692 41.9803C20.1817 42.2215 20.1406 42.8167 20.1406 42.8167C21.7622 45.2541 23.163 47.24 24.7127 48.9693C41.6516 67.8992 54.0543 47.4247 54.0543 47.4247Z" fill="#094CB5"/>
<path d="M52.9048 46.8244C52.91 46.8244 52.91 46.8295 52.9048 46.8244C52.9048 46.8295 52.9151 46.8141 52.9356 46.7782C52.9562 46.7474 52.9664 46.732 52.9664 46.732C52.9664 46.732 52.9664 46.732 52.9613 46.732C53.8131 45.1361 64.5943 23.8407 34.5805 21.3622L35.0167 25.5853C35.0167 25.5853 44.8895 27.2479 46.6291 33.0721C46.6291 33.0721 40.0352 30.178 37.5978 30.6757C35.1963 31.1683 33.2104 33.9547 32.7075 34.7911C32.7024 34.7963 32.7024 34.8014 32.6972 34.8065C32.6921 34.8117 32.6921 34.8168 32.687 34.8219C32.1944 35.6686 30.7114 38.7475 31.44 41.0925C32.1738 43.4684 37.8903 47.8506 37.8903 47.8506C31.9481 49.1335 25.7339 41.2875 25.7339 41.2875L21.8186 42.9501C38.4599 68.0531 51.9196 48.3381 52.9048 46.8244ZM47.3526 43.4838C45.7516 42.5396 43.9556 41.4774 42.1904 40.4306C43.9608 41.4723 45.7516 42.5345 47.3526 43.4838Z" fill="#064996"/>
<mask id="mask3_257_27549" style="mask-type:luminance" maskUnits="userSpaceOnUse" x="21" y="21" width="35" height="35">
<path d="M52.91 46.8141C52.9151 46.8192 52.9151 46.8192 52.91 46.8141C52.91 46.8192 52.9202 46.8038 52.9356 46.7731C52.951 46.7474 52.9613 46.732 52.9613 46.732C52.9613 46.732 52.9613 46.732 52.9562 46.732C53.7669 45.2131 64.6558 23.8355 34.5805 21.3519L35.0167 25.5751C35.0167 25.5751 44.8895 27.2377 46.6291 33.0619C46.6291 33.0619 40.0352 30.1677 37.5978 30.6655C35.2117 31.1581 33.2258 33.9291 32.7024 34.7911C32.6972 34.8014 32.6921 34.8117 32.687 34.8168C32.6819 34.8271 32.6767 34.8373 32.6716 34.8425C32.1687 35.7148 30.7165 38.768 31.4349 41.0926C32.1687 43.4684 37.8851 47.8507 37.8851 47.8507C31.9429 49.1335 25.7288 41.2875 25.7288 41.2875L21.8186 42.9501C38.4958 68.1044 51.9761 48.256 52.91 46.8141Z" fill="white"/>
</mask>
<g mask="url(#mask3_257_27549)">
<path opacity="0.74" d="M38.8035 49.0822C44.5877 49.0822 49.2767 44.3932 49.2767 38.6089C49.2767 32.8247 44.5877 28.1357 38.8035 28.1357C33.0192 28.1357 28.3302 32.8247 28.3302 38.6089C28.3302 44.3932 33.0192 49.0822 38.8035 49.0822Z" fill="url(#paint15_radial_257_27549)"/>
</g>
<path d="M47.5935 51.3144C47.5935 51.3144 48.5069 51.3811 48.9585 51.3401C48.9585 51.3401 48.5018 51.7557 48.4043 51.8327L47.5935 51.3144Z" fill="#389A00"/>
<path d="M38.7316 38.3421L44.7251 41.8828L46.7674 39.0657L38.7316 38.3421Z" fill="white"/>
<path d="M54.3723 39.8507C54.3723 39.8507 54.87 40.6204 55.0547 41.036C55.0547 41.036 55.1984 40.4356 55.2189 40.3125L54.3723 39.8507Z" fill="#389A00"/>
<path d="M52.9049 46.8244C52.9049 46.8244 65.7591 23.9381 34.5754 21.3622L35.0116 25.5853C35.0116 25.5853 48.1224 27.6328 46.8087 36.2536L46.7677 38.8912L44.8331 42.0316L52.9049 46.8244Z" fill="url(#paint16_radial_257_27549)"/>
<path d="M53.3359 39.2093C53.3359 39.2093 55.7887 30.1318 46.6599 25.4519L47.1166 25.0876C47.1166 25.0876 57.0049 28.9516 54.5828 40.2869L54.3211 40.7282L53.3359 39.2093Z" fill="url(#paint17_linear_257_27549)"/>
<path d="M55.0499 41.0412C55.0499 41.0412 53.8902 38.2959 51.4631 36.3049L50.2007 37.5673L49.0564 35.6327L38.968 38.4807L39.6402 38.9066L55.0499 41.0412Z" fill="url(#paint18_radial_257_27549)"/>
<path d="M55.0499 41.0361C55.0499 41.0361 53.8902 38.2908 51.4631 36.2998L50.2007 37.5621L49.0564 35.6327L38.968 38.4807L39.6402 38.9066L48.7485 36.3357L50.0673 38.5987L51.4631 37.1362C51.4631 37.1362 53.608 39.0759 53.8697 40.5948L55.0499 41.0361Z" fill="#094CB5"/>
<path d="M52.9664 46.7371C52.9664 46.7371 39.1115 69.0332 21.8186 42.9553L25.7288 41.3029C25.7288 41.3029 34.0776 51.8018 40.8306 46.4908L43.0576 45.1874L44.8741 41.9803L52.9664 46.7371Z" fill="url(#paint19_linear_257_27549)"/>
<path d="M48.9687 51.3554C48.9687 51.3554 46.0027 51.6633 43.0881 50.4933L43.5858 48.7794L41.3434 48.7076L38.9778 38.496L39.6757 38.8809L48.9687 51.3554Z" fill="url(#paint20_radial_257_27549)"/>
<path opacity="0.41" d="M50.1493 48.3946C47.9581 47.0963 47.0037 44.6538 48.0197 42.9347C49.0357 41.2157 51.6374 40.8719 53.8285 42.165C56.0196 43.4633 56.9741 45.9058 55.958 47.6249C54.942 49.3439 52.3404 49.6877 50.1493 48.3946Z" fill="url(#paint21_radial_257_27549)"/>
<path d="M40.5122 47.4915C40.5122 47.4915 35.3654 51.0322 28.7715 45.4286L28.1557 46.5832C28.1506 46.5832 35.2473 51.6377 40.5122 47.4915Z" fill="url(#paint22_linear_257_27549)"/>
<path d="M46.5319 50.7192C46.5319 50.7192 39.7636 57.2412 31.2608 51.5043L31.1581 52.079C31.1581 52.079 39.3069 58.8781 48.0765 51.2939L48.3382 50.8526L46.5319 50.7192Z" fill="url(#paint23_linear_257_27549)"/>
<path d="M48.9589 51.3452C48.9589 51.3452 45.993 51.653 43.0783 50.4831L43.576 48.7692L41.3336 48.6973L38.968 38.4858L39.6659 38.8706L41.8006 48.0867L44.4176 48.1534L43.8018 50.0828C43.8018 50.0828 46.5369 51.027 47.9942 50.5241L48.9589 51.3452Z" fill="#094CB5"/>
<path d="M38.7316 38.3421L44.7251 41.8828L43.2421 45.0335L38.7316 38.3421Z" fill="white"/>
<path d="M38.7316 38.3421L44.7251 41.888L46.7674 39.0657L38.7316 38.3421Z" fill="white"/>
<path d="M57.7318 49.5752C59.6038 46.4087 57.9947 41.9933 54.1378 39.7131C50.281 37.433 45.6368 38.1515 43.7648 41.318C41.8928 44.4845 43.5018 48.8999 47.3587 51.18C51.2156 53.4602 55.8597 52.7417 57.7318 49.5752Z" fill="#094CB5"/>
<path d="M48.0197 50.0572C44.7715 48.138 43.3604 44.5152 44.869 41.97C46.3777 39.4248 50.2262 38.9117 53.4744 40.8308C56.7226 42.75 58.1338 46.3728 56.6251 48.918C55.1165 51.4632 51.2679 51.9763 48.0197 50.0572Z" fill="url(#paint24_radial_257_27549)"/>
<path opacity="0.77" d="M47.6041 35.489C47.6041 35.489 48.225 29.2748 40.1327 26.196L40.846 25.0979C40.8511 25.0979 48.6971 28.8797 47.6041 35.489Z" fill="url(#paint25_linear_257_27549)"/>
<path d="M48.3789 49.1489C45.6798 47.553 44.5047 44.546 45.7568 42.4267C47.0088 40.3074 50.2109 39.8867 52.91 41.4825C55.6091 43.0784 56.7842 46.0854 55.5321 48.2047C54.2801 50.3189 51.0781 50.7448 48.3789 49.1489Z" fill="url(#paint26_linear_257_27549)"/>
<path opacity="0.56" d="M37.5924 30.6654C35.2063 31.158 33.2204 33.929 32.697 34.7911C32.6919 34.8014 32.6867 34.8116 32.6816 34.8168C32.6765 34.827 32.6713 34.8373 32.6662 34.8424C32.1633 35.7148 30.7111 38.768 31.4295 41.0925C31.5989 41.6416 32.035 42.2984 32.6046 42.986L32.8099 42.6576C32.5071 42.2266 32.2814 41.8212 32.1685 41.462C31.4501 39.1374 32.9023 36.0842 33.4051 35.2119C33.4103 35.2016 33.4154 35.1914 33.4205 35.1862C33.4257 35.176 33.4308 35.1657 33.4359 35.1606C33.9593 34.2985 35.9503 31.5224 38.3313 31.0349C38.7675 30.9477 39.3371 30.963 39.9734 31.0554L40.1017 30.8502C39.1164 30.6295 38.2184 30.5371 37.5924 30.6654Z" fill="url(#paint27_linear_257_27549)"/>
<path d="M29.3926 4.25396C29.3824 4.2437 29.3721 7.70742 29.3721 12.1205C29.367 7.70742 29.3618 4.2437 29.3516 4.25396C29.3516 4.25396 5.41855 4.51566 13.0849 28.7309C13.7828 30.9426 14.7834 33.1593 16.056 35.7969C16.056 35.7969 16.5897 36.0637 17.0464 35.7661C17.5031 35.4685 21.2542 32.6513 21.2542 32.6513C21.2542 32.6513 21.9161 32.3537 21.5518 31.4454C21.1875 30.5372 18.8578 24.2768 20.8334 20.4539C20.8334 20.4539 18.0932 29.9625 29.3772 30.4397C40.6613 29.9625 37.9211 20.4539 37.9211 20.4539C39.9018 24.2768 37.567 30.532 37.2027 31.4454C36.8383 32.3537 37.5003 32.6513 37.5003 32.6513C37.5003 32.6513 41.2565 35.4736 41.7081 35.7661C42.1596 36.0586 42.6984 35.7969 42.6984 35.7969C43.971 33.1593 44.9665 30.9426 45.6695 28.7309C53.3308 4.51566 29.3926 4.25396 29.3926 4.25396Z" fill="#276A02"/>
<path d="M29.4645 5.55221C29.4645 5.54708 29.4645 5.54708 29.4645 5.55221C29.4645 5.54708 29.4491 5.54708 29.4132 5.55221C29.3772 5.55221 29.3567 5.55221 29.3567 5.55221C29.3567 5.55221 29.3567 5.55221 29.3567 5.55734C27.5505 5.63431 3.73032 7.18914 16.8719 34.2883L20.2843 31.7636C20.2843 31.7636 16.6923 22.4192 20.8231 17.96C20.8231 17.96 21.6852 25.1081 23.3581 26.9503C25.0053 28.7668 28.4125 29.0593 29.3926 29.0645C29.3978 29.0645 29.408 29.0645 29.4132 29.0645C29.4183 29.0645 29.4286 29.0645 29.4337 29.0645C30.4138 29.0542 33.8211 28.7668 35.4683 26.9503C37.1411 25.1081 38.0032 17.96 38.0032 17.96C42.134 22.4244 38.542 31.7636 38.542 31.7636L41.9544 34.2883C55.0857 7.18401 31.2656 5.62918 29.4645 5.55221ZM29.408 12.0332C29.408 13.8959 29.408 15.9742 29.408 18.0267C29.408 15.9742 29.408 13.8908 29.408 12.0332Z" fill="#389A00"/>
<mask id="mask4_257_27549" style="mask-type:luminance" maskUnits="userSpaceOnUse" x="12" y="5" width="34" height="30">
<path d="M29.4491 5.55221C29.4542 5.54708 29.4542 5.54708 29.4491 5.55221C29.4491 5.54708 29.4337 5.54708 29.4029 5.55221C29.3721 5.55221 29.3516 5.55221 29.3516 5.55221C29.3516 5.55221 29.3516 5.55221 29.3516 5.55734C27.6325 5.62918 3.68924 7.13269 16.8565 34.2883L20.2689 31.7636C20.2689 31.7636 16.6769 22.4192 20.8077 17.96C20.8077 17.96 21.6698 25.1081 23.3426 26.9503C24.9796 28.7514 28.3766 29.0542 29.3875 29.0645C29.3977 29.0645 29.408 29.0645 29.4183 29.0645C29.4285 29.0645 29.4388 29.0645 29.4491 29.0645C30.4599 29.0542 33.8262 28.7514 35.458 26.9503C37.1308 25.1081 37.9929 17.96 37.9929 17.96C42.1237 22.4244 38.5317 31.7636 38.5317 31.7636L41.9441 34.2883C55.1165 7.12756 31.1681 5.62405 29.4491 5.55221Z" fill="white"/>
</mask>
<g mask="url(#mask4_257_27549)">
<path opacity="0.74" d="M35.5041 33.6776C41.2884 33.6776 45.9774 28.9886 45.9774 23.2044C45.9774 17.4201 41.2884 12.7311 35.5041 12.7311C29.7199 12.7311 25.0309 17.4201 25.0309 23.2044C25.0309 28.9886 29.7199 33.6776 35.5041 33.6776Z" fill="url(#paint28_linear_257_27549)"/>
</g>
<path d="M36.0327 7.84084C36.0327 7.84084 35.6222 7.01981 35.3605 6.65034C35.3605 6.65034 35.9506 6.83508 36.0686 6.87613L36.0327 7.84084Z" fill="#389A00"/>
<path d="M29.3721 22.0703V15.107L25.9084 14.7837L29.3721 22.0703Z" fill="white"/>
<path d="M22.7118 7.84087C22.7118 7.84087 23.1223 7.01984 23.384 6.65038C23.384 6.65038 22.7939 6.83511 22.6759 6.87616L22.7118 7.84087Z" fill="#389A00"/>
<path d="M29.4647 5.55224C29.4647 5.55224 3.22258 6.13209 16.8722 34.2883L20.2846 31.7636C20.2846 31.7636 15.3738 19.4379 23.4661 16.1794L25.7598 14.8709L29.4442 14.9376L29.4647 5.55224Z" fill="url(#paint29_radial_257_27549)"/>
<path d="M22.6913 9.05704C22.6913 9.05704 13.6291 11.5663 14.2449 21.8035L13.701 21.5983C13.701 21.5983 11.9922 11.1199 22.9838 7.4355H23.4969L22.6913 9.05704Z" fill="url(#paint30_linear_257_27549)"/>
<path d="M23.394 6.65034C23.394 6.65034 21.6185 9.04673 21.1413 12.1512L22.8706 12.5925L21.7879 14.563L29.3773 21.7983L29.3978 21.003L23.394 6.65034Z" fill="url(#paint31_radial_257_27549)"/>
<path d="M23.3886 6.65038C23.3886 6.65038 21.6131 9.04676 21.1359 12.1513L22.8652 12.5926L21.7825 14.5631L29.3719 21.7984L29.3924 21.003L22.5471 14.4707L23.8197 12.1821L21.8492 11.7254C21.8492 11.7254 22.429 8.89281 23.599 7.89218L23.3886 6.65038Z" fill="#276A02"/>
<path d="M29.3569 5.54703C29.3569 5.54703 55.599 6.12688 41.9494 34.2831L38.537 31.7584C38.537 31.7584 43.3246 19.2274 35.3196 16.1178L33.0669 14.8657L29.3825 14.9324L29.3569 5.54703Z" fill="#389A00"/>
<path d="M35.3658 6.64011C35.3658 6.64011 37.1413 9.0365 37.6185 12.141L35.8892 12.5823L36.972 14.5528L29.3826 21.7881L29.3621 20.9927L35.3658 6.64011Z" fill="url(#paint32_radial_257_27549)"/>
<path opacity="0.41" d="M28.597 11.7407C30.595 11.7407 32.2146 9.67527 32.2146 7.12749C32.2146 4.57971 30.595 2.51433 28.597 2.51433C26.599 2.51433 24.9793 4.57971 24.9793 7.12749C24.9793 9.67527 26.599 11.7407 28.597 11.7407Z" fill="url(#paint33_radial_257_27549)"/>
<path d="M36.346 15.8819C36.346 15.8819 42.0111 18.5091 40.5435 27.0427L41.852 26.9863C41.852 26.9863 42.591 18.3039 36.346 15.8819Z" fill="url(#paint34_linear_257_27549)"/>
<path d="M36.8589 16.9337L37.4438 17.3853C37.4438 17.3853 36.5048 23.5841 35.3553 24.9491L33.9545 23.1736C33.9545 23.1736 36.3355 19.0736 36.8589 16.9337Z" fill="url(#paint35_linear_257_27549)"/>
<path d="M36.0533 9.05698C36.0533 9.05698 45.1154 11.5663 44.4996 21.8035L45.0435 21.5982C45.0435 21.5982 46.7523 11.1198 35.7608 7.43545H35.2476L36.0533 9.05698Z" fill="url(#paint36_linear_257_27549)"/>
<path d="M35.3607 6.65038C35.3607 6.65038 37.1361 9.04676 37.6134 12.1513L35.8841 12.5926L36.9668 14.5631L29.3774 21.7984L29.3569 21.003L36.2022 14.4707L34.9296 12.1821L36.9001 11.7254C36.9001 11.7254 36.3202 8.89281 35.1503 7.89218L35.3607 6.65038Z" fill="#276A02"/>
<path d="M29.3719 22.0703V15.107L32.8407 14.7837L29.3719 22.0703Z" fill="white"/>
<path d="M29.3772 22.0703V15.107L25.9084 14.7837L29.3772 22.0703Z" fill="white"/>
<path d="M29.3723 16.2256C33.0509 16.2256 36.0329 12.5934 36.0329 8.1128C36.0329 3.63223 33.0509 0 29.3723 0C25.6938 0 22.7117 3.63223 22.7117 8.1128C22.7117 12.5934 25.6938 16.2256 29.3723 16.2256Z" fill="#276A02"/>
<path d="M29.3718 14.9427C32.3305 14.9427 34.729 11.8848 34.729 8.11276C34.729 4.34068 32.3305 1.28281 29.3718 1.28281C26.4131 1.28281 24.0146 4.34068 24.0146 8.11276C24.0146 11.8848 26.4131 14.9427 29.3718 14.9427Z" fill="url(#paint37_radial_257_27549)"/>
<path d="M32.446 3.40207C32.446 3.40207 29.9881 4.09482 29.0541 5.3007C28.1202 6.50659 26.5397 9.07231 27.4069 13.5367V13.5418C25.7905 12.5617 24.8002 10.6015 24.8002 8.11273C24.8002 4.70546 26.9092 1.93961 29.5108 1.93961C30.727 1.93961 31.625 2.40144 32.4614 3.39181L32.446 3.40207Z" fill="url(#paint38_linear_257_27549)"/>
<path d="M22.3983 15.8819C22.3983 15.8819 16.7332 18.5091 18.2007 27.0427L16.8922 26.9863C16.8922 26.9863 16.1533 18.3039 22.3983 15.8819Z" fill="url(#paint39_linear_257_27549)"/>
<path d="M29.7931 11.4636C31.7401 11.4636 33.3184 9.45332 33.3184 6.97356C33.3184 4.4938 31.7401 2.48355 29.7931 2.48355C27.8462 2.48355 26.2678 4.4938 26.2678 6.97356C26.2678 9.45332 27.8462 11.4636 29.7931 11.4636Z" fill="url(#paint40_radial_257_27549)"/>
<mask id="mask5_257_27549" style="mask-type:luminance" maskUnits="userSpaceOnUse" x="31" y="18" width="8" height="10">
<path d="M37.7058 20.1152C37.7058 20.1152 39.5839 21.8548 38.2497 27.9304C38.2497 27.9304 33.5083 27.7919 33.3697 27.5558C33.2312 27.3198 31.5276 25.7136 31.5635 24.6206C31.5994 23.5276 30.9477 21.2749 31.0863 20.5258C31.2248 19.7766 31.2556 19.4328 31.702 19.2275C32.1433 19.0222 32.3845 18.4424 33.6828 18.6476C34.9759 18.8529 37.7058 20.1152 37.7058 20.1152Z" fill="white"/>
</mask>
<g mask="url(#mask5_257_27549)">
<path d="M54.0542 47.4247C54.0696 47.4196 51.0934 45.6492 47.291 43.4017C51.0934 45.6441 54.0799 47.4042 54.0748 47.3837C54.0748 47.3837 66.031 26.6475 41.2821 20.926C39.0243 20.4026 36.6073 20.1357 33.6876 19.8894C33.6876 19.8894 33.1847 20.2127 33.2103 20.7566C33.2309 21.3006 33.7543 25.9651 33.7543 25.9651C33.7543 25.9651 33.6722 26.6835 34.642 26.8323C35.6118 26.9811 42.1852 28.1562 44.4687 31.8098C44.4687 31.8098 37.6798 24.6104 31.5221 34.0779C26.1905 44.0328 35.7761 46.5113 35.7761 46.5113C31.4759 46.2702 27.2784 41.0771 26.6831 40.3023C26.0828 39.5274 25.4927 39.9431 25.4927 39.9431C25.4927 39.9431 21.1515 41.7391 20.6691 41.9803C20.1816 42.2214 20.1406 42.8167 20.1406 42.8167C21.7621 45.2541 23.163 47.24 24.7127 48.9693C41.6515 67.8992 54.0542 47.4247 54.0542 47.4247Z" fill="#094CB5"/>
<path d="M52.9048 46.8243C52.9099 46.8243 52.9099 46.8295 52.9048 46.8243C52.9048 46.8295 52.915 46.8141 52.9356 46.7782C52.9561 46.7474 52.9664 46.732 52.9664 46.732C52.9664 46.732 52.9664 46.732 52.9612 46.732C53.813 45.1361 64.5942 23.8406 34.5804 21.3622L35.0166 25.5853C35.0166 25.5853 44.8895 27.2479 46.629 33.0721C46.629 33.0721 40.0351 30.178 37.5977 30.6757C35.1962 31.1683 33.2103 33.9547 32.7075 34.7911C32.7023 34.7963 32.7023 34.8014 32.6972 34.8065C32.6921 34.8116 32.6921 34.8168 32.6869 34.8219C32.1943 35.6686 30.7113 38.7475 31.44 41.0925C32.1738 43.4684 37.8902 47.8506 37.8902 47.8506C31.948 49.1335 25.7338 41.2875 25.7338 41.2875L21.8185 42.9501C38.4598 68.0531 51.9195 48.3381 52.9048 46.8243ZM47.3526 43.4838C45.7516 42.5396 43.9556 41.4774 42.1903 40.4306C43.9607 41.4723 45.7516 42.5345 47.3526 43.4838Z" fill="#064996"/>
<path d="M52.9048 46.8243C52.9048 46.8243 65.7591 23.9381 34.5753 21.3622L35.0115 25.5853C35.0115 25.5853 48.1223 27.6328 46.8087 36.2536L46.7676 38.8911L44.8331 42.0316L52.9048 46.8243Z" fill="url(#paint41_radial_257_27549)"/>
</g>
<mask id="mask6_257_27549" style="mask-type:luminance" maskUnits="userSpaceOnUse" x="29" y="37" width="12" height="10">
<path d="M29.3261 43.1605C29.3261 43.1605 32.5846 46.3882 35.7764 46.5165L36.3459 46.5267C36.3459 46.5267 39.6814 45.0591 39.6916 45.0232C39.7019 44.9873 40.954 40.9745 40.9642 40.6872C40.9745 40.4049 40.2253 38.7064 40.0406 38.5576C39.861 38.4088 38.7782 37.9213 38.0598 37.7622C37.3414 37.6032 36.4896 37.5211 36.2536 37.5211C36.0124 37.5211 34.8681 37.5108 34.1959 37.5005C33.5237 37.4903 32.9695 37.6596 32.328 37.752C31.6917 37.8443 30.2908 38.8347 30.1985 38.9938C30.1061 39.1529 29.2543 41.3235 29.244 41.3696C29.2338 41.4158 29.0182 42.3138 29.0182 42.3138L29.3261 43.1605Z" fill="white"/>
</mask>
<g mask="url(#mask6_257_27549)">
<path d="M4.42301 47.1426C4.41788 47.158 7.43003 45.4441 11.2632 43.2581C7.43003 45.4492 4.42814 47.1734 4.44354 47.1785C4.44354 47.1785 16.5435 67.8325 33.7646 49.1644C35.3348 47.4607 36.7665 45.4954 38.4239 43.0836C38.4239 43.0836 38.3931 42.4884 37.9108 42.2369C37.4284 41.9906 33.118 40.1279 33.118 40.1279C33.118 40.1279 32.533 39.702 31.9224 40.4717C31.3117 41.2414 27.0373 46.3677 22.7371 46.5473C22.7371 46.5473 32.3534 44.2125 27.1707 34.1754C21.1566 24.6156 14.26 31.7123 14.26 31.7123C16.5948 28.0998 23.1887 27.0171 24.1585 26.8837C25.1284 26.7503 25.0565 26.0267 25.0565 26.0267C25.0565 26.0267 25.6466 21.3674 25.6774 20.8234C25.7082 20.2795 25.2105 19.9511 25.2105 19.9511C22.2907 20.1564 19.8686 20.3873 17.6057 20.8748C-7.22022 26.232 4.42301 47.1426 4.42301 47.1426Z" fill="#677403"/>
<path d="M5.51114 46.4396C5.50601 46.4396 5.51627 46.455 5.53679 46.4858C5.55219 46.5166 5.56245 46.5319 5.56245 46.5319C5.56245 46.5319 5.56245 46.5319 5.56245 46.5268C6.52716 48.056 19.6893 67.966 36.7051 43.1144L32.8206 41.4108C32.8206 41.4108 26.4885 49.1644 20.5668 47.7891C20.5668 47.7891 26.3499 43.4941 27.1196 41.1285C27.8791 38.7989 26.4423 35.6943 25.965 34.8425C25.9599 34.8374 25.9599 34.8323 25.9548 34.822C25.9496 34.8169 25.9497 34.8117 25.9445 34.8015C25.4519 33.9548 23.5071 31.1428 21.1158 30.6142C18.6887 30.0754 12.0486 32.8721 12.0486 32.8721C13.8754 27.0735 23.7688 25.5598 23.7688 25.5598L24.2665 21.3417C-5.77802 23.3789 4.68498 44.8334 5.51114 46.4396ZM11.166 43.2735C12.7824 42.3498 14.5886 41.3184 16.3744 40.2972C14.5938 41.3184 12.7824 42.3498 11.166 43.2735Z" fill="#778602"/>
<mask id="mask7_257_27549" style="mask-type:luminance" maskUnits="userSpaceOnUse" x="3" y="21" width="34" height="35">
<path d="M5.51604 46.4498C5.51091 46.4498 5.52117 46.4652 5.53657 46.4909C5.55196 46.5217 5.55709 46.5319 5.55709 46.5319C5.55709 46.5319 5.55709 46.5319 5.55709 46.5268C6.47049 47.9841 19.6583 68.0275 36.7049 43.1247L32.8204 41.4159C32.8204 41.4159 26.4882 49.1695 20.5665 47.7943C20.5665 47.7943 26.3497 43.4993 27.1194 41.1337C27.8737 38.8194 26.4472 35.72 25.9597 34.8374C25.9545 34.8271 25.9494 34.8169 25.9443 34.8117C25.9392 34.8015 25.934 34.7912 25.9289 34.7861C25.4158 33.9189 23.4863 31.1428 21.1105 30.6142C18.6833 30.0754 12.0432 32.8721 12.0432 32.8721C13.87 27.0735 23.7634 25.5598 23.7634 25.5598L24.2612 21.3417C-5.83983 23.384 4.73093 44.9207 5.51604 46.4498Z" fill="white"/>
</mask>
<g mask="url(#mask7_257_27549)">
<path opacity="0.79" d="M19.6329 48.7282C25.4172 48.7282 30.1062 44.0392 30.1062 38.2549C30.1062 32.4707 25.4172 27.7817 19.6329 27.7817C13.8487 27.7817 9.15967 32.4707 9.15967 38.2549C9.15967 44.0392 13.8487 48.7282 19.6329 48.7282Z" fill="url(#paint42_radial_257_27549)"/>
</g>
<path d="M5.51624 46.4396C5.51624 46.4396 19.0376 68.9409 36.7154 43.1195L32.8257 41.4108C32.8257 41.4108 24.559 51.7865 17.7137 46.378L15.4456 45.0387L13.6752 41.8059L5.51624 46.4396Z" fill="url(#paint43_radial_257_27549)"/>
<path opacity="0.77" d="M17.9851 47.4505C17.9851 47.4505 23.0755 51.0681 29.7566 45.5621L30.357 46.7269C30.357 46.7218 23.1884 51.6685 17.9851 47.4505Z" fill="url(#paint44_linear_257_27549)"/>
</g>
<mask id="mask8_257_27549" style="mask-type:luminance" maskUnits="userSpaceOnUse" x="9" y="18" width="18" height="14">
<path d="M14.1628 31.6507C14.1628 31.6507 15.5636 28.5103 23.035 26.94C23.0709 27.0067 24.3333 27.3505 24.5693 27.3505C24.8105 27.3505 25.1851 27.9971 25.5597 26.7348C25.9343 25.4724 26.001 24.9593 26.1395 24.2768C26.2781 23.5943 26.4833 20.7618 26.3448 20.0434C26.2062 19.325 25.9343 18.4372 25.3544 18.3346C24.7746 18.232 21.942 18.5758 20.7464 18.6784C19.5508 18.781 19.0735 18.6784 17.9138 19.053C16.7541 19.4276 13.9575 20.8285 13.783 20.8952C13.6137 20.9619 11.8023 22.568 11.8023 22.568L9.15961 23.7431L13.2904 31.9894L14.1628 31.6507Z" fill="white"/>
</mask>
<g mask="url(#mask8_257_27549)">
<path d="M4.42301 47.1424C4.41788 47.1578 7.43003 45.4439 11.2632 43.2579C7.43003 45.4491 4.42814 47.1732 4.44354 47.1783C4.44354 47.1783 16.5435 67.8324 33.7646 49.1642C35.3348 47.4606 36.7665 45.4952 38.4239 43.0835C38.4239 43.0835 38.3931 42.4882 37.9108 42.2368C37.4284 41.9905 33.118 40.1278 33.118 40.1278C33.118 40.1278 32.533 39.7018 31.9224 40.4716C31.3117 41.2413 27.0373 46.3676 22.7371 46.5472C22.7371 46.5472 32.3534 44.2124 27.1707 34.1753C21.1566 24.6154 14.26 31.7122 14.26 31.7122C16.5948 28.0997 23.1887 27.0169 24.1585 26.8835C25.1284 26.7501 25.0565 26.0266 25.0565 26.0266C25.0565 26.0266 25.6466 21.3672 25.6774 20.8233C25.7082 20.2794 25.2105 19.9509 25.2105 19.9509C22.2907 20.1562 19.8686 20.3871 17.6057 20.8746C-7.22022 26.2318 4.42301 47.1424 4.42301 47.1424Z" fill="#677403"/>
<path d="M5.5112 46.4394C5.50607 46.4394 5.51633 46.4548 5.53685 46.4856C5.55225 46.5164 5.56251 46.5318 5.56251 46.5318C5.56251 46.5318 5.56251 46.5318 5.56251 46.5267C6.52722 48.0558 19.6894 67.9658 36.7052 43.1143L32.8207 41.4106C32.8207 41.4106 26.4885 49.1642 20.5668 47.789C20.5668 47.789 26.35 43.494 27.1197 41.1284C27.8791 38.7987 26.4423 35.6942 25.9651 34.8424C25.96 34.8372 25.96 34.8321 25.9548 34.8219C25.9497 34.8167 25.9497 34.8116 25.9446 34.8013C25.452 33.9546 23.5071 31.1426 21.1159 30.6141C18.6887 30.0753 12.0486 32.8719 12.0486 32.8719C13.8754 27.0734 23.7689 25.5596 23.7689 25.5596L24.2666 21.3416C-5.77796 23.3787 4.68504 44.8333 5.5112 46.4394ZM11.166 43.2733C12.7824 42.3497 14.5887 41.3183 16.3745 40.2971C14.5938 41.3183 12.7824 42.3497 11.166 43.2733Z" fill="#778602"/>
<mask id="mask9_257_27549" style="mask-type:luminance" maskUnits="userSpaceOnUse" x="3" y="21" width="34" height="35">
<path d="M5.51604 46.4497C5.51091 46.4497 5.52117 46.4651 5.53657 46.4907C5.55196 46.5215 5.55709 46.5318 5.55709 46.5318C5.55709 46.5318 5.55709 46.5318 5.55709 46.5267C6.47049 47.984 19.6583 68.0274 36.7049 43.1245L32.8204 41.4157C32.8204 41.4157 26.4882 49.1693 20.5665 47.7941C20.5665 47.7941 26.3497 43.4991 27.1194 41.1335C27.8737 38.8192 26.4472 35.7199 25.9597 34.8372C25.9545 34.827 25.9494 34.8167 25.9443 34.8116C25.9392 34.8013 25.934 34.7911 25.9289 34.7859C25.4158 33.9187 23.4863 31.1426 21.1105 30.6141C18.6833 30.0753 12.0432 32.8719 12.0432 32.8719C13.87 27.0734 23.7634 25.5596 23.7634 25.5596L24.2612 21.3416C-5.83983 23.3839 4.73093 44.9205 5.51604 46.4497Z" fill="white"/>
</mask>
<g mask="url(#mask9_257_27549)">
<path opacity="0.79" d="M19.6329 48.728C25.4172 48.728 30.1062 44.039 30.1062 38.2548C30.1062 32.4706 25.4172 27.7815 19.6329 27.7815C13.8487 27.7815 9.15967 32.4706 9.15967 38.2548C9.15967 44.039 13.8487 48.728 19.6329 48.728Z" fill="url(#paint45_radial_257_27549)"/>
</g>
<mask id="mask10_257_27549" style="mask-type:luminance" maskUnits="userSpaceOnUse" x="3" y="21" width="34" height="35">
<path d="M5.51604 46.4497C5.51091 46.4497 5.52117 46.4651 5.53657 46.4907C5.55196 46.5215 5.55709 46.5318 5.55709 46.5318C5.55709 46.5318 5.55709 46.5318 5.55709 46.5267C6.47049 47.984 19.6583 68.0274 36.7049 43.1245L32.8204 41.4157C32.8204 41.4157 26.4882 49.1693 20.5665 47.7941C20.5665 47.7941 26.3497 43.4991 27.1194 41.1335C27.8737 38.8192 26.4472 35.7199 25.9597 34.8372C25.9545 34.827 25.9494 34.8167 25.9443 34.8116C25.9392 34.8013 25.934 34.7911 25.9289 34.7859C25.4158 33.9187 23.4863 31.1426 21.1105 30.6141C18.6833 30.0753 12.0432 32.8719 12.0432 32.8719C13.87 27.0734 23.7634 25.5596 23.7634 25.5596L24.2612 21.3416C-5.83983 23.3839 4.73093 44.9205 5.51604 46.4497Z" fill="white"/>
</mask>
<g mask="url(#mask10_257_27549)">
<path opacity="0.52" d="M12.844 31.6917C8.05633 31.3068 5.23917 33.8469 6.55282 37.3568C7.86647 40.8667 12.8132 44.0276 17.6008 44.4125C22.3884 44.7974 25.2056 42.2573 23.8919 38.7474C22.5783 35.2324 17.6316 32.0765 12.844 31.6917Z" fill="url(#paint46_radial_257_27549)"/>
</g>
<mask id="mask11_257_27549" style="mask-type:luminance" maskUnits="userSpaceOnUse" x="3" y="21" width="34" height="35">
<path d="M5.51604 46.4497C5.51091 46.4497 5.52117 46.4651 5.53657 46.4907C5.55196 46.5215 5.55709 46.5318 5.55709 46.5318C5.55709 46.5318 5.55709 46.5318 5.55709 46.5267C6.47049 47.984 19.6583 68.0274 36.7049 43.1245L32.8204 41.4157C32.8204 41.4157 26.4882 49.1693 20.5665 47.7941C20.5665 47.7941 26.3497 43.4991 27.1194 41.1335C27.8737 38.8192 26.4472 35.7199 25.9597 34.8372C25.9545 34.827 25.9494 34.8167 25.9443 34.8116C25.9392 34.8013 25.934 34.7911 25.9289 34.7859C25.4158 33.9187 23.4863 31.1426 21.1105 30.6141C18.6833 30.0753 12.0432 32.8719 12.0432 32.8719C13.87 27.0734 23.7634 25.5596 23.7634 25.5596L24.2612 21.3416C-5.83983 23.3839 4.73093 44.9205 5.51604 46.4497Z" fill="white"/>
</mask>
<g mask="url(#mask11_257_27549)">
<path opacity="0.52" d="M12.5053 44.5408C12.6747 49.3387 15.5226 51.8479 18.8581 50.134C22.1986 48.4253 24.7643 43.145 24.5899 38.3471C24.4154 33.5492 21.5726 31.04 18.2372 32.7539C14.8966 34.4626 12.3309 39.7377 12.5053 44.5408Z" fill="url(#paint47_radial_257_27549)"/>
</g>
<path d="M5.56223 46.5369C5.56223 46.5369 -6.95335 23.4608 24.2663 21.3467L23.7686 25.5647C23.7686 25.5647 10.5141 27.6224 11.7815 36.115L11.8123 38.691L13.7007 41.857L5.56223 46.5369Z" fill="url(#paint48_linear_257_27549)"/>
<path opacity="0.77" d="M11.0682 35.3401C11.0682 35.3401 10.5397 29.1157 18.6782 26.16L17.9803 25.0516C17.9803 25.0516 10.0779 28.7154 11.0682 35.3401Z" fill="url(#paint49_linear_257_27549)"/>
<path d="M5.28537 38.9783C5.28537 38.9783 2.97109 29.8649 12.1615 25.3236L11.7151 24.949C11.7151 24.949 1.77034 28.6641 4.02304 40.0354L4.27448 40.4818L5.28537 38.9783Z" fill="url(#paint50_linear_257_27549)"/>
<path opacity="0.56" d="M27.135 41.1387C27.8893 38.8244 26.4628 35.725 25.9753 34.8424C25.9702 34.8321 25.965 34.8219 25.9599 34.8167C25.9548 34.8065 25.9496 34.7962 25.9445 34.7911C25.4314 33.9239 23.5019 31.1478 21.1261 30.6192C20.5668 30.4961 19.7765 30.5474 18.899 30.7064L19.0838 31.0451C19.6072 30.9938 20.0741 30.9989 20.4385 31.081C22.8143 31.6096 24.7438 34.3806 25.2569 35.2529C25.262 35.2632 25.2672 35.2734 25.2723 35.2786C25.2774 35.2888 25.2826 35.2991 25.2877 35.3042C25.7803 36.1868 27.2017 39.2862 26.4474 41.6005C26.3088 42.0213 26.0112 42.5087 25.6161 43.0168L25.7341 43.2323C26.4115 42.478 26.9349 41.7442 27.135 41.1387Z" fill="url(#paint51_linear_257_27549)"/>
</g>
<path d="M29.2543 45.4953C36.705 45.4953 42.7449 39.4554 42.7449 32.0048C42.7449 24.5541 36.705 18.5142 29.2543 18.5142C21.8037 18.5142 15.7638 24.5541 15.7638 32.0048C15.7638 39.4554 21.8037 45.4953 29.2543 45.4953Z" fill="url(#paint52_linear_257_27549)"/>
<path d="M29.2543 44.859C36.3535 44.859 42.1086 39.104 42.1086 32.0048C42.1086 24.9056 36.3535 19.1505 29.2543 19.1505C22.1551 19.1505 16.4001 24.9056 16.4001 32.0048C16.4001 39.104 22.1551 44.859 29.2543 44.859Z" fill="url(#paint53_linear_257_27549)"/>
<mask id="mask12_257_27549" style="mask-type:luminance" maskUnits="userSpaceOnUse" x="16" y="19" width="27" height="26">
<path d="M29.2543 44.859C36.3535 44.859 42.1086 39.104 42.1086 32.0048C42.1086 24.9056 36.3535 19.1505 29.2543 19.1505C22.1551 19.1505 16.4001 24.9056 16.4001 32.0048C16.4001 39.104 22.1551 44.859 29.2543 44.859Z" fill="white"/>
</mask>
<g mask="url(#mask12_257_27549)">
<path d="M32.6156 34.6526H16.5388V50.0212H32.6156V34.6526Z" fill="url(#paint54_linear_257_27549)"/>
<path d="M32.6156 34.6526H16.5388V50.0212H32.6156V34.6526Z" fill="url(#paint55_linear_257_27549)"/>
</g>
<path d="M33.3078 27.7406L30.6703 28.2743V33.457H26.8935L31.168 23.9639H28.1867L23.6146 33.8521V36.1869H30.6703V40.015L33.3078 39.5686V36.0894H34.8935V33.5083H33.3078V27.7406Z" fill="#F19042"/>
<path d="M30.5218 36.3408H23.4661V33.8213L28.0946 23.815H31.3993L27.1248 33.3082H30.5218V28.1562L33.457 27.5609V33.3543H35.0426V36.2382H33.457V39.6917L30.5218 40.1894V36.3408Z" fill="#D6783D"/>
<path d="M33.3078 27.7406L30.6703 28.2743V33.457H26.8935L31.168 23.9639H28.1867L23.6146 33.8521V36.1869H30.6703V40.015L33.3078 39.5686V36.0894H34.8935V33.5083H33.3078V27.7406Z" fill="#F18E41"/>
<g opacity="0.43">
<path d="M26.8935 33.457L31.168 23.9639H28.1867L23.6146 33.8521L26.8935 33.457Z" fill="url(#paint56_linear_257_27549)"/>
</g>
<path opacity="0.23" d="M33.3182 33.5134V27.7457L30.6858 28.2845V33.4621" fill="url(#paint57_linear_257_27549)"/>
<path opacity="0.23" d="M23.6146 33.8521V36.1921H30.6703V40.015L33.3078 39.5686V36.0894H34.8935V33.5083" fill="url(#paint58_linear_257_27549)"/>
</g>
<path d="M208.741 34.7574C208.344 34.7615 207.948 34.736 207.555 34.6811C207.695 35.1266 207.76 35.5923 207.746 36.0591V41.4555L202.886 42.0679V35.5998C202.886 35.2551 202.962 34.6427 202.962 34.6427C202.56 34.7261 202.149 34.7646 201.738 34.7574H191.597V31.2744L198.984 14.932H204.265L198.753 27.3314C198.283 28.4193 197.705 29.4576 197.03 30.4313C197.293 30.3682 197.563 30.3425 197.833 30.3551H202.158C202.617 30.3551 203.076 30.3936 203.076 30.3936C203.076 30.3936 203.037 29.8958 203.037 29.7049C203.055 28.3361 203.143 26.9692 203.302 25.6095L203.723 21.1317L207.742 20.2138V26.9875C207.742 27.8677 207.742 28.557 207.703 29.2456C207.665 30.0873 207.627 30.3936 207.627 30.3936C207.627 30.3936 208.393 30.3551 208.852 30.3551H210.459V34.756H208.736L208.741 34.7574Z" fill="#F1843D"/>
<path d="M81.5861 34.3788L80.9392 25.1488C80.865 24.0539 80.8146 23.183 80.8146 22.263C80.6157 23.2572 80.4666 23.8802 80.1677 24.9248L77.431 34.3788H74.4704L72.0068 25.2986C71.7828 24.4529 71.4845 23.2333 71.3102 22.2385C71.3102 23.2585 71.2605 24.2786 71.1856 25.349L70.589 34.3801H67.1299L68.7472 17.0886H73.2011L75.4652 25.7466C75.7112 26.6482 75.9103 27.5618 76.0618 28.4839C76.2109 27.5879 76.4097 26.6944 76.6841 25.6724L79.023 17.0886H83.4518L84.9941 34.3801H81.5854L81.5861 34.3788Z" fill="white"/>
<path d="M90.7173 29.0547V29.1541C90.7173 31.1199 91.6876 32.2394 93.4042 32.2394C94.5999 32.2188 95.7481 31.7682 96.6387 30.9702L97.9324 32.9585C96.5969 34.1066 94.8917 34.7338 93.1305 34.7248C89.4732 34.7248 87.1097 32.14 87.1097 28.1314C87.1097 25.8428 87.5822 24.325 88.7004 23.0803C89.1956 22.5109 89.813 22.0608 90.5065 21.7636C91.2001 21.4663 91.9519 21.3296 92.7057 21.3637C94.0612 21.3153 95.3822 21.7972 96.3881 22.7071C97.5572 23.9002 98.0795 25.6181 98.0795 28.2799V29.0514H90.7153L90.7173 29.0547ZM94.6231 26.4698C94.6885 25.8057 94.5497 25.1375 94.2254 24.5543C94.0703 24.3095 93.8521 24.111 93.5938 23.9797C93.3355 23.8484 93.0466 23.7891 92.7574 23.808C91.4881 23.808 90.769 24.8022 90.769 26.5692V26.6189H94.6251V26.4698H94.6231Z" fill="white"/>
<path d="M104.102 34.6778C102.411 34.6778 101.067 33.9315 100.669 32.8113C100.455 32.1795 100.379 31.5093 100.445 30.8455V23.9293H99.1759V21.6407H100.445C100.418 20.6355 100.46 19.6297 100.57 18.6303L103.95 17.7846C103.819 19.0657 103.752 20.3528 103.751 21.6407H106.737L105.891 23.9293H103.752V30.3239C103.752 31.9411 104.051 32.364 105.195 32.364C105.602 32.3375 106.004 32.2538 106.388 32.1154L106.811 34.1038C105.955 34.4737 105.034 34.6689 104.102 34.6778Z" fill="white"/>
<path d="M117.314 35.0265C116.559 34.731 115.928 34.1869 115.524 33.4842C115.286 33.7289 115.028 33.9535 114.753 34.1556C113.99 34.6459 113.095 34.8892 112.19 34.8522C109.353 34.8522 107.811 33.4093 107.811 30.8714C107.811 27.8889 109.876 26.4924 113.932 26.4924C114.18 26.4924 114.404 26.4924 114.678 26.5176V25.9953C114.678 24.5776 114.404 24.1044 113.185 24.1044C111.845 24.2225 110.567 24.7233 109.503 25.5472L108.085 23.1612C108.739 22.7487 109.43 22.399 110.15 22.1166C111.246 21.628 112.432 21.3738 113.633 21.3704C115.772 21.3704 117.24 22.1657 117.738 23.5847C117.962 24.3255 118.039 25.1032 117.962 25.8733L117.888 30.153C117.863 31.5448 117.962 32.1414 119.081 32.9891L117.314 35.0291V35.0265ZM114.477 28.8062C112.163 28.8062 111.367 29.2291 111.367 30.7468C111.346 30.9544 111.367 31.1642 111.431 31.363C111.494 31.5617 111.598 31.7452 111.736 31.9018C111.874 32.0584 112.043 32.1847 112.232 32.2728C112.421 32.3609 112.627 32.4089 112.835 32.4138C113.17 32.3975 113.498 32.3117 113.798 32.1617C114.098 32.0118 114.363 31.801 114.577 31.5428L114.627 28.8062H114.477Z" fill="white"/>
<path d="M131.819 19.9731H127.689V34.3789H124.156V19.9731H119.927V17.0873H132.392L131.82 19.9731H131.819Z" fill="white"/>
<path d="M138.985 24.5516C138.69 24.3825 138.355 24.2966 138.015 24.3031C137.616 24.3168 137.226 24.4201 136.873 24.6053C136.52 24.7905 136.213 25.0528 135.975 25.3728V34.3795H132.641V25.8692C132.688 24.6079 132.529 23.3474 132.168 22.1377L135.151 21.3424C135.464 21.8986 135.643 22.5206 135.674 23.1584C135.996 22.6446 136.434 22.213 136.952 21.8978C137.471 21.5825 138.055 21.3924 138.66 21.3424C139.091 21.3278 139.519 21.422 139.904 21.6161L138.983 24.5523L138.985 24.5516Z" fill="white"/>
<path d="M149.658 35.0265C148.903 34.731 148.272 34.1869 147.868 33.4842C147.63 33.7289 147.372 33.9535 147.097 34.1556C146.335 34.6459 145.44 34.8892 144.534 34.8522C141.697 34.8522 140.156 33.4093 140.156 30.8714C140.156 27.8889 142.22 26.4924 146.276 26.4924C146.524 26.4924 146.748 26.4924 147.022 26.5176V25.9953C147.022 24.5776 146.748 24.1044 145.529 24.1044C144.189 24.2225 142.911 24.7233 141.847 25.5472L140.429 23.1612C141.083 22.7488 141.774 22.399 142.494 22.1166C143.59 21.628 144.776 21.3738 145.977 21.3704C148.116 21.3704 149.584 22.1657 150.082 23.5847C150.306 24.3255 150.382 25.1032 150.305 25.8733L150.231 30.153C150.206 31.5448 150.305 32.1414 151.424 32.9891L149.657 35.0291L149.658 35.0265ZM146.821 28.8062C144.507 28.8062 143.711 29.2291 143.711 30.7468C143.689 30.9544 143.711 31.1642 143.774 31.363C143.838 31.5617 143.942 31.7452 144.08 31.9018C144.218 32.0584 144.386 32.1847 144.576 32.2728C144.765 32.3609 144.97 32.4089 145.179 32.4138C145.514 32.3975 145.842 32.3116 146.142 32.1617C146.441 32.0118 146.707 31.801 146.921 31.5428L146.97 28.8062H146.821Z" fill="white"/>
<path d="M161.302 34.3789C161.194 34.1433 161.126 33.8909 161.103 33.6326C160.295 34.347 159.246 34.7292 158.167 34.7023C154.933 34.7023 152.892 32.1897 152.892 28.2335C152.892 24.2773 155.107 21.5161 158.341 21.5161C159.158 21.4793 159.961 21.7353 160.605 22.2379C160.534 21.6104 160.5 20.9791 160.506 20.3476V15.9679L163.815 16.4908V29.7268C163.815 32.8618 164.064 33.8818 164.288 34.3796H161.302V34.3789ZM160.556 24.9991C160.073 24.5102 159.426 24.2176 158.74 24.1779C157.247 24.1779 156.6 25.4219 156.6 28.2587C156.6 31.0954 157.172 31.8908 158.914 31.8908C159.228 31.8692 159.535 31.7854 159.817 31.6445C160.099 31.5035 160.35 31.3081 160.556 31.0696V24.9991H160.556Z" fill="white"/>
<path d="M170.159 29.0547V29.1541C170.159 31.1199 171.129 32.2394 172.846 32.2394C174.041 32.2186 175.189 31.7681 176.079 30.9702L177.373 32.9585C176.038 34.1066 174.332 34.7338 172.571 34.7248C168.914 34.7248 166.55 32.14 166.55 28.1314C166.55 25.8428 167.022 24.325 168.14 23.0803C168.636 22.5109 169.253 22.0608 169.947 21.7636C170.64 21.4663 171.392 21.3296 172.146 21.3637C173.501 21.3153 174.822 21.7973 175.828 22.7071C176.997 23.9002 177.52 25.6181 177.52 28.2799V29.0514H170.155L170.159 29.0547ZM174.064 26.4698C174.13 25.8057 173.991 25.1375 173.667 24.5543C173.512 24.3095 173.293 24.111 173.035 23.9797C172.777 23.8484 172.488 23.7891 172.199 23.808C170.929 23.808 170.21 24.8022 170.21 26.5692V26.6189H174.067V26.4698H174.064Z" fill="white"/>
<path d="M186.231 24.5516C185.936 24.3824 185.601 24.2965 185.261 24.3031C184.862 24.3169 184.472 24.4202 184.118 24.6054C183.765 24.7906 183.458 25.0528 183.22 25.3728V34.3794H179.887V25.8692C179.934 24.6079 179.775 23.3473 179.414 22.1377L182.397 21.3424C182.71 21.8987 182.889 22.5206 182.92 23.1584C183.242 22.645 183.679 22.2137 184.196 21.8985C184.714 21.5833 185.298 21.3929 185.902 21.3424C186.333 21.3279 186.761 21.422 187.146 21.6161L186.225 24.5523L186.231 24.5516Z" fill="white"/>
<defs>
<radialGradient id="paint0_radial_257_27549" cx="0" cy="0" r="1" gradientUnits="userSpaceOnUse" gradientTransform="translate(26.6533 38.407) scale(12.9669 12.9669)">
<stop offset="0.00193331" stop-color="#A0AA63"/>
<stop offset="0.6587" stop-color="#A2AC57" stop-opacity="0.3242"/>
<stop offset="0.9737" stop-color="#A3AD50" stop-opacity="0"/>
</radialGradient>
<radialGradient id="paint1_radial_257_27549" cx="0" cy="0" r="1" gradientUnits="userSpaceOnUse" gradientTransform="translate(15.2064 38.0878) rotate(23.34) scale(8.39125 4.99167)">
<stop offset="0.00270339" stop-color="white"/>
<stop offset="0.0822319" stop-color="#F9F9F3" stop-opacity="0.9123"/>
<stop offset="0.2247" stop-color="#E8EBD4" stop-opacity="0.7552"/>
<stop offset="0.4139" stop-color="#CDD3A2" stop-opacity="0.5466"/>
<stop offset="0.6425" stop-color="#A8B15C" stop-opacity="0.2945"/>
<stop offset="0.9022" stop-color="#788705" stop-opacity="0.01"/>
<stop offset="0.9096" stop-color="#778602" stop-opacity="0"/>
</radialGradient>
<radialGradient id="paint2_radial_257_27549" cx="0" cy="0" r="1" gradientUnits="userSpaceOnUse" gradientTransform="translate(18.5846 41.4587) rotate(-73.2793) scale(8.39081 4.99128)">
<stop offset="0.00270339" stop-color="white"/>
<stop offset="0.0822319" stop-color="#F9F9F3" stop-opacity="0.9123"/>
<stop offset="0.2247" stop-color="#E8EBD4" stop-opacity="0.7552"/>
<stop offset="0.4139" stop-color="#CDD3A2" stop-opacity="0.5466"/>
<stop offset="0.6425" stop-color="#A8B15C" stop-opacity="0.2945"/>
<stop offset="0.9022" stop-color="#788705" stop-opacity="0.01"/>
<stop offset="0.9096" stop-color="#778602" stop-opacity="0"/>
</radialGradient>
<radialGradient id="paint3_radial_257_27549" cx="0" cy="0" r="1" gradientUnits="userSpaceOnUse" gradientTransform="translate(6.45684 45.9618) rotate(-119.736) scale(25.5972 25.5972)">
<stop offset="0.00154812" stop-color="#A2AD0D"/>
<stop offset="0.28" stop-color="#9EA90F"/>
<stop offset="0.9853" stop-color="#768701"/>
</radialGradient>
<linearGradient id="paint4_linear_257_27549" x1="8.70442" y1="51.6053" x2="22.4535" y2="53.1767" gradientUnits="userSpaceOnUse">
<stop offset="0.4357" stop-color="#D3D98E"/>
<stop offset="0.543" stop-color="#D0D78A" stop-opacity="0.8098"/>
<stop offset="0.6608" stop-color="#C8CF7C" stop-opacity="0.6009"/>
<stop offset="0.7836" stop-color="#BAC366" stop-opacity="0.3831"/>
<stop offset="0.909" stop-color="#A7B248" stop-opacity="0.1608"/>
<stop offset="0.9996" stop-color="#96A32D" stop-opacity="0"/>
</linearGradient>
<radialGradient id="paint5_radial_257_27549" cx="0" cy="0" r="1" gradientUnits="userSpaceOnUse" gradientTransform="translate(16.869 40.6275) rotate(116.117) scale(11.1949)">
<stop offset="0.0921381" stop-color="#E1E824"/>
<stop offset="0.4151" stop-color="#B0BB14"/>
<stop offset="0.7248" stop-color="#879507"/>
<stop offset="0.8839" stop-color="#778602"/>
</radialGradient>
<linearGradient id="paint6_linear_257_27549" x1="6.37621" y1="42.0112" x2="17.4236" y2="22.1132" gradientUnits="userSpaceOnUse">
<stop offset="0.00193292" stop-color="#D6DE1F"/>
<stop offset="0.2796" stop-color="#E3E922"/>
<stop offset="0.9853" stop-color="#9EA90F"/>
</linearGradient>
<radialGradient id="paint7_radial_257_27549" cx="0" cy="0" r="1" gradientUnits="userSpaceOnUse" gradientTransform="translate(18.3461 38.2349) rotate(116.117) scale(14.2553 14.2553)">
<stop offset="0.0954407" stop-color="#DFE523"/>
<stop offset="0.5048" stop-color="#A4AE10"/>
<stop offset="0.8683" stop-color="#738100"/>
</radialGradient>
<radialGradient id="paint8_radial_257_27549" cx="0" cy="0" r="1" gradientUnits="userSpaceOnUse" gradientTransform="translate(6.45826 46.9779) rotate(-119.736) scale(2.75881)">
<stop stop-color="#8AF750"/>
<stop offset="1" stop-color="#8AF750" stop-opacity="0"/>
</radialGradient>
<linearGradient id="paint9_linear_257_27549" x1="13.6099" y1="30.4031" x2="17.374" y2="25.5871" gradientUnits="userSpaceOnUse">
<stop offset="0.00166804" stop-color="#EFF2CF"/>
<stop offset="0.9992" stop-color="#B8C21A" stop-opacity="0"/>
</linearGradient>
<linearGradient id="paint10_linear_257_27549" x1="6.53727" y1="38.3041" x2="8.96425" y2="24.6704" gradientUnits="userSpaceOnUse">
<stop offset="0.000535905" stop-color="#F0F397"/>
<stop offset="1" stop-color="#F5F882" stop-opacity="0"/>
</linearGradient>
<radialGradient id="paint11_radial_257_27549" cx="0" cy="0" r="1" gradientUnits="userSpaceOnUse" gradientTransform="translate(11.4468 42.9683) rotate(-15.5039) scale(9.60345 9.60345)">
<stop offset="0.0527877" stop-color="#778602"/>
<stop offset="0.9985" stop-color="#C9D11A"/>
</radialGradient>
<linearGradient id="paint12_linear_257_27549" x1="18.8762" y1="46.7564" x2="28.3863" y2="47.5339" gradientUnits="userSpaceOnUse">
<stop stop-color="#FEFEFD"/>
<stop offset="0.9918" stop-color="#899605" stop-opacity="0"/>
</linearGradient>
<linearGradient id="paint13_linear_257_27549" x1="22.646" y1="32.8027" x2="25.7183" y2="45.0654" gradientUnits="userSpaceOnUse">
<stop offset="0.00154052" stop-color="#778602"/>
<stop offset="0.0457036" stop-color="#778602"/>
<stop offset="0.4814" stop-color="#778602"/>
<stop offset="0.9789" stop-color="#778602" stop-opacity="0"/>
</linearGradient>
<linearGradient id="paint14_linear_257_27549" x1="3.85023" y1="41.3683" x2="7.70442" y2="45.392" gradientUnits="userSpaceOnUse">
<stop offset="0.00711697" stop-color="white"/>
<stop offset="0.9981" stop-color="white" stop-opacity="0"/>
</linearGradient>
<radialGradient id="paint15_radial_257_27549" cx="0" cy="0" r="1" gradientUnits="userSpaceOnUse" gradientTransform="translate(36.7387 31.228) rotate(-3.55557) scale(13.9221 13.9221)">
<stop offset="0.00154837" stop-color="#ADE3F5"/>
<stop offset="0.1198" stop-color="#A1D8EE" stop-opacity="0.8783"/>
<stop offset="0.3317" stop-color="#82BCDD" stop-opacity="0.6604"/>
<stop offset="0.6126" stop-color="#508DC0" stop-opacity="0.3715"/>
<stop offset="0.9486" stop-color="#0B4E99" stop-opacity="0.0257616"/>
<stop offset="0.9737" stop-color="#064996" stop-opacity="0"/>
</radialGradient>
<radialGradient id="paint16_radial_257_27549" cx="0" cy="0" r="1" gradientUnits="userSpaceOnUse" gradientTransform="translate(52.0197 46.238) rotate(120.591) scale(25.5972 25.5972)">
<stop offset="0.00193292" stop-color="#3889C5"/>
<stop offset="0.28" stop-color="#378AC5"/>
<stop offset="0.9853" stop-color="#74D4FB"/>
</radialGradient>
<linearGradient id="paint17_linear_257_27549" x1="55.813" y1="41.5053" x2="50.3719" y2="28.781" gradientUnits="userSpaceOnUse">
<stop offset="0.4357" stop-color="#63A8DB"/>
<stop offset="0.6342" stop-color="#5FA7DA" stop-opacity="0.648"/>
<stop offset="0.8518" stop-color="#51A3D6" stop-opacity="0.2622"/>
<stop offset="0.9996" stop-color="#449FD2" stop-opacity="0"/>
</linearGradient>
<radialGradient id="paint18_radial_257_27549" cx="0" cy="0" r="1" gradientUnits="userSpaceOnUse" gradientTransform="translate(42.2328 39.8458) rotate(-3.55557) scale(11.1952 11.1952)">
<stop offset="0.0921381" stop-color="#53ABDE"/>
<stop offset="0.985" stop-color="#064996"/>
</radialGradient>
<linearGradient id="paint19_linear_257_27549" x1="48.6293" y1="48.2779" x2="25.8711" y2="48.5294" gradientUnits="userSpaceOnUse">
<stop offset="0.00193292" stop-color="#3889C5"/>
<stop offset="0.28" stop-color="#378AC5"/>
<stop offset="0.9853" stop-color="#74D4FB"/>
</linearGradient>
<radialGradient id="paint20_radial_257_27549" cx="0" cy="0" r="1" gradientUnits="userSpaceOnUse" gradientTransform="translate(39.4222 39.7468) rotate(-3.55557) scale(14.2557 14.2557)">
<stop offset="0.0903576" stop-color="#4094CD"/>
<stop offset="0.9853" stop-color="#064996"/>
</radialGradient>
<radialGradient id="paint21_radial_257_27549" cx="0" cy="0" r="1" gradientUnits="userSpaceOnUse" gradientTransform="translate(52.9016 45.7336) rotate(120.591) scale(2.7588)">
<stop stop-color="#8AF750"/>
<stop offset="1" stop-color="#8AF750" stop-opacity="0"/>
</radialGradient>
<linearGradient id="paint22_linear_257_27549" x1="39.6255" y1="46.7834" x2="30.105" y2="47.4189" gradientUnits="userSpaceOnUse">
<stop offset="0.00120314" stop-color="#FEFEFD"/>
<stop offset="0.9996" stop-color="#72D2F9" stop-opacity="0"/>
</linearGradient>
<linearGradient id="paint23_linear_257_27549" x1="45.329" y1="49.9734" x2="32.2813" y2="54.614" gradientUnits="userSpaceOnUse">
<stop offset="0.00184365" stop-color="#64A8DB"/>
<stop offset="1" stop-color="#29A7D5" stop-opacity="0"/>
</linearGradient>
<radialGradient id="paint24_radial_257_27549" cx="0" cy="0" r="1" gradientUnits="userSpaceOnUse" gradientTransform="translate(49.9933 43.6721) rotate(-3.55557) scale(5.95257)">
<stop offset="0.0527875" stop-color="#8EDCFC"/>
<stop offset="0.9985" stop-color="#064996"/>
</radialGradient>
<linearGradient id="paint25_linear_257_27549" x1="46.572" y1="35.0603" x2="42.5397" y2="26.4125" gradientUnits="userSpaceOnUse">
<stop stop-color="#FEFEFD"/>
<stop offset="0.9914" stop-color="#74D4FB" stop-opacity="0"/>
</linearGradient>
<linearGradient id="paint26_linear_257_27549" x1="46.6121" y1="38.6794" x2="50.9814" y2="45.8617" gradientUnits="userSpaceOnUse">
<stop offset="0.00711716" stop-color="#8EDCFC"/>
<stop offset="0.9989" stop-color="#81C9EE" stop-opacity="0"/>
</linearGradient>
<linearGradient id="paint27_linear_257_27549" x1="32.5736" y1="38.7" x2="41.7077" y2="29.9599" gradientUnits="userSpaceOnUse">
<stop offset="0.00154052" stop-color="#2465A9" stop-opacity="0"/>
<stop offset="0.04238" stop-color="#2C79B5" stop-opacity="0.0851102"/>
<stop offset="0.1163" stop-color="#3997C8" stop-opacity="0.2391"/>
<stop offset="0.1942" stop-color="#43AFD6" stop-opacity="0.4014"/>
<stop offset="0.2768" stop-color="#4AC0E0" stop-opacity="0.5737"/>
<stop offset="0.3675" stop-color="#4ECAE6" stop-opacity="0.7626"/>
<stop offset="0.4814" stop-color="#4FCDE8"/>
<stop offset="0.7191" stop-color="#54C7E8" stop-opacity="0.5221"/>
<stop offset="0.9789" stop-color="#5EB9E8" stop-opacity="0"/>
</linearGradient>
<linearGradient id="paint28_linear_257_27549" x1="39.7013" y1="26.5325" x2="31.8177" y2="20.287" gradientUnits="userSpaceOnUse">
<stop offset="0.000778415" stop-color="#85F149"/>
<stop offset="0.9904" stop-color="#85F149" stop-opacity="0"/>
</linearGradient>
<radialGradient id="paint29_radial_257_27549" cx="0" cy="0" r="1" gradientUnits="userSpaceOnUse" gradientTransform="translate(29.4126 6.60544) scale(25.5978 25.5977)">
<stop offset="0.00154817" stop-color="#8FFC53"/>
<stop offset="0.2796" stop-color="#8DFA52"/>
<stop offset="0.9853" stop-color="#389A00"/>
</radialGradient>
<linearGradient id="paint30_linear_257_27549" x1="21.7852" y1="8.77019" x2="12.7071" y2="20.0325" gradientUnits="userSpaceOnUse">
<stop stop-color="#C3FBA5"/>
<stop offset="1" stop-color="#66CF2D" stop-opacity="0"/>
</linearGradient>
<radialGradient id="paint31_radial_257_27549" cx="0" cy="0" r="1" gradientUnits="userSpaceOnUse" gradientTransform="translate(28.6097 20.41) scale(9.79996 9.79996)">
<stop offset="0.0917534" stop-color="#84F04A"/>
<stop offset="0.9853" stop-color="#389A00"/>
</radialGradient>
<radialGradient id="paint32_radial_257_27549" cx="0" cy="0" r="1" gradientUnits="userSpaceOnUse" gradientTransform="translate(30.1471 20.3987) rotate(180) scale(9.79995 9.79996)">
<stop offset="0.0917534" stop-color="#84F04A"/>
<stop offset="0.9853" stop-color="#389A00"/>
</radialGradient>
<radialGradient id="paint33_radial_257_27549" cx="0" cy="0" r="1" gradientUnits="userSpaceOnUse" gradientTransform="translate(28.5289 6.10278) scale(2.75886)">
<stop stop-color="#8AF750"/>
<stop offset="1" stop-color="#8AF750" stop-opacity="0"/>
</radialGradient>
<linearGradient id="paint34_linear_257_27549" x1="36.1896" y1="16.997" x2="41.5819" y2="24.8693" gradientUnits="userSpaceOnUse">
<stop stop-color="#FEFEFD"/>
<stop offset="1" stop-color="#389A00"/>
</linearGradient>
<linearGradient id="paint35_linear_257_27549" x1="37.054" y1="17.1307" x2="35.2414" y2="22.637" gradientUnits="userSpaceOnUse">
<stop stop-color="#9CD17D"/>
<stop offset="1" stop-color="#62CA2A" stop-opacity="0"/>
</linearGradient>
<linearGradient id="paint36_linear_257_27549" x1="35.2534" y1="14.6196" x2="45.144" y2="14.6196" gradientUnits="userSpaceOnUse">
<stop stop-color="#9CD17D"/>
<stop offset="1" stop-color="#389A00"/>
</linearGradient>
<radialGradient id="paint37_radial_257_27549" cx="0" cy="0" r="1" gradientUnits="userSpaceOnUse" gradientTransform="translate(28.6663 5.67793) scale(6.54142)">
<stop stop-color="#8AF750"/>
<stop offset="1" stop-color="#389A00"/>
</radialGradient>
<linearGradient id="paint38_linear_257_27549" x1="29.9066" y1="2.03067" x2="26.801" y2="9.02696" gradientUnits="userSpaceOnUse">
<stop stop-color="#9CD17D"/>
<stop offset="0.9996" stop-color="#84F04A" stop-opacity="0"/>
</linearGradient>
<linearGradient id="paint39_linear_257_27549" x1="22.556" y1="16.997" x2="17.1637" y2="24.8693" gradientUnits="userSpaceOnUse">
<stop stop-color="#FEFEFD"/>
<stop offset="0.9913" stop-color="#47AA0D" stop-opacity="0"/>
</linearGradient>
<radialGradient id="paint40_radial_257_27549" cx="0" cy="0" r="1" gradientUnits="userSpaceOnUse" gradientTransform="translate(29.7931 6.97478) scale(4.03733)">
<stop stop-color="#54E320" stop-opacity="0.77"/>
<stop offset="1" stop-color="#62CA2A" stop-opacity="0"/>
</radialGradient>
<radialGradient id="paint41_radial_257_27549" cx="0" cy="0" r="1" gradientUnits="userSpaceOnUse" gradientTransform="translate(52.0196 46.238) rotate(120.591) scale(25.5972)">
<stop offset="0.00193292" stop-color="#3889C5"/>
<stop offset="0.28" stop-color="#378AC5"/>
<stop offset="0.9853" stop-color="#74D4FB"/>
</radialGradient>
<radialGradient id="paint42_radial_257_27549" cx="0" cy="0" r="1" gradientUnits="userSpaceOnUse" gradientTransform="translate(26.6533 38.4071) scale(12.9669 12.9669)">
<stop offset="0.00193331" stop-color="#A0AA63"/>
<stop offset="0.6587" stop-color="#A2AC57" stop-opacity="0.3242"/>
<stop offset="0.9737" stop-color="#A3AD50" stop-opacity="0"/>
</radialGradient>
<radialGradient id="paint43_radial_257_27549" cx="0" cy="0" r="1" gradientUnits="userSpaceOnUse" gradientTransform="translate(6.45684 45.9619) rotate(-119.736) scale(25.5972 25.5972)">
<stop offset="0.00154812" stop-color="#A2AD0D"/>
<stop offset="0.28" stop-color="#9EA90F"/>
<stop offset="0.9853" stop-color="#768701"/>
</radialGradient>
<linearGradient id="paint44_linear_257_27549" x1="18.8762" y1="46.7565" x2="28.3863" y2="47.534" gradientUnits="userSpaceOnUse">
<stop stop-color="#FEFEFD"/>
<stop offset="0.9918" stop-color="#899605" stop-opacity="0"/>
</linearGradient>
<radialGradient id="paint45_radial_257_27549" cx="0" cy="0" r="1" gradientUnits="userSpaceOnUse" gradientTransform="translate(26.6533 38.4069) scale(12.9669 12.9669)">
<stop offset="0.00193331" stop-color="#A0AA63"/>
<stop offset="0.6587" stop-color="#A2AC57" stop-opacity="0.3242"/>
<stop offset="0.9737" stop-color="#A3AD50" stop-opacity="0"/>
</radialGradient>
<radialGradient id="paint46_radial_257_27549" cx="0" cy="0" r="1" gradientUnits="userSpaceOnUse" gradientTransform="translate(15.2064 38.0877) rotate(23.34) scale(8.39125 4.99167)">
<stop offset="0.00270339" stop-color="white"/>
<stop offset="0.0822319" stop-color="#F9F9F3" stop-opacity="0.9123"/>
<stop offset="0.2247" stop-color="#E8EBD4" stop-opacity="0.7552"/>
<stop offset="0.4139" stop-color="#CDD3A2" stop-opacity="0.5466"/>
<stop offset="0.6425" stop-color="#A8B15C" stop-opacity="0.2945"/>
<stop offset="0.9022" stop-color="#788705" stop-opacity="0.01"/>
<stop offset="0.9096" stop-color="#778602" stop-opacity="0"/>
</radialGradient>
<radialGradient id="paint47_radial_257_27549" cx="0" cy="0" r="1" gradientUnits="userSpaceOnUse" gradientTransform="translate(18.5846 41.4586) rotate(-73.2794) scale(8.39081 4.99128)">
<stop offset="0.00270339" stop-color="white"/>
<stop offset="0.0822319" stop-color="#F9F9F3" stop-opacity="0.9123"/>
<stop offset="0.2247" stop-color="#E8EBD4" stop-opacity="0.7552"/>
<stop offset="0.4139" stop-color="#CDD3A2" stop-opacity="0.5466"/>
<stop offset="0.6425" stop-color="#A8B15C" stop-opacity="0.2945"/>
<stop offset="0.9022" stop-color="#788705" stop-opacity="0.01"/>
<stop offset="0.9096" stop-color="#778602" stop-opacity="0"/>
</radialGradient>
<linearGradient id="paint48_linear_257_27549" x1="6.37621" y1="42.0111" x2="17.4236" y2="22.1131" gradientUnits="userSpaceOnUse">
<stop offset="0.00193292" stop-color="#D6DE1F"/>
<stop offset="0.2796" stop-color="#E3E922"/>
<stop offset="0.9853" stop-color="#9EA90F"/>
</linearGradient>
<linearGradient id="paint49_linear_257_27549" x1="13.6099" y1="30.403" x2="17.374" y2="25.587" gradientUnits="userSpaceOnUse">
<stop offset="0.00166804" stop-color="#EFF2CF"/>
<stop offset="0.9992" stop-color="#B8C21A" stop-opacity="0"/>
</linearGradient>
<linearGradient id="paint50_linear_257_27549" x1="6.53727" y1="38.304" x2="8.96425" y2="24.6703" gradientUnits="userSpaceOnUse">
<stop offset="0.000535905" stop-color="#F0F397"/>
<stop offset="1" stop-color="#F5F882" stop-opacity="0"/>
</linearGradient>
<linearGradient id="paint51_linear_257_27549" x1="22.646" y1="32.8026" x2="25.7183" y2="45.0654" gradientUnits="userSpaceOnUse">
<stop offset="0.00154052" stop-color="#778602"/>
<stop offset="0.0457036" stop-color="#778602"/>
<stop offset="0.4814" stop-color="#778602"/>
<stop offset="0.9789" stop-color="#778602" stop-opacity="0"/>
</linearGradient>
<linearGradient id="paint52_linear_257_27549" x1="35.8534" y1="21.5231" x2="22.4445" y2="42.8347" gradientUnits="userSpaceOnUse">
<stop offset="0.00115604" stop-color="#36562D"/>
<stop offset="0.5345" stop-color="#064179"/>
<stop offset="0.5724" stop-color="#194768"/>
<stop offset="0.6444" stop-color="#37504D"/>
<stop offset="0.7202" stop-color="#4F5738"/>
<stop offset="0.8008" stop-color="#605C2A"/>
<stop offset="0.8891" stop-color="#6A5F21"/>
<stop offset="1" stop-color="#6D601E"/>
</linearGradient>
<linearGradient id="paint53_linear_257_27549" x1="26.1703" y1="27.9365" x2="36.1741" y2="41.1203" gradientUnits="userSpaceOnUse">
<stop offset="0.00115604" stop-color="white"/>
<stop offset="0.174" stop-color="#F7F7F9"/>
<stop offset="0.5306" stop-color="#EEEDF1"/>
<stop offset="0.9793" stop-color="#EBEAEF"/>
</linearGradient>
<linearGradient id="paint54_linear_257_27549" x1="16.5364" y1="42.3383" x2="32.6137" y2="42.3383" gradientUnits="userSpaceOnUse">
<stop offset="0.00115604" stop-color="#DCDBE0"/>
<stop offset="0.9798" stop-color="#DCDBE0" stop-opacity="0"/>
</linearGradient>
<linearGradient id="paint55_linear_257_27549" x1="16.5364" y1="42.3383" x2="32.6137" y2="42.3383" gradientUnits="userSpaceOnUse">
<stop offset="0.00115604" stop-color="#DCDBE0"/>
<stop offset="0.9798" stop-color="#DCDBE0" stop-opacity="0"/>
</linearGradient>
<linearGradient id="paint56_linear_257_27549" x1="29.6922" y1="24.125" x2="24.4253" y2="35.3544" gradientUnits="userSpaceOnUse">
<stop offset="0.00115624" stop-color="white"/>
<stop offset="0.0553126" stop-color="#FDF0E6" stop-opacity="0.9445"/>
<stop offset="0.1646" stop-color="#FAD6BB" stop-opacity="0.8326"/>
<stop offset="0.2791" stop-color="#F7C095" stop-opacity="0.7152"/>
<stop offset="0.3975" stop-color="#F5AE77" stop-opacity="0.5939"/>
<stop offset="0.5212" stop-color="#F3A05F" stop-opacity="0.4671"/>
<stop offset="0.6525" stop-color="#F2964E" stop-opacity="0.3326"/>
<stop offset="0.7964" stop-color="#F19044" stop-opacity="0.1852"/>
<stop offset="0.9771" stop-color="#F18E41" stop-opacity="0"/>
</linearGradient>
<linearGradient id="paint57_linear_257_27549" x1="31.899" y1="28.28" x2="32.309" y2="37.6088" gradientUnits="userSpaceOnUse">
<stop offset="0.00115624" stop-color="white"/>
<stop offset="0.0553126" stop-color="#FDF0E6" stop-opacity="0.9445"/>
<stop offset="0.1646" stop-color="#FAD6BB" stop-opacity="0.8326"/>
<stop offset="0.2791" stop-color="#F7C095" stop-opacity="0.7152"/>
<stop offset="0.3975" stop-color="#F5AE77" stop-opacity="0.5939"/>
<stop offset="0.5212" stop-color="#F3A05F" stop-opacity="0.4671"/>
<stop offset="0.6525" stop-color="#F2964E" stop-opacity="0.3326"/>
<stop offset="0.7964" stop-color="#F19044" stop-opacity="0.1852"/>
<stop offset="0.9771" stop-color="#F18E41" stop-opacity="0"/>
</linearGradient>
<linearGradient id="paint58_linear_257_27549" x1="28.8075" y1="41.4042" x2="29.4535" y2="32.1374" gradientUnits="userSpaceOnUse">
<stop offset="0.000771498" stop-color="#551E00"/>
<stop offset="0.0974294" stop-color="#78370F" stop-opacity="0.901"/>
<stop offset="0.2198" stop-color="#9D521E" stop-opacity="0.7756"/>
<stop offset="0.3483" stop-color="#BB682B" stop-opacity="0.644"/>
<stop offset="0.4826" stop-color="#D37935" stop-opacity="0.5065"/>
<stop offset="0.6249" stop-color="#E4853C" stop-opacity="0.3607"/>
<stop offset="0.781" stop-color="#EE8C40" stop-opacity="0.2008"/>
<stop offset="0.9771" stop-color="#F18E41" stop-opacity="0"/>
</linearGradient>
<clipPath id="clip0_257_27549">
<rect width="58.5138" height="57" fill="white"/>
</clipPath>
</defs>
</svg>
