<?xml version="1.0" encoding="UTF-8"?>
<svg id="Layer_1" xmlns="http://www.w3.org/2000/svg" xmlns:xlink="http://www.w3.org/1999/xlink" version="1.1" viewBox="0 0 277 40">
  <!-- Generator: Adobe Illustrator 29.5.1, SVG Export Plug-In . SVG Version: 2.1.0 Build 141)  -->
  <defs>
    <style>
      .st0 {
        fill: none;
      }

      .st1 {
        fill: url(#linear-gradient);
      }

      .st2 {
        fill: #fff;
      }

      .st3 {
        clip-path: url(#clippath);
      }
    </style>
    <clipPath id="clippath">
      <rect class="st0" y="0" width="276.63" height="40"/>
    </clipPath>
    <linearGradient id="linear-gradient" x1="0" y1="23.87" x2="156.09" y2="23.87" gradientTransform="translate(0 39.89) scale(1 -1)" gradientUnits="userSpaceOnUse">
      <stop offset=".25" stop-color="#467bff"/>
      <stop offset="1" stop-color="#75d9d9"/>
    </linearGradient>
  </defs>
  <g class="st3">
    <g>
      <path class="st2" d="M223.19,1.39C223.19.62,223.82,0,224.59,0s1.41.62,1.41,1.39v7.94c0,.76-.63,1.39-1.41,1.39s-1.4-.62-1.4-1.39V1.39ZM219.13,4.5v7.94c0,.77.63,1.39,1.4,1.39s1.41-.62,1.41-1.39v-7.94c0-.77-.63-1.39-1.41-1.39s-1.4.62-1.4,1.39ZM215.07,1.39v7.94c0,.76.63,1.39,1.41,1.39s1.41-.62,1.41-1.39V1.39C217.89.62,217.26,0,216.48,0s-1.41.62-1.41,1.39ZM211.02,5.97v5.07c0,.77.63,1.39,1.4,1.39s1.41-.62,1.41-1.39v-5.07c0-.77-.63-1.39-1.41-1.39s-1.4.62-1.4,1.39Z"/>
      <path class="st1" d="M156.09,27.65h-4.62l-4.09-7.57-2,2.17v5.4h-4.64V4.41h4.64v12.34l5.05-5.94h5.27l-5.55,6.14,5.95,10.7ZM48.49,26.48v1.17h4.64s0-23.23,0-23.23h-4.64v22.07ZM71.15,27.64h4.62s.01.01.01.01V10.73h-4.64v16.91ZM71.14,8.95h4.65v-4.54h-4.65v4.54ZM96.18,15.99c2.24,1.03,3.35,2.86,3.35,5.46,0,1.52-.35,2.79-1.06,3.82-.61.89-1.4,1.48-2.38,1.83-.98.33-2.43.51-4.35.51h-12.52V4.36h12.8c2.05,0,3.54.23,4.47.71,1.09.55,1.91,1.45,2.46,2.7.4.86.6,1.77.6,2.69,0,1.21-.33,2.33-.96,3.37-.63,1.05-1.44,1.77-2.41,2.17h0ZM94.11,20.6c0-.94-.33-1.64-1.01-2.08-.49-.31-1.3-.48-2.43-.48h-6.82v5.42h6.71c.71,0,1.22-.05,1.55-.12.33-.07.63-.23.91-.45.73-.55,1.08-1.32,1.08-2.3h0ZM94.11,11.06c0-.94-.33-1.64-1.01-2.07-.49-.32-1.3-.48-2.43-.48h-6.82v5.42h6.71c.71,0,1.22-.05,1.54-.12.33-.07.63-.23.93-.45.73-.55,1.08-1.32,1.08-2.3h0ZM118.63,18.11v9.54h-9.76c-1.74,0-2.95-.06-3.62-.15-.67-.1-1.25-.32-1.76-.66-1.37-.93-2.06-2.32-2.06-4.19,0-1.14.27-2.16.82-3.05.54-.89,1.26-1.49,2.15-1.81.79-.28,2.1-.43,3.94-.43h5.68c0-1.19-.24-1.99-.72-2.4-.48-.41-1.41-.62-2.81-.62h-7.83v-3.61h7.83c1.4,0,2.36.02,2.9.07.53.05,1.07.16,1.61.33,2.56.97,3.77,3.3,3.65,6.97h0ZM114,20.98h-5.36l-.78-.02c-.53,0-.95.14-1.26.43-.31.28-.46.66-.46,1.14,0,.56.19.94.57,1.17.38.23,1.02.34,1.93.34h5.36v-3.06ZM133.84,11.01c-.71-.19-1.73-.28-3.06-.28h-8.94v16.92h4.62s0-13.31,0-13.31h4.04c.84,0,1.45.19,1.82.55.37.38.56.98.56,1.81v10.95h4.62s0-10.42,0-10.42c0-2.35-.59-4.07-1.78-5.15-.56-.52-1.19-.87-1.9-1.07h0ZM40.6,10.73v13.32h-4.04c-.84,0-1.45-.19-1.82-.55-.37-.38-.56-.98-.56-1.81v-10.96h-4.62v10.43c0,2.35.59,4.07,1.78,5.15.56.52,1.19.87,1.9,1.07.71.19,1.73.28,3.06.28h8.94V10.73h-4.62ZM12.97,22.55L7.21,4.4H0v23.23l4.7.02V10.2l5.71,17.46h5.07l6.05-17.46v17.46h4.7V4.41h-7.19l-6.07,18.14h0ZM68.04,10.62h-4.27v-6.23h-4.59v6.23h-3.03v3.61h3.02v7.48c-.06,2.57.28,3.75,1.32,4.69,1.07.97,2.35,1.28,5.18,1.28h2.21v-3.61h-1.14c-2.27,0-2.97-.73-2.97-3.13v-6.7h4.27v-3.61h0Z"/>
    </g>
  </g>
  <g>
    <path class="st2" d="M172.6,8.24c-1.8,0-3.16.45-4.08,1.35-.92.9-1.42,2.28-1.52,4.14l13.78.02v4.12h-13.81c.01,2.06.45,3.54,1.31,4.45.86.9,2.3,1.35,4.32,1.35h9.61v4.23s-9.85-.11-9.85-.11c-1.86,0-3.32-.16-4.38-.48-1.06-.32-2.06-.85-3-1.6-1.21-.97-2.12-2.23-2.73-3.78-.61-1.55-.91-3.41-.91-5.57,0-4.19.91-7.28,2.72-9.27,1.81-1.99,4.63-2.99,8.44-2.99h9.71v4.12h-9.62Z"/>
    <path class="st2" d="M190.38,4.11v14.18c0,2.21.4,3.76,1.2,4.63.8.88,2.18,1.31,4.13,1.31s3.33-.43,4.12-1.3,1.19-2.42,1.19-4.64V4.11h4.98v14.31c0,1.68-.11,3.01-.33,4.01-.22,1-.57,1.79-1.05,2.37-.95,1.12-2.14,1.94-3.57,2.46-1.43.53-3.21.79-5.34.79s-3.91-.26-5.36-.79c-1.45-.53-2.64-1.35-3.58-2.46-.47-.57-.82-1.34-1.03-2.3s-.32-2.33-.32-4.08V4.11h4.96Z"/>
  </g>
</svg>