<svg width="277" height="40" viewBox="0 0 277 40" fill="none" xmlns="http://www.w3.org/2000/svg">
<g clip-path="url(#clip0_2465_127229)">
<path d="M274.188 1.39197C274.188 0.623456 274.817 0 275.592 0C276.368 0 277 0.623456 277 1.39197V9.33333C277 10.0957 276.371 10.7191 275.592 10.7191C274.813 10.7191 274.188 10.0957 274.188 9.33333V1.39197ZM270.134 4.5V12.4383C270.134 13.2068 270.763 13.8302 271.538 13.8302C272.314 13.8302 272.946 13.2068 272.946 12.4383V4.5C272.946 3.73148 272.317 3.11111 271.538 3.11111C270.759 3.11111 270.134 3.73457 270.134 4.5ZM266.074 1.39197V9.33333C266.074 10.0957 266.705 10.7191 267.484 10.7191C268.263 10.7191 268.892 10.0957 268.892 9.33333V1.39197C268.892 0.623456 268.26 0 267.484 0C266.708 0 266.074 0.623456 266.074 1.39197ZM262.02 5.97222V11.0463C262.02 11.8148 262.648 12.4352 263.424 12.4352C264.2 12.4352 264.832 11.8148 264.832 11.0463V5.97222C264.832 5.2037 264.203 4.58024 263.424 4.58024C262.645 4.58024 262.02 5.2037 262.02 5.97222Z" fill="white"/>
<path d="M172.104 4.40741C168.813 4.40741 166.424 5.0679 164.762 6.39506C162.441 8.27469 161.159 11.6914 161.159 16.1173C161.159 20.5432 162.441 23.9907 164.796 25.8395C166.495 27.2006 168.329 27.6512 171.895 27.6512H182.214V13.8518H170.856V17.9969H177.296V23.5031H172.864C170.613 23.5031 169.126 23.0494 168.225 22.1111C167.185 20.9938 166.562 18.5586 166.562 15.6636C166.562 10.5772 168.295 8.55556 172.693 8.55556H182.214V4.40741H172.101H172.104ZM185.428 10.7284V27.6512H190.056V14.3426H191.402C193.68 14.3426 194.373 15.0741 194.373 17.4691V18.3735H198.823V16.7037C198.823 14.1327 198.48 12.9506 197.443 12.0123C196.376 11.0401 195.097 10.7253 192.264 10.7253H185.428V10.7284ZM205.944 19.2778C205.944 15.8148 207.284 14.0864 210.035 14.0864C212.785 14.0864 214.23 15.7809 214.23 19.1389C214.23 22.4969 212.856 24.2963 210.136 24.2963C207.416 24.2963 205.944 22.5648 205.944 19.2778ZM201.23 19.1389C201.23 24.642 204.496 27.8611 209.998 27.8611C215.499 27.8611 218.937 24.608 218.937 19.3827C218.937 16.9599 218.317 15.0216 217.014 13.3611C215.567 11.4938 213.196 10.5247 210.17 10.5247C204.702 10.5247 201.23 13.8488 201.23 19.142M232.862 10.7315V24.0401H228.514C227.134 24.0401 226.303 23.1358 226.303 21.608V10.7315H221.678V21.1574C221.678 23.5185 222.264 25.1883 223.439 26.2994C224.61 27.3426 225.717 27.6543 228.407 27.6543H237.49V10.7315H232.862ZM245.322 14.3426H248.496C251.326 14.3426 252.912 16.0463 252.912 19.1018C252.912 22.4012 251.326 24.0339 248.152 24.0339H245.322V14.3426ZM240.701 10.7315V34H245.322V27.6451H249.394C252.191 27.6451 253.948 26.9846 255.433 25.4568C256.883 23.963 257.644 21.8796 257.644 19.4506C257.644 16.2222 256.607 13.7191 254.641 12.1914C253.228 11.0463 251.912 10.7315 248.775 10.7315H240.701Z" fill="white"/>
<path d="M156.087 27.6512H151.463L147.375 20.0833L145.372 22.2531V27.6512L140.736 27.6389V4.40741H145.372V16.7469L150.417 10.8056H155.688L150.138 16.9475L156.087 27.6512ZM48.4891 26.4753V27.642L53.1289 27.6543V4.40741H48.4891V26.4753ZM71.1544 27.642L75.7788 27.6543H75.7911V10.7284H71.1544V27.642ZM71.1421 8.94753H75.7911V4.40741H71.1421V8.94753ZM96.184 15.9938C98.4195 17.0216 99.5327 18.8488 99.5327 21.4537C99.5327 22.9753 99.1831 24.2469 98.4686 25.2716C97.8583 26.1574 97.0641 26.7562 96.092 27.1018C95.1076 27.4321 93.6663 27.608 91.7466 27.608H83.8654L79.2287 27.5957V4.3642H92.0287C94.0772 4.3642 95.5676 4.59876 96.4998 5.07099C97.5915 5.62346 98.4103 6.51852 98.9623 7.7716C99.361 8.62963 99.5603 9.53703 99.5603 10.4568C99.5603 11.6697 99.2322 12.7901 98.5974 13.8272C97.9626 14.8765 97.1561 15.5957 96.187 15.9938H96.184ZM94.1109 20.6049C94.1109 19.6605 93.7828 18.966 93.1051 18.5278C92.6114 18.213 91.8049 18.0463 90.6794 18.0463H83.8624V23.466H90.5721C91.2774 23.466 91.7956 23.4197 92.1207 23.3488C92.4488 23.2778 92.7524 23.1234 93.0346 22.8981C93.7613 22.3457 94.1109 21.5802 94.1109 20.6018V20.6049ZM94.1109 11.0556C94.1109 10.1111 93.7828 9.41975 93.1051 8.98148C92.6114 8.66358 91.8049 8.49691 90.6794 8.49691H83.8624V13.9197H90.5721C91.2774 13.9197 91.7957 13.8735 92.1084 13.8025C92.4366 13.7315 92.7402 13.5772 93.0346 13.3518C93.7613 12.7994 94.1109 12.0339 94.1109 11.0525V11.0556ZM118.628 18.1142V27.6512H108.867C107.123 27.6512 105.914 27.5957 105.243 27.4969C104.574 27.392 103.988 27.1728 103.479 26.8333C102.106 25.9043 101.419 24.5093 101.419 22.642C101.419 21.5 101.692 20.4846 102.24 19.5957C102.783 18.7068 103.504 18.108 104.393 17.7901C105.184 17.5062 106.491 17.3642 108.331 17.3642H114.007C114.007 16.179 113.768 15.3765 113.286 14.963C112.811 14.5525 111.873 14.3457 110.474 14.3457H102.642V10.7315H110.474C111.873 10.7315 112.836 10.7531 113.372 10.8056C113.906 10.858 114.446 10.966 114.985 11.1389C117.54 12.1111 118.757 14.4352 118.635 18.1111L118.628 18.1142ZM114.001 20.9815H108.644L107.868 20.966C107.337 20.966 106.917 21.108 106.607 21.392C106.301 21.6728 106.144 22.0525 106.144 22.5278C106.144 23.0833 106.331 23.4722 106.709 23.6975C107.089 23.9228 107.733 24.037 108.644 24.037H114.001V20.9815ZM133.842 11.0062C133.13 10.8179 132.112 10.7253 130.784 10.7253H121.848V27.6481L126.473 27.6543V14.3333H130.515C131.355 14.3333 131.965 14.5216 132.339 14.8858C132.71 15.2623 132.897 15.8611 132.897 16.6975V27.6481L137.522 27.6543V17.2253C137.522 14.8735 136.936 13.1574 135.746 12.0741C135.188 11.5556 134.553 11.2037 133.842 11.0031V11.0062ZM40.5957 10.7253V24.0463H36.5539C35.7136 24.0463 35.1034 23.858 34.7293 23.4938C34.3582 23.1173 34.1711 22.5185 34.1711 21.6821V10.7253H29.5467V21.1543C29.5467 23.5062 30.1324 25.2222 31.3223 26.3055C31.8804 26.8241 32.5152 27.1759 33.2266 27.3765C33.9381 27.5648 34.9562 27.6574 36.284 27.6574H45.2201V10.7315H40.5957V10.7253ZM12.9656 22.5463L7.20651 4.40432H0V27.6389L4.69803 27.6543V10.1975L10.408 27.6543H15.4741L21.5245 10.1975V27.6543H26.2225V4.40741H19.0344L12.9656 22.5494V22.5463ZM68.0418 10.6173L63.7761 10.608V4.38271L59.1885 4.39197V10.6173H56.1617V14.2253H59.1793L59.1731 21.7006C59.1149 24.2685 59.4553 25.4506 60.4948 26.3889C61.5651 27.3611 62.8408 27.6728 65.6713 27.6728H67.8792V24.0586H66.7384C64.4661 24.0586 63.77 23.3272 63.77 20.929V14.2253H68.0356V10.6173H68.0418Z" fill="url(#paint0_linear_2465_127229)"/>
</g>
<defs>
<linearGradient id="paint0_linear_2465_127229" x1="0.0030666" y1="16.0216" x2="156.087" y2="16.0216" gradientUnits="userSpaceOnUse">
<stop offset="0.25" stop-color="#467BFF"/>
<stop offset="1" stop-color="#75D9D9"/>
</linearGradient>
<clipPath id="clip0_2465_127229">
<rect width="276.63" height="40" fill="white"/>
</clipPath>
</defs>
</svg>
